<svg xmlns="http://www.w3.org/2000/svg" width="100" height="100" fill="currentColor" viewBox="0 0 100 100">
  <path fill-rule="evenodd" d="M44.839 14.749c2.324-3.92 7.998-3.92 10.322 0L94.59 81.244c1.818 3.066-.392 6.946-3.956 6.947H9.366c-3.565 0-5.774-3.88-3.956-6.947L44.84 14.75ZM50 66.691a5 5 0 1 0 .001 10.001 5 5 0 0 0-.001-10Zm0-31.5a5.554 5.554 0 0 0-5.536 5.983l1.4 18.028a3.783 3.783 0 0 0 3.77 3.49 3.884 3.884 0 0 0 3.862-3.482l1.882-18.05A5.407 5.407 0 0 0 50 35.19Z" clip-rule="evenodd"/>
</svg>
