<svg xmlns="http://www.w3.org/2000/svg" width="100" height="100" fill="none" viewBox="0 0 100 100">
  <path fill="#000" d="M50 66.69a5 5 0 1 1 0 10.002 5 5 0 0 1 0-10.001Zm0-31.5a5.407 5.407 0 0 1 5.378 5.968L53.496 59.21a3.884 3.884 0 0 1-3.862 3.482 3.782 3.782 0 0 1-3.77-3.49l-1.4-18.028A5.553 5.553 0 0 1 50 35.191Z"/>
  <path fill="#000" fill-rule="evenodd" d="M44.839 14.75c2.324-3.92 7.998-3.92 10.322 0L94.59 81.244c1.818 3.066-.392 6.946-3.956 6.946H9.366c-3.565 0-5.774-3.88-3.956-6.947L44.84 14.75Zm5.59 9.666a.5.5 0 0 0-.859 0l-32.032 54.02a.5.5 0 0 0 .43.755h64.063a.5.5 0 0 0 .43-.755L50.43 24.416Z" clip-rule="evenodd"/>
</svg>
