<svg viewBox="0 0 128 64" xmlns="http://www.w3.org/2000/svg" shape-rendering="crispEdges">
  <g id="pixels">
    <rect x="3" y="3" width="3" height="1" fill="var(--foreground)" shape-rendering="crispEdges" />
    <rect x="3" y="4" width="1" height="3" fill="var(--foreground)" shape-rendering="crispEdges" />
    <rect x="3" y="7" width="3" height="1" fill="var(--foreground)" shape-rendering="crispEdges" />
    <rect x="3" y="11" width="34" height="1" fill="var(--foreground)" shape-rendering="crispEdges" />
    <rect x="3" y="46" width="2" height="5" fill="var(--foreground)" shape-rendering="crispEdges" />
    <rect x="3" y="51" width="9" height="1" fill="var(--foreground)" shape-rendering="crispEdges" />
    <rect x="4" y="44" width="2" height="2" fill="var(--foreground)" shape-rendering="crispEdges" />
    <rect x="4" y="52" width="9" height="2" fill="var(--foreground)" shape-rendering="crispEdges" />
    <rect x="5" y="4" width="1" height="1" fill="var(--foreground)" shape-rendering="crispEdges" />
    <rect x="5" y="6" width="1" height="1" fill="var(--foreground)" shape-rendering="crispEdges" />
    <rect x="5" y="42" width="3" height="1" fill="var(--foreground)" shape-rendering="crispEdges" />
    <rect x="5" y="43" width="2" height="1" fill="var(--foreground)" shape-rendering="crispEdges" />
    <rect x="5" y="54" width="9" height="1" fill="var(--foreground)" shape-rendering="crispEdges" />
    <rect x="5" y="55" width="19" height="1" fill="var(--foreground)" shape-rendering="crispEdges" />
    <rect x="6" y="41" width="3" height="1" fill="var(--foreground)" shape-rendering="crispEdges" />
    <rect x="6" y="56" width="6" height="1" fill="var(--foreground)" shape-rendering="crispEdges" />
    <rect x="7" y="3" width="1" height="4" fill="var(--foreground)" shape-rendering="crispEdges" />
    <rect x="7" y="7" width="2" height="1" fill="var(--foreground)" shape-rendering="crispEdges" />
    <rect x="7" y="40" width="4" height="1" fill="var(--foreground)" shape-rendering="crispEdges" />
    <rect x="7" y="46" width="1" height="1" fill="var(--foreground)" shape-rendering="crispEdges" />
    <rect x="7" y="57" width="15" height="1" fill="var(--foreground)" shape-rendering="crispEdges" />
    <rect x="8" y="44" width="1" height="1" fill="var(--foreground)" shape-rendering="crispEdges" />
    <rect x="8" y="47" width="1" height="1" fill="var(--foreground)" shape-rendering="crispEdges" />
    <rect x="9" y="3" width="1" height="4" fill="var(--foreground)" shape-rendering="crispEdges" />
    <rect x="9" y="39" width="11" height="1" fill="var(--foreground)" shape-rendering="crispEdges" />
    <rect x="9" y="46" width="1" height="1" fill="var(--foreground)" shape-rendering="crispEdges" />
    <rect x="9" y="48" width="1" height="1" fill="var(--foreground)" shape-rendering="crispEdges" />
    <rect x="9" y="50" width="11" height="1" fill="var(--foreground)" shape-rendering="crispEdges" />
    <rect x="9" y="58" width="11" height="1" fill="var(--foreground)" shape-rendering="crispEdges" />
    <rect x="10" y="43" width="1" height="1" fill="var(--foreground)" shape-rendering="crispEdges" />
    <rect x="10" y="45" width="2" height="1" fill="var(--foreground)" shape-rendering="crispEdges" />
    <rect x="10" y="49" width="9" height="1" fill="var(--foreground)" shape-rendering="crispEdges" />
    <rect x="11" y="38" width="7" height="1" fill="var(--foreground)" shape-rendering="crispEdges" />
    <rect x="11" y="59" width="7" height="1" fill="var(--foreground)" shape-rendering="crispEdges" />
    <rect x="12" y="42" width="1" height="1" fill="var(--foreground)" shape-rendering="crispEdges" />
    <rect x="12" y="44" width="5" height="1" fill="var(--foreground)" shape-rendering="crispEdges" />
    <rect x="12" y="48" width="5" height="1" fill="var(--foreground)" shape-rendering="crispEdges" />
    <rect x="13" y="51" width="3" height="1" fill="var(--foreground)" shape-rendering="crispEdges" />
    <rect x="14" y="3" width="3" height="1" fill="var(--foreground)" shape-rendering="crispEdges" />
    <rect x="14" y="42" width="1" height="1" fill="var(--foreground)" shape-rendering="crispEdges" />
    <rect x="14" y="52" width="1" height="2" fill="var(--foreground)" shape-rendering="crispEdges" />
    <rect x="15" y="4" width="1" height="4" fill="var(--foreground)" shape-rendering="crispEdges" />
    <rect x="15" y="54" width="9" height="1" fill="var(--foreground)" shape-rendering="crispEdges" />
    <rect x="16" y="42" width="1" height="1" fill="var(--foreground)" shape-rendering="crispEdges" />
    <rect x="16" y="52" width="9" height="2" fill="var(--foreground)" shape-rendering="crispEdges" />
    <rect x="17" y="45" width="2" height="1" fill="var(--foreground)" shape-rendering="crispEdges" />
    <rect x="17" y="51" width="9" height="1" fill="var(--foreground)" shape-rendering="crispEdges" />
    <rect x="17" y="56" width="6" height="1" fill="var(--foreground)" shape-rendering="crispEdges" />
    <rect x="18" y="3" width="3" height="1" fill="var(--foreground)" shape-rendering="crispEdges" />
    <rect x="18" y="4" width="1" height="1" fill="var(--foreground)" shape-rendering="crispEdges" />
    <rect x="18" y="5" width="2" height="1" fill="var(--foreground)" shape-rendering="crispEdges" />
    <rect x="18" y="6" width="1" height="2" fill="var(--foreground)" shape-rendering="crispEdges" />
    <rect x="18" y="40" width="4" height="1" fill="var(--foreground)" shape-rendering="crispEdges" />
    <rect x="18" y="43" width="1" height="1" fill="var(--foreground)" shape-rendering="crispEdges" />
    <rect x="19" y="46" width="1" height="1" fill="var(--foreground)" shape-rendering="crispEdges" />
    <rect x="20" y="4" width="1" height="1" fill="var(--foreground)" shape-rendering="crispEdges" />
    <rect x="20" y="6" width="1" height="2" fill="var(--foreground)" shape-rendering="crispEdges" />
    <rect x="20" y="41" width="3" height="1" fill="var(--foreground)" shape-rendering="crispEdges" />
    <rect x="20" y="44" width="1" height="1" fill="var(--foreground)" shape-rendering="crispEdges" />
    <rect x="21" y="42" width="3" height="1" fill="var(--foreground)" shape-rendering="crispEdges" />
    <rect x="22" y="3" width="3" height="1" fill="var(--foreground)" shape-rendering="crispEdges" />
    <rect x="22" y="7" width="3" height="1" fill="var(--foreground)" shape-rendering="crispEdges" />
    <rect x="22" y="43" width="2" height="1" fill="var(--foreground)" shape-rendering="crispEdges" />
    <rect x="23" y="4" width="1" height="3" fill="var(--foreground)" shape-rendering="crispEdges" />
    <rect x="23" y="44" width="2" height="2" fill="var(--foreground)" shape-rendering="crispEdges" />
    <rect x="24" y="46" width="2" height="5" fill="var(--foreground)" shape-rendering="crispEdges" />
    <rect x="26" y="3" width="1" height="1" fill="var(--foreground)" shape-rendering="crispEdges" />
    <rect x="26" y="4" width="3" height="1" fill="var(--foreground)" shape-rendering="crispEdges" />
    <rect x="26" y="5" width="1" height="3" fill="var(--foreground)" shape-rendering="crispEdges" />
    <rect x="28" y="3" width="1" height="1" fill="var(--foreground)" shape-rendering="crispEdges" />
    <rect x="28" y="5" width="1" height="3" fill="var(--foreground)" shape-rendering="crispEdges" />
    <rect x="39" y="1" width="82" height="2" fill="var(--foreground)" shape-rendering="crispEdges" />
    <rect x="39" y="3" width="3" height="5" fill="var(--foreground)" shape-rendering="crispEdges" />
    <rect x="39" y="8" width="82" height="2" fill="var(--foreground)" shape-rendering="crispEdges" />
    <rect x="40" y="0" width="80" height="1" fill="var(--foreground)" shape-rendering="crispEdges" />
    <rect x="40" y="10" width="80" height="1" fill="var(--foreground)" shape-rendering="crispEdges" />
    <rect x="42" y="16" width="3" height="1" fill="var(--foreground)" shape-rendering="crispEdges" />
    <rect x="42" y="17" width="1" height="3" fill="var(--foreground)" shape-rendering="crispEdges" />
    <rect x="42" y="20" width="3" height="1" fill="var(--foreground)" shape-rendering="crispEdges" />
    <rect x="42" y="29" width="3" height="1" fill="var(--foreground)" shape-rendering="crispEdges" />
    <rect x="42" y="30" width="1" height="3" fill="var(--foreground)" shape-rendering="crispEdges" />
    <rect x="42" y="33" width="3" height="1" fill="var(--foreground)" shape-rendering="crispEdges" />
    <rect x="42" y="42" width="3" height="1" fill="var(--foreground)" shape-rendering="crispEdges" />
    <rect x="42" y="43" width="1" height="3" fill="var(--foreground)" shape-rendering="crispEdges" />
    <rect x="42" y="46" width="3" height="1" fill="var(--foreground)" shape-rendering="crispEdges" />
    <rect x="42" y="55" width="3" height="1" fill="var(--foreground)" shape-rendering="crispEdges" />
    <rect x="42" y="56" width="1" height="3" fill="var(--foreground)" shape-rendering="crispEdges" />
    <rect x="42" y="59" width="3" height="1" fill="var(--foreground)" shape-rendering="crispEdges" />
    <rect x="43" y="4" width="1" height="1" fill="var(--foreground)" shape-rendering="crispEdges" />
    <rect x="43" y="5" width="3" height="1" fill="var(--foreground)" shape-rendering="crispEdges" />
    <rect x="43" y="6" width="1" height="1" fill="var(--foreground)" shape-rendering="crispEdges" />
    <rect x="44" y="17" width="1" height="1" fill="var(--foreground)" shape-rendering="crispEdges" />
    <rect x="44" y="19" width="1" height="1" fill="var(--foreground)" shape-rendering="crispEdges" />
    <rect x="44" y="30" width="1" height="1" fill="var(--foreground)" shape-rendering="crispEdges" />
    <rect x="44" y="32" width="1" height="1" fill="var(--foreground)" shape-rendering="crispEdges" />
    <rect x="44" y="43" width="1" height="1" fill="var(--foreground)" shape-rendering="crispEdges" />
    <rect x="44" y="45" width="1" height="1" fill="var(--foreground)" shape-rendering="crispEdges" />
    <rect x="44" y="56" width="1" height="1" fill="var(--foreground)" shape-rendering="crispEdges" />
    <rect x="44" y="58" width="1" height="1" fill="var(--foreground)" shape-rendering="crispEdges" />
    <rect x="45" y="3" width="1" height="2" fill="var(--foreground)" shape-rendering="crispEdges" />
    <rect x="45" y="6" width="1" height="2" fill="var(--foreground)" shape-rendering="crispEdges" />
    <rect x="46" y="16" width="1" height="1" fill="var(--foreground)" shape-rendering="crispEdges" />
    <rect x="46" y="17" width="3" height="1" fill="var(--foreground)" shape-rendering="crispEdges" />
    <rect x="46" y="18" width="1" height="3" fill="var(--foreground)" shape-rendering="crispEdges" />
    <rect x="46" y="29" width="1" height="1" fill="var(--foreground)" shape-rendering="crispEdges" />
    <rect x="46" y="30" width="3" height="1" fill="var(--foreground)" shape-rendering="crispEdges" />
    <rect x="46" y="31" width="1" height="3" fill="var(--foreground)" shape-rendering="crispEdges" />
    <rect x="46" y="42" width="1" height="1" fill="var(--foreground)" shape-rendering="crispEdges" />
    <rect x="46" y="43" width="3" height="1" fill="var(--foreground)" shape-rendering="crispEdges" />
    <rect x="46" y="44" width="1" height="3" fill="var(--foreground)" shape-rendering="crispEdges" />
    <rect x="46" y="55" width="1" height="1" fill="var(--foreground)" shape-rendering="crispEdges" />
    <rect x="46" y="56" width="3" height="1" fill="var(--foreground)" shape-rendering="crispEdges" />
    <rect x="46" y="57" width="1" height="3" fill="var(--foreground)" shape-rendering="crispEdges" />
    <rect x="47" y="3" width="5" height="1" fill="var(--foreground)" shape-rendering="crispEdges" />
    <rect x="47" y="5" width="1" height="3" fill="var(--foreground)" shape-rendering="crispEdges" />
    <rect x="48" y="18" width="1" height="3" fill="var(--foreground)" shape-rendering="crispEdges" />
    <rect x="48" y="31" width="1" height="3" fill="var(--foreground)" shape-rendering="crispEdges" />
    <rect x="48" y="44" width="1" height="3" fill="var(--foreground)" shape-rendering="crispEdges" />
    <rect x="48" y="57" width="1" height="3" fill="var(--foreground)" shape-rendering="crispEdges" />
    <rect x="49" y="4" width="3" height="3" fill="var(--foreground)" shape-rendering="crispEdges" />
    <rect x="49" y="7" width="1" height="1" fill="var(--foreground)" shape-rendering="crispEdges" />
    <rect x="50" y="20" width="1" height="1" fill="var(--foreground)" shape-rendering="crispEdges" />
    <rect x="50" y="33" width="1" height="1" fill="var(--foreground)" shape-rendering="crispEdges" />
    <rect x="50" y="46" width="1" height="1" fill="var(--foreground)" shape-rendering="crispEdges" />
    <rect x="50" y="59" width="1" height="1" fill="var(--foreground)" shape-rendering="crispEdges" />
    <rect x="51" y="7" width="1" height="1" fill="var(--foreground)" shape-rendering="crispEdges" />
    <rect x="52" y="16" width="3" height="1" fill="var(--foreground)" shape-rendering="crispEdges" />
    <rect x="52" y="17" width="1" height="1" fill="var(--foreground)" shape-rendering="crispEdges" />
    <rect x="52" y="18" width="3" height="1" fill="var(--foreground)" shape-rendering="crispEdges" />
    <rect x="52" y="19" width="1" height="2" fill="var(--foreground)" shape-rendering="crispEdges" />
    <rect x="52" y="29" width="3" height="1" fill="var(--foreground)" shape-rendering="crispEdges" />
    <rect x="52" y="30" width="1" height="1" fill="var(--foreground)" shape-rendering="crispEdges" />
    <rect x="52" y="31" width="3" height="1" fill="var(--foreground)" shape-rendering="crispEdges" />
    <rect x="52" y="32" width="1" height="2" fill="var(--foreground)" shape-rendering="crispEdges" />
    <rect x="52" y="42" width="2" height="1" fill="var(--foreground)" shape-rendering="crispEdges" />
    <rect x="52" y="43" width="1" height="1" fill="var(--foreground)" shape-rendering="crispEdges" />
    <rect x="52" y="44" width="2" height="1" fill="var(--foreground)" shape-rendering="crispEdges" />
    <rect x="52" y="45" width="1" height="1" fill="var(--foreground)" shape-rendering="crispEdges" />
    <rect x="52" y="46" width="2" height="1" fill="var(--foreground)" shape-rendering="crispEdges" />
    <rect x="52" y="55" width="2" height="1" fill="var(--foreground)" shape-rendering="crispEdges" />
    <rect x="52" y="56" width="1" height="1" fill="var(--foreground)" shape-rendering="crispEdges" />
    <rect x="52" y="57" width="2" height="1" fill="var(--foreground)" shape-rendering="crispEdges" />
    <rect x="52" y="58" width="1" height="1" fill="var(--foreground)" shape-rendering="crispEdges" />
    <rect x="52" y="59" width="2" height="1" fill="var(--foreground)" shape-rendering="crispEdges" />
    <rect x="53" y="4" width="1" height="1" fill="var(--foreground)" shape-rendering="crispEdges" />
    <rect x="53" y="6" width="1" height="2" fill="var(--foreground)" shape-rendering="crispEdges" />
    <rect x="54" y="17" width="1" height="1" fill="var(--foreground)" shape-rendering="crispEdges" />
    <rect x="54" y="19" width="1" height="2" fill="var(--foreground)" shape-rendering="crispEdges" />
    <rect x="54" y="30" width="1" height="1" fill="var(--foreground)" shape-rendering="crispEdges" />
    <rect x="54" y="32" width="1" height="2" fill="var(--foreground)" shape-rendering="crispEdges" />
    <rect x="54" y="43" width="1" height="1" fill="var(--foreground)" shape-rendering="crispEdges" />
    <rect x="54" y="45" width="1" height="1" fill="var(--foreground)" shape-rendering="crispEdges" />
    <rect x="54" y="56" width="1" height="1" fill="var(--foreground)" shape-rendering="crispEdges" />
    <rect x="54" y="58" width="1" height="1" fill="var(--foreground)" shape-rendering="crispEdges" />
    <rect x="55" y="3" width="5" height="1" fill="var(--foreground)" shape-rendering="crispEdges" />
    <rect x="55" y="4" width="4" height="3" fill="var(--foreground)" shape-rendering="crispEdges" />
    <rect x="55" y="7" width="5" height="1" fill="var(--foreground)" shape-rendering="crispEdges" />
    <rect x="59" y="17" width="1" height="3" fill="var(--foreground)" shape-rendering="crispEdges" />
    <rect x="59" y="30" width="1" height="3" fill="var(--foreground)" shape-rendering="crispEdges" />
    <rect x="59" y="43" width="1" height="3" fill="var(--foreground)" shape-rendering="crispEdges" />
    <rect x="59" y="56" width="1" height="3" fill="var(--foreground)" shape-rendering="crispEdges" />
    <rect x="60" y="4" width="3" height="3" fill="var(--foreground)" shape-rendering="crispEdges" />
    <rect x="60" y="16" width="1" height="1" fill="var(--foreground)" shape-rendering="crispEdges" />
    <rect x="60" y="20" width="1" height="1" fill="var(--foreground)" shape-rendering="crispEdges" />
    <rect x="60" y="29" width="1" height="1" fill="var(--foreground)" shape-rendering="crispEdges" />
    <rect x="60" y="33" width="1" height="1" fill="var(--foreground)" shape-rendering="crispEdges" />
    <rect x="60" y="42" width="1" height="1" fill="var(--foreground)" shape-rendering="crispEdges" />
    <rect x="60" y="46" width="1" height="1" fill="var(--foreground)" shape-rendering="crispEdges" />
    <rect x="60" y="55" width="1" height="1" fill="var(--foreground)" shape-rendering="crispEdges" />
    <rect x="60" y="59" width="1" height="1" fill="var(--foreground)" shape-rendering="crispEdges" />
    <rect x="61" y="3" width="1" height="1" fill="var(--foreground)" shape-rendering="crispEdges" />
    <rect x="61" y="7" width="2" height="1" fill="var(--foreground)" shape-rendering="crispEdges" />
    <rect x="62" y="16" width="3" height="1" fill="var(--foreground)" shape-rendering="crispEdges" />
    <rect x="62" y="29" width="3" height="1" fill="var(--foreground)" shape-rendering="crispEdges" />
    <rect x="62" y="42" width="3" height="1" fill="var(--foreground)" shape-rendering="crispEdges" />
    <rect x="62" y="43" width="1" height="1" fill="var(--foreground)" shape-rendering="crispEdges" />
    <rect x="62" y="44" width="2" height="1" fill="var(--foreground)" shape-rendering="crispEdges" />
    <rect x="62" y="45" width="1" height="2" fill="var(--foreground)" shape-rendering="crispEdges" />
    <rect x="62" y="55" width="3" height="1" fill="var(--foreground)" shape-rendering="crispEdges" />
    <rect x="62" y="56" width="1" height="1" fill="var(--foreground)" shape-rendering="crispEdges" />
    <rect x="62" y="57" width="2" height="1" fill="var(--foreground)" shape-rendering="crispEdges" />
    <rect x="62" y="58" width="1" height="2" fill="var(--foreground)" shape-rendering="crispEdges" />
    <rect x="63" y="17" width="1" height="4" fill="var(--foreground)" shape-rendering="crispEdges" />
    <rect x="63" y="30" width="1" height="4" fill="var(--foreground)" shape-rendering="crispEdges" />
    <rect x="64" y="4" width="3" height="3" fill="var(--foreground)" shape-rendering="crispEdges" />
    <rect x="64" y="7" width="2" height="1" fill="var(--foreground)" shape-rendering="crispEdges" />
    <rect x="64" y="43" width="1" height="1" fill="var(--foreground)" shape-rendering="crispEdges" />
    <rect x="64" y="45" width="1" height="2" fill="var(--foreground)" shape-rendering="crispEdges" />
    <rect x="64" y="56" width="1" height="1" fill="var(--foreground)" shape-rendering="crispEdges" />
    <rect x="64" y="58" width="1" height="2" fill="var(--foreground)" shape-rendering="crispEdges" />
    <rect x="65" y="3" width="1" height="1" fill="var(--foreground)" shape-rendering="crispEdges" />
    <rect x="66" y="16" width="1" height="1" fill="var(--foreground)" shape-rendering="crispEdges" />
    <rect x="66" y="20" width="1" height="1" fill="var(--foreground)" shape-rendering="crispEdges" />
    <rect x="66" y="29" width="1" height="1" fill="var(--foreground)" shape-rendering="crispEdges" />
    <rect x="66" y="33" width="1" height="1" fill="var(--foreground)" shape-rendering="crispEdges" />
    <rect x="66" y="42" width="1" height="1" fill="var(--foreground)" shape-rendering="crispEdges" />
    <rect x="66" y="46" width="1" height="1" fill="var(--foreground)" shape-rendering="crispEdges" />
    <rect x="66" y="55" width="1" height="1" fill="var(--foreground)" shape-rendering="crispEdges" />
    <rect x="66" y="59" width="1" height="1" fill="var(--foreground)" shape-rendering="crispEdges" />
    <rect x="67" y="3" width="5" height="1" fill="var(--foreground)" shape-rendering="crispEdges" />
    <rect x="67" y="7" width="5" height="1" fill="var(--foreground)" shape-rendering="crispEdges" />
    <rect x="67" y="17" width="1" height="3" fill="var(--foreground)" shape-rendering="crispEdges" />
    <rect x="67" y="30" width="1" height="3" fill="var(--foreground)" shape-rendering="crispEdges" />
    <rect x="67" y="43" width="1" height="3" fill="var(--foreground)" shape-rendering="crispEdges" />
    <rect x="67" y="56" width="1" height="3" fill="var(--foreground)" shape-rendering="crispEdges" />
    <rect x="68" y="4" width="4" height="3" fill="var(--foreground)" shape-rendering="crispEdges" />
    <rect x="72" y="16" width="3" height="1" fill="var(--foreground)" shape-rendering="crispEdges" />
    <rect x="72" y="17" width="1" height="1" fill="var(--foreground)" shape-rendering="crispEdges" />
    <rect x="72" y="18" width="3" height="1" fill="var(--foreground)" shape-rendering="crispEdges" />
    <rect x="72" y="19" width="1" height="1" fill="var(--foreground)" shape-rendering="crispEdges" />
    <rect x="72" y="20" width="3" height="1" fill="var(--foreground)" shape-rendering="crispEdges" />
    <rect x="72" y="29" width="3" height="1" fill="var(--foreground)" shape-rendering="crispEdges" />
    <rect x="72" y="30" width="1" height="1" fill="var(--foreground)" shape-rendering="crispEdges" />
    <rect x="72" y="31" width="3" height="1" fill="var(--foreground)" shape-rendering="crispEdges" />
    <rect x="72" y="32" width="1" height="1" fill="var(--foreground)" shape-rendering="crispEdges" />
    <rect x="72" y="33" width="3" height="1" fill="var(--foreground)" shape-rendering="crispEdges" />
    <rect x="72" y="42" width="3" height="1" fill="var(--foreground)" shape-rendering="crispEdges" />
    <rect x="72" y="43" width="1" height="3" fill="var(--foreground)" shape-rendering="crispEdges" />
    <rect x="72" y="46" width="3" height="1" fill="var(--foreground)" shape-rendering="crispEdges" />
    <rect x="72" y="55" width="3" height="1" fill="var(--foreground)" shape-rendering="crispEdges" />
    <rect x="72" y="56" width="1" height="1" fill="var(--foreground)" shape-rendering="crispEdges" />
    <rect x="72" y="57" width="3" height="1" fill="var(--foreground)" shape-rendering="crispEdges" />
    <rect x="72" y="58" width="1" height="1" fill="var(--foreground)" shape-rendering="crispEdges" />
    <rect x="72" y="59" width="3" height="1" fill="var(--foreground)" shape-rendering="crispEdges" />
    <rect x="73" y="4" width="1" height="3" fill="var(--foreground)" shape-rendering="crispEdges" />
    <rect x="74" y="17" width="1" height="1" fill="var(--foreground)" shape-rendering="crispEdges" />
    <rect x="74" y="19" width="1" height="1" fill="var(--foreground)" shape-rendering="crispEdges" />
    <rect x="74" y="30" width="1" height="1" fill="var(--foreground)" shape-rendering="crispEdges" />
    <rect x="74" y="32" width="1" height="1" fill="var(--foreground)" shape-rendering="crispEdges" />
    <rect x="74" y="43" width="1" height="3" fill="var(--foreground)" shape-rendering="crispEdges" />
    <rect x="74" y="56" width="1" height="1" fill="var(--foreground)" shape-rendering="crispEdges" />
    <rect x="74" y="58" width="1" height="1" fill="var(--foreground)" shape-rendering="crispEdges" />
    <rect x="75" y="3" width="3" height="4" fill="var(--foreground)" shape-rendering="crispEdges" />
    <rect x="75" y="7" width="1" height="1" fill="var(--foreground)" shape-rendering="crispEdges" />
    <rect x="76" y="20" width="1" height="1" fill="var(--foreground)" shape-rendering="crispEdges" />
    <rect x="76" y="33" width="1" height="1" fill="var(--foreground)" shape-rendering="crispEdges" />
    <rect x="76" y="46" width="1" height="1" fill="var(--foreground)" shape-rendering="crispEdges" />
    <rect x="76" y="59" width="1" height="1" fill="var(--foreground)" shape-rendering="crispEdges" />
    <rect x="77" y="7" width="1" height="1" fill="var(--foreground)" shape-rendering="crispEdges" />
    <rect x="78" y="16" width="3" height="1" fill="var(--foreground)" shape-rendering="crispEdges" />
    <rect x="78" y="17" width="1" height="3" fill="var(--foreground)" shape-rendering="crispEdges" />
    <rect x="78" y="20" width="3" height="1" fill="var(--foreground)" shape-rendering="crispEdges" />
    <rect x="78" y="29" width="3" height="1" fill="var(--foreground)" shape-rendering="crispEdges" />
    <rect x="78" y="30" width="1" height="3" fill="var(--foreground)" shape-rendering="crispEdges" />
    <rect x="78" y="33" width="3" height="1" fill="var(--foreground)" shape-rendering="crispEdges" />
    <rect x="78" y="42" width="3" height="1" fill="var(--foreground)" shape-rendering="crispEdges" />
    <rect x="78" y="43" width="1" height="3" fill="var(--foreground)" shape-rendering="crispEdges" />
    <rect x="78" y="46" width="3" height="1" fill="var(--foreground)" shape-rendering="crispEdges" />
    <rect x="78" y="55" width="3" height="1" fill="var(--foreground)" shape-rendering="crispEdges" />
    <rect x="78" y="56" width="1" height="3" fill="var(--foreground)" shape-rendering="crispEdges" />
    <rect x="78" y="59" width="3" height="1" fill="var(--foreground)" shape-rendering="crispEdges" />
    <rect x="79" y="4" width="1" height="3" fill="var(--foreground)" shape-rendering="crispEdges" />
    <rect x="80" y="17" width="1" height="3" fill="var(--foreground)" shape-rendering="crispEdges" />
    <rect x="80" y="30" width="1" height="3" fill="var(--foreground)" shape-rendering="crispEdges" />
    <rect x="80" y="43" width="1" height="3" fill="var(--foreground)" shape-rendering="crispEdges" />
    <rect x="80" y="56" width="1" height="3" fill="var(--foreground)" shape-rendering="crispEdges" />
    <rect x="81" y="3" width="4" height="5" fill="var(--foreground)" shape-rendering="crispEdges" />
    <rect x="85" y="16" width="1" height="4" fill="var(--foreground)" shape-rendering="crispEdges" />
    <rect x="85" y="20" width="2" height="1" fill="var(--foreground)" shape-rendering="crispEdges" />
    <rect x="85" y="29" width="1" height="4" fill="var(--foreground)" shape-rendering="crispEdges" />
    <rect x="85" y="33" width="2" height="1" fill="var(--foreground)" shape-rendering="crispEdges" />
    <rect x="85" y="42" width="1" height="4" fill="var(--foreground)" shape-rendering="crispEdges" />
    <rect x="85" y="46" width="2" height="1" fill="var(--foreground)" shape-rendering="crispEdges" />
    <rect x="85" y="55" width="1" height="4" fill="var(--foreground)" shape-rendering="crispEdges" />
    <rect x="85" y="59" width="2" height="1" fill="var(--foreground)" shape-rendering="crispEdges" />
    <rect x="86" y="3" width="1" height="4" fill="var(--foreground)" shape-rendering="crispEdges" />
    <rect x="87" y="7" width="25" height="1" fill="var(--foreground)" shape-rendering="crispEdges" />
    <rect x="87" y="16" width="1" height="4" fill="var(--foreground)" shape-rendering="crispEdges" />
    <rect x="87" y="29" width="1" height="4" fill="var(--foreground)" shape-rendering="crispEdges" />
    <rect x="87" y="42" width="1" height="4" fill="var(--foreground)" shape-rendering="crispEdges" />
    <rect x="87" y="55" width="1" height="4" fill="var(--foreground)" shape-rendering="crispEdges" />
    <rect x="88" y="3" width="25" height="1" fill="var(--foreground)" shape-rendering="crispEdges" />
    <rect x="88" y="4" width="24" height="1" fill="var(--foreground)" shape-rendering="crispEdges" />
    <rect x="88" y="5" width="25" height="1" fill="var(--foreground)" shape-rendering="crispEdges" />
    <rect x="88" y="6" width="28" height="1" fill="var(--foreground)" shape-rendering="crispEdges" />
    <rect x="92" y="17" width="1" height="3" fill="var(--foreground)" shape-rendering="crispEdges" />
    <rect x="92" y="30" width="1" height="3" fill="var(--foreground)" shape-rendering="crispEdges" />
    <rect x="92" y="56" width="1" height="3" fill="var(--foreground)" shape-rendering="crispEdges" />
    <rect x="93" y="16" width="1" height="1" fill="var(--foreground)" shape-rendering="crispEdges" />
    <rect x="93" y="20" width="1" height="1" fill="var(--foreground)" shape-rendering="crispEdges" />
    <rect x="93" y="29" width="1" height="1" fill="var(--foreground)" shape-rendering="crispEdges" />
    <rect x="93" y="33" width="1" height="1" fill="var(--foreground)" shape-rendering="crispEdges" />
    <rect x="93" y="55" width="1" height="1" fill="var(--foreground)" shape-rendering="crispEdges" />
    <rect x="93" y="59" width="1" height="1" fill="var(--foreground)" shape-rendering="crispEdges" />
    <rect x="95" y="17" width="2" height="1" fill="var(--foreground)" shape-rendering="crispEdges" />
    <rect x="95" y="20" width="3" height="1" fill="var(--foreground)" shape-rendering="crispEdges" />
    <rect x="95" y="29" width="3" height="1" fill="var(--foreground)" shape-rendering="crispEdges" />
    <rect x="95" y="31" width="3" height="1" fill="var(--foreground)" shape-rendering="crispEdges" />
    <rect x="95" y="32" width="1" height="1" fill="var(--foreground)" shape-rendering="crispEdges" />
    <rect x="95" y="33" width="3" height="1" fill="var(--foreground)" shape-rendering="crispEdges" />
    <rect x="95" y="56" width="2" height="1" fill="var(--foreground)" shape-rendering="crispEdges" />
    <rect x="95" y="59" width="3" height="1" fill="var(--foreground)" shape-rendering="crispEdges" />
    <rect x="96" y="16" width="1" height="1" fill="var(--foreground)" shape-rendering="crispEdges" />
    <rect x="96" y="18" width="1" height="2" fill="var(--foreground)" shape-rendering="crispEdges" />
    <rect x="96" y="55" width="1" height="1" fill="var(--foreground)" shape-rendering="crispEdges" />
    <rect x="96" y="57" width="1" height="2" fill="var(--foreground)" shape-rendering="crispEdges" />
    <rect x="97" y="30" width="1" height="1" fill="var(--foreground)" shape-rendering="crispEdges" />
    <rect x="99" y="16" width="1" height="1" fill="var(--foreground)" shape-rendering="crispEdges" />
    <rect x="99" y="20" width="1" height="1" fill="var(--foreground)" shape-rendering="crispEdges" />
    <rect x="99" y="29" width="1" height="1" fill="var(--foreground)" shape-rendering="crispEdges" />
    <rect x="99" y="33" width="1" height="1" fill="var(--foreground)" shape-rendering="crispEdges" />
    <rect x="99" y="55" width="1" height="1" fill="var(--foreground)" shape-rendering="crispEdges" />
    <rect x="99" y="59" width="1" height="1" fill="var(--foreground)" shape-rendering="crispEdges" />
    <rect x="100" y="17" width="1" height="3" fill="var(--foreground)" shape-rendering="crispEdges" />
    <rect x="100" y="30" width="1" height="3" fill="var(--foreground)" shape-rendering="crispEdges" />
    <rect x="100" y="56" width="1" height="3" fill="var(--foreground)" shape-rendering="crispEdges" />
    <rect x="112" y="17" width="3" height="1" fill="var(--foreground)" shape-rendering="crispEdges" />
    <rect x="112" y="20" width="3" height="1" fill="var(--foreground)" shape-rendering="crispEdges" />
    <rect x="112" y="30" width="3" height="1" fill="var(--foreground)" shape-rendering="crispEdges" />
    <rect x="112" y="33" width="3" height="1" fill="var(--foreground)" shape-rendering="crispEdges" />
    <rect x="112" y="43" width="3" height="1" fill="var(--foreground)" shape-rendering="crispEdges" />
    <rect x="112" y="46" width="3" height="1" fill="var(--foreground)" shape-rendering="crispEdges" />
    <rect x="112" y="56" width="3" height="1" fill="var(--foreground)" shape-rendering="crispEdges" />
    <rect x="112" y="59" width="3" height="1" fill="var(--foreground)" shape-rendering="crispEdges" />
    <rect x="113" y="16" width="1" height="1" fill="var(--foreground)" shape-rendering="crispEdges" />
    <rect x="113" y="18" width="1" height="1" fill="var(--foreground)" shape-rendering="crispEdges" />
    <rect x="113" y="29" width="1" height="1" fill="var(--foreground)" shape-rendering="crispEdges" />
    <rect x="113" y="31" width="1" height="1" fill="var(--foreground)" shape-rendering="crispEdges" />
    <rect x="113" y="42" width="1" height="1" fill="var(--foreground)" shape-rendering="crispEdges" />
    <rect x="113" y="44" width="1" height="1" fill="var(--foreground)" shape-rendering="crispEdges" />
    <rect x="113" y="55" width="1" height="1" fill="var(--foreground)" shape-rendering="crispEdges" />
    <rect x="113" y="57" width="1" height="1" fill="var(--foreground)" shape-rendering="crispEdges" />
    <rect x="114" y="3" width="2" height="1" fill="var(--foreground)" shape-rendering="crispEdges" />
    <rect x="114" y="5" width="2" height="1" fill="var(--foreground)" shape-rendering="crispEdges" />
    <rect x="115" y="4" width="1" height="1" fill="var(--foreground)" shape-rendering="crispEdges" />
    <rect x="115" y="7" width="1" height="1" fill="var(--foreground)" shape-rendering="crispEdges" />
    <rect x="116" y="16" width="3" height="1" fill="var(--foreground)" shape-rendering="crispEdges" />
    <rect x="116" y="17" width="1" height="3" fill="var(--foreground)" shape-rendering="crispEdges" />
    <rect x="116" y="20" width="3" height="1" fill="var(--foreground)" shape-rendering="crispEdges" />
    <rect x="116" y="29" width="3" height="1" fill="var(--foreground)" shape-rendering="crispEdges" />
    <rect x="116" y="30" width="1" height="3" fill="var(--foreground)" shape-rendering="crispEdges" />
    <rect x="116" y="33" width="3" height="1" fill="var(--foreground)" shape-rendering="crispEdges" />
    <rect x="116" y="42" width="3" height="1" fill="var(--foreground)" shape-rendering="crispEdges" />
    <rect x="116" y="43" width="1" height="3" fill="var(--foreground)" shape-rendering="crispEdges" />
    <rect x="116" y="46" width="3" height="1" fill="var(--foreground)" shape-rendering="crispEdges" />
    <rect x="116" y="55" width="3" height="1" fill="var(--foreground)" shape-rendering="crispEdges" />
    <rect x="116" y="56" width="1" height="3" fill="var(--foreground)" shape-rendering="crispEdges" />
    <rect x="116" y="59" width="3" height="1" fill="var(--foreground)" shape-rendering="crispEdges" />
    <rect x="117" y="4" width="1" height="3" fill="var(--foreground)" shape-rendering="crispEdges" />
    <rect x="118" y="17" width="1" height="3" fill="var(--foreground)" shape-rendering="crispEdges" />
    <rect x="118" y="30" width="1" height="3" fill="var(--foreground)" shape-rendering="crispEdges" />
    <rect x="118" y="43" width="1" height="3" fill="var(--foreground)" shape-rendering="crispEdges" />
    <rect x="118" y="56" width="1" height="3" fill="var(--foreground)" shape-rendering="crispEdges" />
    <rect x="119" y="3" width="2" height="5" fill="var(--foreground)" shape-rendering="crispEdges" />
    <rect x="123" y="0" width="5" height="1" fill="var(--foreground)" shape-rendering="crispEdges" />
    <rect x="123" y="1" width="1" height="25" fill="var(--foreground)" shape-rendering="crispEdges" />
    <rect x="123" y="26" width="5" height="1" fill="var(--foreground)" shape-rendering="crispEdges" />
    <rect x="124" y="28" width="1" height="1" fill="var(--foreground)" shape-rendering="crispEdges" />
    <rect x="124" y="30" width="1" height="1" fill="var(--foreground)" shape-rendering="crispEdges" />
    <rect x="124" y="32" width="1" height="1" fill="var(--foreground)" shape-rendering="crispEdges" />
    <rect x="124" y="34" width="1" height="1" fill="var(--foreground)" shape-rendering="crispEdges" />
    <rect x="124" y="36" width="1" height="1" fill="var(--foreground)" shape-rendering="crispEdges" />
    <rect x="124" y="38" width="1" height="1" fill="var(--foreground)" shape-rendering="crispEdges" />
    <rect x="124" y="40" width="1" height="1" fill="var(--foreground)" shape-rendering="crispEdges" />
    <rect x="124" y="42" width="1" height="1" fill="var(--foreground)" shape-rendering="crispEdges" />
    <rect x="124" y="44" width="1" height="1" fill="var(--foreground)" shape-rendering="crispEdges" />
    <rect x="124" y="46" width="1" height="1" fill="var(--foreground)" shape-rendering="crispEdges" />
    <rect x="124" y="48" width="1" height="1" fill="var(--foreground)" shape-rendering="crispEdges" />
    <rect x="124" y="50" width="1" height="1" fill="var(--foreground)" shape-rendering="crispEdges" />
    <rect x="124" y="52" width="1" height="1" fill="var(--foreground)" shape-rendering="crispEdges" />
    <rect x="124" y="54" width="1" height="1" fill="var(--foreground)" shape-rendering="crispEdges" />
    <rect x="124" y="56" width="1" height="1" fill="var(--foreground)" shape-rendering="crispEdges" />
    <rect x="124" y="58" width="1" height="1" fill="var(--foreground)" shape-rendering="crispEdges" />
    <rect x="124" y="60" width="1" height="1" fill="var(--foreground)" shape-rendering="crispEdges" />
    <rect x="124" y="62" width="1" height="1" fill="var(--foreground)" shape-rendering="crispEdges" />
    <rect x="125" y="27" width="1" height="1" fill="var(--foreground)" shape-rendering="crispEdges" />
    <rect x="125" y="29" width="1" height="1" fill="var(--foreground)" shape-rendering="crispEdges" />
    <rect x="125" y="31" width="1" height="1" fill="var(--foreground)" shape-rendering="crispEdges" />
    <rect x="125" y="33" width="1" height="1" fill="var(--foreground)" shape-rendering="crispEdges" />
    <rect x="125" y="35" width="1" height="1" fill="var(--foreground)" shape-rendering="crispEdges" />
    <rect x="125" y="37" width="1" height="1" fill="var(--foreground)" shape-rendering="crispEdges" />
    <rect x="125" y="39" width="1" height="1" fill="var(--foreground)" shape-rendering="crispEdges" />
    <rect x="125" y="41" width="1" height="1" fill="var(--foreground)" shape-rendering="crispEdges" />
    <rect x="125" y="43" width="1" height="1" fill="var(--foreground)" shape-rendering="crispEdges" />
    <rect x="125" y="45" width="1" height="1" fill="var(--foreground)" shape-rendering="crispEdges" />
    <rect x="125" y="47" width="1" height="1" fill="var(--foreground)" shape-rendering="crispEdges" />
    <rect x="125" y="49" width="1" height="1" fill="var(--foreground)" shape-rendering="crispEdges" />
    <rect x="125" y="51" width="1" height="1" fill="var(--foreground)" shape-rendering="crispEdges" />
    <rect x="125" y="53" width="1" height="1" fill="var(--foreground)" shape-rendering="crispEdges" />
    <rect x="125" y="55" width="1" height="1" fill="var(--foreground)" shape-rendering="crispEdges" />
    <rect x="125" y="57" width="1" height="1" fill="var(--foreground)" shape-rendering="crispEdges" />
    <rect x="125" y="59" width="1" height="1" fill="var(--foreground)" shape-rendering="crispEdges" />
    <rect x="125" y="61" width="1" height="1" fill="var(--foreground)" shape-rendering="crispEdges" />
    <rect x="125" y="63" width="1" height="1" fill="var(--foreground)" shape-rendering="crispEdges" />
    <rect x="126" y="28" width="1" height="1" fill="var(--foreground)" shape-rendering="crispEdges" />
    <rect x="126" y="30" width="1" height="1" fill="var(--foreground)" shape-rendering="crispEdges" />
    <rect x="126" y="32" width="1" height="1" fill="var(--foreground)" shape-rendering="crispEdges" />
    <rect x="126" y="34" width="1" height="1" fill="var(--foreground)" shape-rendering="crispEdges" />
    <rect x="126" y="36" width="1" height="1" fill="var(--foreground)" shape-rendering="crispEdges" />
    <rect x="126" y="38" width="1" height="1" fill="var(--foreground)" shape-rendering="crispEdges" />
    <rect x="126" y="40" width="1" height="1" fill="var(--foreground)" shape-rendering="crispEdges" />
    <rect x="126" y="42" width="1" height="1" fill="var(--foreground)" shape-rendering="crispEdges" />
    <rect x="126" y="44" width="1" height="1" fill="var(--foreground)" shape-rendering="crispEdges" />
    <rect x="126" y="46" width="1" height="1" fill="var(--foreground)" shape-rendering="crispEdges" />
    <rect x="126" y="48" width="1" height="1" fill="var(--foreground)" shape-rendering="crispEdges" />
    <rect x="126" y="50" width="1" height="1" fill="var(--foreground)" shape-rendering="crispEdges" />
    <rect x="126" y="52" width="1" height="1" fill="var(--foreground)" shape-rendering="crispEdges" />
    <rect x="126" y="54" width="1" height="1" fill="var(--foreground)" shape-rendering="crispEdges" />
    <rect x="126" y="56" width="1" height="1" fill="var(--foreground)" shape-rendering="crispEdges" />
    <rect x="126" y="58" width="1" height="1" fill="var(--foreground)" shape-rendering="crispEdges" />
    <rect x="126" y="60" width="1" height="1" fill="var(--foreground)" shape-rendering="crispEdges" />
    <rect x="126" y="62" width="1" height="1" fill="var(--foreground)" shape-rendering="crispEdges" />
    <rect x="127" y="1" width="1" height="25" fill="var(--foreground)" shape-rendering="crispEdges" />
  </g>
</svg>