<svg viewBox="0 0 128 64" xmlns="http://www.w3.org/2000/svg" shape-rendering="crispEdges">
  <g id="pixels">
    <rect x="1" y="1" width="48" height="1" fill="var(--foreground)" shape-rendering="crispEdges" />
    <rect x="1" y="2" width="2" height="5" fill="var(--foreground)" shape-rendering="crispEdges" />
    <rect x="1" y="7" width="48" height="1" fill="var(--foreground)" shape-rendering="crispEdges" />
    <rect x="3" y="10" width="1" height="2" fill="var(--foreground)" shape-rendering="crispEdges" />
    <rect x="3" y="12" width="2" height="1" fill="var(--foreground)" shape-rendering="crispEdges" />
    <rect x="3" y="13" width="1" height="2" fill="var(--foreground)" shape-rendering="crispEdges" />
    <rect x="3" y="17" width="3" height="1" fill="var(--foreground)" shape-rendering="crispEdges" />
    <rect x="3" y="18" width="1" height="1" fill="var(--foreground)" shape-rendering="crispEdges" />
    <rect x="3" y="19" width="3" height="1" fill="var(--foreground)" shape-rendering="crispEdges" />
    <rect x="3" y="21" width="3" height="1" fill="var(--foreground)" shape-rendering="crispEdges" />
    <rect x="3" y="24" width="3" height="1" fill="var(--foreground)" shape-rendering="crispEdges" />
    <rect x="3" y="25" width="1" height="1" fill="var(--foreground)" shape-rendering="crispEdges" />
    <rect x="3" y="26" width="3" height="1" fill="var(--foreground)" shape-rendering="crispEdges" />
    <rect x="3" y="27" width="1" height="2" fill="var(--foreground)" shape-rendering="crispEdges" />
    <rect x="3" y="31" width="3" height="1" fill="var(--foreground)" shape-rendering="crispEdges" />
    <rect x="3" y="32" width="1" height="1" fill="var(--foreground)" shape-rendering="crispEdges" />
    <rect x="3" y="33" width="3" height="1" fill="var(--foreground)" shape-rendering="crispEdges" />
    <rect x="3" y="34" width="1" height="2" fill="var(--foreground)" shape-rendering="crispEdges" />
    <rect x="3" y="38" width="3" height="1" fill="var(--foreground)" shape-rendering="crispEdges" />
    <rect x="3" y="39" width="1" height="1" fill="var(--foreground)" shape-rendering="crispEdges" />
    <rect x="3" y="40" width="3" height="1" fill="var(--foreground)" shape-rendering="crispEdges" />
    <rect x="3" y="42" width="3" height="1" fill="var(--foreground)" shape-rendering="crispEdges" />
    <rect x="3" y="46" width="1" height="3" fill="var(--foreground)" shape-rendering="crispEdges" />
    <rect x="4" y="3" width="1" height="1" fill="var(--foreground)" shape-rendering="crispEdges" />
    <rect x="4" y="5" width="1" height="2" fill="var(--foreground)" shape-rendering="crispEdges" />
    <rect x="4" y="45" width="2" height="1" fill="var(--foreground)" shape-rendering="crispEdges" />
    <rect x="4" y="49" width="2" height="1" fill="var(--foreground)" shape-rendering="crispEdges" />
    <rect x="5" y="10" width="1" height="2" fill="var(--foreground)" shape-rendering="crispEdges" />
    <rect x="5" y="13" width="1" height="2" fill="var(--foreground)" shape-rendering="crispEdges" />
    <rect x="5" y="20" width="1" height="1" fill="var(--foreground)" shape-rendering="crispEdges" />
    <rect x="5" y="25" width="1" height="1" fill="var(--foreground)" shape-rendering="crispEdges" />
    <rect x="5" y="32" width="1" height="1" fill="var(--foreground)" shape-rendering="crispEdges" />
    <rect x="5" y="41" width="1" height="1" fill="var(--foreground)" shape-rendering="crispEdges" />
    <rect x="5" y="47" width="1" height="2" fill="var(--foreground)" shape-rendering="crispEdges" />
    <rect x="6" y="2" width="1" height="5" fill="var(--foreground)" shape-rendering="crispEdges" />
    <rect x="7" y="10" width="3" height="1" fill="var(--foreground)" shape-rendering="crispEdges" />
    <rect x="7" y="14" width="3" height="1" fill="var(--foreground)" shape-rendering="crispEdges" />
    <rect x="7" y="17" width="3" height="1" fill="var(--foreground)" shape-rendering="crispEdges" />
    <rect x="7" y="18" width="1" height="3" fill="var(--foreground)" shape-rendering="crispEdges" />
    <rect x="7" y="21" width="3" height="1" fill="var(--foreground)" shape-rendering="crispEdges" />
    <rect x="7" y="24" width="3" height="1" fill="var(--foreground)" shape-rendering="crispEdges" />
    <rect x="7" y="25" width="1" height="1" fill="var(--foreground)" shape-rendering="crispEdges" />
    <rect x="7" y="26" width="3" height="1" fill="var(--foreground)" shape-rendering="crispEdges" />
    <rect x="7" y="27" width="1" height="2" fill="var(--foreground)" shape-rendering="crispEdges" />
    <rect x="7" y="31" width="3" height="1" fill="var(--foreground)" shape-rendering="crispEdges" />
    <rect x="7" y="32" width="1" height="1" fill="var(--foreground)" shape-rendering="crispEdges" />
    <rect x="7" y="33" width="3" height="1" fill="var(--foreground)" shape-rendering="crispEdges" />
    <rect x="7" y="34" width="1" height="2" fill="var(--foreground)" shape-rendering="crispEdges" />
    <rect x="7" y="38" width="3" height="1" fill="var(--foreground)" shape-rendering="crispEdges" />
    <rect x="7" y="39" width="1" height="3" fill="var(--foreground)" shape-rendering="crispEdges" />
    <rect x="7" y="42" width="3" height="1" fill="var(--foreground)" shape-rendering="crispEdges" />
    <rect x="7" y="45" width="1" height="4" fill="var(--foreground)" shape-rendering="crispEdges" />
    <rect x="7" y="49" width="3" height="1" fill="var(--foreground)" shape-rendering="crispEdges" />
    <rect x="8" y="2" width="3" height="4" fill="var(--foreground)" shape-rendering="crispEdges" />
    <rect x="8" y="11" width="1" height="3" fill="var(--foreground)" shape-rendering="crispEdges" />
    <rect x="9" y="18" width="1" height="3" fill="var(--foreground)" shape-rendering="crispEdges" />
    <rect x="9" y="25" width="1" height="1" fill="var(--foreground)" shape-rendering="crispEdges" />
    <rect x="9" y="27" width="1" height="2" fill="var(--foreground)" shape-rendering="crispEdges" />
    <rect x="9" y="32" width="1" height="1" fill="var(--foreground)" shape-rendering="crispEdges" />
    <rect x="9" y="34" width="1" height="2" fill="var(--foreground)" shape-rendering="crispEdges" />
    <rect x="9" y="39" width="1" height="3" fill="var(--foreground)" shape-rendering="crispEdges" />
    <rect x="10" y="6" width="1" height="1" fill="var(--foreground)" shape-rendering="crispEdges" />
    <rect x="11" y="10" width="3" height="1" fill="var(--foreground)" shape-rendering="crispEdges" />
    <rect x="11" y="17" width="1" height="4" fill="var(--foreground)" shape-rendering="crispEdges" />
    <rect x="11" y="21" width="3" height="1" fill="var(--foreground)" shape-rendering="crispEdges" />
    <rect x="11" y="24" width="3" height="1" fill="var(--foreground)" shape-rendering="crispEdges" />
    <rect x="11" y="31" width="3" height="1" fill="var(--foreground)" shape-rendering="crispEdges" />
    <rect x="11" y="38" width="2" height="1" fill="var(--foreground)" shape-rendering="crispEdges" />
    <rect x="11" y="39" width="1" height="4" fill="var(--foreground)" shape-rendering="crispEdges" />
    <rect x="11" y="45" width="3" height="1" fill="var(--foreground)" shape-rendering="crispEdges" />
    <rect x="11" y="46" width="1" height="3" fill="var(--foreground)" shape-rendering="crispEdges" />
    <rect x="11" y="49" width="3" height="1" fill="var(--foreground)" shape-rendering="crispEdges" />
    <rect x="12" y="2" width="37" height="4" fill="var(--foreground)" shape-rendering="crispEdges" />
    <rect x="12" y="11" width="1" height="4" fill="var(--foreground)" shape-rendering="crispEdges" />
    <rect x="12" y="25" width="1" height="4" fill="var(--foreground)" shape-rendering="crispEdges" />
    <rect x="12" y="32" width="1" height="4" fill="var(--foreground)" shape-rendering="crispEdges" />
    <rect x="13" y="17" width="1" height="4" fill="var(--foreground)" shape-rendering="crispEdges" />
    <rect x="13" y="39" width="1" height="4" fill="var(--foreground)" shape-rendering="crispEdges" />
    <rect x="13" y="46" width="1" height="3" fill="var(--foreground)" shape-rendering="crispEdges" />
    <rect x="14" y="6" width="35" height="1" fill="var(--foreground)" shape-rendering="crispEdges" />
    <rect x="15" y="17" width="2" height="1" fill="var(--foreground)" shape-rendering="crispEdges" />
    <rect x="15" y="18" width="1" height="4" fill="var(--foreground)" shape-rendering="crispEdges" />
    <rect x="15" y="24" width="3" height="1" fill="var(--foreground)" shape-rendering="crispEdges" />
    <rect x="15" y="31" width="3" height="1" fill="var(--foreground)" shape-rendering="crispEdges" />
    <rect x="15" y="39" width="1" height="3" fill="var(--foreground)" shape-rendering="crispEdges" />
    <rect x="15" y="45" width="2" height="1" fill="var(--foreground)" shape-rendering="crispEdges" />
    <rect x="15" y="46" width="1" height="1" fill="var(--foreground)" shape-rendering="crispEdges" />
    <rect x="15" y="47" width="2" height="1" fill="var(--foreground)" shape-rendering="crispEdges" />
    <rect x="15" y="48" width="1" height="1" fill="var(--foreground)" shape-rendering="crispEdges" />
    <rect x="15" y="49" width="2" height="1" fill="var(--foreground)" shape-rendering="crispEdges" />
    <rect x="16" y="25" width="1" height="4" fill="var(--foreground)" shape-rendering="crispEdges" />
    <rect x="16" y="32" width="1" height="4" fill="var(--foreground)" shape-rendering="crispEdges" />
    <rect x="16" y="38" width="2" height="1" fill="var(--foreground)" shape-rendering="crispEdges" />
    <rect x="16" y="42" width="2" height="1" fill="var(--foreground)" shape-rendering="crispEdges" />
    <rect x="17" y="18" width="1" height="4" fill="var(--foreground)" shape-rendering="crispEdges" />
    <rect x="17" y="40" width="1" height="2" fill="var(--foreground)" shape-rendering="crispEdges" />
    <rect x="17" y="46" width="1" height="1" fill="var(--foreground)" shape-rendering="crispEdges" />
    <rect x="17" y="48" width="1" height="1" fill="var(--foreground)" shape-rendering="crispEdges" />
    <rect x="19" y="17" width="2" height="1" fill="var(--foreground)" shape-rendering="crispEdges" />
    <rect x="19" y="18" width="1" height="3" fill="var(--foreground)" shape-rendering="crispEdges" />
    <rect x="19" y="21" width="2" height="1" fill="var(--foreground)" shape-rendering="crispEdges" />
    <rect x="19" y="24" width="3" height="1" fill="var(--foreground)" shape-rendering="crispEdges" />
    <rect x="19" y="25" width="1" height="1" fill="var(--foreground)" shape-rendering="crispEdges" />
    <rect x="19" y="26" width="3" height="1" fill="var(--foreground)" shape-rendering="crispEdges" />
    <rect x="19" y="27" width="1" height="1" fill="var(--foreground)" shape-rendering="crispEdges" />
    <rect x="19" y="28" width="3" height="1" fill="var(--foreground)" shape-rendering="crispEdges" />
    <rect x="19" y="31" width="3" height="1" fill="var(--foreground)" shape-rendering="crispEdges" />
    <rect x="19" y="32" width="1" height="1" fill="var(--foreground)" shape-rendering="crispEdges" />
    <rect x="19" y="33" width="3" height="1" fill="var(--foreground)" shape-rendering="crispEdges" />
    <rect x="19" y="34" width="1" height="1" fill="var(--foreground)" shape-rendering="crispEdges" />
    <rect x="19" y="35" width="3" height="1" fill="var(--foreground)" shape-rendering="crispEdges" />
    <rect x="19" y="45" width="3" height="1" fill="var(--foreground)" shape-rendering="crispEdges" />
    <rect x="19" y="46" width="1" height="1" fill="var(--foreground)" shape-rendering="crispEdges" />
    <rect x="19" y="47" width="3" height="1" fill="var(--foreground)" shape-rendering="crispEdges" />
    <rect x="19" y="48" width="1" height="2" fill="var(--foreground)" shape-rendering="crispEdges" />
    <rect x="21" y="18" width="1" height="3" fill="var(--foreground)" shape-rendering="crispEdges" />
    <rect x="21" y="46" width="1" height="1" fill="var(--foreground)" shape-rendering="crispEdges" />
    <rect x="21" y="48" width="1" height="2" fill="var(--foreground)" shape-rendering="crispEdges" />
    <rect x="23" y="24" width="3" height="1" fill="var(--foreground)" shape-rendering="crispEdges" />
    <rect x="23" y="25" width="1" height="1" fill="var(--foreground)" shape-rendering="crispEdges" />
    <rect x="23" y="26" width="2" height="1" fill="var(--foreground)" shape-rendering="crispEdges" />
    <rect x="23" y="27" width="1" height="2" fill="var(--foreground)" shape-rendering="crispEdges" />
    <rect x="23" y="31" width="3" height="1" fill="var(--foreground)" shape-rendering="crispEdges" />
    <rect x="23" y="32" width="1" height="1" fill="var(--foreground)" shape-rendering="crispEdges" />
    <rect x="23" y="33" width="2" height="1" fill="var(--foreground)" shape-rendering="crispEdges" />
    <rect x="23" y="34" width="1" height="2" fill="var(--foreground)" shape-rendering="crispEdges" />
    <rect x="23" y="45" width="1" height="4" fill="var(--foreground)" shape-rendering="crispEdges" />
    <rect x="23" y="49" width="3" height="1" fill="var(--foreground)" shape-rendering="crispEdges" />
    <rect x="25" y="25" width="1" height="1" fill="var(--foreground)" shape-rendering="crispEdges" />
    <rect x="25" y="27" width="1" height="2" fill="var(--foreground)" shape-rendering="crispEdges" />
    <rect x="25" y="32" width="1" height="1" fill="var(--foreground)" shape-rendering="crispEdges" />
    <rect x="25" y="34" width="1" height="2" fill="var(--foreground)" shape-rendering="crispEdges" />
    <rect x="27" y="24" width="2" height="1" fill="var(--foreground)" shape-rendering="crispEdges" />
    <rect x="27" y="25" width="1" height="4" fill="var(--foreground)" shape-rendering="crispEdges" />
    <rect x="27" y="31" width="2" height="1" fill="var(--foreground)" shape-rendering="crispEdges" />
    <rect x="27" y="32" width="1" height="4" fill="var(--foreground)" shape-rendering="crispEdges" />
    <rect x="29" y="25" width="1" height="4" fill="var(--foreground)" shape-rendering="crispEdges" />
    <rect x="29" y="32" width="1" height="4" fill="var(--foreground)" shape-rendering="crispEdges" />
    <rect x="31" y="33" width="3" height="1" fill="var(--foreground)" shape-rendering="crispEdges" />
    <rect x="32" y="32" width="1" height="1" fill="var(--foreground)" shape-rendering="crispEdges" />
    <rect x="32" y="34" width="1" height="1" fill="var(--foreground)" shape-rendering="crispEdges" />
    <rect x="35" y="31" width="1" height="2" fill="var(--foreground)" shape-rendering="crispEdges" />
    <rect x="35" y="33" width="2" height="1" fill="var(--foreground)" shape-rendering="crispEdges" />
    <rect x="35" y="34" width="1" height="2" fill="var(--foreground)" shape-rendering="crispEdges" />
    <rect x="37" y="31" width="1" height="2" fill="var(--foreground)" shape-rendering="crispEdges" />
    <rect x="37" y="34" width="1" height="2" fill="var(--foreground)" shape-rendering="crispEdges" />
    <rect x="39" y="31" width="3" height="1" fill="var(--foreground)" shape-rendering="crispEdges" />
    <rect x="39" y="35" width="3" height="1" fill="var(--foreground)" shape-rendering="crispEdges" />
    <rect x="40" y="32" width="1" height="3" fill="var(--foreground)" shape-rendering="crispEdges" />
    <rect x="43" y="31" width="3" height="1" fill="var(--foreground)" shape-rendering="crispEdges" />
    <rect x="44" y="32" width="1" height="4" fill="var(--foreground)" shape-rendering="crispEdges" />
    <rect x="61" y="1" width="62" height="1" fill="var(--foreground)" shape-rendering="crispEdges" />
    <rect x="61" y="2" width="1" height="5" fill="var(--foreground)" shape-rendering="crispEdges" />
    <rect x="61" y="7" width="62" height="1" fill="var(--foreground)" shape-rendering="crispEdges" />
    <rect x="63" y="2" width="1" height="3" fill="var(--foreground)" shape-rendering="crispEdges" />
    <rect x="63" y="5" width="3" height="1" fill="var(--foreground)" shape-rendering="crispEdges" />
    <rect x="63" y="6" width="1" height="1" fill="var(--foreground)" shape-rendering="crispEdges" />
    <rect x="63" y="10" width="3" height="1" fill="var(--foreground)" shape-rendering="crispEdges" />
    <rect x="63" y="11" width="1" height="1" fill="var(--foreground)" shape-rendering="crispEdges" />
    <rect x="63" y="12" width="3" height="1" fill="var(--foreground)" shape-rendering="crispEdges" />
    <rect x="63" y="13" width="1" height="2" fill="var(--foreground)" shape-rendering="crispEdges" />
    <rect x="63" y="17" width="3" height="1" fill="var(--foreground)" shape-rendering="crispEdges" />
    <rect x="63" y="18" width="1" height="1" fill="var(--foreground)" shape-rendering="crispEdges" />
    <rect x="63" y="19" width="3" height="1" fill="var(--foreground)" shape-rendering="crispEdges" />
    <rect x="63" y="20" width="1" height="2" fill="var(--foreground)" shape-rendering="crispEdges" />
    <rect x="63" y="24" width="3" height="1" fill="var(--foreground)" shape-rendering="crispEdges" />
    <rect x="63" y="25" width="1" height="1" fill="var(--foreground)" shape-rendering="crispEdges" />
    <rect x="63" y="26" width="3" height="1" fill="var(--foreground)" shape-rendering="crispEdges" />
    <rect x="63" y="27" width="1" height="2" fill="var(--foreground)" shape-rendering="crispEdges" />
    <rect x="63" y="31" width="3" height="1" fill="var(--foreground)" shape-rendering="crispEdges" />
    <rect x="63" y="32" width="1" height="1" fill="var(--foreground)" shape-rendering="crispEdges" />
    <rect x="63" y="33" width="3" height="1" fill="var(--foreground)" shape-rendering="crispEdges" />
    <rect x="63" y="34" width="1" height="2" fill="var(--foreground)" shape-rendering="crispEdges" />
    <rect x="63" y="38" width="3" height="1" fill="var(--foreground)" shape-rendering="crispEdges" />
    <rect x="63" y="39" width="1" height="1" fill="var(--foreground)" shape-rendering="crispEdges" />
    <rect x="63" y="40" width="3" height="1" fill="var(--foreground)" shape-rendering="crispEdges" />
    <rect x="63" y="41" width="1" height="2" fill="var(--foreground)" shape-rendering="crispEdges" />
    <rect x="63" y="45" width="3" height="1" fill="var(--foreground)" shape-rendering="crispEdges" />
    <rect x="63" y="46" width="1" height="1" fill="var(--foreground)" shape-rendering="crispEdges" />
    <rect x="63" y="47" width="3" height="1" fill="var(--foreground)" shape-rendering="crispEdges" />
    <rect x="63" y="48" width="1" height="2" fill="var(--foreground)" shape-rendering="crispEdges" />
    <rect x="65" y="2" width="1" height="3" fill="var(--foreground)" shape-rendering="crispEdges" />
    <rect x="65" y="6" width="1" height="1" fill="var(--foreground)" shape-rendering="crispEdges" />
    <rect x="65" y="11" width="1" height="1" fill="var(--foreground)" shape-rendering="crispEdges" />
    <rect x="65" y="13" width="1" height="2" fill="var(--foreground)" shape-rendering="crispEdges" />
    <rect x="65" y="18" width="1" height="1" fill="var(--foreground)" shape-rendering="crispEdges" />
    <rect x="65" y="20" width="1" height="2" fill="var(--foreground)" shape-rendering="crispEdges" />
    <rect x="65" y="25" width="1" height="1" fill="var(--foreground)" shape-rendering="crispEdges" />
    <rect x="65" y="27" width="1" height="2" fill="var(--foreground)" shape-rendering="crispEdges" />
    <rect x="65" y="32" width="1" height="1" fill="var(--foreground)" shape-rendering="crispEdges" />
    <rect x="65" y="34" width="1" height="2" fill="var(--foreground)" shape-rendering="crispEdges" />
    <rect x="65" y="39" width="1" height="1" fill="var(--foreground)" shape-rendering="crispEdges" />
    <rect x="65" y="41" width="1" height="2" fill="var(--foreground)" shape-rendering="crispEdges" />
    <rect x="65" y="46" width="1" height="1" fill="var(--foreground)" shape-rendering="crispEdges" />
    <rect x="65" y="48" width="1" height="2" fill="var(--foreground)" shape-rendering="crispEdges" />
    <rect x="67" y="2" width="1" height="2" fill="var(--foreground)" shape-rendering="crispEdges" />
    <rect x="67" y="4" width="3" height="1" fill="var(--foreground)" shape-rendering="crispEdges" />
    <rect x="67" y="5" width="1" height="2" fill="var(--foreground)" shape-rendering="crispEdges" />
    <rect x="67" y="10" width="1" height="4" fill="var(--foreground)" shape-rendering="crispEdges" />
    <rect x="67" y="14" width="3" height="1" fill="var(--foreground)" shape-rendering="crispEdges" />
    <rect x="67" y="17" width="1" height="4" fill="var(--foreground)" shape-rendering="crispEdges" />
    <rect x="67" y="21" width="3" height="1" fill="var(--foreground)" shape-rendering="crispEdges" />
    <rect x="67" y="24" width="1" height="4" fill="var(--foreground)" shape-rendering="crispEdges" />
    <rect x="67" y="28" width="3" height="1" fill="var(--foreground)" shape-rendering="crispEdges" />
    <rect x="67" y="31" width="1" height="4" fill="var(--foreground)" shape-rendering="crispEdges" />
    <rect x="67" y="35" width="3" height="1" fill="var(--foreground)" shape-rendering="crispEdges" />
    <rect x="67" y="38" width="1" height="4" fill="var(--foreground)" shape-rendering="crispEdges" />
    <rect x="67" y="42" width="3" height="1" fill="var(--foreground)" shape-rendering="crispEdges" />
    <rect x="67" y="45" width="1" height="4" fill="var(--foreground)" shape-rendering="crispEdges" />
    <rect x="67" y="49" width="3" height="1" fill="var(--foreground)" shape-rendering="crispEdges" />
    <rect x="69" y="2" width="1" height="2" fill="var(--foreground)" shape-rendering="crispEdges" />
    <rect x="69" y="5" width="1" height="2" fill="var(--foreground)" shape-rendering="crispEdges" />
    <rect x="71" y="2" width="3" height="1" fill="var(--foreground)" shape-rendering="crispEdges" />
    <rect x="71" y="3" width="1" height="3" fill="var(--foreground)" shape-rendering="crispEdges" />
    <rect x="71" y="6" width="3" height="1" fill="var(--foreground)" shape-rendering="crispEdges" />
    <rect x="71" y="10" width="1" height="4" fill="var(--foreground)" shape-rendering="crispEdges" />
    <rect x="71" y="14" width="3" height="1" fill="var(--foreground)" shape-rendering="crispEdges" />
    <rect x="71" y="17" width="1" height="4" fill="var(--foreground)" shape-rendering="crispEdges" />
    <rect x="71" y="21" width="3" height="1" fill="var(--foreground)" shape-rendering="crispEdges" />
    <rect x="71" y="24" width="1" height="4" fill="var(--foreground)" shape-rendering="crispEdges" />
    <rect x="71" y="28" width="3" height="1" fill="var(--foreground)" shape-rendering="crispEdges" />
    <rect x="71" y="31" width="1" height="4" fill="var(--foreground)" shape-rendering="crispEdges" />
    <rect x="71" y="35" width="3" height="1" fill="var(--foreground)" shape-rendering="crispEdges" />
    <rect x="71" y="38" width="1" height="4" fill="var(--foreground)" shape-rendering="crispEdges" />
    <rect x="71" y="42" width="3" height="1" fill="var(--foreground)" shape-rendering="crispEdges" />
    <rect x="71" y="45" width="1" height="4" fill="var(--foreground)" shape-rendering="crispEdges" />
    <rect x="71" y="49" width="3" height="1" fill="var(--foreground)" shape-rendering="crispEdges" />
    <rect x="73" y="3" width="1" height="3" fill="var(--foreground)" shape-rendering="crispEdges" />
    <rect x="75" y="2" width="1" height="4" fill="var(--foreground)" shape-rendering="crispEdges" />
    <rect x="75" y="6" width="3" height="1" fill="var(--foreground)" shape-rendering="crispEdges" />
    <rect x="78" y="10" width="3" height="1" fill="var(--foreground)" shape-rendering="crispEdges" />
    <rect x="78" y="11" width="1" height="1" fill="var(--foreground)" shape-rendering="crispEdges" />
    <rect x="78" y="12" width="3" height="1" fill="var(--foreground)" shape-rendering="crispEdges" />
    <rect x="78" y="14" width="3" height="1" fill="var(--foreground)" shape-rendering="crispEdges" />
    <rect x="78" y="17" width="1" height="2" fill="var(--foreground)" shape-rendering="crispEdges" />
    <rect x="78" y="19" width="2" height="1" fill="var(--foreground)" shape-rendering="crispEdges" />
    <rect x="78" y="20" width="1" height="2" fill="var(--foreground)" shape-rendering="crispEdges" />
    <rect x="78" y="24" width="3" height="1" fill="var(--foreground)" shape-rendering="crispEdges" />
    <rect x="78" y="25" width="1" height="1" fill="var(--foreground)" shape-rendering="crispEdges" />
    <rect x="78" y="26" width="3" height="1" fill="var(--foreground)" shape-rendering="crispEdges" />
    <rect x="78" y="27" width="1" height="2" fill="var(--foreground)" shape-rendering="crispEdges" />
    <rect x="78" y="31" width="3" height="1" fill="var(--foreground)" shape-rendering="crispEdges" />
    <rect x="78" y="32" width="1" height="1" fill="var(--foreground)" shape-rendering="crispEdges" />
    <rect x="78" y="33" width="3" height="1" fill="var(--foreground)" shape-rendering="crispEdges" />
    <rect x="78" y="35" width="3" height="1" fill="var(--foreground)" shape-rendering="crispEdges" />
    <rect x="78" y="39" width="1" height="3" fill="var(--foreground)" shape-rendering="crispEdges" />
    <rect x="78" y="45" width="3" height="1" fill="var(--foreground)" shape-rendering="crispEdges" />
    <rect x="78" y="46" width="1" height="1" fill="var(--foreground)" shape-rendering="crispEdges" />
    <rect x="78" y="47" width="3" height="1" fill="var(--foreground)" shape-rendering="crispEdges" />
    <rect x="78" y="49" width="3" height="1" fill="var(--foreground)" shape-rendering="crispEdges" />
    <rect x="79" y="2" width="3" height="1" fill="var(--foreground)" shape-rendering="crispEdges" />
    <rect x="79" y="3" width="1" height="1" fill="var(--foreground)" shape-rendering="crispEdges" />
    <rect x="79" y="4" width="3" height="1" fill="var(--foreground)" shape-rendering="crispEdges" />
    <rect x="79" y="5" width="1" height="1" fill="var(--foreground)" shape-rendering="crispEdges" />
    <rect x="79" y="6" width="3" height="1" fill="var(--foreground)" shape-rendering="crispEdges" />
    <rect x="79" y="38" width="2" height="1" fill="var(--foreground)" shape-rendering="crispEdges" />
    <rect x="79" y="42" width="2" height="1" fill="var(--foreground)" shape-rendering="crispEdges" />
    <rect x="80" y="13" width="1" height="1" fill="var(--foreground)" shape-rendering="crispEdges" />
    <rect x="80" y="17" width="1" height="2" fill="var(--foreground)" shape-rendering="crispEdges" />
    <rect x="80" y="20" width="1" height="2" fill="var(--foreground)" shape-rendering="crispEdges" />
    <rect x="80" y="25" width="1" height="1" fill="var(--foreground)" shape-rendering="crispEdges" />
    <rect x="80" y="34" width="1" height="1" fill="var(--foreground)" shape-rendering="crispEdges" />
    <rect x="80" y="40" width="1" height="2" fill="var(--foreground)" shape-rendering="crispEdges" />
    <rect x="80" y="48" width="1" height="1" fill="var(--foreground)" shape-rendering="crispEdges" />
    <rect x="82" y="10" width="3" height="1" fill="var(--foreground)" shape-rendering="crispEdges" />
    <rect x="82" y="11" width="1" height="3" fill="var(--foreground)" shape-rendering="crispEdges" />
    <rect x="82" y="14" width="3" height="1" fill="var(--foreground)" shape-rendering="crispEdges" />
    <rect x="82" y="17" width="3" height="1" fill="var(--foreground)" shape-rendering="crispEdges" />
    <rect x="82" y="21" width="3" height="1" fill="var(--foreground)" shape-rendering="crispEdges" />
    <rect x="82" y="24" width="3" height="1" fill="var(--foreground)" shape-rendering="crispEdges" />
    <rect x="82" y="25" width="1" height="1" fill="var(--foreground)" shape-rendering="crispEdges" />
    <rect x="82" y="26" width="3" height="1" fill="var(--foreground)" shape-rendering="crispEdges" />
    <rect x="82" y="27" width="1" height="2" fill="var(--foreground)" shape-rendering="crispEdges" />
    <rect x="82" y="31" width="3" height="1" fill="var(--foreground)" shape-rendering="crispEdges" />
    <rect x="82" y="32" width="1" height="3" fill="var(--foreground)" shape-rendering="crispEdges" />
    <rect x="82" y="35" width="3" height="1" fill="var(--foreground)" shape-rendering="crispEdges" />
    <rect x="82" y="38" width="1" height="4" fill="var(--foreground)" shape-rendering="crispEdges" />
    <rect x="82" y="42" width="3" height="1" fill="var(--foreground)" shape-rendering="crispEdges" />
    <rect x="82" y="45" width="3" height="1" fill="var(--foreground)" shape-rendering="crispEdges" />
    <rect x="82" y="46" width="1" height="1" fill="var(--foreground)" shape-rendering="crispEdges" />
    <rect x="82" y="47" width="3" height="1" fill="var(--foreground)" shape-rendering="crispEdges" />
    <rect x="82" y="48" width="1" height="1" fill="var(--foreground)" shape-rendering="crispEdges" />
    <rect x="82" y="49" width="3" height="1" fill="var(--foreground)" shape-rendering="crispEdges" />
    <rect x="83" y="18" width="1" height="3" fill="var(--foreground)" shape-rendering="crispEdges" />
    <rect x="84" y="11" width="1" height="3" fill="var(--foreground)" shape-rendering="crispEdges" />
    <rect x="84" y="25" width="1" height="1" fill="var(--foreground)" shape-rendering="crispEdges" />
    <rect x="84" y="27" width="1" height="2" fill="var(--foreground)" shape-rendering="crispEdges" />
    <rect x="84" y="32" width="1" height="3" fill="var(--foreground)" shape-rendering="crispEdges" />
    <rect x="86" y="2" width="3" height="1" fill="var(--foreground)" shape-rendering="crispEdges" />
    <rect x="86" y="3" width="1" height="1" fill="var(--foreground)" shape-rendering="crispEdges" />
    <rect x="86" y="4" width="3" height="1" fill="var(--foreground)" shape-rendering="crispEdges" />
    <rect x="86" y="5" width="1" height="2" fill="var(--foreground)" shape-rendering="crispEdges" />
    <rect x="86" y="10" width="1" height="4" fill="var(--foreground)" shape-rendering="crispEdges" />
    <rect x="86" y="14" width="3" height="1" fill="var(--foreground)" shape-rendering="crispEdges" />
    <rect x="86" y="17" width="3" height="1" fill="var(--foreground)" shape-rendering="crispEdges" />
    <rect x="86" y="24" width="3" height="1" fill="var(--foreground)" shape-rendering="crispEdges" />
    <rect x="86" y="31" width="2" height="1" fill="var(--foreground)" shape-rendering="crispEdges" />
    <rect x="86" y="32" width="1" height="4" fill="var(--foreground)" shape-rendering="crispEdges" />
    <rect x="86" y="38" width="3" height="1" fill="var(--foreground)" shape-rendering="crispEdges" />
    <rect x="86" y="39" width="1" height="3" fill="var(--foreground)" shape-rendering="crispEdges" />
    <rect x="86" y="42" width="3" height="1" fill="var(--foreground)" shape-rendering="crispEdges" />
    <rect x="86" y="45" width="3" height="1" fill="var(--foreground)" shape-rendering="crispEdges" />
    <rect x="87" y="18" width="1" height="4" fill="var(--foreground)" shape-rendering="crispEdges" />
    <rect x="87" y="25" width="1" height="4" fill="var(--foreground)" shape-rendering="crispEdges" />
    <rect x="87" y="46" width="1" height="4" fill="var(--foreground)" shape-rendering="crispEdges" />
    <rect x="88" y="3" width="1" height="1" fill="var(--foreground)" shape-rendering="crispEdges" />
    <rect x="88" y="10" width="1" height="4" fill="var(--foreground)" shape-rendering="crispEdges" />
    <rect x="88" y="32" width="1" height="4" fill="var(--foreground)" shape-rendering="crispEdges" />
    <rect x="88" y="39" width="1" height="3" fill="var(--foreground)" shape-rendering="crispEdges" />
    <rect x="90" y="2" width="3" height="1" fill="var(--foreground)" shape-rendering="crispEdges" />
    <rect x="90" y="3" width="1" height="1" fill="var(--foreground)" shape-rendering="crispEdges" />
    <rect x="90" y="4" width="2" height="1" fill="var(--foreground)" shape-rendering="crispEdges" />
    <rect x="90" y="5" width="1" height="2" fill="var(--foreground)" shape-rendering="crispEdges" />
    <rect x="90" y="10" width="2" height="1" fill="var(--foreground)" shape-rendering="crispEdges" />
    <rect x="90" y="11" width="1" height="4" fill="var(--foreground)" shape-rendering="crispEdges" />
    <rect x="90" y="17" width="3" height="1" fill="var(--foreground)" shape-rendering="crispEdges" />
    <rect x="90" y="18" width="1" height="1" fill="var(--foreground)" shape-rendering="crispEdges" />
    <rect x="90" y="19" width="3" height="1" fill="var(--foreground)" shape-rendering="crispEdges" />
    <rect x="90" y="21" width="3" height="1" fill="var(--foreground)" shape-rendering="crispEdges" />
    <rect x="90" y="24" width="3" height="1" fill="var(--foreground)" shape-rendering="crispEdges" />
    <rect x="90" y="32" width="1" height="3" fill="var(--foreground)" shape-rendering="crispEdges" />
    <rect x="90" y="38" width="2" height="1" fill="var(--foreground)" shape-rendering="crispEdges" />
    <rect x="90" y="39" width="1" height="1" fill="var(--foreground)" shape-rendering="crispEdges" />
    <rect x="90" y="40" width="2" height="1" fill="var(--foreground)" shape-rendering="crispEdges" />
    <rect x="90" y="41" width="1" height="1" fill="var(--foreground)" shape-rendering="crispEdges" />
    <rect x="90" y="42" width="2" height="1" fill="var(--foreground)" shape-rendering="crispEdges" />
    <rect x="90" y="45" width="3" height="1" fill="var(--foreground)" shape-rendering="crispEdges" />
    <rect x="91" y="25" width="1" height="4" fill="var(--foreground)" shape-rendering="crispEdges" />
    <rect x="91" y="31" width="2" height="1" fill="var(--foreground)" shape-rendering="crispEdges" />
    <rect x="91" y="35" width="2" height="1" fill="var(--foreground)" shape-rendering="crispEdges" />
    <rect x="91" y="46" width="1" height="4" fill="var(--foreground)" shape-rendering="crispEdges" />
    <rect x="92" y="3" width="1" height="1" fill="var(--foreground)" shape-rendering="crispEdges" />
    <rect x="92" y="5" width="1" height="2" fill="var(--foreground)" shape-rendering="crispEdges" />
    <rect x="92" y="11" width="1" height="4" fill="var(--foreground)" shape-rendering="crispEdges" />
    <rect x="92" y="20" width="1" height="1" fill="var(--foreground)" shape-rendering="crispEdges" />
    <rect x="92" y="33" width="1" height="2" fill="var(--foreground)" shape-rendering="crispEdges" />
    <rect x="92" y="39" width="1" height="1" fill="var(--foreground)" shape-rendering="crispEdges" />
    <rect x="92" y="41" width="1" height="1" fill="var(--foreground)" shape-rendering="crispEdges" />
    <rect x="94" y="2" width="3" height="1" fill="var(--foreground)" shape-rendering="crispEdges" />
    <rect x="94" y="3" width="1" height="3" fill="var(--foreground)" shape-rendering="crispEdges" />
    <rect x="94" y="6" width="3" height="1" fill="var(--foreground)" shape-rendering="crispEdges" />
    <rect x="94" y="10" width="2" height="1" fill="var(--foreground)" shape-rendering="crispEdges" />
    <rect x="94" y="11" width="1" height="3" fill="var(--foreground)" shape-rendering="crispEdges" />
    <rect x="94" y="14" width="2" height="1" fill="var(--foreground)" shape-rendering="crispEdges" />
    <rect x="94" y="24" width="3" height="1" fill="var(--foreground)" shape-rendering="crispEdges" />
    <rect x="94" y="25" width="1" height="1" fill="var(--foreground)" shape-rendering="crispEdges" />
    <rect x="94" y="26" width="3" height="1" fill="var(--foreground)" shape-rendering="crispEdges" />
    <rect x="94" y="27" width="1" height="1" fill="var(--foreground)" shape-rendering="crispEdges" />
    <rect x="94" y="28" width="3" height="1" fill="var(--foreground)" shape-rendering="crispEdges" />
    <rect x="94" y="31" width="3" height="1" fill="var(--foreground)" shape-rendering="crispEdges" />
    <rect x="94" y="32" width="1" height="1" fill="var(--foreground)" shape-rendering="crispEdges" />
    <rect x="94" y="33" width="3" height="1" fill="var(--foreground)" shape-rendering="crispEdges" />
    <rect x="94" y="35" width="3" height="1" fill="var(--foreground)" shape-rendering="crispEdges" />
    <rect x="94" y="38" width="3" height="1" fill="var(--foreground)" shape-rendering="crispEdges" />
    <rect x="94" y="39" width="1" height="1" fill="var(--foreground)" shape-rendering="crispEdges" />
    <rect x="94" y="40" width="3" height="1" fill="var(--foreground)" shape-rendering="crispEdges" />
    <rect x="94" y="41" width="1" height="2" fill="var(--foreground)" shape-rendering="crispEdges" />
    <rect x="94" y="45" width="3" height="1" fill="var(--foreground)" shape-rendering="crispEdges" />
    <rect x="94" y="49" width="3" height="1" fill="var(--foreground)" shape-rendering="crispEdges" />
    <rect x="95" y="46" width="1" height="3" fill="var(--foreground)" shape-rendering="crispEdges" />
    <rect x="96" y="3" width="1" height="3" fill="var(--foreground)" shape-rendering="crispEdges" />
    <rect x="96" y="11" width="1" height="3" fill="var(--foreground)" shape-rendering="crispEdges" />
    <rect x="96" y="34" width="1" height="1" fill="var(--foreground)" shape-rendering="crispEdges" />
    <rect x="96" y="39" width="1" height="1" fill="var(--foreground)" shape-rendering="crispEdges" />
    <rect x="96" y="41" width="1" height="2" fill="var(--foreground)" shape-rendering="crispEdges" />
    <rect x="98" y="5" width="1" height="1" fill="var(--foreground)" shape-rendering="crispEdges" />
    <rect x="98" y="6" width="2" height="1" fill="var(--foreground)" shape-rendering="crispEdges" />
    <rect x="98" y="10" width="3" height="1" fill="var(--foreground)" shape-rendering="crispEdges" />
    <rect x="98" y="11" width="1" height="1" fill="var(--foreground)" shape-rendering="crispEdges" />
    <rect x="98" y="12" width="3" height="1" fill="var(--foreground)" shape-rendering="crispEdges" />
    <rect x="98" y="14" width="3" height="1" fill="var(--foreground)" shape-rendering="crispEdges" />
    <rect x="98" y="24" width="3" height="1" fill="var(--foreground)" shape-rendering="crispEdges" />
    <rect x="98" y="25" width="1" height="1" fill="var(--foreground)" shape-rendering="crispEdges" />
    <rect x="98" y="26" width="2" height="1" fill="var(--foreground)" shape-rendering="crispEdges" />
    <rect x="98" y="27" width="1" height="2" fill="var(--foreground)" shape-rendering="crispEdges" />
    <rect x="98" y="38" width="1" height="4" fill="var(--foreground)" shape-rendering="crispEdges" />
    <rect x="98" y="42" width="3" height="1" fill="var(--foreground)" shape-rendering="crispEdges" />
    <rect x="98" y="45" width="2" height="1" fill="var(--foreground)" shape-rendering="crispEdges" />
    <rect x="98" y="46" width="1" height="4" fill="var(--foreground)" shape-rendering="crispEdges" />
    <rect x="100" y="2" width="1" height="4" fill="var(--foreground)" shape-rendering="crispEdges" />
    <rect x="100" y="13" width="1" height="1" fill="var(--foreground)" shape-rendering="crispEdges" />
    <rect x="100" y="25" width="1" height="1" fill="var(--foreground)" shape-rendering="crispEdges" />
    <rect x="100" y="27" width="1" height="2" fill="var(--foreground)" shape-rendering="crispEdges" />
    <rect x="100" y="46" width="1" height="4" fill="var(--foreground)" shape-rendering="crispEdges" />
    <rect x="102" y="2" width="3" height="1" fill="var(--foreground)" shape-rendering="crispEdges" />
    <rect x="102" y="3" width="1" height="1" fill="var(--foreground)" shape-rendering="crispEdges" />
    <rect x="102" y="4" width="3" height="1" fill="var(--foreground)" shape-rendering="crispEdges" />
    <rect x="102" y="5" width="1" height="1" fill="var(--foreground)" shape-rendering="crispEdges" />
    <rect x="102" y="6" width="3" height="1" fill="var(--foreground)" shape-rendering="crispEdges" />
    <rect x="102" y="24" width="2" height="1" fill="var(--foreground)" shape-rendering="crispEdges" />
    <rect x="102" y="25" width="1" height="4" fill="var(--foreground)" shape-rendering="crispEdges" />
    <rect x="102" y="38" width="3" height="1" fill="var(--foreground)" shape-rendering="crispEdges" />
    <rect x="102" y="39" width="1" height="1" fill="var(--foreground)" shape-rendering="crispEdges" />
    <rect x="102" y="40" width="3" height="1" fill="var(--foreground)" shape-rendering="crispEdges" />
    <rect x="102" y="42" width="3" height="1" fill="var(--foreground)" shape-rendering="crispEdges" />
    <rect x="102" y="46" width="1" height="3" fill="var(--foreground)" shape-rendering="crispEdges" />
    <rect x="103" y="45" width="2" height="1" fill="var(--foreground)" shape-rendering="crispEdges" />
    <rect x="103" y="49" width="2" height="1" fill="var(--foreground)" shape-rendering="crispEdges" />
    <rect x="104" y="25" width="1" height="4" fill="var(--foreground)" shape-rendering="crispEdges" />
    <rect x="104" y="41" width="1" height="1" fill="var(--foreground)" shape-rendering="crispEdges" />
    <rect x="104" y="47" width="1" height="2" fill="var(--foreground)" shape-rendering="crispEdges" />
    <rect x="106" y="2" width="3" height="1" fill="var(--foreground)" shape-rendering="crispEdges" />
    <rect x="106" y="3" width="1" height="3" fill="var(--foreground)" shape-rendering="crispEdges" />
    <rect x="106" y="6" width="3" height="1" fill="var(--foreground)" shape-rendering="crispEdges" />
    <rect x="106" y="24" width="3" height="1" fill="var(--foreground)" shape-rendering="crispEdges" />
    <rect x="106" y="25" width="1" height="1" fill="var(--foreground)" shape-rendering="crispEdges" />
    <rect x="106" y="26" width="3" height="1" fill="var(--foreground)" shape-rendering="crispEdges" />
    <rect x="106" y="28" width="3" height="1" fill="var(--foreground)" shape-rendering="crispEdges" />
    <rect x="106" y="45" width="3" height="1" fill="var(--foreground)" shape-rendering="crispEdges" />
    <rect x="106" y="46" width="1" height="1" fill="var(--foreground)" shape-rendering="crispEdges" />
    <rect x="106" y="47" width="3" height="1" fill="var(--foreground)" shape-rendering="crispEdges" />
    <rect x="106" y="49" width="3" height="1" fill="var(--foreground)" shape-rendering="crispEdges" />
    <rect x="108" y="3" width="1" height="1" fill="var(--foreground)" shape-rendering="crispEdges" />
    <rect x="108" y="5" width="1" height="1" fill="var(--foreground)" shape-rendering="crispEdges" />
    <rect x="108" y="27" width="1" height="1" fill="var(--foreground)" shape-rendering="crispEdges" />
    <rect x="108" y="48" width="1" height="1" fill="var(--foreground)" shape-rendering="crispEdges" />
    <rect x="110" y="2" width="3" height="1" fill="var(--foreground)" shape-rendering="crispEdges" />
    <rect x="111" y="3" width="1" height="4" fill="var(--foreground)" shape-rendering="crispEdges" />
    <rect x="122" y="2" width="1" height="5" fill="var(--foreground)" shape-rendering="crispEdges" />
  </g>
</svg>