<svg viewBox="0 0 128 64" xmlns="http://www.w3.org/2000/svg" shape-rendering="crispEdges">
  <g id="pixels">
    <rect x="3" y="3" width="3" height="1" fill="var(--foreground)" shape-rendering="crispEdges" />
    <rect x="3" y="4" width="1" height="1" fill="var(--foreground)" shape-rendering="crispEdges" />
    <rect x="3" y="5" width="3" height="1" fill="var(--foreground)" shape-rendering="crispEdges" />
    <rect x="3" y="6" width="1" height="2" fill="var(--foreground)" shape-rendering="crispEdges" />
    <rect x="3" y="11" width="34" height="1" fill="var(--foreground)" shape-rendering="crispEdges" />
    <rect x="7" y="3" width="3" height="1" fill="var(--foreground)" shape-rendering="crispEdges" />
    <rect x="7" y="4" width="1" height="3" fill="var(--foreground)" shape-rendering="crispEdges" />
    <rect x="7" y="7" width="3" height="1" fill="var(--foreground)" shape-rendering="crispEdges" />
    <rect x="9" y="4" width="1" height="3" fill="var(--foreground)" shape-rendering="crispEdges" />
    <rect x="11" y="3" width="3" height="1" fill="var(--foreground)" shape-rendering="crispEdges" />
    <rect x="11" y="4" width="1" height="1" fill="var(--foreground)" shape-rendering="crispEdges" />
    <rect x="11" y="5" width="2" height="1" fill="var(--foreground)" shape-rendering="crispEdges" />
    <rect x="11" y="6" width="1" height="2" fill="var(--foreground)" shape-rendering="crispEdges" />
    <rect x="13" y="4" width="1" height="1" fill="var(--foreground)" shape-rendering="crispEdges" />
    <rect x="13" y="6" width="1" height="2" fill="var(--foreground)" shape-rendering="crispEdges" />
    <rect x="15" y="3" width="1" height="1" fill="var(--foreground)" shape-rendering="crispEdges" />
    <rect x="15" y="4" width="3" height="1" fill="var(--foreground)" shape-rendering="crispEdges" />
    <rect x="15" y="5" width="1" height="3" fill="var(--foreground)" shape-rendering="crispEdges" />
    <rect x="17" y="3" width="1" height="1" fill="var(--foreground)" shape-rendering="crispEdges" />
    <rect x="17" y="5" width="1" height="3" fill="var(--foreground)" shape-rendering="crispEdges" />
    <rect x="19" y="3" width="3" height="1" fill="var(--foreground)" shape-rendering="crispEdges" />
    <rect x="19" y="4" width="1" height="1" fill="var(--foreground)" shape-rendering="crispEdges" />
    <rect x="19" y="5" width="3" height="1" fill="var(--foreground)" shape-rendering="crispEdges" />
    <rect x="19" y="6" width="1" height="2" fill="var(--foreground)" shape-rendering="crispEdges" />
    <rect x="21" y="4" width="1" height="1" fill="var(--foreground)" shape-rendering="crispEdges" />
    <rect x="21" y="6" width="1" height="2" fill="var(--foreground)" shape-rendering="crispEdges" />
    <rect x="23" y="3" width="3" height="1" fill="var(--foreground)" shape-rendering="crispEdges" />
    <rect x="24" y="4" width="1" height="4" fill="var(--foreground)" shape-rendering="crispEdges" />
    <rect x="39" y="1" width="82" height="1" fill="var(--foreground)" shape-rendering="crispEdges" />
    <rect x="39" y="2" width="73" height="1" fill="var(--foreground)" shape-rendering="crispEdges" />
    <rect x="39" y="3" width="3" height="5" fill="var(--foreground)" shape-rendering="crispEdges" />
    <rect x="39" y="8" width="73" height="1" fill="var(--foreground)" shape-rendering="crispEdges" />
    <rect x="39" y="9" width="82" height="1" fill="var(--foreground)" shape-rendering="crispEdges" />
    <rect x="40" y="0" width="80" height="1" fill="var(--foreground)" shape-rendering="crispEdges" />
    <rect x="40" y="10" width="80" height="1" fill="var(--foreground)" shape-rendering="crispEdges" />
    <rect x="42" y="16" width="3" height="1" fill="var(--foreground)" shape-rendering="crispEdges" />
    <rect x="42" y="17" width="1" height="1" fill="var(--foreground)" shape-rendering="crispEdges" />
    <rect x="42" y="18" width="3" height="1" fill="var(--foreground)" shape-rendering="crispEdges" />
    <rect x="42" y="19" width="1" height="1" fill="var(--foreground)" shape-rendering="crispEdges" />
    <rect x="42" y="20" width="3" height="1" fill="var(--foreground)" shape-rendering="crispEdges" />
    <rect x="43" y="4" width="1" height="1" fill="var(--foreground)" shape-rendering="crispEdges" />
    <rect x="43" y="6" width="3" height="2" fill="var(--foreground)" shape-rendering="crispEdges" />
    <rect x="45" y="3" width="1" height="3" fill="var(--foreground)" shape-rendering="crispEdges" />
    <rect x="46" y="16" width="3" height="1" fill="var(--foreground)" shape-rendering="crispEdges" />
    <rect x="46" y="17" width="1" height="1" fill="var(--foreground)" shape-rendering="crispEdges" />
    <rect x="46" y="18" width="2" height="1" fill="var(--foreground)" shape-rendering="crispEdges" />
    <rect x="46" y="19" width="1" height="2" fill="var(--foreground)" shape-rendering="crispEdges" />
    <rect x="47" y="4" width="1" height="1" fill="var(--foreground)" shape-rendering="crispEdges" />
    <rect x="47" y="6" width="1" height="2" fill="var(--foreground)" shape-rendering="crispEdges" />
    <rect x="48" y="5" width="2" height="1" fill="var(--foreground)" shape-rendering="crispEdges" />
    <rect x="48" y="17" width="1" height="1" fill="var(--foreground)" shape-rendering="crispEdges" />
    <rect x="48" y="19" width="1" height="2" fill="var(--foreground)" shape-rendering="crispEdges" />
    <rect x="49" y="3" width="1" height="2" fill="var(--foreground)" shape-rendering="crispEdges" />
    <rect x="49" y="6" width="1" height="2" fill="var(--foreground)" shape-rendering="crispEdges" />
    <rect x="50" y="16" width="3" height="1" fill="var(--foreground)" shape-rendering="crispEdges" />
    <rect x="50" y="17" width="1" height="1" fill="var(--foreground)" shape-rendering="crispEdges" />
    <rect x="50" y="18" width="3" height="1" fill="var(--foreground)" shape-rendering="crispEdges" />
    <rect x="50" y="19" width="1" height="2" fill="var(--foreground)" shape-rendering="crispEdges" />
    <rect x="51" y="4" width="1" height="3" fill="var(--foreground)" shape-rendering="crispEdges" />
    <rect x="52" y="17" width="1" height="1" fill="var(--foreground)" shape-rendering="crispEdges" />
    <rect x="52" y="19" width="1" height="2" fill="var(--foreground)" shape-rendering="crispEdges" />
    <rect x="53" y="3" width="3" height="3" fill="var(--foreground)" shape-rendering="crispEdges" />
    <rect x="53" y="6" width="1" height="2" fill="var(--foreground)" shape-rendering="crispEdges" />
    <rect x="54" y="16" width="3" height="1" fill="var(--foreground)" shape-rendering="crispEdges" />
    <rect x="54" y="17" width="1" height="1" fill="var(--foreground)" shape-rendering="crispEdges" />
    <rect x="54" y="18" width="3" height="1" fill="var(--foreground)" shape-rendering="crispEdges" />
    <rect x="54" y="20" width="3" height="1" fill="var(--foreground)" shape-rendering="crispEdges" />
    <rect x="55" y="6" width="1" height="1" fill="var(--foreground)" shape-rendering="crispEdges" />
    <rect x="56" y="7" width="2" height="1" fill="var(--foreground)" shape-rendering="crispEdges" />
    <rect x="56" y="19" width="1" height="1" fill="var(--foreground)" shape-rendering="crispEdges" />
    <rect x="57" y="3" width="1" height="4" fill="var(--foreground)" shape-rendering="crispEdges" />
    <rect x="58" y="16" width="3" height="1" fill="var(--foreground)" shape-rendering="crispEdges" />
    <rect x="58" y="17" width="1" height="1" fill="var(--foreground)" shape-rendering="crispEdges" />
    <rect x="58" y="18" width="3" height="1" fill="var(--foreground)" shape-rendering="crispEdges" />
    <rect x="58" y="19" width="1" height="1" fill="var(--foreground)" shape-rendering="crispEdges" />
    <rect x="58" y="20" width="3" height="1" fill="var(--foreground)" shape-rendering="crispEdges" />
    <rect x="59" y="4" width="3" height="1" fill="var(--foreground)" shape-rendering="crispEdges" />
    <rect x="59" y="6" width="3" height="1" fill="var(--foreground)" shape-rendering="crispEdges" />
    <rect x="61" y="3" width="1" height="1" fill="var(--foreground)" shape-rendering="crispEdges" />
    <rect x="61" y="5" width="1" height="1" fill="var(--foreground)" shape-rendering="crispEdges" />
    <rect x="61" y="7" width="1" height="1" fill="var(--foreground)" shape-rendering="crispEdges" />
    <rect x="63" y="4" width="1" height="1" fill="var(--foreground)" shape-rendering="crispEdges" />
    <rect x="63" y="5" width="4" height="1" fill="var(--foreground)" shape-rendering="crispEdges" />
    <rect x="63" y="6" width="1" height="1" fill="var(--foreground)" shape-rendering="crispEdges" />
    <rect x="65" y="3" width="1" height="1" fill="var(--foreground)" shape-rendering="crispEdges" />
    <rect x="65" y="4" width="2" height="1" fill="var(--foreground)" shape-rendering="crispEdges" />
    <rect x="65" y="6" width="2" height="2" fill="var(--foreground)" shape-rendering="crispEdges" />
    <rect x="65" y="16" width="3" height="1" fill="var(--foreground)" shape-rendering="crispEdges" />
    <rect x="65" y="17" width="1" height="1" fill="var(--foreground)" shape-rendering="crispEdges" />
    <rect x="65" y="18" width="3" height="1" fill="var(--foreground)" shape-rendering="crispEdges" />
    <rect x="65" y="20" width="3" height="1" fill="var(--foreground)" shape-rendering="crispEdges" />
    <rect x="67" y="19" width="1" height="1" fill="var(--foreground)" shape-rendering="crispEdges" />
    <rect x="68" y="4" width="2" height="2" fill="var(--foreground)" shape-rendering="crispEdges" />
    <rect x="68" y="6" width="4" height="1" fill="var(--foreground)" shape-rendering="crispEdges" />
    <rect x="68" y="7" width="2" height="1" fill="var(--foreground)" shape-rendering="crispEdges" />
    <rect x="69" y="3" width="1" height="1" fill="var(--foreground)" shape-rendering="crispEdges" />
    <rect x="69" y="16" width="3" height="1" fill="var(--foreground)" shape-rendering="crispEdges" />
    <rect x="69" y="17" width="1" height="1" fill="var(--foreground)" shape-rendering="crispEdges" />
    <rect x="69" y="18" width="3" height="1" fill="var(--foreground)" shape-rendering="crispEdges" />
    <rect x="69" y="19" width="1" height="1" fill="var(--foreground)" shape-rendering="crispEdges" />
    <rect x="69" y="20" width="3" height="1" fill="var(--foreground)" shape-rendering="crispEdges" />
    <rect x="71" y="4" width="4" height="1" fill="var(--foreground)" shape-rendering="crispEdges" />
    <rect x="73" y="3" width="5" height="1" fill="var(--foreground)" shape-rendering="crispEdges" />
    <rect x="73" y="5" width="1" height="1" fill="var(--foreground)" shape-rendering="crispEdges" />
    <rect x="73" y="6" width="2" height="1" fill="var(--foreground)" shape-rendering="crispEdges" />
    <rect x="73" y="7" width="5" height="1" fill="var(--foreground)" shape-rendering="crispEdges" />
    <rect x="73" y="16" width="1" height="4" fill="var(--foreground)" shape-rendering="crispEdges" />
    <rect x="73" y="20" width="3" height="1" fill="var(--foreground)" shape-rendering="crispEdges" />
    <rect x="76" y="4" width="2" height="1" fill="var(--foreground)" shape-rendering="crispEdges" />
    <rect x="76" y="6" width="4" height="1" fill="var(--foreground)" shape-rendering="crispEdges" />
    <rect x="77" y="5" width="1" height="1" fill="var(--foreground)" shape-rendering="crispEdges" />
    <rect x="77" y="16" width="3" height="1" fill="var(--foreground)" shape-rendering="crispEdges" />
    <rect x="77" y="17" width="1" height="1" fill="var(--foreground)" shape-rendering="crispEdges" />
    <rect x="77" y="18" width="3" height="1" fill="var(--foreground)" shape-rendering="crispEdges" />
    <rect x="77" y="19" width="1" height="1" fill="var(--foreground)" shape-rendering="crispEdges" />
    <rect x="77" y="20" width="3" height="1" fill="var(--foreground)" shape-rendering="crispEdges" />
    <rect x="79" y="4" width="3" height="1" fill="var(--foreground)" shape-rendering="crispEdges" />
    <rect x="81" y="3" width="1" height="1" fill="var(--foreground)" shape-rendering="crispEdges" />
    <rect x="81" y="5" width="1" height="3" fill="var(--foreground)" shape-rendering="crispEdges" />
    <rect x="81" y="16" width="3" height="1" fill="var(--foreground)" shape-rendering="crispEdges" />
    <rect x="81" y="17" width="1" height="3" fill="var(--foreground)" shape-rendering="crispEdges" />
    <rect x="81" y="20" width="3" height="1" fill="var(--foreground)" shape-rendering="crispEdges" />
    <rect x="83" y="4" width="1" height="3" fill="var(--foreground)" shape-rendering="crispEdges" />
    <rect x="83" y="17" width="1" height="1" fill="var(--foreground)" shape-rendering="crispEdges" />
    <rect x="83" y="19" width="1" height="1" fill="var(--foreground)" shape-rendering="crispEdges" />
    <rect x="85" y="3" width="1" height="5" fill="var(--foreground)" shape-rendering="crispEdges" />
    <rect x="85" y="16" width="3" height="1" fill="var(--foreground)" shape-rendering="crispEdges" />
    <rect x="86" y="17" width="1" height="4" fill="var(--foreground)" shape-rendering="crispEdges" />
    <rect x="87" y="3" width="1" height="4" fill="var(--foreground)" shape-rendering="crispEdges" />
    <rect x="89" y="3" width="1" height="5" fill="var(--foreground)" shape-rendering="crispEdges" />
    <rect x="89" y="16" width="3" height="1" fill="var(--foreground)" shape-rendering="crispEdges" />
    <rect x="89" y="17" width="1" height="1" fill="var(--foreground)" shape-rendering="crispEdges" />
    <rect x="89" y="18" width="3" height="1" fill="var(--foreground)" shape-rendering="crispEdges" />
    <rect x="89" y="19" width="1" height="1" fill="var(--foreground)" shape-rendering="crispEdges" />
    <rect x="89" y="20" width="3" height="1" fill="var(--foreground)" shape-rendering="crispEdges" />
    <rect x="91" y="4" width="1" height="4" fill="var(--foreground)" shape-rendering="crispEdges" />
    <rect x="92" y="3" width="2" height="1" fill="var(--foreground)" shape-rendering="crispEdges" />
    <rect x="93" y="4" width="1" height="4" fill="var(--foreground)" shape-rendering="crispEdges" />
    <rect x="93" y="16" width="2" height="1" fill="var(--foreground)" shape-rendering="crispEdges" />
    <rect x="93" y="17" width="1" height="3" fill="var(--foreground)" shape-rendering="crispEdges" />
    <rect x="93" y="20" width="2" height="1" fill="var(--foreground)" shape-rendering="crispEdges" />
    <rect x="95" y="4" width="1" height="3" fill="var(--foreground)" shape-rendering="crispEdges" />
    <rect x="95" y="17" width="1" height="3" fill="var(--foreground)" shape-rendering="crispEdges" />
    <rect x="96" y="3" width="2" height="1" fill="var(--foreground)" shape-rendering="crispEdges" />
    <rect x="96" y="7" width="2" height="1" fill="var(--foreground)" shape-rendering="crispEdges" />
    <rect x="97" y="4" width="1" height="2" fill="var(--foreground)" shape-rendering="crispEdges" />
    <rect x="97" y="6" width="3" height="1" fill="var(--foreground)" shape-rendering="crispEdges" />
    <rect x="99" y="4" width="13" height="1" fill="var(--foreground)" shape-rendering="crispEdges" />
    <rect x="100" y="16" width="2" height="1" fill="var(--foreground)" shape-rendering="crispEdges" />
    <rect x="100" y="17" width="1" height="3" fill="var(--foreground)" shape-rendering="crispEdges" />
    <rect x="100" y="20" width="2" height="1" fill="var(--foreground)" shape-rendering="crispEdges" />
    <rect x="101" y="3" width="11" height="1" fill="var(--foreground)" shape-rendering="crispEdges" />
    <rect x="101" y="5" width="11" height="3" fill="var(--foreground)" shape-rendering="crispEdges" />
    <rect x="102" y="17" width="1" height="3" fill="var(--foreground)" shape-rendering="crispEdges" />
    <rect x="104" y="16" width="3" height="1" fill="var(--foreground)" shape-rendering="crispEdges" />
    <rect x="104" y="17" width="1" height="1" fill="var(--foreground)" shape-rendering="crispEdges" />
    <rect x="104" y="18" width="3" height="1" fill="var(--foreground)" shape-rendering="crispEdges" />
    <rect x="104" y="19" width="1" height="2" fill="var(--foreground)" shape-rendering="crispEdges" />
    <rect x="106" y="17" width="1" height="1" fill="var(--foreground)" shape-rendering="crispEdges" />
    <rect x="106" y="19" width="1" height="2" fill="var(--foreground)" shape-rendering="crispEdges" />
    <rect x="108" y="16" width="3" height="1" fill="var(--foreground)" shape-rendering="crispEdges" />
    <rect x="109" y="17" width="1" height="4" fill="var(--foreground)" shape-rendering="crispEdges" />
    <rect x="112" y="16" width="3" height="1" fill="var(--foreground)" shape-rendering="crispEdges" />
    <rect x="112" y="17" width="1" height="1" fill="var(--foreground)" shape-rendering="crispEdges" />
    <rect x="112" y="18" width="3" height="1" fill="var(--foreground)" shape-rendering="crispEdges" />
    <rect x="112" y="19" width="1" height="2" fill="var(--foreground)" shape-rendering="crispEdges" />
    <rect x="113" y="3" width="4" height="1" fill="var(--foreground)" shape-rendering="crispEdges" />
    <rect x="113" y="4" width="3" height="1" fill="var(--foreground)" shape-rendering="crispEdges" />
    <rect x="113" y="6" width="1" height="1" fill="var(--foreground)" shape-rendering="crispEdges" />
    <rect x="113" y="7" width="2" height="1" fill="var(--foreground)" shape-rendering="crispEdges" />
    <rect x="114" y="17" width="1" height="1" fill="var(--foreground)" shape-rendering="crispEdges" />
    <rect x="114" y="19" width="1" height="2" fill="var(--foreground)" shape-rendering="crispEdges" />
    <rect x="115" y="5" width="1" height="1" fill="var(--foreground)" shape-rendering="crispEdges" />
    <rect x="116" y="7" width="2" height="1" fill="var(--foreground)" shape-rendering="crispEdges" />
    <rect x="117" y="5" width="1" height="2" fill="var(--foreground)" shape-rendering="crispEdges" />
    <rect x="119" y="2" width="2" height="7" fill="var(--foreground)" shape-rendering="crispEdges" />
  </g>
</svg>