<svg viewBox="0 0 128 64" xmlns="http://www.w3.org/2000/svg" shape-rendering="crispEdges">
  <g id="pixels">
    <rect x="0" y="0" width="70" height="2" fill="var(--foreground)" shape-rendering="crispEdges" />
    <rect x="0" y="2" width="2" height="5" fill="var(--foreground)" shape-rendering="crispEdges" />
    <rect x="0" y="7" width="70" height="2" fill="var(--foreground)" shape-rendering="crispEdges" />
    <rect x="0" y="55" width="48" height="1" fill="var(--foreground)" shape-rendering="crispEdges" />
    <rect x="0" y="56" width="31" height="1" fill="var(--foreground)" shape-rendering="crispEdges" />
    <rect x="0" y="57" width="2" height="1" fill="var(--foreground)" shape-rendering="crispEdges" />
    <rect x="0" y="58" width="3" height="4" fill="var(--foreground)" shape-rendering="crispEdges" />
    <rect x="0" y="62" width="31" height="1" fill="var(--foreground)" shape-rendering="crispEdges" />
    <rect x="0" y="63" width="48" height="1" fill="var(--foreground)" shape-rendering="crispEdges" />
    <rect x="2" y="38" width="1" height="2" fill="var(--foreground)" shape-rendering="crispEdges" />
    <rect x="3" y="2" width="3" height="4" fill="var(--foreground)" shape-rendering="crispEdges" />
    <rect x="3" y="37" width="1" height="1" fill="var(--foreground)" shape-rendering="crispEdges" />
    <rect x="4" y="17" width="1" height="5" fill="var(--foreground)" shape-rendering="crispEdges" />
    <rect x="4" y="27" width="1" height="1" fill="var(--foreground)" shape-rendering="crispEdges" />
    <rect x="4" y="30" width="3" height="1" fill="var(--foreground)" shape-rendering="crispEdges" />
    <rect x="4" y="36" width="1" height="1" fill="var(--foreground)" shape-rendering="crispEdges" />
    <rect x="4" y="48" width="1" height="3" fill="var(--foreground)" shape-rendering="crispEdges" />
    <rect x="4" y="51" width="2" height="1" fill="var(--foreground)" shape-rendering="crispEdges" />
    <rect x="4" y="52" width="1" height="1" fill="var(--foreground)" shape-rendering="crispEdges" />
    <rect x="4" y="58" width="2" height="1" fill="var(--foreground)" shape-rendering="crispEdges" />
    <rect x="4" y="59" width="3" height="2" fill="var(--foreground)" shape-rendering="crispEdges" />
    <rect x="4" y="61" width="2" height="1" fill="var(--foreground)" shape-rendering="crispEdges" />
    <rect x="5" y="6" width="1" height="1" fill="var(--foreground)" shape-rendering="crispEdges" />
    <rect x="5" y="15" width="1" height="2" fill="var(--foreground)" shape-rendering="crispEdges" />
    <rect x="5" y="22" width="1" height="2" fill="var(--foreground)" shape-rendering="crispEdges" />
    <rect x="5" y="26" width="3" height="1" fill="var(--foreground)" shape-rendering="crispEdges" />
    <rect x="5" y="28" width="2" height="1" fill="var(--foreground)" shape-rendering="crispEdges" />
    <rect x="5" y="35" width="4" height="1" fill="var(--foreground)" shape-rendering="crispEdges" />
    <rect x="5" y="57" width="2" height="1" fill="var(--foreground)" shape-rendering="crispEdges" />
    <rect x="6" y="14" width="1" height="1" fill="var(--foreground)" shape-rendering="crispEdges" />
    <rect x="6" y="50" width="1" height="1" fill="var(--foreground)" shape-rendering="crispEdges" />
    <rect x="7" y="3" width="4" height="1" fill="var(--foreground)" shape-rendering="crispEdges" />
    <rect x="7" y="5" width="4" height="1" fill="var(--foreground)" shape-rendering="crispEdges" />
    <rect x="7" y="6" width="5" height="1" fill="var(--foreground)" shape-rendering="crispEdges" />
    <rect x="7" y="13" width="2" height="1" fill="var(--foreground)" shape-rendering="crispEdges" />
    <rect x="7" y="29" width="1" height="1" fill="var(--foreground)" shape-rendering="crispEdges" />
    <rect x="7" y="51" width="2" height="1" fill="var(--foreground)" shape-rendering="crispEdges" />
    <rect x="8" y="48" width="1" height="3" fill="var(--foreground)" shape-rendering="crispEdges" />
    <rect x="8" y="52" width="1" height="1" fill="var(--foreground)" shape-rendering="crispEdges" />
    <rect x="8" y="57" width="6" height="4" fill="var(--foreground)" shape-rendering="crispEdges" />
    <rect x="9" y="4" width="2" height="1" fill="var(--foreground)" shape-rendering="crispEdges" />
    <rect x="9" y="12" width="5" height="1" fill="var(--foreground)" shape-rendering="crispEdges" />
    <rect x="9" y="26" width="3" height="1" fill="var(--foreground)" shape-rendering="crispEdges" />
    <rect x="9" y="27" width="1" height="2" fill="var(--foreground)" shape-rendering="crispEdges" />
    <rect x="9" y="29" width="3" height="1" fill="var(--foreground)" shape-rendering="crispEdges" />
    <rect x="9" y="30" width="1" height="1" fill="var(--foreground)" shape-rendering="crispEdges" />
    <rect x="9" y="36" width="1" height="1" fill="var(--foreground)" shape-rendering="crispEdges" />
    <rect x="9" y="61" width="5" height="1" fill="var(--foreground)" shape-rendering="crispEdges" />
    <rect x="10" y="2" width="2" height="1" fill="var(--foreground)" shape-rendering="crispEdges" />
    <rect x="10" y="37" width="1" height="1" fill="var(--foreground)" shape-rendering="crispEdges" />
    <rect x="10" y="49" width="1" height="1" fill="var(--foreground)" shape-rendering="crispEdges" />
    <rect x="10" y="50" width="4" height="1" fill="var(--foreground)" shape-rendering="crispEdges" />
    <rect x="10" y="51" width="1" height="2" fill="var(--foreground)" shape-rendering="crispEdges" />
    <rect x="11" y="19" width="2" height="1" fill="var(--foreground)" shape-rendering="crispEdges" />
    <rect x="11" y="38" width="1" height="3" fill="var(--foreground)" shape-rendering="crispEdges" />
    <rect x="11" y="48" width="2" height="1" fill="var(--foreground)" shape-rendering="crispEdges" />
    <rect x="12" y="3" width="2" height="3" fill="var(--foreground)" shape-rendering="crispEdges" />
    <rect x="12" y="27" width="1" height="2" fill="var(--foreground)" shape-rendering="crispEdges" />
    <rect x="12" y="41" width="1" height="1" fill="var(--foreground)" shape-rendering="crispEdges" />
    <rect x="13" y="18" width="2" height="1" fill="var(--foreground)" shape-rendering="crispEdges" />
    <rect x="13" y="42" width="1" height="1" fill="var(--foreground)" shape-rendering="crispEdges" />
    <rect x="13" y="49" width="1" height="1" fill="var(--foreground)" shape-rendering="crispEdges" />
    <rect x="13" y="51" width="1" height="2" fill="var(--foreground)" shape-rendering="crispEdges" />
    <rect x="14" y="2" width="5" height="1" fill="var(--foreground)" shape-rendering="crispEdges" />
    <rect x="14" y="6" width="5" height="1" fill="var(--foreground)" shape-rendering="crispEdges" />
    <rect x="14" y="13" width="2" height="1" fill="var(--foreground)" shape-rendering="crispEdges" />
    <rect x="14" y="26" width="3" height="1" fill="var(--foreground)" shape-rendering="crispEdges" />
    <rect x="14" y="27" width="1" height="3" fill="var(--foreground)" shape-rendering="crispEdges" />
    <rect x="14" y="30" width="3" height="1" fill="var(--foreground)" shape-rendering="crispEdges" />
    <rect x="14" y="43" width="4" height="1" fill="var(--foreground)" shape-rendering="crispEdges" />
    <rect x="15" y="3" width="7" height="1" fill="var(--foreground)" shape-rendering="crispEdges" />
    <rect x="15" y="4" width="5" height="1" fill="var(--foreground)" shape-rendering="crispEdges" />
    <rect x="15" y="5" width="4" height="1" fill="var(--foreground)" shape-rendering="crispEdges" />
    <rect x="15" y="17" width="4" height="1" fill="var(--foreground)" shape-rendering="crispEdges" />
    <rect x="15" y="48" width="1" height="4" fill="var(--foreground)" shape-rendering="crispEdges" />
    <rect x="15" y="57" width="3" height="4" fill="var(--foreground)" shape-rendering="crispEdges" />
    <rect x="16" y="14" width="1" height="1" fill="var(--foreground)" shape-rendering="crispEdges" />
    <rect x="16" y="52" width="1" height="1" fill="var(--foreground)" shape-rendering="crispEdges" />
    <rect x="17" y="15" width="1" height="2" fill="var(--foreground)" shape-rendering="crispEdges" />
    <rect x="17" y="22" width="1" height="2" fill="var(--foreground)" shape-rendering="crispEdges" />
    <rect x="17" y="27" width="1" height="3" fill="var(--foreground)" shape-rendering="crispEdges" />
    <rect x="17" y="51" width="1" height="1" fill="var(--foreground)" shape-rendering="crispEdges" />
    <rect x="17" y="61" width="1" height="1" fill="var(--foreground)" shape-rendering="crispEdges" />
    <rect x="18" y="18" width="1" height="4" fill="var(--foreground)" shape-rendering="crispEdges" />
    <rect x="18" y="42" width="1" height="1" fill="var(--foreground)" shape-rendering="crispEdges" />
    <rect x="18" y="48" width="1" height="3" fill="var(--foreground)" shape-rendering="crispEdges" />
    <rect x="19" y="41" width="1" height="1" fill="var(--foreground)" shape-rendering="crispEdges" />
    <rect x="19" y="58" width="4" height="1" fill="var(--foreground)" shape-rendering="crispEdges" />
    <rect x="19" y="60" width="4" height="1" fill="var(--foreground)" shape-rendering="crispEdges" />
    <rect x="20" y="5" width="7" height="1" fill="var(--foreground)" shape-rendering="crispEdges" />
    <rect x="20" y="39" width="1" height="2" fill="var(--foreground)" shape-rendering="crispEdges" />
    <rect x="21" y="59" width="2" height="1" fill="var(--foreground)" shape-rendering="crispEdges" />
    <rect x="22" y="2" width="6" height="1" fill="var(--foreground)" shape-rendering="crispEdges" />
    <rect x="22" y="4" width="5" height="1" fill="var(--foreground)" shape-rendering="crispEdges" />
    <rect x="22" y="57" width="1" height="1" fill="var(--foreground)" shape-rendering="crispEdges" />
    <rect x="22" y="61" width="2" height="1" fill="var(--foreground)" shape-rendering="crispEdges" />
    <rect x="23" y="3" width="4" height="1" fill="var(--foreground)" shape-rendering="crispEdges" />
    <rect x="23" y="6" width="5" height="1" fill="var(--foreground)" shape-rendering="crispEdges" />
    <rect x="24" y="57" width="2" height="3" fill="var(--foreground)" shape-rendering="crispEdges" />
    <rect x="24" y="60" width="1" height="1" fill="var(--foreground)" shape-rendering="crispEdges" />
    <rect x="25" y="61" width="23" height="1" fill="var(--foreground)" shape-rendering="crispEdges" />
    <rect x="26" y="60" width="2" height="1" fill="var(--foreground)" shape-rendering="crispEdges" />
    <rect x="27" y="57" width="21" height="1" fill="var(--foreground)" shape-rendering="crispEdges" />
    <rect x="27" y="58" width="1" height="1" fill="var(--foreground)" shape-rendering="crispEdges" />
    <rect x="27" y="59" width="4" height="1" fill="var(--foreground)" shape-rendering="crispEdges" />
    <rect x="28" y="3" width="2" height="3" fill="var(--foreground)" shape-rendering="crispEdges" />
    <rect x="29" y="2" width="1" height="1" fill="var(--foreground)" shape-rendering="crispEdges" />
    <rect x="29" y="6" width="1" height="1" fill="var(--foreground)" shape-rendering="crispEdges" />
    <rect x="29" y="58" width="2" height="1" fill="var(--foreground)" shape-rendering="crispEdges" />
    <rect x="29" y="60" width="2" height="1" fill="var(--foreground)" shape-rendering="crispEdges" />
    <rect x="30" y="26" width="1" height="1" fill="var(--foreground)" shape-rendering="crispEdges" />
    <rect x="30" y="27" width="2" height="1" fill="var(--foreground)" shape-rendering="crispEdges" />
    <rect x="30" y="28" width="1" height="3" fill="var(--foreground)" shape-rendering="crispEdges" />
    <rect x="31" y="3" width="2" height="2" fill="var(--foreground)" shape-rendering="crispEdges" />
    <rect x="31" y="6" width="7" height="1" fill="var(--foreground)" shape-rendering="crispEdges" />
    <rect x="31" y="16" width="1" height="1" fill="var(--foreground)" shape-rendering="crispEdges" />
    <rect x="31" y="18" width="1" height="1" fill="var(--foreground)" shape-rendering="crispEdges" />
    <rect x="31" y="37" width="3" height="1" fill="var(--foreground)" shape-rendering="crispEdges" />
    <rect x="31" y="38" width="1" height="1" fill="var(--foreground)" shape-rendering="crispEdges" />
    <rect x="31" y="39" width="3" height="1" fill="var(--foreground)" shape-rendering="crispEdges" />
    <rect x="31" y="40" width="1" height="2" fill="var(--foreground)" shape-rendering="crispEdges" />
    <rect x="31" y="48" width="3" height="1" fill="var(--foreground)" shape-rendering="crispEdges" />
    <rect x="31" y="49" width="1" height="3" fill="var(--foreground)" shape-rendering="crispEdges" />
    <rect x="31" y="52" width="3" height="1" fill="var(--foreground)" shape-rendering="crispEdges" />
    <rect x="32" y="17" width="1" height="1" fill="var(--foreground)" shape-rendering="crispEdges" />
    <rect x="32" y="28" width="1" height="1" fill="var(--foreground)" shape-rendering="crispEdges" />
    <rect x="32" y="56" width="1" height="1" fill="var(--foreground)" shape-rendering="crispEdges" />
    <rect x="32" y="62" width="1" height="1" fill="var(--foreground)" shape-rendering="crispEdges" />
    <rect x="33" y="2" width="5" height="1" fill="var(--foreground)" shape-rendering="crispEdges" />
    <rect x="33" y="5" width="5" height="1" fill="var(--foreground)" shape-rendering="crispEdges" />
    <rect x="33" y="16" width="1" height="1" fill="var(--foreground)" shape-rendering="crispEdges" />
    <rect x="33" y="18" width="1" height="1" fill="var(--foreground)" shape-rendering="crispEdges" />
    <rect x="33" y="27" width="2" height="1" fill="var(--foreground)" shape-rendering="crispEdges" />
    <rect x="34" y="3" width="7" height="1" fill="var(--foreground)" shape-rendering="crispEdges" />
    <rect x="34" y="4" width="5" height="1" fill="var(--foreground)" shape-rendering="crispEdges" />
    <rect x="34" y="26" width="1" height="1" fill="var(--foreground)" shape-rendering="crispEdges" />
    <rect x="34" y="28" width="1" height="3" fill="var(--foreground)" shape-rendering="crispEdges" />
    <rect x="34" y="38" width="1" height="1" fill="var(--foreground)" shape-rendering="crispEdges" />
    <rect x="34" y="40" width="1" height="2" fill="var(--foreground)" shape-rendering="crispEdges" />
    <rect x="34" y="49" width="1" height="3" fill="var(--foreground)" shape-rendering="crispEdges" />
    <rect x="34" y="56" width="1" height="1" fill="var(--foreground)" shape-rendering="crispEdges" />
    <rect x="34" y="62" width="1" height="1" fill="var(--foreground)" shape-rendering="crispEdges" />
    <rect x="35" y="16" width="2" height="1" fill="var(--foreground)" shape-rendering="crispEdges" />
    <rect x="35" y="19" width="3" height="1" fill="var(--foreground)" shape-rendering="crispEdges" />
    <rect x="36" y="15" width="1" height="1" fill="var(--foreground)" shape-rendering="crispEdges" />
    <rect x="36" y="17" width="1" height="2" fill="var(--foreground)" shape-rendering="crispEdges" />
    <rect x="36" y="26" width="1" height="4" fill="var(--foreground)" shape-rendering="crispEdges" />
    <rect x="36" y="37" width="4" height="1" fill="var(--foreground)" shape-rendering="crispEdges" />
    <rect x="36" y="38" width="1" height="1" fill="var(--foreground)" shape-rendering="crispEdges" />
    <rect x="36" y="39" width="3" height="1" fill="var(--foreground)" shape-rendering="crispEdges" />
    <rect x="36" y="40" width="1" height="1" fill="var(--foreground)" shape-rendering="crispEdges" />
    <rect x="36" y="41" width="4" height="1" fill="var(--foreground)" shape-rendering="crispEdges" />
    <rect x="36" y="49" width="1" height="1" fill="var(--foreground)" shape-rendering="crispEdges" />
    <rect x="36" y="52" width="3" height="1" fill="var(--foreground)" shape-rendering="crispEdges" />
    <rect x="36" y="56" width="1" height="1" fill="var(--foreground)" shape-rendering="crispEdges" />
    <rect x="36" y="62" width="1" height="1" fill="var(--foreground)" shape-rendering="crispEdges" />
    <rect x="37" y="30" width="2" height="1" fill="var(--foreground)" shape-rendering="crispEdges" />
    <rect x="37" y="48" width="3" height="1" fill="var(--foreground)" shape-rendering="crispEdges" />
    <rect x="37" y="50" width="2" height="1" fill="var(--foreground)" shape-rendering="crispEdges" />
    <rect x="38" y="56" width="1" height="1" fill="var(--foreground)" shape-rendering="crispEdges" />
    <rect x="38" y="62" width="1" height="1" fill="var(--foreground)" shape-rendering="crispEdges" />
    <rect x="39" y="5" width="4" height="1" fill="var(--foreground)" shape-rendering="crispEdges" />
    <rect x="39" y="16" width="1" height="1" fill="var(--foreground)" shape-rendering="crispEdges" />
    <rect x="39" y="17" width="3" height="1" fill="var(--foreground)" shape-rendering="crispEdges" />
    <rect x="39" y="18" width="1" height="1" fill="var(--foreground)" shape-rendering="crispEdges" />
    <rect x="39" y="26" width="1" height="4" fill="var(--foreground)" shape-rendering="crispEdges" />
    <rect x="39" y="51" width="1" height="1" fill="var(--foreground)" shape-rendering="crispEdges" />
    <rect x="40" y="15" width="3" height="1" fill="var(--foreground)" shape-rendering="crispEdges" />
    <rect x="40" y="19" width="2" height="1" fill="var(--foreground)" shape-rendering="crispEdges" />
    <rect x="40" y="56" width="1" height="1" fill="var(--foreground)" shape-rendering="crispEdges" />
    <rect x="40" y="62" width="1" height="1" fill="var(--foreground)" shape-rendering="crispEdges" />
    <rect x="41" y="2" width="4" height="1" fill="var(--foreground)" shape-rendering="crispEdges" />
    <rect x="41" y="4" width="3" height="1" fill="var(--foreground)" shape-rendering="crispEdges" />
    <rect x="41" y="26" width="1" height="4" fill="var(--foreground)" shape-rendering="crispEdges" />
    <rect x="41" y="30" width="3" height="1" fill="var(--foreground)" shape-rendering="crispEdges" />
    <rect x="41" y="37" width="1" height="4" fill="var(--foreground)" shape-rendering="crispEdges" />
    <rect x="41" y="41" width="3" height="1" fill="var(--foreground)" shape-rendering="crispEdges" />
    <rect x="41" y="48" width="3" height="1" fill="var(--foreground)" shape-rendering="crispEdges" />
    <rect x="42" y="3" width="3" height="1" fill="var(--foreground)" shape-rendering="crispEdges" />
    <rect x="42" y="6" width="1" height="1" fill="var(--foreground)" shape-rendering="crispEdges" />
    <rect x="42" y="18" width="1" height="1" fill="var(--foreground)" shape-rendering="crispEdges" />
    <rect x="42" y="49" width="1" height="4" fill="var(--foreground)" shape-rendering="crispEdges" />
    <rect x="42" y="56" width="1" height="1" fill="var(--foreground)" shape-rendering="crispEdges" />
    <rect x="42" y="62" width="1" height="1" fill="var(--foreground)" shape-rendering="crispEdges" />
    <rect x="44" y="5" width="3" height="2" fill="var(--foreground)" shape-rendering="crispEdges" />
    <rect x="44" y="56" width="1" height="1" fill="var(--foreground)" shape-rendering="crispEdges" />
    <rect x="44" y="58" width="4" height="3" fill="var(--foreground)" shape-rendering="crispEdges" />
    <rect x="44" y="62" width="1" height="1" fill="var(--foreground)" shape-rendering="crispEdges" />
    <rect x="45" y="4" width="3" height="1" fill="var(--foreground)" shape-rendering="crispEdges" />
    <rect x="46" y="2" width="1" height="1" fill="var(--foreground)" shape-rendering="crispEdges" />
    <rect x="46" y="3" width="4" height="1" fill="var(--foreground)" shape-rendering="crispEdges" />
    <rect x="46" y="56" width="2" height="1" fill="var(--foreground)" shape-rendering="crispEdges" />
    <rect x="46" y="62" width="2" height="1" fill="var(--foreground)" shape-rendering="crispEdges" />
    <rect x="48" y="5" width="5" height="1" fill="var(--foreground)" shape-rendering="crispEdges" />
    <rect x="49" y="55" width="79" height="1" fill="var(--foreground)" shape-rendering="crispEdges" />
    <rect x="49" y="56" width="14" height="2" fill="var(--foreground)" shape-rendering="crispEdges" />
    <rect x="49" y="58" width="10" height="1" fill="var(--foreground)" shape-rendering="crispEdges" />
    <rect x="49" y="59" width="14" height="1" fill="var(--foreground)" shape-rendering="crispEdges" />
    <rect x="49" y="60" width="10" height="1" fill="var(--foreground)" shape-rendering="crispEdges" />
    <rect x="49" y="61" width="2" height="1" fill="var(--foreground)" shape-rendering="crispEdges" />
    <rect x="49" y="62" width="14" height="1" fill="var(--foreground)" shape-rendering="crispEdges" />
    <rect x="49" y="63" width="79" height="1" fill="var(--foreground)" shape-rendering="crispEdges" />
    <rect x="50" y="2" width="2" height="1" fill="var(--foreground)" shape-rendering="crispEdges" />
    <rect x="50" y="4" width="3" height="1" fill="var(--foreground)" shape-rendering="crispEdges" />
    <rect x="51" y="3" width="2" height="1" fill="var(--foreground)" shape-rendering="crispEdges" />
    <rect x="51" y="6" width="1" height="1" fill="var(--foreground)" shape-rendering="crispEdges" />
    <rect x="53" y="2" width="17" height="1" fill="var(--foreground)" shape-rendering="crispEdges" />
    <rect x="53" y="6" width="17" height="1" fill="var(--foreground)" shape-rendering="crispEdges" />
    <rect x="54" y="3" width="16" height="3" fill="var(--foreground)" shape-rendering="crispEdges" />
    <rect x="54" y="61" width="1" height="1" fill="var(--foreground)" shape-rendering="crispEdges" />
    <rect x="55" y="12" width="1" height="1" fill="var(--foreground)" shape-rendering="crispEdges" />
    <rect x="55" y="22" width="1" height="1" fill="var(--foreground)" shape-rendering="crispEdges" />
    <rect x="56" y="13" width="2" height="1" fill="var(--foreground)" shape-rendering="crispEdges" />
    <rect x="56" y="26" width="4" height="1" fill="var(--foreground)" shape-rendering="crispEdges" />
    <rect x="56" y="27" width="1" height="1" fill="var(--foreground)" shape-rendering="crispEdges" />
    <rect x="56" y="28" width="3" height="1" fill="var(--foreground)" shape-rendering="crispEdges" />
    <rect x="56" y="29" width="1" height="2" fill="var(--foreground)" shape-rendering="crispEdges" />
    <rect x="56" y="39" width="1" height="5" fill="var(--foreground)" shape-rendering="crispEdges" />
    <rect x="56" y="48" width="3" height="1" fill="var(--foreground)" shape-rendering="crispEdges" />
    <rect x="56" y="49" width="1" height="3" fill="var(--foreground)" shape-rendering="crispEdges" />
    <rect x="56" y="52" width="3" height="1" fill="var(--foreground)" shape-rendering="crispEdges" />
    <rect x="57" y="22" width="1" height="1" fill="var(--foreground)" shape-rendering="crispEdges" />
    <rect x="57" y="37" width="1" height="2" fill="var(--foreground)" shape-rendering="crispEdges" />
    <rect x="57" y="44" width="1" height="2" fill="var(--foreground)" shape-rendering="crispEdges" />
    <rect x="58" y="14" width="2" height="1" fill="var(--foreground)" shape-rendering="crispEdges" />
    <rect x="58" y="36" width="1" height="1" fill="var(--foreground)" shape-rendering="crispEdges" />
    <rect x="58" y="61" width="5" height="1" fill="var(--foreground)" shape-rendering="crispEdges" />
    <rect x="59" y="22" width="1" height="1" fill="var(--foreground)" shape-rendering="crispEdges" />
    <rect x="59" y="35" width="2" height="1" fill="var(--foreground)" shape-rendering="crispEdges" />
    <rect x="59" y="49" width="1" height="3" fill="var(--foreground)" shape-rendering="crispEdges" />
    <rect x="60" y="15" width="2" height="1" fill="var(--foreground)" shape-rendering="crispEdges" />
    <rect x="60" y="58" width="3" height="1" fill="var(--foreground)" shape-rendering="crispEdges" />
    <rect x="60" y="60" width="3" height="1" fill="var(--foreground)" shape-rendering="crispEdges" />
    <rect x="61" y="22" width="1" height="1" fill="var(--foreground)" shape-rendering="crispEdges" />
    <rect x="61" y="27" width="1" height="1" fill="var(--foreground)" shape-rendering="crispEdges" />
    <rect x="61" y="28" width="4" height="1" fill="var(--foreground)" shape-rendering="crispEdges" />
    <rect x="61" y="29" width="1" height="2" fill="var(--foreground)" shape-rendering="crispEdges" />
    <rect x="61" y="34" width="5" height="1" fill="var(--foreground)" shape-rendering="crispEdges" />
    <rect x="61" y="48" width="4" height="1" fill="var(--foreground)" shape-rendering="crispEdges" />
    <rect x="61" y="49" width="1" height="1" fill="var(--foreground)" shape-rendering="crispEdges" />
    <rect x="61" y="50" width="3" height="1" fill="var(--foreground)" shape-rendering="crispEdges" />
    <rect x="61" y="51" width="1" height="1" fill="var(--foreground)" shape-rendering="crispEdges" />
    <rect x="61" y="52" width="4" height="1" fill="var(--foreground)" shape-rendering="crispEdges" />
    <rect x="62" y="16" width="2" height="1" fill="var(--foreground)" shape-rendering="crispEdges" />
    <rect x="62" y="26" width="2" height="1" fill="var(--foreground)" shape-rendering="crispEdges" />
    <rect x="63" y="22" width="1" height="1" fill="var(--foreground)" shape-rendering="crispEdges" />
    <rect x="63" y="35" width="1" height="7" fill="var(--foreground)" shape-rendering="crispEdges" />
    <rect x="64" y="17" width="2" height="1" fill="var(--foreground)" shape-rendering="crispEdges" />
    <rect x="64" y="27" width="1" height="1" fill="var(--foreground)" shape-rendering="crispEdges" />
    <rect x="64" y="29" width="1" height="2" fill="var(--foreground)" shape-rendering="crispEdges" />
    <rect x="64" y="57" width="2" height="5" fill="var(--foreground)" shape-rendering="crispEdges" />
    <rect x="65" y="22" width="1" height="1" fill="var(--foreground)" shape-rendering="crispEdges" />
    <rect x="65" y="56" width="1" height="1" fill="var(--foreground)" shape-rendering="crispEdges" />
    <rect x="65" y="62" width="1" height="1" fill="var(--foreground)" shape-rendering="crispEdges" />
    <rect x="66" y="18" width="2" height="1" fill="var(--foreground)" shape-rendering="crispEdges" />
    <rect x="66" y="26" width="3" height="1" fill="var(--foreground)" shape-rendering="crispEdges" />
    <rect x="66" y="27" width="1" height="3" fill="var(--foreground)" shape-rendering="crispEdges" />
    <rect x="66" y="30" width="3" height="1" fill="var(--foreground)" shape-rendering="crispEdges" />
    <rect x="66" y="35" width="2" height="1" fill="var(--foreground)" shape-rendering="crispEdges" />
    <rect x="66" y="48" width="3" height="1" fill="var(--foreground)" shape-rendering="crispEdges" />
    <rect x="66" y="49" width="1" height="2" fill="var(--foreground)" shape-rendering="crispEdges" />
    <rect x="66" y="51" width="3" height="1" fill="var(--foreground)" shape-rendering="crispEdges" />
    <rect x="66" y="52" width="1" height="1" fill="var(--foreground)" shape-rendering="crispEdges" />
    <rect x="67" y="22" width="1" height="1" fill="var(--foreground)" shape-rendering="crispEdges" />
    <rect x="67" y="58" width="1" height="1" fill="var(--foreground)" shape-rendering="crispEdges" />
    <rect x="67" y="59" width="4" height="1" fill="var(--foreground)" shape-rendering="crispEdges" />
    <rect x="67" y="60" width="1" height="2" fill="var(--foreground)" shape-rendering="crispEdges" />
    <rect x="68" y="19" width="2" height="1" fill="var(--foreground)" shape-rendering="crispEdges" />
    <rect x="68" y="36" width="1" height="1" fill="var(--foreground)" shape-rendering="crispEdges" />
    <rect x="68" y="57" width="2" height="1" fill="var(--foreground)" shape-rendering="crispEdges" />
    <rect x="69" y="22" width="1" height="1" fill="var(--foreground)" shape-rendering="crispEdges" />
    <rect x="69" y="27" width="1" height="3" fill="var(--foreground)" shape-rendering="crispEdges" />
    <rect x="69" y="37" width="1" height="2" fill="var(--foreground)" shape-rendering="crispEdges" />
    <rect x="69" y="44" width="1" height="2" fill="var(--foreground)" shape-rendering="crispEdges" />
    <rect x="69" y="49" width="1" height="2" fill="var(--foreground)" shape-rendering="crispEdges" />
    <rect x="70" y="20" width="2" height="1" fill="var(--foreground)" shape-rendering="crispEdges" />
    <rect x="70" y="39" width="1" height="5" fill="var(--foreground)" shape-rendering="crispEdges" />
    <rect x="70" y="58" width="1" height="1" fill="var(--foreground)" shape-rendering="crispEdges" />
    <rect x="70" y="60" width="1" height="2" fill="var(--foreground)" shape-rendering="crispEdges" />
    <rect x="71" y="0" width="57" height="2" fill="var(--foreground)" shape-rendering="crispEdges" />
    <rect x="71" y="2" width="2" height="5" fill="var(--foreground)" shape-rendering="crispEdges" />
    <rect x="71" y="7" width="57" height="2" fill="var(--foreground)" shape-rendering="crispEdges" />
    <rect x="71" y="22" width="1" height="1" fill="var(--foreground)" shape-rendering="crispEdges" />
    <rect x="72" y="58" width="1" height="3" fill="var(--foreground)" shape-rendering="crispEdges" />
    <rect x="73" y="57" width="2" height="1" fill="var(--foreground)" shape-rendering="crispEdges" />
    <rect x="73" y="61" width="2" height="1" fill="var(--foreground)" shape-rendering="crispEdges" />
    <rect x="74" y="3" width="2" height="1" fill="var(--foreground)" shape-rendering="crispEdges" />
    <rect x="74" y="5" width="2" height="1" fill="var(--foreground)" shape-rendering="crispEdges" />
    <rect x="75" y="58" width="1" height="3" fill="var(--foreground)" shape-rendering="crispEdges" />
    <rect x="76" y="2" width="2" height="1" fill="var(--foreground)" shape-rendering="crispEdges" />
    <rect x="76" y="4" width="2" height="1" fill="var(--foreground)" shape-rendering="crispEdges" />
    <rect x="76" y="6" width="2" height="1" fill="var(--foreground)" shape-rendering="crispEdges" />
    <rect x="77" y="3" width="1" height="1" fill="var(--foreground)" shape-rendering="crispEdges" />
    <rect x="77" y="5" width="1" height="1" fill="var(--foreground)" shape-rendering="crispEdges" />
    <rect x="77" y="58" width="2" height="1" fill="var(--foreground)" shape-rendering="crispEdges" />
    <rect x="77" y="61" width="3" height="1" fill="var(--foreground)" shape-rendering="crispEdges" />
    <rect x="78" y="57" width="1" height="1" fill="var(--foreground)" shape-rendering="crispEdges" />
    <rect x="78" y="59" width="1" height="2" fill="var(--foreground)" shape-rendering="crispEdges" />
    <rect x="79" y="3" width="2" height="2" fill="var(--foreground)" shape-rendering="crispEdges" />
    <rect x="79" y="6" width="4" height="1" fill="var(--foreground)" shape-rendering="crispEdges" />
    <rect x="81" y="2" width="2" height="1" fill="var(--foreground)" shape-rendering="crispEdges" />
    <rect x="81" y="5" width="2" height="1" fill="var(--foreground)" shape-rendering="crispEdges" />
    <rect x="81" y="56" width="1" height="1" fill="var(--foreground)" shape-rendering="crispEdges" />
    <rect x="81" y="57" width="2" height="5" fill="var(--foreground)" shape-rendering="crispEdges" />
    <rect x="81" y="62" width="1" height="1" fill="var(--foreground)" shape-rendering="crispEdges" />
    <rect x="82" y="3" width="1" height="2" fill="var(--foreground)" shape-rendering="crispEdges" />
    <rect x="82" y="17" width="1" height="5" fill="var(--foreground)" shape-rendering="crispEdges" />
    <rect x="82" y="27" width="1" height="1" fill="var(--foreground)" shape-rendering="crispEdges" />
    <rect x="82" y="30" width="3" height="1" fill="var(--foreground)" shape-rendering="crispEdges" />
    <rect x="82" y="38" width="1" height="3" fill="var(--foreground)" shape-rendering="crispEdges" />
    <rect x="83" y="15" width="1" height="2" fill="var(--foreground)" shape-rendering="crispEdges" />
    <rect x="83" y="22" width="1" height="2" fill="var(--foreground)" shape-rendering="crispEdges" />
    <rect x="83" y="26" width="3" height="1" fill="var(--foreground)" shape-rendering="crispEdges" />
    <rect x="83" y="28" width="2" height="1" fill="var(--foreground)" shape-rendering="crispEdges" />
    <rect x="83" y="37" width="2" height="1" fill="var(--foreground)" shape-rendering="crispEdges" />
    <rect x="83" y="41" width="2" height="1" fill="var(--foreground)" shape-rendering="crispEdges" />
    <rect x="83" y="48" width="3" height="1" fill="var(--foreground)" shape-rendering="crispEdges" />
    <rect x="83" y="49" width="1" height="3" fill="var(--foreground)" shape-rendering="crispEdges" />
    <rect x="83" y="52" width="3" height="1" fill="var(--foreground)" shape-rendering="crispEdges" />
    <rect x="84" y="2" width="3" height="1" fill="var(--foreground)" shape-rendering="crispEdges" />
    <rect x="84" y="4" width="1" height="1" fill="var(--foreground)" shape-rendering="crispEdges" />
    <rect x="84" y="5" width="3" height="2" fill="var(--foreground)" shape-rendering="crispEdges" />
    <rect x="84" y="14" width="1" height="1" fill="var(--foreground)" shape-rendering="crispEdges" />
    <rect x="84" y="56" width="44" height="7" fill="var(--foreground)" shape-rendering="crispEdges" />
    <rect x="85" y="3" width="1" height="1" fill="var(--foreground)" shape-rendering="crispEdges" />
    <rect x="85" y="13" width="2" height="1" fill="var(--foreground)" shape-rendering="crispEdges" />
    <rect x="85" y="23" width="1" height="1" fill="var(--foreground)" shape-rendering="crispEdges" />
    <rect x="85" y="29" width="1" height="1" fill="var(--foreground)" shape-rendering="crispEdges" />
    <rect x="85" y="38" width="1" height="1" fill="var(--foreground)" shape-rendering="crispEdges" />
    <rect x="85" y="40" width="1" height="1" fill="var(--foreground)" shape-rendering="crispEdges" />
    <rect x="86" y="4" width="1" height="1" fill="var(--foreground)" shape-rendering="crispEdges" />
    <rect x="86" y="22" width="1" height="1" fill="var(--foreground)" shape-rendering="crispEdges" />
    <rect x="86" y="49" width="1" height="3" fill="var(--foreground)" shape-rendering="crispEdges" />
    <rect x="87" y="12" width="5" height="1" fill="var(--foreground)" shape-rendering="crispEdges" />
    <rect x="87" y="21" width="1" height="1" fill="var(--foreground)" shape-rendering="crispEdges" />
    <rect x="87" y="26" width="3" height="1" fill="var(--foreground)" shape-rendering="crispEdges" />
    <rect x="87" y="27" width="1" height="2" fill="var(--foreground)" shape-rendering="crispEdges" />
    <rect x="87" y="29" width="3" height="1" fill="var(--foreground)" shape-rendering="crispEdges" />
    <rect x="87" y="30" width="1" height="1" fill="var(--foreground)" shape-rendering="crispEdges" />
    <rect x="87" y="37" width="1" height="2" fill="var(--foreground)" shape-rendering="crispEdges" />
    <rect x="87" y="39" width="4" height="1" fill="var(--foreground)" shape-rendering="crispEdges" />
    <rect x="87" y="40" width="1" height="2" fill="var(--foreground)" shape-rendering="crispEdges" />
    <rect x="88" y="2" width="4" height="1" fill="var(--foreground)" shape-rendering="crispEdges" />
    <rect x="88" y="3" width="1" height="1" fill="var(--foreground)" shape-rendering="crispEdges" />
    <rect x="88" y="4" width="4" height="1" fill="var(--foreground)" shape-rendering="crispEdges" />
    <rect x="88" y="5" width="1" height="1" fill="var(--foreground)" shape-rendering="crispEdges" />
    <rect x="88" y="6" width="3" height="1" fill="var(--foreground)" shape-rendering="crispEdges" />
    <rect x="88" y="20" width="1" height="1" fill="var(--foreground)" shape-rendering="crispEdges" />
    <rect x="88" y="49" width="1" height="1" fill="var(--foreground)" shape-rendering="crispEdges" />
    <rect x="88" y="52" width="3" height="1" fill="var(--foreground)" shape-rendering="crispEdges" />
    <rect x="89" y="19" width="1" height="1" fill="var(--foreground)" shape-rendering="crispEdges" />
    <rect x="89" y="48" width="3" height="1" fill="var(--foreground)" shape-rendering="crispEdges" />
    <rect x="89" y="50" width="2" height="1" fill="var(--foreground)" shape-rendering="crispEdges" />
    <rect x="90" y="3" width="1" height="1" fill="var(--foreground)" shape-rendering="crispEdges" />
    <rect x="90" y="5" width="2" height="1" fill="var(--foreground)" shape-rendering="crispEdges" />
    <rect x="90" y="27" width="1" height="2" fill="var(--foreground)" shape-rendering="crispEdges" />
    <rect x="90" y="37" width="1" height="2" fill="var(--foreground)" shape-rendering="crispEdges" />
    <rect x="90" y="40" width="1" height="2" fill="var(--foreground)" shape-rendering="crispEdges" />
    <rect x="91" y="51" width="1" height="1" fill="var(--foreground)" shape-rendering="crispEdges" />
    <rect x="92" y="13" width="2" height="1" fill="var(--foreground)" shape-rendering="crispEdges" />
    <rect x="92" y="26" width="1" height="2" fill="var(--foreground)" shape-rendering="crispEdges" />
    <rect x="92" y="28" width="4" height="1" fill="var(--foreground)" shape-rendering="crispEdges" />
    <rect x="92" y="29" width="1" height="2" fill="var(--foreground)" shape-rendering="crispEdges" />
    <rect x="92" y="38" width="1" height="3" fill="var(--foreground)" shape-rendering="crispEdges" />
    <rect x="93" y="2" width="2" height="1" fill="var(--foreground)" shape-rendering="crispEdges" />
    <rect x="93" y="3" width="5" height="1" fill="var(--foreground)" shape-rendering="crispEdges" />
    <rect x="93" y="4" width="3" height="1" fill="var(--foreground)" shape-rendering="crispEdges" />
    <rect x="93" y="5" width="2" height="1" fill="var(--foreground)" shape-rendering="crispEdges" />
    <rect x="93" y="37" width="2" height="1" fill="var(--foreground)" shape-rendering="crispEdges" />
    <rect x="93" y="41" width="2" height="1" fill="var(--foreground)" shape-rendering="crispEdges" />
    <rect x="93" y="48" width="3" height="1" fill="var(--foreground)" shape-rendering="crispEdges" />
    <rect x="94" y="6" width="1" height="1" fill="var(--foreground)" shape-rendering="crispEdges" />
    <rect x="94" y="14" width="1" height="1" fill="var(--foreground)" shape-rendering="crispEdges" />
    <rect x="94" y="49" width="1" height="4" fill="var(--foreground)" shape-rendering="crispEdges" />
    <rect x="95" y="15" width="1" height="2" fill="var(--foreground)" shape-rendering="crispEdges" />
    <rect x="95" y="22" width="1" height="2" fill="var(--foreground)" shape-rendering="crispEdges" />
    <rect x="95" y="26" width="1" height="2" fill="var(--foreground)" shape-rendering="crispEdges" />
    <rect x="95" y="29" width="1" height="2" fill="var(--foreground)" shape-rendering="crispEdges" />
    <rect x="95" y="38" width="1" height="3" fill="var(--foreground)" shape-rendering="crispEdges" />
    <rect x="96" y="5" width="4" height="1" fill="var(--foreground)" shape-rendering="crispEdges" />
    <rect x="96" y="17" width="1" height="5" fill="var(--foreground)" shape-rendering="crispEdges" />
    <rect x="98" y="2" width="3" height="1" fill="var(--foreground)" shape-rendering="crispEdges" />
    <rect x="98" y="4" width="2" height="1" fill="var(--foreground)" shape-rendering="crispEdges" />
    <rect x="99" y="3" width="1" height="1" fill="var(--foreground)" shape-rendering="crispEdges" />
    <rect x="99" y="6" width="2" height="1" fill="var(--foreground)" shape-rendering="crispEdges" />
    <rect x="101" y="3" width="2" height="3" fill="var(--foreground)" shape-rendering="crispEdges" />
    <rect x="103" y="2" width="5" height="1" fill="var(--foreground)" shape-rendering="crispEdges" />
    <rect x="103" y="6" width="2" height="1" fill="var(--foreground)" shape-rendering="crispEdges" />
    <rect x="104" y="3" width="3" height="3" fill="var(--foreground)" shape-rendering="crispEdges" />
    <rect x="106" y="6" width="2" height="1" fill="var(--foreground)" shape-rendering="crispEdges" />
    <rect x="106" y="15" width="4" height="1" fill="var(--foreground)" shape-rendering="crispEdges" />
    <rect x="106" y="16" width="1" height="1" fill="var(--foreground)" shape-rendering="crispEdges" />
    <rect x="106" y="17" width="3" height="1" fill="var(--foreground)" shape-rendering="crispEdges" />
    <rect x="106" y="18" width="1" height="2" fill="var(--foreground)" shape-rendering="crispEdges" />
    <rect x="108" y="3" width="2" height="3" fill="var(--foreground)" shape-rendering="crispEdges" />
    <rect x="108" y="26" width="1" height="1" fill="var(--foreground)" shape-rendering="crispEdges" />
    <rect x="108" y="27" width="2" height="1" fill="var(--foreground)" shape-rendering="crispEdges" />
    <rect x="108" y="28" width="1" height="3" fill="var(--foreground)" shape-rendering="crispEdges" />
    <rect x="108" y="39" width="1" height="5" fill="var(--foreground)" shape-rendering="crispEdges" />
    <rect x="108" y="48" width="3" height="1" fill="var(--foreground)" shape-rendering="crispEdges" />
    <rect x="108" y="49" width="1" height="3" fill="var(--foreground)" shape-rendering="crispEdges" />
    <rect x="108" y="52" width="3" height="1" fill="var(--foreground)" shape-rendering="crispEdges" />
    <rect x="109" y="37" width="1" height="2" fill="var(--foreground)" shape-rendering="crispEdges" />
    <rect x="109" y="44" width="1" height="2" fill="var(--foreground)" shape-rendering="crispEdges" />
    <rect x="110" y="2" width="11" height="1" fill="var(--foreground)" shape-rendering="crispEdges" />
    <rect x="110" y="6" width="11" height="1" fill="var(--foreground)" shape-rendering="crispEdges" />
    <rect x="110" y="28" width="1" height="1" fill="var(--foreground)" shape-rendering="crispEdges" />
    <rect x="110" y="36" width="1" height="1" fill="var(--foreground)" shape-rendering="crispEdges" />
    <rect x="111" y="3" width="10" height="3" fill="var(--foreground)" shape-rendering="crispEdges" />
    <rect x="111" y="15" width="3" height="1" fill="var(--foreground)" shape-rendering="crispEdges" />
    <rect x="111" y="16" width="1" height="1" fill="var(--foreground)" shape-rendering="crispEdges" />
    <rect x="111" y="17" width="3" height="1" fill="var(--foreground)" shape-rendering="crispEdges" />
    <rect x="111" y="18" width="1" height="2" fill="var(--foreground)" shape-rendering="crispEdges" />
    <rect x="111" y="27" width="2" height="1" fill="var(--foreground)" shape-rendering="crispEdges" />
    <rect x="111" y="35" width="2" height="1" fill="var(--foreground)" shape-rendering="crispEdges" />
    <rect x="111" y="49" width="1" height="3" fill="var(--foreground)" shape-rendering="crispEdges" />
    <rect x="112" y="26" width="1" height="1" fill="var(--foreground)" shape-rendering="crispEdges" />
    <rect x="112" y="28" width="1" height="3" fill="var(--foreground)" shape-rendering="crispEdges" />
    <rect x="113" y="34" width="5" height="1" fill="var(--foreground)" shape-rendering="crispEdges" />
    <rect x="113" y="48" width="4" height="1" fill="var(--foreground)" shape-rendering="crispEdges" />
    <rect x="113" y="49" width="1" height="1" fill="var(--foreground)" shape-rendering="crispEdges" />
    <rect x="113" y="50" width="3" height="1" fill="var(--foreground)" shape-rendering="crispEdges" />
    <rect x="113" y="51" width="1" height="1" fill="var(--foreground)" shape-rendering="crispEdges" />
    <rect x="113" y="52" width="4" height="1" fill="var(--foreground)" shape-rendering="crispEdges" />
    <rect x="114" y="16" width="1" height="1" fill="var(--foreground)" shape-rendering="crispEdges" />
    <rect x="114" y="18" width="1" height="2" fill="var(--foreground)" shape-rendering="crispEdges" />
    <rect x="114" y="27" width="1" height="3" fill="var(--foreground)" shape-rendering="crispEdges" />
    <rect x="115" y="26" width="2" height="1" fill="var(--foreground)" shape-rendering="crispEdges" />
    <rect x="115" y="30" width="2" height="1" fill="var(--foreground)" shape-rendering="crispEdges" />
    <rect x="115" y="41" width="1" height="1" fill="var(--foreground)" shape-rendering="crispEdges" />
    <rect x="116" y="15" width="4" height="1" fill="var(--foreground)" shape-rendering="crispEdges" />
    <rect x="116" y="16" width="1" height="1" fill="var(--foreground)" shape-rendering="crispEdges" />
    <rect x="116" y="17" width="3" height="1" fill="var(--foreground)" shape-rendering="crispEdges" />
    <rect x="116" y="18" width="1" height="1" fill="var(--foreground)" shape-rendering="crispEdges" />
    <rect x="116" y="19" width="4" height="1" fill="var(--foreground)" shape-rendering="crispEdges" />
    <rect x="116" y="40" width="1" height="1" fill="var(--foreground)" shape-rendering="crispEdges" />
    <rect x="117" y="27" width="1" height="3" fill="var(--foreground)" shape-rendering="crispEdges" />
    <rect x="117" y="39" width="1" height="1" fill="var(--foreground)" shape-rendering="crispEdges" />
    <rect x="118" y="35" width="2" height="1" fill="var(--foreground)" shape-rendering="crispEdges" />
    <rect x="118" y="37" width="1" height="2" fill="var(--foreground)" shape-rendering="crispEdges" />
    <rect x="118" y="48" width="3" height="1" fill="var(--foreground)" shape-rendering="crispEdges" />
    <rect x="118" y="49" width="1" height="2" fill="var(--foreground)" shape-rendering="crispEdges" />
    <rect x="118" y="51" width="3" height="1" fill="var(--foreground)" shape-rendering="crispEdges" />
    <rect x="118" y="52" width="1" height="1" fill="var(--foreground)" shape-rendering="crispEdges" />
    <rect x="119" y="26" width="3" height="1" fill="var(--foreground)" shape-rendering="crispEdges" />
    <rect x="119" y="27" width="1" height="3" fill="var(--foreground)" shape-rendering="crispEdges" />
    <rect x="119" y="30" width="3" height="1" fill="var(--foreground)" shape-rendering="crispEdges" />
    <rect x="119" y="36" width="2" height="1" fill="var(--foreground)" shape-rendering="crispEdges" />
    <rect x="121" y="15" width="4" height="1" fill="var(--foreground)" shape-rendering="crispEdges" />
    <rect x="121" y="16" width="1" height="1" fill="var(--foreground)" shape-rendering="crispEdges" />
    <rect x="121" y="17" width="3" height="1" fill="var(--foreground)" shape-rendering="crispEdges" />
    <rect x="121" y="18" width="1" height="1" fill="var(--foreground)" shape-rendering="crispEdges" />
    <rect x="121" y="19" width="4" height="1" fill="var(--foreground)" shape-rendering="crispEdges" />
    <rect x="121" y="37" width="1" height="2" fill="var(--foreground)" shape-rendering="crispEdges" />
    <rect x="121" y="44" width="1" height="2" fill="var(--foreground)" shape-rendering="crispEdges" />
    <rect x="121" y="49" width="1" height="2" fill="var(--foreground)" shape-rendering="crispEdges" />
    <rect x="122" y="27" width="1" height="3" fill="var(--foreground)" shape-rendering="crispEdges" />
    <rect x="122" y="39" width="1" height="5" fill="var(--foreground)" shape-rendering="crispEdges" />
    <rect x="126" y="2" width="2" height="5" fill="var(--foreground)" shape-rendering="crispEdges" />
  </g>
</svg>