<svg viewBox="0 0 128 64" xmlns="http://www.w3.org/2000/svg" shape-rendering="crispEdges">
  <g id="pixels">
    <rect x="1" y="59" width="26" height="1" fill="var(--foreground)" shape-rendering="crispEdges" />
    <rect x="2" y="45" width="3" height="1" fill="var(--foreground)" shape-rendering="crispEdges" />
    <rect x="3" y="3" width="3" height="1" fill="var(--foreground)" shape-rendering="crispEdges" />
    <rect x="3" y="4" width="1" height="3" fill="var(--foreground)" shape-rendering="crispEdges" />
    <rect x="3" y="7" width="3" height="1" fill="var(--foreground)" shape-rendering="crispEdges" />
    <rect x="3" y="11" width="34" height="1" fill="var(--foreground)" shape-rendering="crispEdges" />
    <rect x="3" y="44" width="1" height="1" fill="var(--foreground)" shape-rendering="crispEdges" />
    <rect x="3" y="46" width="1" height="13" fill="var(--foreground)" shape-rendering="crispEdges" />
    <rect x="3" y="60" width="1" height="2" fill="var(--foreground)" shape-rendering="crispEdges" />
    <rect x="5" y="4" width="1" height="1" fill="var(--foreground)" shape-rendering="crispEdges" />
    <rect x="5" y="6" width="1" height="1" fill="var(--foreground)" shape-rendering="crispEdges" />
    <rect x="5" y="49" width="1" height="1" fill="var(--foreground)" shape-rendering="crispEdges" />
    <rect x="5" y="53" width="1" height="1" fill="var(--foreground)" shape-rendering="crispEdges" />
    <rect x="5" y="61" width="1" height="1" fill="var(--foreground)" shape-rendering="crispEdges" />
    <rect x="6" y="44" width="1" height="2" fill="var(--foreground)" shape-rendering="crispEdges" />
    <rect x="6" y="60" width="1" height="1" fill="var(--foreground)" shape-rendering="crispEdges" />
    <rect x="7" y="3" width="1" height="4" fill="var(--foreground)" shape-rendering="crispEdges" />
    <rect x="7" y="7" width="2" height="1" fill="var(--foreground)" shape-rendering="crispEdges" />
    <rect x="7" y="46" width="1" height="1" fill="var(--foreground)" shape-rendering="crispEdges" />
    <rect x="7" y="49" width="1" height="1" fill="var(--foreground)" shape-rendering="crispEdges" />
    <rect x="7" y="53" width="1" height="1" fill="var(--foreground)" shape-rendering="crispEdges" />
    <rect x="8" y="44" width="1" height="2" fill="var(--foreground)" shape-rendering="crispEdges" />
    <rect x="8" y="58" width="1" height="1" fill="var(--foreground)" shape-rendering="crispEdges" />
    <rect x="9" y="3" width="1" height="4" fill="var(--foreground)" shape-rendering="crispEdges" />
    <rect x="9" y="49" width="1" height="1" fill="var(--foreground)" shape-rendering="crispEdges" />
    <rect x="9" y="53" width="1" height="1" fill="var(--foreground)" shape-rendering="crispEdges" />
    <rect x="9" y="57" width="1" height="1" fill="var(--foreground)" shape-rendering="crispEdges" />
    <rect x="10" y="56" width="1" height="1" fill="var(--foreground)" shape-rendering="crispEdges" />
    <rect x="11" y="3" width="3" height="1" fill="var(--foreground)" shape-rendering="crispEdges" />
    <rect x="11" y="4" width="1" height="1" fill="var(--foreground)" shape-rendering="crispEdges" />
    <rect x="11" y="5" width="3" height="1" fill="var(--foreground)" shape-rendering="crispEdges" />
    <rect x="11" y="6" width="1" height="2" fill="var(--foreground)" shape-rendering="crispEdges" />
    <rect x="11" y="49" width="1" height="1" fill="var(--foreground)" shape-rendering="crispEdges" />
    <rect x="11" y="53" width="1" height="1" fill="var(--foreground)" shape-rendering="crispEdges" />
    <rect x="11" y="55" width="1" height="1" fill="var(--foreground)" shape-rendering="crispEdges" />
    <rect x="12" y="54" width="1" height="1" fill="var(--foreground)" shape-rendering="crispEdges" />
    <rect x="13" y="4" width="1" height="1" fill="var(--foreground)" shape-rendering="crispEdges" />
    <rect x="13" y="6" width="1" height="2" fill="var(--foreground)" shape-rendering="crispEdges" />
    <rect x="13" y="49" width="1" height="1" fill="var(--foreground)" shape-rendering="crispEdges" />
    <rect x="13" y="53" width="1" height="1" fill="var(--foreground)" shape-rendering="crispEdges" />
    <rect x="13" y="55" width="1" height="1" fill="var(--foreground)" shape-rendering="crispEdges" />
    <rect x="13" y="57" width="1" height="1" fill="var(--foreground)" shape-rendering="crispEdges" />
    <rect x="14" y="52" width="1" height="1" fill="var(--foreground)" shape-rendering="crispEdges" />
    <rect x="15" y="49" width="1" height="1" fill="var(--foreground)" shape-rendering="crispEdges" />
    <rect x="15" y="51" width="1" height="1" fill="var(--foreground)" shape-rendering="crispEdges" />
    <rect x="16" y="50" width="1" height="1" fill="var(--foreground)" shape-rendering="crispEdges" />
    <rect x="17" y="49" width="1" height="1" fill="var(--foreground)" shape-rendering="crispEdges" />
    <rect x="17" y="51" width="1" height="1" fill="var(--foreground)" shape-rendering="crispEdges" />
    <rect x="17" y="53" width="1" height="1" fill="var(--foreground)" shape-rendering="crispEdges" />
    <rect x="17" y="55" width="1" height="1" fill="var(--foreground)" shape-rendering="crispEdges" />
    <rect x="17" y="57" width="1" height="1" fill="var(--foreground)" shape-rendering="crispEdges" />
    <rect x="18" y="3" width="3" height="1" fill="var(--foreground)" shape-rendering="crispEdges" />
    <rect x="18" y="4" width="1" height="3" fill="var(--foreground)" shape-rendering="crispEdges" />
    <rect x="18" y="7" width="3" height="1" fill="var(--foreground)" shape-rendering="crispEdges" />
    <rect x="18" y="48" width="1" height="1" fill="var(--foreground)" shape-rendering="crispEdges" />
    <rect x="19" y="47" width="1" height="1" fill="var(--foreground)" shape-rendering="crispEdges" />
    <rect x="19" y="54" width="3" height="1" fill="var(--foreground)" shape-rendering="crispEdges" />
    <rect x="19" y="55" width="1" height="1" fill="var(--foreground)" shape-rendering="crispEdges" />
    <rect x="19" y="56" width="3" height="1" fill="var(--foreground)" shape-rendering="crispEdges" />
    <rect x="20" y="4" width="1" height="1" fill="var(--foreground)" shape-rendering="crispEdges" />
    <rect x="20" y="6" width="1" height="1" fill="var(--foreground)" shape-rendering="crispEdges" />
    <rect x="20" y="46" width="1" height="1" fill="var(--foreground)" shape-rendering="crispEdges" />
    <rect x="21" y="55" width="1" height="1" fill="var(--foreground)" shape-rendering="crispEdges" />
    <rect x="22" y="3" width="3" height="1" fill="var(--foreground)" shape-rendering="crispEdges" />
    <rect x="22" y="4" width="1" height="1" fill="var(--foreground)" shape-rendering="crispEdges" />
    <rect x="22" y="5" width="3" height="1" fill="var(--foreground)" shape-rendering="crispEdges" />
    <rect x="22" y="6" width="1" height="2" fill="var(--foreground)" shape-rendering="crispEdges" />
    <rect x="23" y="54" width="2" height="1" fill="var(--foreground)" shape-rendering="crispEdges" />
    <rect x="23" y="55" width="1" height="1" fill="var(--foreground)" shape-rendering="crispEdges" />
    <rect x="23" y="56" width="2" height="1" fill="var(--foreground)" shape-rendering="crispEdges" />
    <rect x="25" y="58" width="1" height="1" fill="var(--foreground)" shape-rendering="crispEdges" />
    <rect x="25" y="60" width="1" height="1" fill="var(--foreground)" shape-rendering="crispEdges" />
    <rect x="26" y="4" width="1" height="3" fill="var(--foreground)" shape-rendering="crispEdges" />
    <rect x="26" y="52" width="1" height="2" fill="var(--foreground)" shape-rendering="crispEdges" />
    <rect x="26" y="54" width="2" height="1" fill="var(--foreground)" shape-rendering="crispEdges" />
    <rect x="26" y="55" width="1" height="1" fill="var(--foreground)" shape-rendering="crispEdges" />
    <rect x="27" y="3" width="2" height="1" fill="var(--foreground)" shape-rendering="crispEdges" />
    <rect x="27" y="7" width="2" height="1" fill="var(--foreground)" shape-rendering="crispEdges" />
    <rect x="27" y="56" width="1" height="1" fill="var(--foreground)" shape-rendering="crispEdges" />
    <rect x="28" y="5" width="1" height="2" fill="var(--foreground)" shape-rendering="crispEdges" />
    <rect x="39" y="1" width="82" height="2" fill="var(--foreground)" shape-rendering="crispEdges" />
    <rect x="39" y="3" width="3" height="1" fill="var(--foreground)" shape-rendering="crispEdges" />
    <rect x="39" y="4" width="4" height="4" fill="var(--foreground)" shape-rendering="crispEdges" />
    <rect x="39" y="8" width="82" height="2" fill="var(--foreground)" shape-rendering="crispEdges" />
    <rect x="40" y="0" width="80" height="1" fill="var(--foreground)" shape-rendering="crispEdges" />
    <rect x="40" y="10" width="80" height="1" fill="var(--foreground)" shape-rendering="crispEdges" />
    <rect x="42" y="16" width="2" height="1" fill="var(--foreground)" shape-rendering="crispEdges" />
    <rect x="42" y="17" width="1" height="4" fill="var(--foreground)" shape-rendering="crispEdges" />
    <rect x="42" y="29" width="1" height="4" fill="var(--foreground)" shape-rendering="crispEdges" />
    <rect x="42" y="33" width="2" height="1" fill="var(--foreground)" shape-rendering="crispEdges" />
    <rect x="42" y="42" width="2" height="1" fill="var(--foreground)" shape-rendering="crispEdges" />
    <rect x="42" y="43" width="1" height="4" fill="var(--foreground)" shape-rendering="crispEdges" />
    <rect x="42" y="55" width="1" height="4" fill="var(--foreground)" shape-rendering="crispEdges" />
    <rect x="42" y="59" width="2" height="1" fill="var(--foreground)" shape-rendering="crispEdges" />
    <rect x="44" y="4" width="2" height="2" fill="var(--foreground)" shape-rendering="crispEdges" />
    <rect x="44" y="6" width="4" height="1" fill="var(--foreground)" shape-rendering="crispEdges" />
    <rect x="44" y="7" width="2" height="1" fill="var(--foreground)" shape-rendering="crispEdges" />
    <rect x="44" y="17" width="1" height="4" fill="var(--foreground)" shape-rendering="crispEdges" />
    <rect x="44" y="29" width="1" height="4" fill="var(--foreground)" shape-rendering="crispEdges" />
    <rect x="44" y="43" width="1" height="4" fill="var(--foreground)" shape-rendering="crispEdges" />
    <rect x="44" y="55" width="1" height="4" fill="var(--foreground)" shape-rendering="crispEdges" />
    <rect x="45" y="3" width="1" height="1" fill="var(--foreground)" shape-rendering="crispEdges" />
    <rect x="46" y="16" width="3" height="1" fill="var(--foreground)" shape-rendering="crispEdges" />
    <rect x="46" y="17" width="1" height="3" fill="var(--foreground)" shape-rendering="crispEdges" />
    <rect x="46" y="20" width="3" height="1" fill="var(--foreground)" shape-rendering="crispEdges" />
    <rect x="46" y="29" width="3" height="1" fill="var(--foreground)" shape-rendering="crispEdges" />
    <rect x="46" y="30" width="1" height="3" fill="var(--foreground)" shape-rendering="crispEdges" />
    <rect x="46" y="33" width="3" height="1" fill="var(--foreground)" shape-rendering="crispEdges" />
    <rect x="46" y="42" width="3" height="1" fill="var(--foreground)" shape-rendering="crispEdges" />
    <rect x="46" y="43" width="1" height="3" fill="var(--foreground)" shape-rendering="crispEdges" />
    <rect x="46" y="46" width="3" height="1" fill="var(--foreground)" shape-rendering="crispEdges" />
    <rect x="46" y="55" width="3" height="1" fill="var(--foreground)" shape-rendering="crispEdges" />
    <rect x="46" y="56" width="1" height="3" fill="var(--foreground)" shape-rendering="crispEdges" />
    <rect x="46" y="59" width="3" height="1" fill="var(--foreground)" shape-rendering="crispEdges" />
    <rect x="47" y="3" width="1" height="2" fill="var(--foreground)" shape-rendering="crispEdges" />
    <rect x="48" y="17" width="1" height="3" fill="var(--foreground)" shape-rendering="crispEdges" />
    <rect x="48" y="30" width="1" height="3" fill="var(--foreground)" shape-rendering="crispEdges" />
    <rect x="48" y="43" width="1" height="3" fill="var(--foreground)" shape-rendering="crispEdges" />
    <rect x="48" y="56" width="1" height="3" fill="var(--foreground)" shape-rendering="crispEdges" />
    <rect x="49" y="3" width="1" height="5" fill="var(--foreground)" shape-rendering="crispEdges" />
    <rect x="50" y="16" width="3" height="1" fill="var(--foreground)" shape-rendering="crispEdges" />
    <rect x="50" y="29" width="1" height="4" fill="var(--foreground)" shape-rendering="crispEdges" />
    <rect x="50" y="33" width="3" height="1" fill="var(--foreground)" shape-rendering="crispEdges" />
    <rect x="50" y="42" width="3" height="1" fill="var(--foreground)" shape-rendering="crispEdges" />
    <rect x="50" y="55" width="1" height="4" fill="var(--foreground)" shape-rendering="crispEdges" />
    <rect x="50" y="59" width="3" height="1" fill="var(--foreground)" shape-rendering="crispEdges" />
    <rect x="51" y="4" width="1" height="1" fill="var(--foreground)" shape-rendering="crispEdges" />
    <rect x="51" y="6" width="3" height="2" fill="var(--foreground)" shape-rendering="crispEdges" />
    <rect x="51" y="17" width="1" height="4" fill="var(--foreground)" shape-rendering="crispEdges" />
    <rect x="51" y="43" width="1" height="4" fill="var(--foreground)" shape-rendering="crispEdges" />
    <rect x="53" y="3" width="1" height="3" fill="var(--foreground)" shape-rendering="crispEdges" />
    <rect x="54" y="16" width="3" height="1" fill="var(--foreground)" shape-rendering="crispEdges" />
    <rect x="54" y="17" width="1" height="1" fill="var(--foreground)" shape-rendering="crispEdges" />
    <rect x="54" y="18" width="3" height="1" fill="var(--foreground)" shape-rendering="crispEdges" />
    <rect x="54" y="19" width="1" height="1" fill="var(--foreground)" shape-rendering="crispEdges" />
    <rect x="54" y="20" width="3" height="1" fill="var(--foreground)" shape-rendering="crispEdges" />
    <rect x="54" y="29" width="3" height="1" fill="var(--foreground)" shape-rendering="crispEdges" />
    <rect x="54" y="42" width="3" height="1" fill="var(--foreground)" shape-rendering="crispEdges" />
    <rect x="54" y="43" width="1" height="1" fill="var(--foreground)" shape-rendering="crispEdges" />
    <rect x="54" y="44" width="3" height="1" fill="var(--foreground)" shape-rendering="crispEdges" />
    <rect x="54" y="45" width="1" height="1" fill="var(--foreground)" shape-rendering="crispEdges" />
    <rect x="54" y="46" width="3" height="1" fill="var(--foreground)" shape-rendering="crispEdges" />
    <rect x="54" y="55" width="3" height="1" fill="var(--foreground)" shape-rendering="crispEdges" />
    <rect x="55" y="4" width="23" height="1" fill="var(--foreground)" shape-rendering="crispEdges" />
    <rect x="55" y="6" width="23" height="1" fill="var(--foreground)" shape-rendering="crispEdges" />
    <rect x="55" y="30" width="1" height="4" fill="var(--foreground)" shape-rendering="crispEdges" />
    <rect x="55" y="56" width="1" height="4" fill="var(--foreground)" shape-rendering="crispEdges" />
    <rect x="57" y="3" width="21" height="1" fill="var(--foreground)" shape-rendering="crispEdges" />
    <rect x="57" y="5" width="21" height="1" fill="var(--foreground)" shape-rendering="crispEdges" />
    <rect x="57" y="7" width="21" height="1" fill="var(--foreground)" shape-rendering="crispEdges" />
    <rect x="58" y="29" width="3" height="1" fill="var(--foreground)" shape-rendering="crispEdges" />
    <rect x="58" y="30" width="1" height="1" fill="var(--foreground)" shape-rendering="crispEdges" />
    <rect x="58" y="31" width="3" height="1" fill="var(--foreground)" shape-rendering="crispEdges" />
    <rect x="58" y="32" width="1" height="2" fill="var(--foreground)" shape-rendering="crispEdges" />
    <rect x="58" y="55" width="3" height="1" fill="var(--foreground)" shape-rendering="crispEdges" />
    <rect x="58" y="56" width="1" height="1" fill="var(--foreground)" shape-rendering="crispEdges" />
    <rect x="58" y="57" width="3" height="1" fill="var(--foreground)" shape-rendering="crispEdges" />
    <rect x="58" y="58" width="1" height="2" fill="var(--foreground)" shape-rendering="crispEdges" />
    <rect x="60" y="30" width="1" height="1" fill="var(--foreground)" shape-rendering="crispEdges" />
    <rect x="60" y="32" width="1" height="2" fill="var(--foreground)" shape-rendering="crispEdges" />
    <rect x="60" y="56" width="1" height="1" fill="var(--foreground)" shape-rendering="crispEdges" />
    <rect x="60" y="58" width="1" height="2" fill="var(--foreground)" shape-rendering="crispEdges" />
    <rect x="61" y="17" width="2" height="1" fill="var(--foreground)" shape-rendering="crispEdges" />
    <rect x="61" y="20" width="3" height="1" fill="var(--foreground)" shape-rendering="crispEdges" />
    <rect x="61" y="42" width="3" height="1" fill="var(--foreground)" shape-rendering="crispEdges" />
    <rect x="61" y="44" width="3" height="1" fill="var(--foreground)" shape-rendering="crispEdges" />
    <rect x="61" y="45" width="1" height="1" fill="var(--foreground)" shape-rendering="crispEdges" />
    <rect x="61" y="46" width="3" height="1" fill="var(--foreground)" shape-rendering="crispEdges" />
    <rect x="62" y="16" width="1" height="1" fill="var(--foreground)" shape-rendering="crispEdges" />
    <rect x="62" y="18" width="1" height="2" fill="var(--foreground)" shape-rendering="crispEdges" />
    <rect x="62" y="30" width="1" height="3" fill="var(--foreground)" shape-rendering="crispEdges" />
    <rect x="62" y="56" width="1" height="3" fill="var(--foreground)" shape-rendering="crispEdges" />
    <rect x="63" y="29" width="2" height="1" fill="var(--foreground)" shape-rendering="crispEdges" />
    <rect x="63" y="33" width="2" height="1" fill="var(--foreground)" shape-rendering="crispEdges" />
    <rect x="63" y="43" width="1" height="1" fill="var(--foreground)" shape-rendering="crispEdges" />
    <rect x="63" y="55" width="2" height="1" fill="var(--foreground)" shape-rendering="crispEdges" />
    <rect x="63" y="59" width="2" height="1" fill="var(--foreground)" shape-rendering="crispEdges" />
    <rect x="64" y="31" width="1" height="2" fill="var(--foreground)" shape-rendering="crispEdges" />
    <rect x="64" y="57" width="1" height="2" fill="var(--foreground)" shape-rendering="crispEdges" />
    <rect x="66" y="29" width="3" height="1" fill="var(--foreground)" shape-rendering="crispEdges" />
    <rect x="66" y="30" width="1" height="1" fill="var(--foreground)" shape-rendering="crispEdges" />
    <rect x="66" y="31" width="3" height="1" fill="var(--foreground)" shape-rendering="crispEdges" />
    <rect x="66" y="32" width="1" height="1" fill="var(--foreground)" shape-rendering="crispEdges" />
    <rect x="66" y="33" width="3" height="1" fill="var(--foreground)" shape-rendering="crispEdges" />
    <rect x="66" y="55" width="3" height="1" fill="var(--foreground)" shape-rendering="crispEdges" />
    <rect x="66" y="56" width="1" height="1" fill="var(--foreground)" shape-rendering="crispEdges" />
    <rect x="66" y="57" width="3" height="1" fill="var(--foreground)" shape-rendering="crispEdges" />
    <rect x="66" y="58" width="1" height="1" fill="var(--foreground)" shape-rendering="crispEdges" />
    <rect x="66" y="59" width="3" height="1" fill="var(--foreground)" shape-rendering="crispEdges" />
    <rect x="73" y="30" width="2" height="1" fill="var(--foreground)" shape-rendering="crispEdges" />
    <rect x="73" y="33" width="3" height="1" fill="var(--foreground)" shape-rendering="crispEdges" />
    <rect x="73" y="55" width="3" height="1" fill="var(--foreground)" shape-rendering="crispEdges" />
    <rect x="73" y="57" width="3" height="1" fill="var(--foreground)" shape-rendering="crispEdges" />
    <rect x="73" y="58" width="1" height="1" fill="var(--foreground)" shape-rendering="crispEdges" />
    <rect x="73" y="59" width="3" height="1" fill="var(--foreground)" shape-rendering="crispEdges" />
    <rect x="74" y="29" width="1" height="1" fill="var(--foreground)" shape-rendering="crispEdges" />
    <rect x="74" y="31" width="1" height="2" fill="var(--foreground)" shape-rendering="crispEdges" />
    <rect x="75" y="56" width="1" height="1" fill="var(--foreground)" shape-rendering="crispEdges" />
    <rect x="79" y="4" width="1" height="1" fill="var(--foreground)" shape-rendering="crispEdges" />
    <rect x="79" y="6" width="4" height="1" fill="var(--foreground)" shape-rendering="crispEdges" />
    <rect x="79" y="7" width="3" height="1" fill="var(--foreground)" shape-rendering="crispEdges" />
    <rect x="81" y="3" width="1" height="1" fill="var(--foreground)" shape-rendering="crispEdges" />
    <rect x="81" y="4" width="2" height="2" fill="var(--foreground)" shape-rendering="crispEdges" />
    <rect x="84" y="4" width="3" height="3" fill="var(--foreground)" shape-rendering="crispEdges" />
    <rect x="85" y="3" width="1" height="1" fill="var(--foreground)" shape-rendering="crispEdges" />
    <rect x="85" y="7" width="2" height="1" fill="var(--foreground)" shape-rendering="crispEdges" />
    <rect x="88" y="4" width="2" height="4" fill="var(--foreground)" shape-rendering="crispEdges" />
    <rect x="89" y="3" width="1" height="1" fill="var(--foreground)" shape-rendering="crispEdges" />
    <rect x="91" y="4" width="1" height="1" fill="var(--foreground)" shape-rendering="crispEdges" />
    <rect x="91" y="5" width="3" height="1" fill="var(--foreground)" shape-rendering="crispEdges" />
    <rect x="91" y="6" width="1" height="1" fill="var(--foreground)" shape-rendering="crispEdges" />
    <rect x="93" y="3" width="1" height="2" fill="var(--foreground)" shape-rendering="crispEdges" />
    <rect x="93" y="6" width="1" height="2" fill="var(--foreground)" shape-rendering="crispEdges" />
    <rect x="95" y="3" width="1" height="2" fill="var(--foreground)" shape-rendering="crispEdges" />
    <rect x="95" y="6" width="1" height="2" fill="var(--foreground)" shape-rendering="crispEdges" />
    <rect x="95" y="29" width="3" height="1" fill="var(--foreground)" shape-rendering="crispEdges" />
    <rect x="95" y="30" width="1" height="3" fill="var(--foreground)" shape-rendering="crispEdges" />
    <rect x="95" y="33" width="3" height="1" fill="var(--foreground)" shape-rendering="crispEdges" />
    <rect x="95" y="56" width="2" height="1" fill="var(--foreground)" shape-rendering="crispEdges" />
    <rect x="95" y="59" width="3" height="1" fill="var(--foreground)" shape-rendering="crispEdges" />
    <rect x="96" y="55" width="1" height="1" fill="var(--foreground)" shape-rendering="crispEdges" />
    <rect x="96" y="57" width="1" height="2" fill="var(--foreground)" shape-rendering="crispEdges" />
    <rect x="97" y="3" width="4" height="5" fill="var(--foreground)" shape-rendering="crispEdges" />
    <rect x="97" y="30" width="1" height="3" fill="var(--foreground)" shape-rendering="crispEdges" />
    <rect x="99" y="33" width="1" height="1" fill="var(--foreground)" shape-rendering="crispEdges" />
    <rect x="99" y="59" width="1" height="1" fill="var(--foreground)" shape-rendering="crispEdges" />
    <rect x="101" y="29" width="3" height="1" fill="var(--foreground)" shape-rendering="crispEdges" />
    <rect x="101" y="30" width="1" height="3" fill="var(--foreground)" shape-rendering="crispEdges" />
    <rect x="101" y="33" width="3" height="1" fill="var(--foreground)" shape-rendering="crispEdges" />
    <rect x="101" y="55" width="3" height="1" fill="var(--foreground)" shape-rendering="crispEdges" />
    <rect x="101" y="56" width="1" height="3" fill="var(--foreground)" shape-rendering="crispEdges" />
    <rect x="101" y="59" width="3" height="1" fill="var(--foreground)" shape-rendering="crispEdges" />
    <rect x="102" y="3" width="1" height="4" fill="var(--foreground)" shape-rendering="crispEdges" />
    <rect x="103" y="7" width="2" height="1" fill="var(--foreground)" shape-rendering="crispEdges" />
    <rect x="103" y="30" width="1" height="3" fill="var(--foreground)" shape-rendering="crispEdges" />
    <rect x="103" y="56" width="1" height="3" fill="var(--foreground)" shape-rendering="crispEdges" />
    <rect x="104" y="3" width="3" height="2" fill="var(--foreground)" shape-rendering="crispEdges" />
    <rect x="104" y="5" width="2" height="1" fill="var(--foreground)" shape-rendering="crispEdges" />
    <rect x="104" y="6" width="1" height="1" fill="var(--foreground)" shape-rendering="crispEdges" />
    <rect x="105" y="29" width="3" height="1" fill="var(--foreground)" shape-rendering="crispEdges" />
    <rect x="105" y="30" width="1" height="3" fill="var(--foreground)" shape-rendering="crispEdges" />
    <rect x="105" y="33" width="3" height="1" fill="var(--foreground)" shape-rendering="crispEdges" />
    <rect x="105" y="55" width="3" height="1" fill="var(--foreground)" shape-rendering="crispEdges" />
    <rect x="105" y="56" width="1" height="3" fill="var(--foreground)" shape-rendering="crispEdges" />
    <rect x="105" y="59" width="3" height="1" fill="var(--foreground)" shape-rendering="crispEdges" />
    <rect x="106" y="6" width="3" height="2" fill="var(--foreground)" shape-rendering="crispEdges" />
    <rect x="107" y="5" width="2" height="1" fill="var(--foreground)" shape-rendering="crispEdges" />
    <rect x="107" y="30" width="1" height="3" fill="var(--foreground)" shape-rendering="crispEdges" />
    <rect x="107" y="56" width="1" height="3" fill="var(--foreground)" shape-rendering="crispEdges" />
    <rect x="108" y="3" width="9" height="1" fill="var(--foreground)" shape-rendering="crispEdges" />
    <rect x="108" y="4" width="1" height="1" fill="var(--foreground)" shape-rendering="crispEdges" />
    <rect x="109" y="16" width="3" height="1" fill="var(--foreground)" shape-rendering="crispEdges" />
    <rect x="109" y="17" width="1" height="3" fill="var(--foreground)" shape-rendering="crispEdges" />
    <rect x="109" y="20" width="3" height="1" fill="var(--foreground)" shape-rendering="crispEdges" />
    <rect x="109" y="29" width="3" height="1" fill="var(--foreground)" shape-rendering="crispEdges" />
    <rect x="109" y="30" width="1" height="3" fill="var(--foreground)" shape-rendering="crispEdges" />
    <rect x="109" y="33" width="3" height="1" fill="var(--foreground)" shape-rendering="crispEdges" />
    <rect x="109" y="42" width="3" height="1" fill="var(--foreground)" shape-rendering="crispEdges" />
    <rect x="109" y="43" width="1" height="3" fill="var(--foreground)" shape-rendering="crispEdges" />
    <rect x="109" y="46" width="3" height="1" fill="var(--foreground)" shape-rendering="crispEdges" />
    <rect x="109" y="55" width="3" height="1" fill="var(--foreground)" shape-rendering="crispEdges" />
    <rect x="109" y="56" width="1" height="3" fill="var(--foreground)" shape-rendering="crispEdges" />
    <rect x="109" y="59" width="3" height="1" fill="var(--foreground)" shape-rendering="crispEdges" />
    <rect x="110" y="5" width="1" height="2" fill="var(--foreground)" shape-rendering="crispEdges" />
    <rect x="111" y="17" width="1" height="1" fill="var(--foreground)" shape-rendering="crispEdges" />
    <rect x="111" y="19" width="1" height="1" fill="var(--foreground)" shape-rendering="crispEdges" />
    <rect x="111" y="30" width="1" height="3" fill="var(--foreground)" shape-rendering="crispEdges" />
    <rect x="111" y="43" width="1" height="1" fill="var(--foreground)" shape-rendering="crispEdges" />
    <rect x="111" y="45" width="1" height="1" fill="var(--foreground)" shape-rendering="crispEdges" />
    <rect x="111" y="56" width="1" height="3" fill="var(--foreground)" shape-rendering="crispEdges" />
    <rect x="112" y="4" width="1" height="4" fill="var(--foreground)" shape-rendering="crispEdges" />
    <rect x="114" y="5" width="3" height="2" fill="var(--foreground)" shape-rendering="crispEdges" />
    <rect x="116" y="4" width="1" height="1" fill="var(--foreground)" shape-rendering="crispEdges" />
    <rect x="116" y="7" width="1" height="1" fill="var(--foreground)" shape-rendering="crispEdges" />
    <rect x="116" y="16" width="3" height="1" fill="var(--foreground)" shape-rendering="crispEdges" />
    <rect x="116" y="17" width="1" height="1" fill="var(--foreground)" shape-rendering="crispEdges" />
    <rect x="116" y="18" width="3" height="1" fill="var(--foreground)" shape-rendering="crispEdges" />
    <rect x="116" y="20" width="3" height="1" fill="var(--foreground)" shape-rendering="crispEdges" />
    <rect x="116" y="29" width="1" height="4" fill="var(--foreground)" shape-rendering="crispEdges" />
    <rect x="116" y="33" width="2" height="1" fill="var(--foreground)" shape-rendering="crispEdges" />
    <rect x="116" y="42" width="3" height="1" fill="var(--foreground)" shape-rendering="crispEdges" />
    <rect x="116" y="43" width="1" height="1" fill="var(--foreground)" shape-rendering="crispEdges" />
    <rect x="116" y="44" width="3" height="1" fill="var(--foreground)" shape-rendering="crispEdges" />
    <rect x="116" y="45" width="1" height="1" fill="var(--foreground)" shape-rendering="crispEdges" />
    <rect x="116" y="46" width="3" height="1" fill="var(--foreground)" shape-rendering="crispEdges" />
    <rect x="116" y="55" width="1" height="4" fill="var(--foreground)" shape-rendering="crispEdges" />
    <rect x="116" y="59" width="2" height="1" fill="var(--foreground)" shape-rendering="crispEdges" />
    <rect x="118" y="3" width="3" height="1" fill="var(--foreground)" shape-rendering="crispEdges" />
    <rect x="118" y="5" width="3" height="2" fill="var(--foreground)" shape-rendering="crispEdges" />
    <rect x="118" y="19" width="1" height="1" fill="var(--foreground)" shape-rendering="crispEdges" />
    <rect x="118" y="29" width="1" height="4" fill="var(--foreground)" shape-rendering="crispEdges" />
    <rect x="118" y="45" width="1" height="1" fill="var(--foreground)" shape-rendering="crispEdges" />
    <rect x="118" y="55" width="1" height="4" fill="var(--foreground)" shape-rendering="crispEdges" />
    <rect x="119" y="4" width="2" height="1" fill="var(--foreground)" shape-rendering="crispEdges" />
    <rect x="119" y="7" width="2" height="1" fill="var(--foreground)" shape-rendering="crispEdges" />
  </g>
</svg>