<svg viewBox="0 0 128 64" xmlns="http://www.w3.org/2000/svg" shape-rendering="crispEdges">
  <g id="pixels">
    <rect x="0" y="3" width="3" height="1" fill="var(--foreground)" shape-rendering="crispEdges" />
    <rect x="0" y="4" width="1" height="3" fill="var(--foreground)" shape-rendering="crispEdges" />
    <rect x="0" y="7" width="3" height="1" fill="var(--foreground)" shape-rendering="crispEdges" />
    <rect x="0" y="12" width="3" height="1" fill="var(--foreground)" shape-rendering="crispEdges" />
    <rect x="0" y="13" width="1" height="3" fill="var(--foreground)" shape-rendering="crispEdges" />
    <rect x="0" y="16" width="3" height="1" fill="var(--foreground)" shape-rendering="crispEdges" />
    <rect x="0" y="19" width="3" height="1" fill="var(--foreground)" shape-rendering="crispEdges" />
    <rect x="0" y="20" width="1" height="3" fill="var(--foreground)" shape-rendering="crispEdges" />
    <rect x="0" y="23" width="3" height="1" fill="var(--foreground)" shape-rendering="crispEdges" />
    <rect x="0" y="26" width="3" height="1" fill="var(--foreground)" shape-rendering="crispEdges" />
    <rect x="0" y="27" width="1" height="3" fill="var(--foreground)" shape-rendering="crispEdges" />
    <rect x="0" y="30" width="3" height="1" fill="var(--foreground)" shape-rendering="crispEdges" />
    <rect x="0" y="37" width="3" height="1" fill="var(--foreground)" shape-rendering="crispEdges" />
    <rect x="2" y="4" width="1" height="3" fill="var(--foreground)" shape-rendering="crispEdges" />
    <rect x="2" y="13" width="1" height="3" fill="var(--foreground)" shape-rendering="crispEdges" />
    <rect x="2" y="20" width="1" height="3" fill="var(--foreground)" shape-rendering="crispEdges" />
    <rect x="2" y="27" width="1" height="3" fill="var(--foreground)" shape-rendering="crispEdges" />
    <rect x="4" y="3" width="3" height="1" fill="var(--foreground)" shape-rendering="crispEdges" />
    <rect x="4" y="4" width="1" height="3" fill="var(--foreground)" shape-rendering="crispEdges" />
    <rect x="4" y="7" width="3" height="1" fill="var(--foreground)" shape-rendering="crispEdges" />
    <rect x="4" y="13" width="2" height="1" fill="var(--foreground)" shape-rendering="crispEdges" />
    <rect x="4" y="16" width="3" height="1" fill="var(--foreground)" shape-rendering="crispEdges" />
    <rect x="4" y="19" width="3" height="1" fill="var(--foreground)" shape-rendering="crispEdges" />
    <rect x="4" y="21" width="3" height="1" fill="var(--foreground)" shape-rendering="crispEdges" />
    <rect x="4" y="22" width="1" height="1" fill="var(--foreground)" shape-rendering="crispEdges" />
    <rect x="4" y="23" width="3" height="1" fill="var(--foreground)" shape-rendering="crispEdges" />
    <rect x="4" y="26" width="3" height="1" fill="var(--foreground)" shape-rendering="crispEdges" />
    <rect x="4" y="28" width="3" height="1" fill="var(--foreground)" shape-rendering="crispEdges" />
    <rect x="4" y="30" width="3" height="1" fill="var(--foreground)" shape-rendering="crispEdges" />
    <rect x="4" y="37" width="3" height="1" fill="var(--foreground)" shape-rendering="crispEdges" />
    <rect x="5" y="12" width="1" height="1" fill="var(--foreground)" shape-rendering="crispEdges" />
    <rect x="5" y="14" width="1" height="2" fill="var(--foreground)" shape-rendering="crispEdges" />
    <rect x="6" y="4" width="1" height="3" fill="var(--foreground)" shape-rendering="crispEdges" />
    <rect x="6" y="20" width="1" height="1" fill="var(--foreground)" shape-rendering="crispEdges" />
    <rect x="6" y="27" width="1" height="1" fill="var(--foreground)" shape-rendering="crispEdges" />
    <rect x="6" y="29" width="1" height="1" fill="var(--foreground)" shape-rendering="crispEdges" />
    <rect x="8" y="4" width="1" height="1" fill="var(--foreground)" shape-rendering="crispEdges" />
    <rect x="8" y="6" width="1" height="1" fill="var(--foreground)" shape-rendering="crispEdges" />
    <rect x="8" y="13" width="1" height="1" fill="var(--foreground)" shape-rendering="crispEdges" />
    <rect x="8" y="15" width="1" height="1" fill="var(--foreground)" shape-rendering="crispEdges" />
    <rect x="8" y="20" width="1" height="1" fill="var(--foreground)" shape-rendering="crispEdges" />
    <rect x="8" y="22" width="1" height="1" fill="var(--foreground)" shape-rendering="crispEdges" />
    <rect x="8" y="27" width="1" height="1" fill="var(--foreground)" shape-rendering="crispEdges" />
    <rect x="8" y="29" width="1" height="1" fill="var(--foreground)" shape-rendering="crispEdges" />
    <rect x="8" y="34" width="1" height="1" fill="var(--foreground)" shape-rendering="crispEdges" />
    <rect x="8" y="36" width="1" height="1" fill="var(--foreground)" shape-rendering="crispEdges" />
    <rect x="15" y="4" width="2" height="1" fill="var(--foreground)" shape-rendering="crispEdges" />
    <rect x="15" y="7" width="3" height="1" fill="var(--foreground)" shape-rendering="crispEdges" />
    <rect x="15" y="13" width="2" height="1" fill="var(--foreground)" shape-rendering="crispEdges" />
    <rect x="15" y="16" width="3" height="1" fill="var(--foreground)" shape-rendering="crispEdges" />
    <rect x="15" y="20" width="2" height="1" fill="var(--foreground)" shape-rendering="crispEdges" />
    <rect x="15" y="23" width="3" height="1" fill="var(--foreground)" shape-rendering="crispEdges" />
    <rect x="15" y="27" width="2" height="1" fill="var(--foreground)" shape-rendering="crispEdges" />
    <rect x="15" y="30" width="3" height="1" fill="var(--foreground)" shape-rendering="crispEdges" />
    <rect x="15" y="34" width="2" height="1" fill="var(--foreground)" shape-rendering="crispEdges" />
    <rect x="15" y="37" width="3" height="1" fill="var(--foreground)" shape-rendering="crispEdges" />
    <rect x="16" y="3" width="1" height="1" fill="var(--foreground)" shape-rendering="crispEdges" />
    <rect x="16" y="5" width="1" height="2" fill="var(--foreground)" shape-rendering="crispEdges" />
    <rect x="16" y="12" width="1" height="1" fill="var(--foreground)" shape-rendering="crispEdges" />
    <rect x="16" y="14" width="1" height="2" fill="var(--foreground)" shape-rendering="crispEdges" />
    <rect x="16" y="19" width="1" height="1" fill="var(--foreground)" shape-rendering="crispEdges" />
    <rect x="16" y="21" width="1" height="2" fill="var(--foreground)" shape-rendering="crispEdges" />
    <rect x="16" y="26" width="1" height="1" fill="var(--foreground)" shape-rendering="crispEdges" />
    <rect x="16" y="28" width="1" height="2" fill="var(--foreground)" shape-rendering="crispEdges" />
    <rect x="16" y="33" width="1" height="1" fill="var(--foreground)" shape-rendering="crispEdges" />
    <rect x="16" y="35" width="1" height="2" fill="var(--foreground)" shape-rendering="crispEdges" />
    <rect x="19" y="4" width="1" height="1" fill="var(--foreground)" shape-rendering="crispEdges" />
    <rect x="19" y="6" width="1" height="1" fill="var(--foreground)" shape-rendering="crispEdges" />
    <rect x="19" y="13" width="1" height="1" fill="var(--foreground)" shape-rendering="crispEdges" />
    <rect x="19" y="15" width="1" height="1" fill="var(--foreground)" shape-rendering="crispEdges" />
    <rect x="19" y="20" width="1" height="1" fill="var(--foreground)" shape-rendering="crispEdges" />
    <rect x="19" y="22" width="1" height="1" fill="var(--foreground)" shape-rendering="crispEdges" />
    <rect x="19" y="27" width="1" height="1" fill="var(--foreground)" shape-rendering="crispEdges" />
    <rect x="19" y="29" width="1" height="1" fill="var(--foreground)" shape-rendering="crispEdges" />
    <rect x="19" y="34" width="1" height="1" fill="var(--foreground)" shape-rendering="crispEdges" />
    <rect x="19" y="36" width="1" height="1" fill="var(--foreground)" shape-rendering="crispEdges" />
    <rect x="20" y="5" width="1" height="1" fill="var(--foreground)" shape-rendering="crispEdges" />
    <rect x="20" y="14" width="1" height="1" fill="var(--foreground)" shape-rendering="crispEdges" />
    <rect x="20" y="21" width="1" height="1" fill="var(--foreground)" shape-rendering="crispEdges" />
    <rect x="20" y="28" width="1" height="1" fill="var(--foreground)" shape-rendering="crispEdges" />
    <rect x="20" y="35" width="1" height="1" fill="var(--foreground)" shape-rendering="crispEdges" />
    <rect x="21" y="4" width="1" height="1" fill="var(--foreground)" shape-rendering="crispEdges" />
    <rect x="21" y="6" width="1" height="1" fill="var(--foreground)" shape-rendering="crispEdges" />
    <rect x="21" y="13" width="1" height="1" fill="var(--foreground)" shape-rendering="crispEdges" />
    <rect x="21" y="15" width="1" height="1" fill="var(--foreground)" shape-rendering="crispEdges" />
    <rect x="21" y="20" width="1" height="1" fill="var(--foreground)" shape-rendering="crispEdges" />
    <rect x="21" y="22" width="1" height="1" fill="var(--foreground)" shape-rendering="crispEdges" />
    <rect x="21" y="27" width="1" height="1" fill="var(--foreground)" shape-rendering="crispEdges" />
    <rect x="21" y="29" width="1" height="1" fill="var(--foreground)" shape-rendering="crispEdges" />
    <rect x="21" y="34" width="1" height="1" fill="var(--foreground)" shape-rendering="crispEdges" />
    <rect x="21" y="36" width="1" height="1" fill="var(--foreground)" shape-rendering="crispEdges" />
    <rect x="28" y="1" width="15" height="2" fill="var(--foreground)" shape-rendering="crispEdges" />
    <rect x="28" y="3" width="2" height="5" fill="var(--foreground)" shape-rendering="crispEdges" />
    <rect x="28" y="8" width="15" height="2" fill="var(--foreground)" shape-rendering="crispEdges" />
    <rect x="30" y="12" width="2" height="1" fill="var(--foreground)" shape-rendering="crispEdges" />
    <rect x="30" y="13" width="1" height="1" fill="var(--foreground)" shape-rendering="crispEdges" />
    <rect x="30" y="14" width="2" height="1" fill="var(--foreground)" shape-rendering="crispEdges" />
    <rect x="30" y="15" width="1" height="1" fill="var(--foreground)" shape-rendering="crispEdges" />
    <rect x="30" y="16" width="2" height="1" fill="var(--foreground)" shape-rendering="crispEdges" />
    <rect x="30" y="19" width="3" height="1" fill="var(--foreground)" shape-rendering="crispEdges" />
    <rect x="30" y="20" width="1" height="3" fill="var(--foreground)" shape-rendering="crispEdges" />
    <rect x="30" y="23" width="3" height="1" fill="var(--foreground)" shape-rendering="crispEdges" />
    <rect x="30" y="26" width="2" height="1" fill="var(--foreground)" shape-rendering="crispEdges" />
    <rect x="30" y="27" width="1" height="3" fill="var(--foreground)" shape-rendering="crispEdges" />
    <rect x="30" y="30" width="2" height="1" fill="var(--foreground)" shape-rendering="crispEdges" />
    <rect x="30" y="33" width="3" height="1" fill="var(--foreground)" shape-rendering="crispEdges" />
    <rect x="30" y="34" width="1" height="1" fill="var(--foreground)" shape-rendering="crispEdges" />
    <rect x="30" y="35" width="3" height="1" fill="var(--foreground)" shape-rendering="crispEdges" />
    <rect x="30" y="36" width="1" height="2" fill="var(--foreground)" shape-rendering="crispEdges" />
    <rect x="31" y="4" width="1" height="1" fill="var(--foreground)" shape-rendering="crispEdges" />
    <rect x="31" y="6" width="1" height="2" fill="var(--foreground)" shape-rendering="crispEdges" />
    <rect x="32" y="13" width="1" height="1" fill="var(--foreground)" shape-rendering="crispEdges" />
    <rect x="32" y="15" width="1" height="1" fill="var(--foreground)" shape-rendering="crispEdges" />
    <rect x="32" y="20" width="1" height="1" fill="var(--foreground)" shape-rendering="crispEdges" />
    <rect x="32" y="22" width="1" height="1" fill="var(--foreground)" shape-rendering="crispEdges" />
    <rect x="32" y="27" width="1" height="3" fill="var(--foreground)" shape-rendering="crispEdges" />
    <rect x="32" y="34" width="1" height="1" fill="var(--foreground)" shape-rendering="crispEdges" />
    <rect x="32" y="36" width="1" height="2" fill="var(--foreground)" shape-rendering="crispEdges" />
    <rect x="33" y="3" width="1" height="5" fill="var(--foreground)" shape-rendering="crispEdges" />
    <rect x="34" y="12" width="3" height="1" fill="var(--foreground)" shape-rendering="crispEdges" />
    <rect x="34" y="13" width="1" height="3" fill="var(--foreground)" shape-rendering="crispEdges" />
    <rect x="34" y="16" width="3" height="1" fill="var(--foreground)" shape-rendering="crispEdges" />
    <rect x="34" y="19" width="3" height="1" fill="var(--foreground)" shape-rendering="crispEdges" />
    <rect x="34" y="20" width="1" height="3" fill="var(--foreground)" shape-rendering="crispEdges" />
    <rect x="34" y="23" width="3" height="1" fill="var(--foreground)" shape-rendering="crispEdges" />
    <rect x="34" y="26" width="3" height="1" fill="var(--foreground)" shape-rendering="crispEdges" />
    <rect x="34" y="27" width="1" height="3" fill="var(--foreground)" shape-rendering="crispEdges" />
    <rect x="34" y="30" width="3" height="1" fill="var(--foreground)" shape-rendering="crispEdges" />
    <rect x="34" y="33" width="3" height="1" fill="var(--foreground)" shape-rendering="crispEdges" />
    <rect x="34" y="34" width="1" height="3" fill="var(--foreground)" shape-rendering="crispEdges" />
    <rect x="34" y="37" width="3" height="1" fill="var(--foreground)" shape-rendering="crispEdges" />
    <rect x="35" y="4" width="1" height="3" fill="var(--foreground)" shape-rendering="crispEdges" />
    <rect x="36" y="13" width="1" height="3" fill="var(--foreground)" shape-rendering="crispEdges" />
    <rect x="36" y="20" width="1" height="3" fill="var(--foreground)" shape-rendering="crispEdges" />
    <rect x="36" y="27" width="1" height="3" fill="var(--foreground)" shape-rendering="crispEdges" />
    <rect x="36" y="34" width="1" height="3" fill="var(--foreground)" shape-rendering="crispEdges" />
    <rect x="37" y="3" width="2" height="1" fill="var(--foreground)" shape-rendering="crispEdges" />
    <rect x="37" y="4" width="1" height="1" fill="var(--foreground)" shape-rendering="crispEdges" />
    <rect x="37" y="5" width="2" height="2" fill="var(--foreground)" shape-rendering="crispEdges" />
    <rect x="37" y="7" width="1" height="1" fill="var(--foreground)" shape-rendering="crispEdges" />
    <rect x="38" y="13" width="2" height="1" fill="var(--foreground)" shape-rendering="crispEdges" />
    <rect x="38" y="16" width="3" height="1" fill="var(--foreground)" shape-rendering="crispEdges" />
    <rect x="38" y="20" width="2" height="1" fill="var(--foreground)" shape-rendering="crispEdges" />
    <rect x="38" y="23" width="3" height="1" fill="var(--foreground)" shape-rendering="crispEdges" />
    <rect x="38" y="27" width="2" height="1" fill="var(--foreground)" shape-rendering="crispEdges" />
    <rect x="38" y="30" width="3" height="1" fill="var(--foreground)" shape-rendering="crispEdges" />
    <rect x="38" y="33" width="3" height="1" fill="var(--foreground)" shape-rendering="crispEdges" />
    <rect x="38" y="35" width="3" height="1" fill="var(--foreground)" shape-rendering="crispEdges" />
    <rect x="38" y="36" width="1" height="1" fill="var(--foreground)" shape-rendering="crispEdges" />
    <rect x="38" y="37" width="3" height="1" fill="var(--foreground)" shape-rendering="crispEdges" />
    <rect x="39" y="12" width="1" height="1" fill="var(--foreground)" shape-rendering="crispEdges" />
    <rect x="39" y="14" width="1" height="2" fill="var(--foreground)" shape-rendering="crispEdges" />
    <rect x="39" y="19" width="1" height="1" fill="var(--foreground)" shape-rendering="crispEdges" />
    <rect x="39" y="21" width="1" height="2" fill="var(--foreground)" shape-rendering="crispEdges" />
    <rect x="39" y="26" width="1" height="1" fill="var(--foreground)" shape-rendering="crispEdges" />
    <rect x="39" y="28" width="1" height="2" fill="var(--foreground)" shape-rendering="crispEdges" />
    <rect x="40" y="3" width="3" height="4" fill="var(--foreground)" shape-rendering="crispEdges" />
    <rect x="40" y="34" width="1" height="1" fill="var(--foreground)" shape-rendering="crispEdges" />
    <rect x="41" y="7" width="2" height="1" fill="var(--foreground)" shape-rendering="crispEdges" />
    <rect x="44" y="3" width="3" height="1" fill="var(--foreground)" shape-rendering="crispEdges" />
    <rect x="44" y="4" width="1" height="1" fill="var(--foreground)" shape-rendering="crispEdges" />
    <rect x="44" y="5" width="3" height="1" fill="var(--foreground)" shape-rendering="crispEdges" />
    <rect x="44" y="6" width="1" height="2" fill="var(--foreground)" shape-rendering="crispEdges" />
    <rect x="44" y="12" width="2" height="1" fill="var(--foreground)" shape-rendering="crispEdges" />
    <rect x="44" y="13" width="1" height="1" fill="var(--foreground)" shape-rendering="crispEdges" />
    <rect x="44" y="14" width="2" height="1" fill="var(--foreground)" shape-rendering="crispEdges" />
    <rect x="44" y="15" width="1" height="1" fill="var(--foreground)" shape-rendering="crispEdges" />
    <rect x="44" y="16" width="2" height="1" fill="var(--foreground)" shape-rendering="crispEdges" />
    <rect x="44" y="19" width="3" height="1" fill="var(--foreground)" shape-rendering="crispEdges" />
    <rect x="44" y="20" width="1" height="3" fill="var(--foreground)" shape-rendering="crispEdges" />
    <rect x="44" y="23" width="3" height="1" fill="var(--foreground)" shape-rendering="crispEdges" />
    <rect x="44" y="26" width="2" height="1" fill="var(--foreground)" shape-rendering="crispEdges" />
    <rect x="44" y="27" width="1" height="3" fill="var(--foreground)" shape-rendering="crispEdges" />
    <rect x="44" y="30" width="2" height="1" fill="var(--foreground)" shape-rendering="crispEdges" />
    <rect x="46" y="4" width="1" height="1" fill="var(--foreground)" shape-rendering="crispEdges" />
    <rect x="46" y="6" width="1" height="2" fill="var(--foreground)" shape-rendering="crispEdges" />
    <rect x="46" y="13" width="1" height="1" fill="var(--foreground)" shape-rendering="crispEdges" />
    <rect x="46" y="15" width="1" height="1" fill="var(--foreground)" shape-rendering="crispEdges" />
    <rect x="46" y="20" width="1" height="1" fill="var(--foreground)" shape-rendering="crispEdges" />
    <rect x="46" y="22" width="1" height="1" fill="var(--foreground)" shape-rendering="crispEdges" />
    <rect x="46" y="27" width="1" height="3" fill="var(--foreground)" shape-rendering="crispEdges" />
    <rect x="48" y="3" width="3" height="1" fill="var(--foreground)" shape-rendering="crispEdges" />
    <rect x="48" y="4" width="1" height="3" fill="var(--foreground)" shape-rendering="crispEdges" />
    <rect x="48" y="7" width="3" height="1" fill="var(--foreground)" shape-rendering="crispEdges" />
    <rect x="48" y="12" width="3" height="1" fill="var(--foreground)" shape-rendering="crispEdges" />
    <rect x="48" y="13" width="1" height="3" fill="var(--foreground)" shape-rendering="crispEdges" />
    <rect x="48" y="16" width="3" height="1" fill="var(--foreground)" shape-rendering="crispEdges" />
    <rect x="48" y="19" width="3" height="1" fill="var(--foreground)" shape-rendering="crispEdges" />
    <rect x="48" y="20" width="1" height="3" fill="var(--foreground)" shape-rendering="crispEdges" />
    <rect x="48" y="23" width="3" height="1" fill="var(--foreground)" shape-rendering="crispEdges" />
    <rect x="48" y="26" width="3" height="1" fill="var(--foreground)" shape-rendering="crispEdges" />
    <rect x="48" y="27" width="1" height="3" fill="var(--foreground)" shape-rendering="crispEdges" />
    <rect x="48" y="30" width="3" height="1" fill="var(--foreground)" shape-rendering="crispEdges" />
    <rect x="50" y="4" width="1" height="3" fill="var(--foreground)" shape-rendering="crispEdges" />
    <rect x="50" y="13" width="1" height="3" fill="var(--foreground)" shape-rendering="crispEdges" />
    <rect x="50" y="20" width="1" height="3" fill="var(--foreground)" shape-rendering="crispEdges" />
    <rect x="50" y="27" width="1" height="3" fill="var(--foreground)" shape-rendering="crispEdges" />
    <rect x="52" y="3" width="3" height="1" fill="var(--foreground)" shape-rendering="crispEdges" />
    <rect x="52" y="5" width="3" height="1" fill="var(--foreground)" shape-rendering="crispEdges" />
    <rect x="52" y="6" width="1" height="1" fill="var(--foreground)" shape-rendering="crispEdges" />
    <rect x="52" y="7" width="3" height="1" fill="var(--foreground)" shape-rendering="crispEdges" />
    <rect x="52" y="12" width="3" height="1" fill="var(--foreground)" shape-rendering="crispEdges" />
    <rect x="52" y="14" width="3" height="1" fill="var(--foreground)" shape-rendering="crispEdges" />
    <rect x="52" y="15" width="1" height="1" fill="var(--foreground)" shape-rendering="crispEdges" />
    <rect x="52" y="16" width="3" height="1" fill="var(--foreground)" shape-rendering="crispEdges" />
    <rect x="52" y="19" width="3" height="1" fill="var(--foreground)" shape-rendering="crispEdges" />
    <rect x="52" y="21" width="3" height="1" fill="var(--foreground)" shape-rendering="crispEdges" />
    <rect x="52" y="22" width="1" height="1" fill="var(--foreground)" shape-rendering="crispEdges" />
    <rect x="52" y="23" width="3" height="1" fill="var(--foreground)" shape-rendering="crispEdges" />
    <rect x="52" y="26" width="3" height="1" fill="var(--foreground)" shape-rendering="crispEdges" />
    <rect x="52" y="28" width="3" height="1" fill="var(--foreground)" shape-rendering="crispEdges" />
    <rect x="52" y="29" width="1" height="1" fill="var(--foreground)" shape-rendering="crispEdges" />
    <rect x="52" y="30" width="3" height="1" fill="var(--foreground)" shape-rendering="crispEdges" />
    <rect x="54" y="4" width="1" height="1" fill="var(--foreground)" shape-rendering="crispEdges" />
    <rect x="54" y="13" width="1" height="1" fill="var(--foreground)" shape-rendering="crispEdges" />
    <rect x="54" y="20" width="1" height="1" fill="var(--foreground)" shape-rendering="crispEdges" />
    <rect x="54" y="27" width="1" height="1" fill="var(--foreground)" shape-rendering="crispEdges" />
    <rect x="58" y="3" width="3" height="1" fill="var(--foreground)" shape-rendering="crispEdges" />
    <rect x="58" y="4" width="1" height="1" fill="var(--foreground)" shape-rendering="crispEdges" />
    <rect x="58" y="5" width="3" height="1" fill="var(--foreground)" shape-rendering="crispEdges" />
    <rect x="58" y="6" width="1" height="2" fill="var(--foreground)" shape-rendering="crispEdges" />
    <rect x="58" y="12" width="2" height="1" fill="var(--foreground)" shape-rendering="crispEdges" />
    <rect x="58" y="13" width="1" height="1" fill="var(--foreground)" shape-rendering="crispEdges" />
    <rect x="58" y="14" width="2" height="1" fill="var(--foreground)" shape-rendering="crispEdges" />
    <rect x="58" y="15" width="1" height="1" fill="var(--foreground)" shape-rendering="crispEdges" />
    <rect x="58" y="16" width="2" height="1" fill="var(--foreground)" shape-rendering="crispEdges" />
    <rect x="58" y="19" width="3" height="1" fill="var(--foreground)" shape-rendering="crispEdges" />
    <rect x="58" y="20" width="1" height="3" fill="var(--foreground)" shape-rendering="crispEdges" />
    <rect x="58" y="23" width="3" height="1" fill="var(--foreground)" shape-rendering="crispEdges" />
    <rect x="58" y="26" width="2" height="1" fill="var(--foreground)" shape-rendering="crispEdges" />
    <rect x="58" y="27" width="1" height="3" fill="var(--foreground)" shape-rendering="crispEdges" />
    <rect x="58" y="30" width="2" height="1" fill="var(--foreground)" shape-rendering="crispEdges" />
    <rect x="60" y="4" width="1" height="1" fill="var(--foreground)" shape-rendering="crispEdges" />
    <rect x="60" y="6" width="1" height="2" fill="var(--foreground)" shape-rendering="crispEdges" />
    <rect x="60" y="13" width="1" height="1" fill="var(--foreground)" shape-rendering="crispEdges" />
    <rect x="60" y="15" width="1" height="1" fill="var(--foreground)" shape-rendering="crispEdges" />
    <rect x="60" y="20" width="1" height="1" fill="var(--foreground)" shape-rendering="crispEdges" />
    <rect x="60" y="22" width="1" height="1" fill="var(--foreground)" shape-rendering="crispEdges" />
    <rect x="60" y="27" width="1" height="3" fill="var(--foreground)" shape-rendering="crispEdges" />
    <rect x="62" y="3" width="3" height="1" fill="var(--foreground)" shape-rendering="crispEdges" />
    <rect x="62" y="4" width="1" height="3" fill="var(--foreground)" shape-rendering="crispEdges" />
    <rect x="62" y="7" width="3" height="1" fill="var(--foreground)" shape-rendering="crispEdges" />
    <rect x="62" y="12" width="3" height="1" fill="var(--foreground)" shape-rendering="crispEdges" />
    <rect x="62" y="13" width="1" height="3" fill="var(--foreground)" shape-rendering="crispEdges" />
    <rect x="62" y="16" width="3" height="1" fill="var(--foreground)" shape-rendering="crispEdges" />
    <rect x="62" y="19" width="3" height="1" fill="var(--foreground)" shape-rendering="crispEdges" />
    <rect x="62" y="20" width="1" height="3" fill="var(--foreground)" shape-rendering="crispEdges" />
    <rect x="62" y="23" width="3" height="1" fill="var(--foreground)" shape-rendering="crispEdges" />
    <rect x="62" y="26" width="3" height="1" fill="var(--foreground)" shape-rendering="crispEdges" />
    <rect x="62" y="27" width="1" height="3" fill="var(--foreground)" shape-rendering="crispEdges" />
    <rect x="62" y="30" width="3" height="1" fill="var(--foreground)" shape-rendering="crispEdges" />
    <rect x="64" y="4" width="1" height="3" fill="var(--foreground)" shape-rendering="crispEdges" />
    <rect x="64" y="13" width="1" height="3" fill="var(--foreground)" shape-rendering="crispEdges" />
    <rect x="64" y="20" width="1" height="3" fill="var(--foreground)" shape-rendering="crispEdges" />
    <rect x="64" y="27" width="1" height="3" fill="var(--foreground)" shape-rendering="crispEdges" />
    <rect x="66" y="3" width="3" height="1" fill="var(--foreground)" shape-rendering="crispEdges" />
    <rect x="66" y="5" width="3" height="1" fill="var(--foreground)" shape-rendering="crispEdges" />
    <rect x="66" y="7" width="3" height="1" fill="var(--foreground)" shape-rendering="crispEdges" />
    <rect x="66" y="12" width="3" height="1" fill="var(--foreground)" shape-rendering="crispEdges" />
    <rect x="66" y="14" width="3" height="1" fill="var(--foreground)" shape-rendering="crispEdges" />
    <rect x="66" y="16" width="3" height="1" fill="var(--foreground)" shape-rendering="crispEdges" />
    <rect x="66" y="19" width="3" height="1" fill="var(--foreground)" shape-rendering="crispEdges" />
    <rect x="66" y="21" width="3" height="1" fill="var(--foreground)" shape-rendering="crispEdges" />
    <rect x="66" y="23" width="3" height="1" fill="var(--foreground)" shape-rendering="crispEdges" />
    <rect x="66" y="26" width="3" height="1" fill="var(--foreground)" shape-rendering="crispEdges" />
    <rect x="66" y="28" width="3" height="1" fill="var(--foreground)" shape-rendering="crispEdges" />
    <rect x="66" y="30" width="3" height="1" fill="var(--foreground)" shape-rendering="crispEdges" />
    <rect x="68" y="4" width="1" height="1" fill="var(--foreground)" shape-rendering="crispEdges" />
    <rect x="68" y="6" width="1" height="1" fill="var(--foreground)" shape-rendering="crispEdges" />
    <rect x="68" y="13" width="1" height="1" fill="var(--foreground)" shape-rendering="crispEdges" />
    <rect x="68" y="15" width="1" height="1" fill="var(--foreground)" shape-rendering="crispEdges" />
    <rect x="68" y="20" width="1" height="1" fill="var(--foreground)" shape-rendering="crispEdges" />
    <rect x="68" y="22" width="1" height="1" fill="var(--foreground)" shape-rendering="crispEdges" />
    <rect x="68" y="27" width="1" height="1" fill="var(--foreground)" shape-rendering="crispEdges" />
    <rect x="68" y="29" width="1" height="1" fill="var(--foreground)" shape-rendering="crispEdges" />
    <rect x="72" y="3" width="3" height="1" fill="var(--foreground)" shape-rendering="crispEdges" />
    <rect x="72" y="4" width="1" height="1" fill="var(--foreground)" shape-rendering="crispEdges" />
    <rect x="72" y="5" width="3" height="1" fill="var(--foreground)" shape-rendering="crispEdges" />
    <rect x="72" y="6" width="1" height="2" fill="var(--foreground)" shape-rendering="crispEdges" />
    <rect x="72" y="12" width="2" height="1" fill="var(--foreground)" shape-rendering="crispEdges" />
    <rect x="72" y="13" width="1" height="1" fill="var(--foreground)" shape-rendering="crispEdges" />
    <rect x="72" y="14" width="2" height="1" fill="var(--foreground)" shape-rendering="crispEdges" />
    <rect x="72" y="15" width="1" height="1" fill="var(--foreground)" shape-rendering="crispEdges" />
    <rect x="72" y="16" width="2" height="1" fill="var(--foreground)" shape-rendering="crispEdges" />
    <rect x="72" y="19" width="3" height="1" fill="var(--foreground)" shape-rendering="crispEdges" />
    <rect x="72" y="20" width="1" height="3" fill="var(--foreground)" shape-rendering="crispEdges" />
    <rect x="72" y="23" width="3" height="1" fill="var(--foreground)" shape-rendering="crispEdges" />
    <rect x="72" y="26" width="2" height="1" fill="var(--foreground)" shape-rendering="crispEdges" />
    <rect x="72" y="27" width="1" height="3" fill="var(--foreground)" shape-rendering="crispEdges" />
    <rect x="72" y="30" width="2" height="1" fill="var(--foreground)" shape-rendering="crispEdges" />
    <rect x="74" y="4" width="1" height="1" fill="var(--foreground)" shape-rendering="crispEdges" />
    <rect x="74" y="6" width="1" height="2" fill="var(--foreground)" shape-rendering="crispEdges" />
    <rect x="74" y="13" width="1" height="1" fill="var(--foreground)" shape-rendering="crispEdges" />
    <rect x="74" y="15" width="1" height="1" fill="var(--foreground)" shape-rendering="crispEdges" />
    <rect x="74" y="20" width="1" height="1" fill="var(--foreground)" shape-rendering="crispEdges" />
    <rect x="74" y="22" width="1" height="1" fill="var(--foreground)" shape-rendering="crispEdges" />
    <rect x="74" y="27" width="1" height="3" fill="var(--foreground)" shape-rendering="crispEdges" />
    <rect x="76" y="3" width="3" height="1" fill="var(--foreground)" shape-rendering="crispEdges" />
    <rect x="76" y="4" width="1" height="3" fill="var(--foreground)" shape-rendering="crispEdges" />
    <rect x="76" y="7" width="3" height="1" fill="var(--foreground)" shape-rendering="crispEdges" />
    <rect x="76" y="12" width="3" height="1" fill="var(--foreground)" shape-rendering="crispEdges" />
    <rect x="76" y="13" width="1" height="3" fill="var(--foreground)" shape-rendering="crispEdges" />
    <rect x="76" y="16" width="3" height="1" fill="var(--foreground)" shape-rendering="crispEdges" />
    <rect x="76" y="19" width="3" height="1" fill="var(--foreground)" shape-rendering="crispEdges" />
    <rect x="76" y="20" width="1" height="3" fill="var(--foreground)" shape-rendering="crispEdges" />
    <rect x="76" y="23" width="3" height="1" fill="var(--foreground)" shape-rendering="crispEdges" />
    <rect x="76" y="26" width="3" height="1" fill="var(--foreground)" shape-rendering="crispEdges" />
    <rect x="76" y="27" width="1" height="3" fill="var(--foreground)" shape-rendering="crispEdges" />
    <rect x="76" y="30" width="3" height="1" fill="var(--foreground)" shape-rendering="crispEdges" />
    <rect x="78" y="4" width="1" height="3" fill="var(--foreground)" shape-rendering="crispEdges" />
    <rect x="78" y="13" width="1" height="3" fill="var(--foreground)" shape-rendering="crispEdges" />
    <rect x="78" y="20" width="1" height="3" fill="var(--foreground)" shape-rendering="crispEdges" />
    <rect x="78" y="27" width="1" height="3" fill="var(--foreground)" shape-rendering="crispEdges" />
    <rect x="80" y="3" width="1" height="2" fill="var(--foreground)" shape-rendering="crispEdges" />
    <rect x="80" y="5" width="3" height="1" fill="var(--foreground)" shape-rendering="crispEdges" />
    <rect x="80" y="12" width="1" height="2" fill="var(--foreground)" shape-rendering="crispEdges" />
    <rect x="80" y="14" width="3" height="1" fill="var(--foreground)" shape-rendering="crispEdges" />
    <rect x="80" y="19" width="1" height="2" fill="var(--foreground)" shape-rendering="crispEdges" />
    <rect x="80" y="21" width="3" height="1" fill="var(--foreground)" shape-rendering="crispEdges" />
    <rect x="80" y="26" width="1" height="2" fill="var(--foreground)" shape-rendering="crispEdges" />
    <rect x="80" y="28" width="3" height="1" fill="var(--foreground)" shape-rendering="crispEdges" />
    <rect x="82" y="3" width="1" height="2" fill="var(--foreground)" shape-rendering="crispEdges" />
    <rect x="82" y="6" width="1" height="2" fill="var(--foreground)" shape-rendering="crispEdges" />
    <rect x="82" y="12" width="1" height="2" fill="var(--foreground)" shape-rendering="crispEdges" />
    <rect x="82" y="15" width="1" height="2" fill="var(--foreground)" shape-rendering="crispEdges" />
    <rect x="82" y="19" width="1" height="2" fill="var(--foreground)" shape-rendering="crispEdges" />
    <rect x="82" y="22" width="1" height="2" fill="var(--foreground)" shape-rendering="crispEdges" />
    <rect x="82" y="26" width="1" height="2" fill="var(--foreground)" shape-rendering="crispEdges" />
    <rect x="82" y="29" width="1" height="2" fill="var(--foreground)" shape-rendering="crispEdges" />
    <rect x="86" y="4" width="1" height="1" fill="var(--foreground)" shape-rendering="crispEdges" />
    <rect x="86" y="5" width="2" height="1" fill="var(--foreground)" shape-rendering="crispEdges" />
    <rect x="86" y="6" width="1" height="1" fill="var(--foreground)" shape-rendering="crispEdges" />
    <rect x="86" y="13" width="1" height="1" fill="var(--foreground)" shape-rendering="crispEdges" />
    <rect x="86" y="14" width="2" height="1" fill="var(--foreground)" shape-rendering="crispEdges" />
    <rect x="86" y="15" width="1" height="1" fill="var(--foreground)" shape-rendering="crispEdges" />
    <rect x="86" y="20" width="1" height="1" fill="var(--foreground)" shape-rendering="crispEdges" />
    <rect x="86" y="21" width="2" height="1" fill="var(--foreground)" shape-rendering="crispEdges" />
    <rect x="86" y="22" width="1" height="1" fill="var(--foreground)" shape-rendering="crispEdges" />
    <rect x="86" y="27" width="1" height="1" fill="var(--foreground)" shape-rendering="crispEdges" />
    <rect x="86" y="28" width="2" height="1" fill="var(--foreground)" shape-rendering="crispEdges" />
    <rect x="86" y="29" width="1" height="1" fill="var(--foreground)" shape-rendering="crispEdges" />
    <rect x="97" y="0" width="1" height="13" fill="var(--foreground)" shape-rendering="crispEdges" />
    <rect x="97" y="13" width="25" height="1" fill="var(--foreground)" shape-rendering="crispEdges" />
    <rect x="97" y="14" width="1" height="50" fill="var(--foreground)" shape-rendering="crispEdges" />
    <rect x="99" y="22" width="3" height="1" fill="var(--foreground)" shape-rendering="crispEdges" />
    <rect x="99" y="23" width="1" height="1" fill="var(--foreground)" shape-rendering="crispEdges" />
    <rect x="99" y="24" width="3" height="1" fill="var(--foreground)" shape-rendering="crispEdges" />
    <rect x="100" y="1" width="3" height="3" fill="var(--foreground)" shape-rendering="crispEdges" />
    <rect x="100" y="7" width="3" height="1" fill="var(--foreground)" shape-rendering="crispEdges" />
    <rect x="100" y="8" width="1" height="3" fill="var(--foreground)" shape-rendering="crispEdges" />
    <rect x="100" y="11" width="3" height="1" fill="var(--foreground)" shape-rendering="crispEdges" />
    <rect x="100" y="27" width="3" height="1" fill="var(--foreground)" shape-rendering="crispEdges" />
    <rect x="100" y="28" width="1" height="3" fill="var(--foreground)" shape-rendering="crispEdges" />
    <rect x="100" y="31" width="3" height="1" fill="var(--foreground)" shape-rendering="crispEdges" />
    <rect x="101" y="15" width="3" height="1" fill="var(--foreground)" shape-rendering="crispEdges" />
    <rect x="101" y="23" width="1" height="1" fill="var(--foreground)" shape-rendering="crispEdges" />
    <rect x="102" y="8" width="1" height="3" fill="var(--foreground)" shape-rendering="crispEdges" />
    <rect x="102" y="16" width="1" height="4" fill="var(--foreground)" shape-rendering="crispEdges" />
    <rect x="102" y="28" width="1" height="3" fill="var(--foreground)" shape-rendering="crispEdges" />
    <rect x="103" y="22" width="3" height="1" fill="var(--foreground)" shape-rendering="crispEdges" />
    <rect x="103" y="23" width="1" height="1" fill="var(--foreground)" shape-rendering="crispEdges" />
    <rect x="103" y="24" width="3" height="1" fill="var(--foreground)" shape-rendering="crispEdges" />
    <rect x="104" y="1" width="2" height="1" fill="var(--foreground)" shape-rendering="crispEdges" />
    <rect x="104" y="4" width="3" height="1" fill="var(--foreground)" shape-rendering="crispEdges" />
    <rect x="104" y="7" width="3" height="1" fill="var(--foreground)" shape-rendering="crispEdges" />
    <rect x="104" y="8" width="1" height="3" fill="var(--foreground)" shape-rendering="crispEdges" />
    <rect x="104" y="11" width="3" height="1" fill="var(--foreground)" shape-rendering="crispEdges" />
    <rect x="104" y="27" width="3" height="1" fill="var(--foreground)" shape-rendering="crispEdges" />
    <rect x="104" y="28" width="1" height="3" fill="var(--foreground)" shape-rendering="crispEdges" />
    <rect x="104" y="31" width="3" height="1" fill="var(--foreground)" shape-rendering="crispEdges" />
    <rect x="105" y="0" width="1" height="1" fill="var(--foreground)" shape-rendering="crispEdges" />
    <rect x="105" y="2" width="1" height="2" fill="var(--foreground)" shape-rendering="crispEdges" />
    <rect x="105" y="16" width="3" height="1" fill="var(--foreground)" shape-rendering="crispEdges" />
    <rect x="105" y="19" width="3" height="1" fill="var(--foreground)" shape-rendering="crispEdges" />
    <rect x="105" y="23" width="1" height="1" fill="var(--foreground)" shape-rendering="crispEdges" />
    <rect x="106" y="8" width="1" height="3" fill="var(--foreground)" shape-rendering="crispEdges" />
    <rect x="106" y="15" width="1" height="1" fill="var(--foreground)" shape-rendering="crispEdges" />
    <rect x="106" y="17" width="1" height="1" fill="var(--foreground)" shape-rendering="crispEdges" />
    <rect x="106" y="28" width="1" height="3" fill="var(--foreground)" shape-rendering="crispEdges" />
    <rect x="107" y="22" width="3" height="1" fill="var(--foreground)" shape-rendering="crispEdges" />
    <rect x="107" y="23" width="1" height="1" fill="var(--foreground)" shape-rendering="crispEdges" />
    <rect x="107" y="24" width="3" height="1" fill="var(--foreground)" shape-rendering="crispEdges" />
    <rect x="108" y="0" width="3" height="1" fill="var(--foreground)" shape-rendering="crispEdges" />
    <rect x="108" y="2" width="3" height="1" fill="var(--foreground)" shape-rendering="crispEdges" />
    <rect x="108" y="3" width="1" height="1" fill="var(--foreground)" shape-rendering="crispEdges" />
    <rect x="108" y="4" width="3" height="1" fill="var(--foreground)" shape-rendering="crispEdges" />
    <rect x="108" y="7" width="3" height="1" fill="var(--foreground)" shape-rendering="crispEdges" />
    <rect x="108" y="8" width="1" height="3" fill="var(--foreground)" shape-rendering="crispEdges" />
    <rect x="108" y="11" width="3" height="1" fill="var(--foreground)" shape-rendering="crispEdges" />
    <rect x="108" y="27" width="3" height="1" fill="var(--foreground)" shape-rendering="crispEdges" />
    <rect x="108" y="28" width="1" height="3" fill="var(--foreground)" shape-rendering="crispEdges" />
    <rect x="108" y="31" width="3" height="1" fill="var(--foreground)" shape-rendering="crispEdges" />
    <rect x="109" y="15" width="3" height="1" fill="var(--foreground)" shape-rendering="crispEdges" />
    <rect x="109" y="16" width="1" height="3" fill="var(--foreground)" shape-rendering="crispEdges" />
    <rect x="109" y="19" width="3" height="1" fill="var(--foreground)" shape-rendering="crispEdges" />
    <rect x="109" y="23" width="1" height="1" fill="var(--foreground)" shape-rendering="crispEdges" />
    <rect x="110" y="1" width="1" height="1" fill="var(--foreground)" shape-rendering="crispEdges" />
    <rect x="110" y="8" width="1" height="3" fill="var(--foreground)" shape-rendering="crispEdges" />
    <rect x="110" y="28" width="1" height="3" fill="var(--foreground)" shape-rendering="crispEdges" />
    <rect x="111" y="16" width="1" height="3" fill="var(--foreground)" shape-rendering="crispEdges" />
    <rect x="111" y="22" width="3" height="1" fill="var(--foreground)" shape-rendering="crispEdges" />
    <rect x="111" y="23" width="1" height="1" fill="var(--foreground)" shape-rendering="crispEdges" />
    <rect x="111" y="24" width="3" height="1" fill="var(--foreground)" shape-rendering="crispEdges" />
    <rect x="112" y="0" width="3" height="1" fill="var(--foreground)" shape-rendering="crispEdges" />
    <rect x="112" y="1" width="1" height="3" fill="var(--foreground)" shape-rendering="crispEdges" />
    <rect x="112" y="4" width="3" height="1" fill="var(--foreground)" shape-rendering="crispEdges" />
    <rect x="112" y="8" width="2" height="1" fill="var(--foreground)" shape-rendering="crispEdges" />
    <rect x="112" y="11" width="3" height="1" fill="var(--foreground)" shape-rendering="crispEdges" />
    <rect x="112" y="28" width="2" height="1" fill="var(--foreground)" shape-rendering="crispEdges" />
    <rect x="112" y="31" width="3" height="1" fill="var(--foreground)" shape-rendering="crispEdges" />
    <rect x="113" y="7" width="1" height="1" fill="var(--foreground)" shape-rendering="crispEdges" />
    <rect x="113" y="9" width="1" height="2" fill="var(--foreground)" shape-rendering="crispEdges" />
    <rect x="113" y="23" width="1" height="1" fill="var(--foreground)" shape-rendering="crispEdges" />
    <rect x="113" y="27" width="1" height="1" fill="var(--foreground)" shape-rendering="crispEdges" />
    <rect x="113" y="29" width="1" height="2" fill="var(--foreground)" shape-rendering="crispEdges" />
    <rect x="114" y="1" width="1" height="3" fill="var(--foreground)" shape-rendering="crispEdges" />
    <rect x="115" y="22" width="3" height="1" fill="var(--foreground)" shape-rendering="crispEdges" />
    <rect x="115" y="23" width="1" height="1" fill="var(--foreground)" shape-rendering="crispEdges" />
    <rect x="115" y="24" width="3" height="1" fill="var(--foreground)" shape-rendering="crispEdges" />
    <rect x="116" y="4" width="1" height="1" fill="var(--foreground)" shape-rendering="crispEdges" />
    <rect x="116" y="8" width="1" height="1" fill="var(--foreground)" shape-rendering="crispEdges" />
    <rect x="116" y="10" width="1" height="1" fill="var(--foreground)" shape-rendering="crispEdges" />
    <rect x="116" y="28" width="1" height="1" fill="var(--foreground)" shape-rendering="crispEdges" />
    <rect x="116" y="30" width="1" height="1" fill="var(--foreground)" shape-rendering="crispEdges" />
    <rect x="117" y="23" width="1" height="1" fill="var(--foreground)" shape-rendering="crispEdges" />
    <rect x="118" y="0" width="3" height="1" fill="var(--foreground)" shape-rendering="crispEdges" />
    <rect x="118" y="1" width="1" height="3" fill="var(--foreground)" shape-rendering="crispEdges" />
    <rect x="118" y="4" width="3" height="1" fill="var(--foreground)" shape-rendering="crispEdges" />
    <rect x="118" y="8" width="2" height="1" fill="var(--foreground)" shape-rendering="crispEdges" />
    <rect x="118" y="11" width="3" height="1" fill="var(--foreground)" shape-rendering="crispEdges" />
    <rect x="118" y="28" width="2" height="1" fill="var(--foreground)" shape-rendering="crispEdges" />
    <rect x="118" y="31" width="3" height="1" fill="var(--foreground)" shape-rendering="crispEdges" />
    <rect x="119" y="7" width="1" height="1" fill="var(--foreground)" shape-rendering="crispEdges" />
    <rect x="119" y="9" width="1" height="2" fill="var(--foreground)" shape-rendering="crispEdges" />
    <rect x="119" y="22" width="3" height="1" fill="var(--foreground)" shape-rendering="crispEdges" />
    <rect x="119" y="23" width="1" height="1" fill="var(--foreground)" shape-rendering="crispEdges" />
    <rect x="119" y="24" width="3" height="1" fill="var(--foreground)" shape-rendering="crispEdges" />
    <rect x="119" y="27" width="1" height="1" fill="var(--foreground)" shape-rendering="crispEdges" />
    <rect x="119" y="29" width="1" height="2" fill="var(--foreground)" shape-rendering="crispEdges" />
    <rect x="120" y="1" width="1" height="3" fill="var(--foreground)" shape-rendering="crispEdges" />
    <rect x="121" y="23" width="1" height="1" fill="var(--foreground)" shape-rendering="crispEdges" />
  </g>
</svg>