<svg viewBox="0 0 128 64" xmlns="http://www.w3.org/2000/svg" shape-rendering="crispEdges">
  <g id="pixels">
    <rect x="0" y="0" width="128" height="1" fill="var(--foreground)" shape-rendering="crispEdges" />
    <rect x="0" y="1" width="6" height="5" fill="var(--foreground)" shape-rendering="crispEdges" />
    <rect x="0" y="6" width="128" height="1" fill="var(--foreground)" shape-rendering="crispEdges" />
    <rect x="6" y="9" width="3" height="1" fill="var(--foreground)" shape-rendering="crispEdges" />
    <rect x="6" y="10" width="1" height="3" fill="var(--foreground)" shape-rendering="crispEdges" />
    <rect x="6" y="13" width="3" height="1" fill="var(--foreground)" shape-rendering="crispEdges" />
    <rect x="6" y="17" width="3" height="1" fill="var(--foreground)" shape-rendering="crispEdges" />
    <rect x="6" y="18" width="1" height="3" fill="var(--foreground)" shape-rendering="crispEdges" />
    <rect x="6" y="21" width="3" height="1" fill="var(--foreground)" shape-rendering="crispEdges" />
    <rect x="6" y="25" width="3" height="1" fill="var(--foreground)" shape-rendering="crispEdges" />
    <rect x="6" y="26" width="1" height="3" fill="var(--foreground)" shape-rendering="crispEdges" />
    <rect x="6" y="29" width="3" height="1" fill="var(--foreground)" shape-rendering="crispEdges" />
    <rect x="6" y="35" width="3" height="1" fill="var(--foreground)" shape-rendering="crispEdges" />
    <rect x="7" y="2" width="1" height="3" fill="var(--foreground)" shape-rendering="crispEdges" />
    <rect x="8" y="10" width="1" height="3" fill="var(--foreground)" shape-rendering="crispEdges" />
    <rect x="8" y="18" width="1" height="3" fill="var(--foreground)" shape-rendering="crispEdges" />
    <rect x="8" y="26" width="1" height="3" fill="var(--foreground)" shape-rendering="crispEdges" />
    <rect x="9" y="1" width="1" height="5" fill="var(--foreground)" shape-rendering="crispEdges" />
    <rect x="10" y="9" width="3" height="1" fill="var(--foreground)" shape-rendering="crispEdges" />
    <rect x="10" y="10" width="1" height="3" fill="var(--foreground)" shape-rendering="crispEdges" />
    <rect x="10" y="13" width="3" height="1" fill="var(--foreground)" shape-rendering="crispEdges" />
    <rect x="10" y="17" width="3" height="1" fill="var(--foreground)" shape-rendering="crispEdges" />
    <rect x="10" y="18" width="1" height="3" fill="var(--foreground)" shape-rendering="crispEdges" />
    <rect x="10" y="21" width="3" height="1" fill="var(--foreground)" shape-rendering="crispEdges" />
    <rect x="10" y="25" width="3" height="1" fill="var(--foreground)" shape-rendering="crispEdges" />
    <rect x="10" y="26" width="1" height="3" fill="var(--foreground)" shape-rendering="crispEdges" />
    <rect x="10" y="29" width="3" height="1" fill="var(--foreground)" shape-rendering="crispEdges" />
    <rect x="10" y="35" width="3" height="1" fill="var(--foreground)" shape-rendering="crispEdges" />
    <rect x="11" y="2" width="1" height="3" fill="var(--foreground)" shape-rendering="crispEdges" />
    <rect x="12" y="10" width="1" height="3" fill="var(--foreground)" shape-rendering="crispEdges" />
    <rect x="12" y="18" width="1" height="3" fill="var(--foreground)" shape-rendering="crispEdges" />
    <rect x="12" y="26" width="1" height="3" fill="var(--foreground)" shape-rendering="crispEdges" />
    <rect x="13" y="1" width="2" height="1" fill="var(--foreground)" shape-rendering="crispEdges" />
    <rect x="13" y="2" width="1" height="1" fill="var(--foreground)" shape-rendering="crispEdges" />
    <rect x="13" y="3" width="2" height="2" fill="var(--foreground)" shape-rendering="crispEdges" />
    <rect x="13" y="5" width="1" height="1" fill="var(--foreground)" shape-rendering="crispEdges" />
    <rect x="14" y="9" width="3" height="1" fill="var(--foreground)" shape-rendering="crispEdges" />
    <rect x="14" y="11" width="3" height="1" fill="var(--foreground)" shape-rendering="crispEdges" />
    <rect x="14" y="12" width="1" height="1" fill="var(--foreground)" shape-rendering="crispEdges" />
    <rect x="14" y="13" width="3" height="1" fill="var(--foreground)" shape-rendering="crispEdges" />
    <rect x="14" y="17" width="3" height="1" fill="var(--foreground)" shape-rendering="crispEdges" />
    <rect x="14" y="19" width="3" height="1" fill="var(--foreground)" shape-rendering="crispEdges" />
    <rect x="14" y="21" width="3" height="1" fill="var(--foreground)" shape-rendering="crispEdges" />
    <rect x="14" y="25" width="1" height="2" fill="var(--foreground)" shape-rendering="crispEdges" />
    <rect x="14" y="27" width="3" height="1" fill="var(--foreground)" shape-rendering="crispEdges" />
    <rect x="14" y="35" width="3" height="1" fill="var(--foreground)" shape-rendering="crispEdges" />
    <rect x="16" y="1" width="16" height="4" fill="var(--foreground)" shape-rendering="crispEdges" />
    <rect x="16" y="10" width="1" height="1" fill="var(--foreground)" shape-rendering="crispEdges" />
    <rect x="16" y="18" width="1" height="1" fill="var(--foreground)" shape-rendering="crispEdges" />
    <rect x="16" y="20" width="1" height="1" fill="var(--foreground)" shape-rendering="crispEdges" />
    <rect x="16" y="25" width="1" height="2" fill="var(--foreground)" shape-rendering="crispEdges" />
    <rect x="16" y="28" width="1" height="2" fill="var(--foreground)" shape-rendering="crispEdges" />
    <rect x="17" y="5" width="15" height="1" fill="var(--foreground)" shape-rendering="crispEdges" />
    <rect x="32" y="9" width="3" height="1" fill="var(--foreground)" shape-rendering="crispEdges" />
    <rect x="32" y="10" width="1" height="1" fill="var(--foreground)" shape-rendering="crispEdges" />
    <rect x="32" y="11" width="3" height="1" fill="var(--foreground)" shape-rendering="crispEdges" />
    <rect x="32" y="13" width="3" height="1" fill="var(--foreground)" shape-rendering="crispEdges" />
    <rect x="32" y="17" width="1" height="3" fill="var(--foreground)" shape-rendering="crispEdges" />
    <rect x="32" y="20" width="3" height="1" fill="var(--foreground)" shape-rendering="crispEdges" />
    <rect x="32" y="21" width="1" height="1" fill="var(--foreground)" shape-rendering="crispEdges" />
    <rect x="32" y="25" width="1" height="1" fill="var(--foreground)" shape-rendering="crispEdges" />
    <rect x="32" y="26" width="3" height="1" fill="var(--foreground)" shape-rendering="crispEdges" />
    <rect x="32" y="27" width="1" height="3" fill="var(--foreground)" shape-rendering="crispEdges" />
    <rect x="32" y="33" width="3" height="1" fill="var(--foreground)" shape-rendering="crispEdges" />
    <rect x="32" y="34" width="1" height="3" fill="var(--foreground)" shape-rendering="crispEdges" />
    <rect x="32" y="37" width="3" height="1" fill="var(--foreground)" shape-rendering="crispEdges" />
    <rect x="33" y="2" width="1" height="1" fill="var(--foreground)" shape-rendering="crispEdges" />
    <rect x="33" y="4" width="3" height="2" fill="var(--foreground)" shape-rendering="crispEdges" />
    <rect x="34" y="12" width="1" height="1" fill="var(--foreground)" shape-rendering="crispEdges" />
    <rect x="34" y="17" width="1" height="3" fill="var(--foreground)" shape-rendering="crispEdges" />
    <rect x="34" y="21" width="1" height="1" fill="var(--foreground)" shape-rendering="crispEdges" />
    <rect x="34" y="25" width="1" height="1" fill="var(--foreground)" shape-rendering="crispEdges" />
    <rect x="34" y="27" width="1" height="3" fill="var(--foreground)" shape-rendering="crispEdges" />
    <rect x="34" y="34" width="1" height="1" fill="var(--foreground)" shape-rendering="crispEdges" />
    <rect x="34" y="36" width="1" height="1" fill="var(--foreground)" shape-rendering="crispEdges" />
    <rect x="35" y="1" width="1" height="3" fill="var(--foreground)" shape-rendering="crispEdges" />
    <rect x="36" y="9" width="1" height="4" fill="var(--foreground)" shape-rendering="crispEdges" />
    <rect x="36" y="13" width="3" height="1" fill="var(--foreground)" shape-rendering="crispEdges" />
    <rect x="36" y="17" width="3" height="1" fill="var(--foreground)" shape-rendering="crispEdges" />
    <rect x="36" y="18" width="1" height="3" fill="var(--foreground)" shape-rendering="crispEdges" />
    <rect x="36" y="21" width="3" height="1" fill="var(--foreground)" shape-rendering="crispEdges" />
    <rect x="36" y="25" width="3" height="1" fill="var(--foreground)" shape-rendering="crispEdges" />
    <rect x="36" y="29" width="3" height="1" fill="var(--foreground)" shape-rendering="crispEdges" />
    <rect x="36" y="33" width="3" height="1" fill="var(--foreground)" shape-rendering="crispEdges" />
    <rect x="36" y="34" width="1" height="1" fill="var(--foreground)" shape-rendering="crispEdges" />
    <rect x="36" y="35" width="2" height="1" fill="var(--foreground)" shape-rendering="crispEdges" />
    <rect x="36" y="36" width="1" height="2" fill="var(--foreground)" shape-rendering="crispEdges" />
    <rect x="37" y="2" width="1" height="1" fill="var(--foreground)" shape-rendering="crispEdges" />
    <rect x="37" y="4" width="1" height="2" fill="var(--foreground)" shape-rendering="crispEdges" />
    <rect x="37" y="26" width="1" height="3" fill="var(--foreground)" shape-rendering="crispEdges" />
    <rect x="38" y="3" width="2" height="1" fill="var(--foreground)" shape-rendering="crispEdges" />
    <rect x="38" y="18" width="1" height="3" fill="var(--foreground)" shape-rendering="crispEdges" />
    <rect x="38" y="34" width="1" height="1" fill="var(--foreground)" shape-rendering="crispEdges" />
    <rect x="38" y="36" width="1" height="2" fill="var(--foreground)" shape-rendering="crispEdges" />
    <rect x="39" y="1" width="1" height="2" fill="var(--foreground)" shape-rendering="crispEdges" />
    <rect x="39" y="4" width="1" height="2" fill="var(--foreground)" shape-rendering="crispEdges" />
    <rect x="40" y="9" width="3" height="1" fill="var(--foreground)" shape-rendering="crispEdges" />
    <rect x="40" y="10" width="1" height="3" fill="var(--foreground)" shape-rendering="crispEdges" />
    <rect x="40" y="13" width="3" height="1" fill="var(--foreground)" shape-rendering="crispEdges" />
    <rect x="40" y="17" width="2" height="1" fill="var(--foreground)" shape-rendering="crispEdges" />
    <rect x="40" y="18" width="1" height="4" fill="var(--foreground)" shape-rendering="crispEdges" />
    <rect x="40" y="25" width="2" height="1" fill="var(--foreground)" shape-rendering="crispEdges" />
    <rect x="40" y="26" width="1" height="3" fill="var(--foreground)" shape-rendering="crispEdges" />
    <rect x="40" y="29" width="2" height="1" fill="var(--foreground)" shape-rendering="crispEdges" />
    <rect x="40" y="33" width="3" height="1" fill="var(--foreground)" shape-rendering="crispEdges" />
    <rect x="40" y="34" width="1" height="1" fill="var(--foreground)" shape-rendering="crispEdges" />
    <rect x="40" y="35" width="3" height="1" fill="var(--foreground)" shape-rendering="crispEdges" />
    <rect x="40" y="36" width="1" height="1" fill="var(--foreground)" shape-rendering="crispEdges" />
    <rect x="40" y="37" width="3" height="1" fill="var(--foreground)" shape-rendering="crispEdges" />
    <rect x="41" y="2" width="3" height="1" fill="var(--foreground)" shape-rendering="crispEdges" />
    <rect x="41" y="4" width="5" height="1" fill="var(--foreground)" shape-rendering="crispEdges" />
    <rect x="42" y="10" width="1" height="3" fill="var(--foreground)" shape-rendering="crispEdges" />
    <rect x="42" y="18" width="1" height="4" fill="var(--foreground)" shape-rendering="crispEdges" />
    <rect x="42" y="26" width="1" height="3" fill="var(--foreground)" shape-rendering="crispEdges" />
    <rect x="43" y="1" width="1" height="1" fill="var(--foreground)" shape-rendering="crispEdges" />
    <rect x="43" y="3" width="1" height="1" fill="var(--foreground)" shape-rendering="crispEdges" />
    <rect x="43" y="5" width="1" height="1" fill="var(--foreground)" shape-rendering="crispEdges" />
    <rect x="44" y="9" width="1" height="3" fill="var(--foreground)" shape-rendering="crispEdges" />
    <rect x="44" y="12" width="3" height="1" fill="var(--foreground)" shape-rendering="crispEdges" />
    <rect x="44" y="13" width="1" height="1" fill="var(--foreground)" shape-rendering="crispEdges" />
    <rect x="44" y="17" width="2" height="1" fill="var(--foreground)" shape-rendering="crispEdges" />
    <rect x="44" y="18" width="1" height="3" fill="var(--foreground)" shape-rendering="crispEdges" />
    <rect x="44" y="21" width="2" height="1" fill="var(--foreground)" shape-rendering="crispEdges" />
    <rect x="44" y="25" width="2" height="1" fill="var(--foreground)" shape-rendering="crispEdges" />
    <rect x="44" y="26" width="1" height="4" fill="var(--foreground)" shape-rendering="crispEdges" />
    <rect x="44" y="33" width="3" height="1" fill="var(--foreground)" shape-rendering="crispEdges" />
    <rect x="44" y="34" width="1" height="1" fill="var(--foreground)" shape-rendering="crispEdges" />
    <rect x="44" y="35" width="3" height="1" fill="var(--foreground)" shape-rendering="crispEdges" />
    <rect x="44" y="36" width="1" height="2" fill="var(--foreground)" shape-rendering="crispEdges" />
    <rect x="45" y="2" width="3" height="1" fill="var(--foreground)" shape-rendering="crispEdges" />
    <rect x="46" y="9" width="1" height="3" fill="var(--foreground)" shape-rendering="crispEdges" />
    <rect x="46" y="13" width="1" height="1" fill="var(--foreground)" shape-rendering="crispEdges" />
    <rect x="46" y="18" width="1" height="3" fill="var(--foreground)" shape-rendering="crispEdges" />
    <rect x="46" y="26" width="1" height="4" fill="var(--foreground)" shape-rendering="crispEdges" />
    <rect x="46" y="34" width="1" height="1" fill="var(--foreground)" shape-rendering="crispEdges" />
    <rect x="46" y="36" width="1" height="2" fill="var(--foreground)" shape-rendering="crispEdges" />
    <rect x="47" y="1" width="1" height="1" fill="var(--foreground)" shape-rendering="crispEdges" />
    <rect x="47" y="3" width="1" height="3" fill="var(--foreground)" shape-rendering="crispEdges" />
    <rect x="48" y="17" width="3" height="1" fill="var(--foreground)" shape-rendering="crispEdges" />
    <rect x="48" y="18" width="1" height="1" fill="var(--foreground)" shape-rendering="crispEdges" />
    <rect x="48" y="19" width="3" height="1" fill="var(--foreground)" shape-rendering="crispEdges" />
    <rect x="48" y="20" width="1" height="1" fill="var(--foreground)" shape-rendering="crispEdges" />
    <rect x="48" y="21" width="3" height="1" fill="var(--foreground)" shape-rendering="crispEdges" />
    <rect x="48" y="25" width="3" height="1" fill="var(--foreground)" shape-rendering="crispEdges" />
    <rect x="48" y="29" width="3" height="1" fill="var(--foreground)" shape-rendering="crispEdges" />
    <rect x="48" y="33" width="3" height="1" fill="var(--foreground)" shape-rendering="crispEdges" />
    <rect x="49" y="2" width="4" height="1" fill="var(--foreground)" shape-rendering="crispEdges" />
    <rect x="49" y="4" width="4" height="1" fill="var(--foreground)" shape-rendering="crispEdges" />
    <rect x="49" y="26" width="1" height="3" fill="var(--foreground)" shape-rendering="crispEdges" />
    <rect x="49" y="34" width="1" height="4" fill="var(--foreground)" shape-rendering="crispEdges" />
    <rect x="51" y="1" width="1" height="1" fill="var(--foreground)" shape-rendering="crispEdges" />
    <rect x="51" y="3" width="2" height="1" fill="var(--foreground)" shape-rendering="crispEdges" />
    <rect x="51" y="5" width="2" height="1" fill="var(--foreground)" shape-rendering="crispEdges" />
    <rect x="51" y="9" width="1" height="1" fill="var(--foreground)" shape-rendering="crispEdges" />
    <rect x="51" y="10" width="3" height="1" fill="var(--foreground)" shape-rendering="crispEdges" />
    <rect x="51" y="11" width="1" height="3" fill="var(--foreground)" shape-rendering="crispEdges" />
    <rect x="52" y="17" width="3" height="1" fill="var(--foreground)" shape-rendering="crispEdges" />
    <rect x="52" y="18" width="1" height="1" fill="var(--foreground)" shape-rendering="crispEdges" />
    <rect x="52" y="19" width="2" height="1" fill="var(--foreground)" shape-rendering="crispEdges" />
    <rect x="52" y="20" width="1" height="2" fill="var(--foreground)" shape-rendering="crispEdges" />
    <rect x="52" y="26" width="1" height="3" fill="var(--foreground)" shape-rendering="crispEdges" />
    <rect x="52" y="33" width="3" height="1" fill="var(--foreground)" shape-rendering="crispEdges" />
    <rect x="52" y="34" width="1" height="1" fill="var(--foreground)" shape-rendering="crispEdges" />
    <rect x="52" y="35" width="3" height="1" fill="var(--foreground)" shape-rendering="crispEdges" />
    <rect x="52" y="36" width="1" height="1" fill="var(--foreground)" shape-rendering="crispEdges" />
    <rect x="52" y="37" width="3" height="1" fill="var(--foreground)" shape-rendering="crispEdges" />
    <rect x="53" y="9" width="1" height="1" fill="var(--foreground)" shape-rendering="crispEdges" />
    <rect x="53" y="11" width="1" height="3" fill="var(--foreground)" shape-rendering="crispEdges" />
    <rect x="53" y="25" width="2" height="1" fill="var(--foreground)" shape-rendering="crispEdges" />
    <rect x="53" y="29" width="2" height="1" fill="var(--foreground)" shape-rendering="crispEdges" />
    <rect x="54" y="2" width="2" height="2" fill="var(--foreground)" shape-rendering="crispEdges" />
    <rect x="54" y="4" width="4" height="1" fill="var(--foreground)" shape-rendering="crispEdges" />
    <rect x="54" y="5" width="2" height="1" fill="var(--foreground)" shape-rendering="crispEdges" />
    <rect x="54" y="18" width="1" height="1" fill="var(--foreground)" shape-rendering="crispEdges" />
    <rect x="54" y="20" width="1" height="2" fill="var(--foreground)" shape-rendering="crispEdges" />
    <rect x="54" y="27" width="1" height="2" fill="var(--foreground)" shape-rendering="crispEdges" />
    <rect x="55" y="1" width="1" height="1" fill="var(--foreground)" shape-rendering="crispEdges" />
    <rect x="55" y="9" width="3" height="1" fill="var(--foreground)" shape-rendering="crispEdges" />
    <rect x="55" y="10" width="1" height="3" fill="var(--foreground)" shape-rendering="crispEdges" />
    <rect x="55" y="13" width="3" height="1" fill="var(--foreground)" shape-rendering="crispEdges" />
    <rect x="56" y="17" width="1" height="4" fill="var(--foreground)" shape-rendering="crispEdges" />
    <rect x="56" y="21" width="3" height="1" fill="var(--foreground)" shape-rendering="crispEdges" />
    <rect x="56" y="25" width="1" height="2" fill="var(--foreground)" shape-rendering="crispEdges" />
    <rect x="56" y="27" width="3" height="1" fill="var(--foreground)" shape-rendering="crispEdges" />
    <rect x="56" y="28" width="1" height="2" fill="var(--foreground)" shape-rendering="crispEdges" />
    <rect x="57" y="2" width="71" height="1" fill="var(--foreground)" shape-rendering="crispEdges" />
    <rect x="57" y="10" width="1" height="3" fill="var(--foreground)" shape-rendering="crispEdges" />
    <rect x="58" y="25" width="1" height="2" fill="var(--foreground)" shape-rendering="crispEdges" />
    <rect x="58" y="28" width="1" height="2" fill="var(--foreground)" shape-rendering="crispEdges" />
    <rect x="59" y="1" width="69" height="1" fill="var(--foreground)" shape-rendering="crispEdges" />
    <rect x="59" y="3" width="69" height="3" fill="var(--foreground)" shape-rendering="crispEdges" />
    <rect x="59" y="9" width="1" height="4" fill="var(--foreground)" shape-rendering="crispEdges" />
    <rect x="59" y="13" width="2" height="1" fill="var(--foreground)" shape-rendering="crispEdges" />
    <rect x="59" y="33" width="2" height="1" fill="var(--foreground)" shape-rendering="crispEdges" />
    <rect x="59" y="34" width="1" height="4" fill="var(--foreground)" shape-rendering="crispEdges" />
    <rect x="60" y="17" width="3" height="1" fill="var(--foreground)" shape-rendering="crispEdges" />
    <rect x="60" y="18" width="1" height="1" fill="var(--foreground)" shape-rendering="crispEdges" />
    <rect x="60" y="19" width="3" height="1" fill="var(--foreground)" shape-rendering="crispEdges" />
    <rect x="60" y="20" width="1" height="2" fill="var(--foreground)" shape-rendering="crispEdges" />
    <rect x="60" y="25" width="3" height="1" fill="var(--foreground)" shape-rendering="crispEdges" />
    <rect x="61" y="9" width="1" height="4" fill="var(--foreground)" shape-rendering="crispEdges" />
    <rect x="61" y="26" width="1" height="4" fill="var(--foreground)" shape-rendering="crispEdges" />
    <rect x="61" y="34" width="1" height="4" fill="var(--foreground)" shape-rendering="crispEdges" />
    <rect x="62" y="18" width="1" height="1" fill="var(--foreground)" shape-rendering="crispEdges" />
    <rect x="62" y="20" width="1" height="2" fill="var(--foreground)" shape-rendering="crispEdges" />
    <rect x="63" y="9" width="3" height="1" fill="var(--foreground)" shape-rendering="crispEdges" />
    <rect x="63" y="10" width="1" height="1" fill="var(--foreground)" shape-rendering="crispEdges" />
    <rect x="63" y="11" width="3" height="1" fill="var(--foreground)" shape-rendering="crispEdges" />
    <rect x="63" y="12" width="1" height="1" fill="var(--foreground)" shape-rendering="crispEdges" />
    <rect x="63" y="13" width="3" height="1" fill="var(--foreground)" shape-rendering="crispEdges" />
    <rect x="63" y="33" width="3" height="1" fill="var(--foreground)" shape-rendering="crispEdges" />
    <rect x="63" y="34" width="1" height="1" fill="var(--foreground)" shape-rendering="crispEdges" />
    <rect x="63" y="35" width="3" height="1" fill="var(--foreground)" shape-rendering="crispEdges" />
    <rect x="63" y="36" width="1" height="1" fill="var(--foreground)" shape-rendering="crispEdges" />
    <rect x="63" y="37" width="3" height="1" fill="var(--foreground)" shape-rendering="crispEdges" />
    <rect x="64" y="17" width="2" height="1" fill="var(--foreground)" shape-rendering="crispEdges" />
    <rect x="64" y="18" width="1" height="4" fill="var(--foreground)" shape-rendering="crispEdges" />
    <rect x="66" y="18" width="1" height="4" fill="var(--foreground)" shape-rendering="crispEdges" />
    <rect x="67" y="9" width="3" height="1" fill="var(--foreground)" shape-rendering="crispEdges" />
    <rect x="67" y="10" width="1" height="1" fill="var(--foreground)" shape-rendering="crispEdges" />
    <rect x="67" y="11" width="3" height="1" fill="var(--foreground)" shape-rendering="crispEdges" />
    <rect x="67" y="13" width="3" height="1" fill="var(--foreground)" shape-rendering="crispEdges" />
    <rect x="67" y="25" width="3" height="1" fill="var(--foreground)" shape-rendering="crispEdges" />
    <rect x="67" y="26" width="1" height="1" fill="var(--foreground)" shape-rendering="crispEdges" />
    <rect x="67" y="27" width="3" height="1" fill="var(--foreground)" shape-rendering="crispEdges" />
    <rect x="67" y="29" width="3" height="1" fill="var(--foreground)" shape-rendering="crispEdges" />
    <rect x="67" y="33" width="1" height="3" fill="var(--foreground)" shape-rendering="crispEdges" />
    <rect x="67" y="36" width="3" height="1" fill="var(--foreground)" shape-rendering="crispEdges" />
    <rect x="67" y="37" width="1" height="1" fill="var(--foreground)" shape-rendering="crispEdges" />
    <rect x="68" y="17" width="2" height="1" fill="var(--foreground)" shape-rendering="crispEdges" />
    <rect x="68" y="18" width="1" height="3" fill="var(--foreground)" shape-rendering="crispEdges" />
    <rect x="68" y="21" width="2" height="1" fill="var(--foreground)" shape-rendering="crispEdges" />
    <rect x="69" y="12" width="1" height="1" fill="var(--foreground)" shape-rendering="crispEdges" />
    <rect x="69" y="28" width="1" height="1" fill="var(--foreground)" shape-rendering="crispEdges" />
    <rect x="69" y="33" width="1" height="3" fill="var(--foreground)" shape-rendering="crispEdges" />
    <rect x="69" y="37" width="1" height="1" fill="var(--foreground)" shape-rendering="crispEdges" />
    <rect x="70" y="18" width="1" height="3" fill="var(--foreground)" shape-rendering="crispEdges" />
    <rect x="71" y="25" width="3" height="1" fill="var(--foreground)" shape-rendering="crispEdges" />
    <rect x="71" y="26" width="1" height="1" fill="var(--foreground)" shape-rendering="crispEdges" />
    <rect x="71" y="27" width="3" height="1" fill="var(--foreground)" shape-rendering="crispEdges" />
    <rect x="71" y="28" width="1" height="1" fill="var(--foreground)" shape-rendering="crispEdges" />
    <rect x="71" y="29" width="3" height="1" fill="var(--foreground)" shape-rendering="crispEdges" />
    <rect x="75" y="25" width="3" height="1" fill="var(--foreground)" shape-rendering="crispEdges" />
    <rect x="76" y="26" width="1" height="4" fill="var(--foreground)" shape-rendering="crispEdges" />
  </g>
</svg>