<svg viewBox="0 0 128 64" xmlns="http://www.w3.org/2000/svg" shape-rendering="crispEdges">
  <g id="pixels">
    <rect x="1" y="37" width="1" height="1" fill="var(--foreground)" shape-rendering="crispEdges" />
    <rect x="1" y="38" width="14" height="1" fill="var(--foreground)" shape-rendering="crispEdges" />
    <rect x="1" y="39" width="1" height="7" fill="var(--foreground)" shape-rendering="crispEdges" />
    <rect x="1" y="46" width="2" height="1" fill="var(--foreground)" shape-rendering="crispEdges" />
    <rect x="1" y="47" width="15" height="1" fill="var(--foreground)" shape-rendering="crispEdges" />
    <rect x="2" y="36" width="6" height="1" fill="var(--foreground)" shape-rendering="crispEdges" />
    <rect x="3" y="3" width="3" height="1" fill="var(--foreground)" shape-rendering="crispEdges" />
    <rect x="3" y="4" width="1" height="1" fill="var(--foreground)" shape-rendering="crispEdges" />
    <rect x="3" y="5" width="3" height="1" fill="var(--foreground)" shape-rendering="crispEdges" />
    <rect x="3" y="7" width="3" height="1" fill="var(--foreground)" shape-rendering="crispEdges" />
    <rect x="3" y="11" width="34" height="1" fill="var(--foreground)" shape-rendering="crispEdges" />
    <rect x="3" y="45" width="1" height="1" fill="var(--foreground)" shape-rendering="crispEdges" />
    <rect x="3" y="50" width="1" height="2" fill="var(--foreground)" shape-rendering="crispEdges" />
    <rect x="3" y="52" width="2" height="1" fill="var(--foreground)" shape-rendering="crispEdges" />
    <rect x="3" y="53" width="8" height="1" fill="var(--foreground)" shape-rendering="crispEdges" />
    <rect x="4" y="46" width="1" height="1" fill="var(--foreground)" shape-rendering="crispEdges" />
    <rect x="4" y="54" width="8" height="1" fill="var(--foreground)" shape-rendering="crispEdges" />
    <rect x="5" y="6" width="1" height="1" fill="var(--foreground)" shape-rendering="crispEdges" />
    <rect x="5" y="45" width="1" height="1" fill="var(--foreground)" shape-rendering="crispEdges" />
    <rect x="5" y="55" width="6" height="1" fill="var(--foreground)" shape-rendering="crispEdges" />
    <rect x="6" y="46" width="1" height="1" fill="var(--foreground)" shape-rendering="crispEdges" />
    <rect x="7" y="3" width="1" height="2" fill="var(--foreground)" shape-rendering="crispEdges" />
    <rect x="7" y="5" width="3" height="1" fill="var(--foreground)" shape-rendering="crispEdges" />
    <rect x="7" y="7" width="3" height="1" fill="var(--foreground)" shape-rendering="crispEdges" />
    <rect x="7" y="45" width="1" height="1" fill="var(--foreground)" shape-rendering="crispEdges" />
    <rect x="8" y="37" width="1" height="1" fill="var(--foreground)" shape-rendering="crispEdges" />
    <rect x="8" y="46" width="1" height="1" fill="var(--foreground)" shape-rendering="crispEdges" />
    <rect x="8" y="51" width="1" height="1" fill="var(--foreground)" shape-rendering="crispEdges" />
    <rect x="8" y="52" width="2" height="1" fill="var(--foreground)" shape-rendering="crispEdges" />
    <rect x="8" y="56" width="2" height="1" fill="var(--foreground)" shape-rendering="crispEdges" />
    <rect x="8" y="57" width="1" height="1" fill="var(--foreground)" shape-rendering="crispEdges" />
    <rect x="9" y="3" width="1" height="2" fill="var(--foreground)" shape-rendering="crispEdges" />
    <rect x="9" y="6" width="1" height="1" fill="var(--foreground)" shape-rendering="crispEdges" />
    <rect x="9" y="45" width="1" height="1" fill="var(--foreground)" shape-rendering="crispEdges" />
    <rect x="10" y="46" width="1" height="1" fill="var(--foreground)" shape-rendering="crispEdges" />
    <rect x="11" y="3" width="3" height="1" fill="var(--foreground)" shape-rendering="crispEdges" />
    <rect x="11" y="4" width="1" height="1" fill="var(--foreground)" shape-rendering="crispEdges" />
    <rect x="11" y="5" width="3" height="1" fill="var(--foreground)" shape-rendering="crispEdges" />
    <rect x="11" y="7" width="3" height="1" fill="var(--foreground)" shape-rendering="crispEdges" />
    <rect x="11" y="45" width="1" height="1" fill="var(--foreground)" shape-rendering="crispEdges" />
    <rect x="12" y="46" width="1" height="1" fill="var(--foreground)" shape-rendering="crispEdges" />
    <rect x="13" y="6" width="1" height="1" fill="var(--foreground)" shape-rendering="crispEdges" />
    <rect x="13" y="45" width="1" height="1" fill="var(--foreground)" shape-rendering="crispEdges" />
    <rect x="13" y="50" width="1" height="1" fill="var(--foreground)" shape-rendering="crispEdges" />
    <rect x="13" y="51" width="14" height="1" fill="var(--foreground)" shape-rendering="crispEdges" />
    <rect x="13" y="52" width="1" height="7" fill="var(--foreground)" shape-rendering="crispEdges" />
    <rect x="13" y="59" width="2" height="1" fill="var(--foreground)" shape-rendering="crispEdges" />
    <rect x="13" y="60" width="15" height="1" fill="var(--foreground)" shape-rendering="crispEdges" />
    <rect x="14" y="46" width="2" height="1" fill="var(--foreground)" shape-rendering="crispEdges" />
    <rect x="14" y="49" width="6" height="1" fill="var(--foreground)" shape-rendering="crispEdges" />
    <rect x="15" y="3" width="3" height="1" fill="var(--foreground)" shape-rendering="crispEdges" />
    <rect x="15" y="4" width="1" height="1" fill="var(--foreground)" shape-rendering="crispEdges" />
    <rect x="15" y="5" width="3" height="1" fill="var(--foreground)" shape-rendering="crispEdges" />
    <rect x="15" y="6" width="1" height="1" fill="var(--foreground)" shape-rendering="crispEdges" />
    <rect x="15" y="7" width="3" height="1" fill="var(--foreground)" shape-rendering="crispEdges" />
    <rect x="15" y="39" width="1" height="7" fill="var(--foreground)" shape-rendering="crispEdges" />
    <rect x="15" y="58" width="1" height="1" fill="var(--foreground)" shape-rendering="crispEdges" />
    <rect x="16" y="59" width="1" height="1" fill="var(--foreground)" shape-rendering="crispEdges" />
    <rect x="17" y="43" width="8" height="1" fill="var(--foreground)" shape-rendering="crispEdges" />
    <rect x="17" y="58" width="1" height="1" fill="var(--foreground)" shape-rendering="crispEdges" />
    <rect x="18" y="42" width="6" height="1" fill="var(--foreground)" shape-rendering="crispEdges" />
    <rect x="18" y="44" width="8" height="1" fill="var(--foreground)" shape-rendering="crispEdges" />
    <rect x="18" y="59" width="1" height="1" fill="var(--foreground)" shape-rendering="crispEdges" />
    <rect x="19" y="3" width="1" height="2" fill="var(--foreground)" shape-rendering="crispEdges" />
    <rect x="19" y="6" width="1" height="2" fill="var(--foreground)" shape-rendering="crispEdges" />
    <rect x="19" y="41" width="2" height="1" fill="var(--foreground)" shape-rendering="crispEdges" />
    <rect x="19" y="45" width="2" height="1" fill="var(--foreground)" shape-rendering="crispEdges" />
    <rect x="19" y="58" width="1" height="1" fill="var(--foreground)" shape-rendering="crispEdges" />
    <rect x="20" y="5" width="1" height="1" fill="var(--foreground)" shape-rendering="crispEdges" />
    <rect x="20" y="40" width="1" height="1" fill="var(--foreground)" shape-rendering="crispEdges" />
    <rect x="20" y="46" width="1" height="1" fill="var(--foreground)" shape-rendering="crispEdges" />
    <rect x="20" y="50" width="1" height="1" fill="var(--foreground)" shape-rendering="crispEdges" />
    <rect x="20" y="59" width="1" height="1" fill="var(--foreground)" shape-rendering="crispEdges" />
    <rect x="21" y="3" width="1" height="2" fill="var(--foreground)" shape-rendering="crispEdges" />
    <rect x="21" y="6" width="1" height="2" fill="var(--foreground)" shape-rendering="crispEdges" />
    <rect x="21" y="58" width="1" height="1" fill="var(--foreground)" shape-rendering="crispEdges" />
    <rect x="22" y="59" width="1" height="1" fill="var(--foreground)" shape-rendering="crispEdges" />
    <rect x="23" y="58" width="1" height="1" fill="var(--foreground)" shape-rendering="crispEdges" />
    <rect x="24" y="45" width="2" height="1" fill="var(--foreground)" shape-rendering="crispEdges" />
    <rect x="24" y="59" width="1" height="1" fill="var(--foreground)" shape-rendering="crispEdges" />
    <rect x="25" y="46" width="1" height="2" fill="var(--foreground)" shape-rendering="crispEdges" />
    <rect x="25" y="58" width="1" height="1" fill="var(--foreground)" shape-rendering="crispEdges" />
    <rect x="26" y="59" width="2" height="1" fill="var(--foreground)" shape-rendering="crispEdges" />
    <rect x="27" y="52" width="1" height="7" fill="var(--foreground)" shape-rendering="crispEdges" />
    <rect x="39" y="1" width="4" height="1" fill="var(--foreground)" shape-rendering="crispEdges" />
    <rect x="39" y="2" width="3" height="8" fill="var(--foreground)" shape-rendering="crispEdges" />
    <rect x="40" y="0" width="80" height="1" fill="var(--foreground)" shape-rendering="crispEdges" />
    <rect x="40" y="10" width="80" height="1" fill="var(--foreground)" shape-rendering="crispEdges" />
    <rect x="42" y="15" width="1" height="1" fill="var(--foreground)" shape-rendering="crispEdges" />
    <rect x="42" y="16" width="8" height="1" fill="var(--foreground)" shape-rendering="crispEdges" />
    <rect x="42" y="17" width="1" height="5" fill="var(--foreground)" shape-rendering="crispEdges" />
    <rect x="42" y="22" width="9" height="1" fill="var(--foreground)" shape-rendering="crispEdges" />
    <rect x="43" y="2" width="3" height="1" fill="var(--foreground)" shape-rendering="crispEdges" />
    <rect x="43" y="4" width="7" height="1" fill="var(--foreground)" shape-rendering="crispEdges" />
    <rect x="43" y="5" width="4" height="1" fill="var(--foreground)" shape-rendering="crispEdges" />
    <rect x="43" y="6" width="1" height="1" fill="var(--foreground)" shape-rendering="crispEdges" />
    <rect x="43" y="7" width="4" height="1" fill="var(--foreground)" shape-rendering="crispEdges" />
    <rect x="43" y="8" width="7" height="1" fill="var(--foreground)" shape-rendering="crispEdges" />
    <rect x="43" y="14" width="3" height="1" fill="var(--foreground)" shape-rendering="crispEdges" />
    <rect x="44" y="19" width="5" height="1" fill="var(--foreground)" shape-rendering="crispEdges" />
    <rect x="45" y="18" width="1" height="1" fill="var(--foreground)" shape-rendering="crispEdges" />
    <rect x="45" y="20" width="1" height="1" fill="var(--foreground)" shape-rendering="crispEdges" />
    <rect x="46" y="1" width="75" height="1" fill="var(--foreground)" shape-rendering="crispEdges" />
    <rect x="46" y="15" width="1" height="1" fill="var(--foreground)" shape-rendering="crispEdges" />
    <rect x="47" y="2" width="74" height="1" fill="var(--foreground)" shape-rendering="crispEdges" />
    <rect x="48" y="5" width="2" height="1" fill="var(--foreground)" shape-rendering="crispEdges" />
    <rect x="48" y="7" width="2" height="1" fill="var(--foreground)" shape-rendering="crispEdges" />
    <rect x="49" y="6" width="1" height="1" fill="var(--foreground)" shape-rendering="crispEdges" />
    <rect x="50" y="3" width="4" height="1" fill="var(--foreground)" shape-rendering="crispEdges" />
    <rect x="50" y="17" width="1" height="5" fill="var(--foreground)" shape-rendering="crispEdges" />
    <rect x="51" y="4" width="3" height="2" fill="var(--foreground)" shape-rendering="crispEdges" />
    <rect x="51" y="6" width="5" height="1" fill="var(--foreground)" shape-rendering="crispEdges" />
    <rect x="51" y="7" width="3" height="1" fill="var(--foreground)" shape-rendering="crispEdges" />
    <rect x="51" y="8" width="70" height="2" fill="var(--foreground)" shape-rendering="crispEdges" />
    <rect x="54" y="16" width="3" height="1" fill="var(--foreground)" shape-rendering="crispEdges" />
    <rect x="54" y="17" width="1" height="1" fill="var(--foreground)" shape-rendering="crispEdges" />
    <rect x="54" y="18" width="3" height="1" fill="var(--foreground)" shape-rendering="crispEdges" />
    <rect x="54" y="20" width="3" height="1" fill="var(--foreground)" shape-rendering="crispEdges" />
    <rect x="55" y="4" width="3" height="1" fill="var(--foreground)" shape-rendering="crispEdges" />
    <rect x="56" y="19" width="1" height="1" fill="var(--foreground)" shape-rendering="crispEdges" />
    <rect x="57" y="3" width="1" height="1" fill="var(--foreground)" shape-rendering="crispEdges" />
    <rect x="57" y="5" width="1" height="1" fill="var(--foreground)" shape-rendering="crispEdges" />
    <rect x="57" y="6" width="3" height="1" fill="var(--foreground)" shape-rendering="crispEdges" />
    <rect x="57" y="7" width="1" height="1" fill="var(--foreground)" shape-rendering="crispEdges" />
    <rect x="58" y="16" width="1" height="2" fill="var(--foreground)" shape-rendering="crispEdges" />
    <rect x="58" y="18" width="3" height="1" fill="var(--foreground)" shape-rendering="crispEdges" />
    <rect x="58" y="20" width="3" height="1" fill="var(--foreground)" shape-rendering="crispEdges" />
    <rect x="59" y="3" width="1" height="2" fill="var(--foreground)" shape-rendering="crispEdges" />
    <rect x="60" y="16" width="1" height="2" fill="var(--foreground)" shape-rendering="crispEdges" />
    <rect x="60" y="19" width="1" height="1" fill="var(--foreground)" shape-rendering="crispEdges" />
    <rect x="61" y="3" width="1" height="3" fill="var(--foreground)" shape-rendering="crispEdges" />
    <rect x="61" y="6" width="3" height="1" fill="var(--foreground)" shape-rendering="crispEdges" />
    <rect x="61" y="7" width="1" height="1" fill="var(--foreground)" shape-rendering="crispEdges" />
    <rect x="62" y="16" width="3" height="1" fill="var(--foreground)" shape-rendering="crispEdges" />
    <rect x="62" y="17" width="1" height="1" fill="var(--foreground)" shape-rendering="crispEdges" />
    <rect x="62" y="18" width="3" height="1" fill="var(--foreground)" shape-rendering="crispEdges" />
    <rect x="62" y="20" width="3" height="1" fill="var(--foreground)" shape-rendering="crispEdges" />
    <rect x="63" y="4" width="3" height="1" fill="var(--foreground)" shape-rendering="crispEdges" />
    <rect x="64" y="19" width="1" height="1" fill="var(--foreground)" shape-rendering="crispEdges" />
    <rect x="65" y="3" width="1" height="1" fill="var(--foreground)" shape-rendering="crispEdges" />
    <rect x="65" y="5" width="1" height="3" fill="var(--foreground)" shape-rendering="crispEdges" />
    <rect x="66" y="16" width="3" height="1" fill="var(--foreground)" shape-rendering="crispEdges" />
    <rect x="66" y="17" width="1" height="1" fill="var(--foreground)" shape-rendering="crispEdges" />
    <rect x="66" y="18" width="3" height="1" fill="var(--foreground)" shape-rendering="crispEdges" />
    <rect x="66" y="19" width="1" height="1" fill="var(--foreground)" shape-rendering="crispEdges" />
    <rect x="66" y="20" width="3" height="1" fill="var(--foreground)" shape-rendering="crispEdges" />
    <rect x="67" y="4" width="3" height="1" fill="var(--foreground)" shape-rendering="crispEdges" />
    <rect x="67" y="6" width="3" height="1" fill="var(--foreground)" shape-rendering="crispEdges" />
    <rect x="69" y="3" width="1" height="1" fill="var(--foreground)" shape-rendering="crispEdges" />
    <rect x="69" y="5" width="2" height="1" fill="var(--foreground)" shape-rendering="crispEdges" />
    <rect x="69" y="7" width="1" height="1" fill="var(--foreground)" shape-rendering="crispEdges" />
    <rect x="70" y="16" width="1" height="2" fill="var(--foreground)" shape-rendering="crispEdges" />
    <rect x="70" y="19" width="1" height="2" fill="var(--foreground)" shape-rendering="crispEdges" />
    <rect x="71" y="3" width="1" height="2" fill="var(--foreground)" shape-rendering="crispEdges" />
    <rect x="71" y="6" width="1" height="2" fill="var(--foreground)" shape-rendering="crispEdges" />
    <rect x="71" y="18" width="1" height="1" fill="var(--foreground)" shape-rendering="crispEdges" />
    <rect x="72" y="5" width="5" height="1" fill="var(--foreground)" shape-rendering="crispEdges" />
    <rect x="72" y="16" width="1" height="2" fill="var(--foreground)" shape-rendering="crispEdges" />
    <rect x="72" y="19" width="1" height="2" fill="var(--foreground)" shape-rendering="crispEdges" />
    <rect x="73" y="3" width="4" height="2" fill="var(--foreground)" shape-rendering="crispEdges" />
    <rect x="73" y="6" width="6" height="1" fill="var(--foreground)" shape-rendering="crispEdges" />
    <rect x="73" y="7" width="4" height="1" fill="var(--foreground)" shape-rendering="crispEdges" />
    <rect x="77" y="16" width="3" height="1" fill="var(--foreground)" shape-rendering="crispEdges" />
    <rect x="77" y="17" width="1" height="1" fill="var(--foreground)" shape-rendering="crispEdges" />
    <rect x="77" y="18" width="2" height="1" fill="var(--foreground)" shape-rendering="crispEdges" />
    <rect x="77" y="19" width="1" height="2" fill="var(--foreground)" shape-rendering="crispEdges" />
    <rect x="78" y="4" width="3" height="1" fill="var(--foreground)" shape-rendering="crispEdges" />
    <rect x="79" y="17" width="1" height="1" fill="var(--foreground)" shape-rendering="crispEdges" />
    <rect x="79" y="19" width="1" height="2" fill="var(--foreground)" shape-rendering="crispEdges" />
    <rect x="80" y="3" width="1" height="1" fill="var(--foreground)" shape-rendering="crispEdges" />
    <rect x="80" y="5" width="1" height="3" fill="var(--foreground)" shape-rendering="crispEdges" />
    <rect x="81" y="16" width="3" height="1" fill="var(--foreground)" shape-rendering="crispEdges" />
    <rect x="81" y="17" width="1" height="1" fill="var(--foreground)" shape-rendering="crispEdges" />
    <rect x="81" y="18" width="3" height="1" fill="var(--foreground)" shape-rendering="crispEdges" />
    <rect x="81" y="19" width="1" height="1" fill="var(--foreground)" shape-rendering="crispEdges" />
    <rect x="81" y="20" width="3" height="1" fill="var(--foreground)" shape-rendering="crispEdges" />
    <rect x="82" y="4" width="3" height="1" fill="var(--foreground)" shape-rendering="crispEdges" />
    <rect x="82" y="6" width="3" height="1" fill="var(--foreground)" shape-rendering="crispEdges" />
    <rect x="84" y="3" width="1" height="1" fill="var(--foreground)" shape-rendering="crispEdges" />
    <rect x="84" y="5" width="1" height="1" fill="var(--foreground)" shape-rendering="crispEdges" />
    <rect x="84" y="7" width="1" height="1" fill="var(--foreground)" shape-rendering="crispEdges" />
    <rect x="85" y="16" width="3" height="1" fill="var(--foreground)" shape-rendering="crispEdges" />
    <rect x="85" y="17" width="1" height="3" fill="var(--foreground)" shape-rendering="crispEdges" />
    <rect x="85" y="20" width="3" height="1" fill="var(--foreground)" shape-rendering="crispEdges" />
    <rect x="86" y="4" width="1" height="4" fill="var(--foreground)" shape-rendering="crispEdges" />
    <rect x="87" y="3" width="2" height="1" fill="var(--foreground)" shape-rendering="crispEdges" />
    <rect x="87" y="17" width="1" height="1" fill="var(--foreground)" shape-rendering="crispEdges" />
    <rect x="87" y="19" width="1" height="1" fill="var(--foreground)" shape-rendering="crispEdges" />
    <rect x="88" y="4" width="1" height="4" fill="var(--foreground)" shape-rendering="crispEdges" />
    <rect x="89" y="16" width="3" height="1" fill="var(--foreground)" shape-rendering="crispEdges" />
    <rect x="89" y="17" width="1" height="1" fill="var(--foreground)" shape-rendering="crispEdges" />
    <rect x="89" y="18" width="3" height="1" fill="var(--foreground)" shape-rendering="crispEdges" />
    <rect x="89" y="19" width="1" height="1" fill="var(--foreground)" shape-rendering="crispEdges" />
    <rect x="89" y="20" width="3" height="1" fill="var(--foreground)" shape-rendering="crispEdges" />
    <rect x="90" y="4" width="1" height="3" fill="var(--foreground)" shape-rendering="crispEdges" />
    <rect x="91" y="3" width="30" height="1" fill="var(--foreground)" shape-rendering="crispEdges" />
    <rect x="91" y="7" width="30" height="1" fill="var(--foreground)" shape-rendering="crispEdges" />
    <rect x="92" y="4" width="29" height="3" fill="var(--foreground)" shape-rendering="crispEdges" />
    <rect x="93" y="16" width="3" height="1" fill="var(--foreground)" shape-rendering="crispEdges" />
    <rect x="93" y="20" width="3" height="1" fill="var(--foreground)" shape-rendering="crispEdges" />
    <rect x="94" y="17" width="1" height="3" fill="var(--foreground)" shape-rendering="crispEdges" />
    <rect x="97" y="16" width="1" height="4" fill="var(--foreground)" shape-rendering="crispEdges" />
    <rect x="97" y="20" width="2" height="1" fill="var(--foreground)" shape-rendering="crispEdges" />
    <rect x="99" y="16" width="1" height="4" fill="var(--foreground)" shape-rendering="crispEdges" />
    <rect x="101" y="16" width="3" height="1" fill="var(--foreground)" shape-rendering="crispEdges" />
    <rect x="101" y="17" width="1" height="1" fill="var(--foreground)" shape-rendering="crispEdges" />
    <rect x="101" y="18" width="3" height="1" fill="var(--foreground)" shape-rendering="crispEdges" />
    <rect x="101" y="19" width="1" height="1" fill="var(--foreground)" shape-rendering="crispEdges" />
    <rect x="101" y="20" width="3" height="1" fill="var(--foreground)" shape-rendering="crispEdges" />
  </g>
</svg>