<svg viewBox="0 0 128 64" xmlns="http://www.w3.org/2000/svg" shape-rendering="crispEdges">
  <g id="pixels">
    <rect x="2" y="41" width="25" height="1" fill="var(--foreground)" shape-rendering="crispEdges" />
    <rect x="2" y="45" width="25" height="1" fill="var(--foreground)" shape-rendering="crispEdges" />
    <rect x="2" y="49" width="25" height="1" fill="var(--foreground)" shape-rendering="crispEdges" />
    <rect x="2" y="53" width="25" height="1" fill="var(--foreground)" shape-rendering="crispEdges" />
    <rect x="2" y="57" width="25" height="1" fill="var(--foreground)" shape-rendering="crispEdges" />
    <rect x="3" y="3" width="3" height="1" fill="var(--foreground)" shape-rendering="crispEdges" />
    <rect x="3" y="4" width="1" height="1" fill="var(--foreground)" shape-rendering="crispEdges" />
    <rect x="3" y="5" width="3" height="1" fill="var(--foreground)" shape-rendering="crispEdges" />
    <rect x="3" y="7" width="3" height="1" fill="var(--foreground)" shape-rendering="crispEdges" />
    <rect x="3" y="11" width="34" height="1" fill="var(--foreground)" shape-rendering="crispEdges" />
    <rect x="5" y="6" width="1" height="1" fill="var(--foreground)" shape-rendering="crispEdges" />
    <rect x="5" y="54" width="4" height="1" fill="var(--foreground)" shape-rendering="crispEdges" />
    <rect x="6" y="52" width="3" height="1" fill="var(--foreground)" shape-rendering="crispEdges" />
    <rect x="6" y="55" width="2" height="1" fill="var(--foreground)" shape-rendering="crispEdges" />
    <rect x="7" y="3" width="3" height="1" fill="var(--foreground)" shape-rendering="crispEdges" />
    <rect x="7" y="4" width="1" height="1" fill="var(--foreground)" shape-rendering="crispEdges" />
    <rect x="7" y="5" width="3" height="1" fill="var(--foreground)" shape-rendering="crispEdges" />
    <rect x="7" y="6" width="1" height="1" fill="var(--foreground)" shape-rendering="crispEdges" />
    <rect x="7" y="7" width="3" height="1" fill="var(--foreground)" shape-rendering="crispEdges" />
    <rect x="8" y="43" width="2" height="1" fill="var(--foreground)" shape-rendering="crispEdges" />
    <rect x="8" y="44" width="1" height="1" fill="var(--foreground)" shape-rendering="crispEdges" />
    <rect x="8" y="46" width="1" height="3" fill="var(--foreground)" shape-rendering="crispEdges" />
    <rect x="8" y="50" width="1" height="2" fill="var(--foreground)" shape-rendering="crispEdges" />
    <rect x="11" y="4" width="1" height="3" fill="var(--foreground)" shape-rendering="crispEdges" />
    <rect x="12" y="3" width="1" height="1" fill="var(--foreground)" shape-rendering="crispEdges" />
    <rect x="12" y="7" width="2" height="1" fill="var(--foreground)" shape-rendering="crispEdges" />
    <rect x="12" y="50" width="4" height="1" fill="var(--foreground)" shape-rendering="crispEdges" />
    <rect x="13" y="4" width="1" height="3" fill="var(--foreground)" shape-rendering="crispEdges" />
    <rect x="13" y="48" width="3" height="1" fill="var(--foreground)" shape-rendering="crispEdges" />
    <rect x="13" y="51" width="2" height="1" fill="var(--foreground)" shape-rendering="crispEdges" />
    <rect x="15" y="7" width="1" height="1" fill="var(--foreground)" shape-rendering="crispEdges" />
    <rect x="15" y="39" width="2" height="1" fill="var(--foreground)" shape-rendering="crispEdges" />
    <rect x="15" y="40" width="1" height="1" fill="var(--foreground)" shape-rendering="crispEdges" />
    <rect x="15" y="42" width="1" height="3" fill="var(--foreground)" shape-rendering="crispEdges" />
    <rect x="15" y="46" width="1" height="2" fill="var(--foreground)" shape-rendering="crispEdges" />
    <rect x="17" y="58" width="4" height="1" fill="var(--foreground)" shape-rendering="crispEdges" />
    <rect x="18" y="56" width="3" height="1" fill="var(--foreground)" shape-rendering="crispEdges" />
    <rect x="18" y="59" width="2" height="1" fill="var(--foreground)" shape-rendering="crispEdges" />
    <rect x="20" y="47" width="2" height="1" fill="var(--foreground)" shape-rendering="crispEdges" />
    <rect x="20" y="48" width="1" height="1" fill="var(--foreground)" shape-rendering="crispEdges" />
    <rect x="20" y="50" width="1" height="3" fill="var(--foreground)" shape-rendering="crispEdges" />
    <rect x="20" y="54" width="1" height="2" fill="var(--foreground)" shape-rendering="crispEdges" />
    <rect x="25" y="42" width="2" height="3" fill="var(--foreground)" shape-rendering="crispEdges" />
    <rect x="25" y="46" width="2" height="3" fill="var(--foreground)" shape-rendering="crispEdges" />
    <rect x="25" y="50" width="2" height="3" fill="var(--foreground)" shape-rendering="crispEdges" />
    <rect x="25" y="54" width="2" height="3" fill="var(--foreground)" shape-rendering="crispEdges" />
    <rect x="39" y="1" width="82" height="1" fill="var(--foreground)" shape-rendering="crispEdges" />
    <rect x="39" y="2" width="73" height="1" fill="var(--foreground)" shape-rendering="crispEdges" />
    <rect x="39" y="3" width="4" height="1" fill="var(--foreground)" shape-rendering="crispEdges" />
    <rect x="39" y="4" width="3" height="3" fill="var(--foreground)" shape-rendering="crispEdges" />
    <rect x="39" y="7" width="4" height="1" fill="var(--foreground)" shape-rendering="crispEdges" />
    <rect x="39" y="8" width="73" height="1" fill="var(--foreground)" shape-rendering="crispEdges" />
    <rect x="39" y="9" width="82" height="1" fill="var(--foreground)" shape-rendering="crispEdges" />
    <rect x="40" y="0" width="80" height="1" fill="var(--foreground)" shape-rendering="crispEdges" />
    <rect x="40" y="10" width="80" height="1" fill="var(--foreground)" shape-rendering="crispEdges" />
    <rect x="42" y="16" width="1" height="2" fill="var(--foreground)" shape-rendering="crispEdges" />
    <rect x="42" y="18" width="2" height="1" fill="var(--foreground)" shape-rendering="crispEdges" />
    <rect x="42" y="19" width="1" height="2" fill="var(--foreground)" shape-rendering="crispEdges" />
    <rect x="43" y="4" width="1" height="3" fill="var(--foreground)" shape-rendering="crispEdges" />
    <rect x="44" y="3" width="2" height="1" fill="var(--foreground)" shape-rendering="crispEdges" />
    <rect x="44" y="16" width="1" height="2" fill="var(--foreground)" shape-rendering="crispEdges" />
    <rect x="44" y="19" width="1" height="2" fill="var(--foreground)" shape-rendering="crispEdges" />
    <rect x="45" y="4" width="1" height="4" fill="var(--foreground)" shape-rendering="crispEdges" />
    <rect x="46" y="16" width="3" height="1" fill="var(--foreground)" shape-rendering="crispEdges" />
    <rect x="46" y="20" width="3" height="1" fill="var(--foreground)" shape-rendering="crispEdges" />
    <rect x="47" y="3" width="1" height="4" fill="var(--foreground)" shape-rendering="crispEdges" />
    <rect x="47" y="17" width="1" height="3" fill="var(--foreground)" shape-rendering="crispEdges" />
    <rect x="49" y="3" width="1" height="5" fill="var(--foreground)" shape-rendering="crispEdges" />
    <rect x="50" y="16" width="3" height="1" fill="var(--foreground)" shape-rendering="crispEdges" />
    <rect x="51" y="4" width="1" height="1" fill="var(--foreground)" shape-rendering="crispEdges" />
    <rect x="51" y="6" width="1" height="2" fill="var(--foreground)" shape-rendering="crispEdges" />
    <rect x="51" y="17" width="1" height="4" fill="var(--foreground)" shape-rendering="crispEdges" />
    <rect x="53" y="3" width="1" height="5" fill="var(--foreground)" shape-rendering="crispEdges" />
    <rect x="55" y="4" width="1" height="4" fill="var(--foreground)" shape-rendering="crispEdges" />
    <rect x="56" y="3" width="2" height="1" fill="var(--foreground)" shape-rendering="crispEdges" />
    <rect x="57" y="4" width="2" height="4" fill="var(--foreground)" shape-rendering="crispEdges" />
    <rect x="57" y="16" width="3" height="1" fill="var(--foreground)" shape-rendering="crispEdges" />
    <rect x="57" y="17" width="1" height="1" fill="var(--foreground)" shape-rendering="crispEdges" />
    <rect x="57" y="18" width="2" height="1" fill="var(--foreground)" shape-rendering="crispEdges" />
    <rect x="57" y="19" width="1" height="2" fill="var(--foreground)" shape-rendering="crispEdges" />
    <rect x="59" y="17" width="1" height="1" fill="var(--foreground)" shape-rendering="crispEdges" />
    <rect x="59" y="19" width="1" height="2" fill="var(--foreground)" shape-rendering="crispEdges" />
    <rect x="60" y="4" width="3" height="3" fill="var(--foreground)" shape-rendering="crispEdges" />
    <rect x="60" y="7" width="2" height="1" fill="var(--foreground)" shape-rendering="crispEdges" />
    <rect x="61" y="3" width="1" height="1" fill="var(--foreground)" shape-rendering="crispEdges" />
    <rect x="61" y="16" width="3" height="1" fill="var(--foreground)" shape-rendering="crispEdges" />
    <rect x="61" y="17" width="1" height="1" fill="var(--foreground)" shape-rendering="crispEdges" />
    <rect x="61" y="18" width="3" height="1" fill="var(--foreground)" shape-rendering="crispEdges" />
    <rect x="61" y="19" width="1" height="1" fill="var(--foreground)" shape-rendering="crispEdges" />
    <rect x="61" y="20" width="3" height="1" fill="var(--foreground)" shape-rendering="crispEdges" />
    <rect x="64" y="4" width="4" height="1" fill="var(--foreground)" shape-rendering="crispEdges" />
    <rect x="64" y="5" width="3" height="1" fill="var(--foreground)" shape-rendering="crispEdges" />
    <rect x="64" y="6" width="2" height="1" fill="var(--foreground)" shape-rendering="crispEdges" />
    <rect x="65" y="3" width="1" height="1" fill="var(--foreground)" shape-rendering="crispEdges" />
    <rect x="65" y="7" width="1" height="1" fill="var(--foreground)" shape-rendering="crispEdges" />
    <rect x="65" y="16" width="1" height="4" fill="var(--foreground)" shape-rendering="crispEdges" />
    <rect x="65" y="20" width="3" height="1" fill="var(--foreground)" shape-rendering="crispEdges" />
    <rect x="67" y="6" width="3" height="1" fill="var(--foreground)" shape-rendering="crispEdges" />
    <rect x="68" y="5" width="2" height="1" fill="var(--foreground)" shape-rendering="crispEdges" />
    <rect x="69" y="3" width="1" height="2" fill="var(--foreground)" shape-rendering="crispEdges" />
    <rect x="69" y="7" width="1" height="1" fill="var(--foreground)" shape-rendering="crispEdges" />
    <rect x="69" y="16" width="3" height="1" fill="var(--foreground)" shape-rendering="crispEdges" />
    <rect x="69" y="17" width="1" height="3" fill="var(--foreground)" shape-rendering="crispEdges" />
    <rect x="69" y="20" width="3" height="1" fill="var(--foreground)" shape-rendering="crispEdges" />
    <rect x="71" y="4" width="6" height="1" fill="var(--foreground)" shape-rendering="crispEdges" />
    <rect x="71" y="6" width="6" height="1" fill="var(--foreground)" shape-rendering="crispEdges" />
    <rect x="71" y="17" width="1" height="3" fill="var(--foreground)" shape-rendering="crispEdges" />
    <rect x="73" y="3" width="4" height="1" fill="var(--foreground)" shape-rendering="crispEdges" />
    <rect x="73" y="5" width="4" height="1" fill="var(--foreground)" shape-rendering="crispEdges" />
    <rect x="73" y="7" width="4" height="1" fill="var(--foreground)" shape-rendering="crispEdges" />
    <rect x="73" y="16" width="3" height="1" fill="var(--foreground)" shape-rendering="crispEdges" />
    <rect x="73" y="17" width="1" height="1" fill="var(--foreground)" shape-rendering="crispEdges" />
    <rect x="73" y="18" width="3" height="1" fill="var(--foreground)" shape-rendering="crispEdges" />
    <rect x="73" y="19" width="1" height="2" fill="var(--foreground)" shape-rendering="crispEdges" />
    <rect x="75" y="17" width="1" height="1" fill="var(--foreground)" shape-rendering="crispEdges" />
    <rect x="75" y="19" width="1" height="2" fill="var(--foreground)" shape-rendering="crispEdges" />
    <rect x="77" y="16" width="2" height="1" fill="var(--foreground)" shape-rendering="crispEdges" />
    <rect x="77" y="17" width="1" height="3" fill="var(--foreground)" shape-rendering="crispEdges" />
    <rect x="77" y="20" width="2" height="1" fill="var(--foreground)" shape-rendering="crispEdges" />
    <rect x="78" y="3" width="3" height="1" fill="var(--foreground)" shape-rendering="crispEdges" />
    <rect x="78" y="4" width="4" height="3" fill="var(--foreground)" shape-rendering="crispEdges" />
    <rect x="79" y="17" width="1" height="3" fill="var(--foreground)" shape-rendering="crispEdges" />
    <rect x="80" y="7" width="1" height="1" fill="var(--foreground)" shape-rendering="crispEdges" />
    <rect x="83" y="4" width="2" height="3" fill="var(--foreground)" shape-rendering="crispEdges" />
    <rect x="84" y="3" width="1" height="1" fill="var(--foreground)" shape-rendering="crispEdges" />
    <rect x="84" y="7" width="1" height="1" fill="var(--foreground)" shape-rendering="crispEdges" />
    <rect x="84" y="16" width="3" height="1" fill="var(--foreground)" shape-rendering="crispEdges" />
    <rect x="84" y="17" width="1" height="3" fill="var(--foreground)" shape-rendering="crispEdges" />
    <rect x="84" y="20" width="3" height="1" fill="var(--foreground)" shape-rendering="crispEdges" />
    <rect x="86" y="3" width="1" height="4" fill="var(--foreground)" shape-rendering="crispEdges" />
    <rect x="86" y="17" width="1" height="3" fill="var(--foreground)" shape-rendering="crispEdges" />
    <rect x="87" y="7" width="2" height="1" fill="var(--foreground)" shape-rendering="crispEdges" />
    <rect x="88" y="3" width="1" height="4" fill="var(--foreground)" shape-rendering="crispEdges" />
    <rect x="88" y="16" width="2" height="1" fill="var(--foreground)" shape-rendering="crispEdges" />
    <rect x="88" y="17" width="1" height="4" fill="var(--foreground)" shape-rendering="crispEdges" />
    <rect x="90" y="4" width="6" height="1" fill="var(--foreground)" shape-rendering="crispEdges" />
    <rect x="90" y="6" width="6" height="1" fill="var(--foreground)" shape-rendering="crispEdges" />
    <rect x="90" y="17" width="1" height="4" fill="var(--foreground)" shape-rendering="crispEdges" />
    <rect x="92" y="3" width="4" height="1" fill="var(--foreground)" shape-rendering="crispEdges" />
    <rect x="92" y="5" width="4" height="1" fill="var(--foreground)" shape-rendering="crispEdges" />
    <rect x="92" y="7" width="4" height="1" fill="var(--foreground)" shape-rendering="crispEdges" />
    <rect x="95" y="16" width="3" height="1" fill="var(--foreground)" shape-rendering="crispEdges" />
    <rect x="95" y="17" width="1" height="3" fill="var(--foreground)" shape-rendering="crispEdges" />
    <rect x="95" y="20" width="3" height="1" fill="var(--foreground)" shape-rendering="crispEdges" />
    <rect x="97" y="4" width="1" height="1" fill="var(--foreground)" shape-rendering="crispEdges" />
    <rect x="97" y="6" width="1" height="2" fill="var(--foreground)" shape-rendering="crispEdges" />
    <rect x="97" y="17" width="1" height="1" fill="var(--foreground)" shape-rendering="crispEdges" />
    <rect x="97" y="19" width="1" height="1" fill="var(--foreground)" shape-rendering="crispEdges" />
    <rect x="98" y="5" width="2" height="1" fill="var(--foreground)" shape-rendering="crispEdges" />
    <rect x="99" y="3" width="1" height="2" fill="var(--foreground)" shape-rendering="crispEdges" />
    <rect x="99" y="6" width="1" height="2" fill="var(--foreground)" shape-rendering="crispEdges" />
    <rect x="99" y="16" width="1" height="2" fill="var(--foreground)" shape-rendering="crispEdges" />
    <rect x="99" y="18" width="3" height="1" fill="var(--foreground)" shape-rendering="crispEdges" />
    <rect x="99" y="19" width="1" height="2" fill="var(--foreground)" shape-rendering="crispEdges" />
    <rect x="101" y="4" width="3" height="1" fill="var(--foreground)" shape-rendering="crispEdges" />
    <rect x="101" y="6" width="3" height="1" fill="var(--foreground)" shape-rendering="crispEdges" />
    <rect x="101" y="16" width="1" height="2" fill="var(--foreground)" shape-rendering="crispEdges" />
    <rect x="101" y="19" width="1" height="2" fill="var(--foreground)" shape-rendering="crispEdges" />
    <rect x="103" y="3" width="1" height="1" fill="var(--foreground)" shape-rendering="crispEdges" />
    <rect x="103" y="5" width="1" height="1" fill="var(--foreground)" shape-rendering="crispEdges" />
    <rect x="103" y="7" width="1" height="1" fill="var(--foreground)" shape-rendering="crispEdges" />
    <rect x="103" y="17" width="1" height="3" fill="var(--foreground)" shape-rendering="crispEdges" />
    <rect x="104" y="16" width="2" height="1" fill="var(--foreground)" shape-rendering="crispEdges" />
    <rect x="104" y="20" width="2" height="1" fill="var(--foreground)" shape-rendering="crispEdges" />
    <rect x="105" y="4" width="1" height="1" fill="var(--foreground)" shape-rendering="crispEdges" />
    <rect x="105" y="5" width="7" height="1" fill="var(--foreground)" shape-rendering="crispEdges" />
    <rect x="105" y="6" width="1" height="1" fill="var(--foreground)" shape-rendering="crispEdges" />
    <rect x="105" y="18" width="1" height="2" fill="var(--foreground)" shape-rendering="crispEdges" />
    <rect x="107" y="3" width="5" height="2" fill="var(--foreground)" shape-rendering="crispEdges" />
    <rect x="107" y="6" width="5" height="2" fill="var(--foreground)" shape-rendering="crispEdges" />
    <rect x="112" y="15" width="7" height="1" fill="var(--foreground)" shape-rendering="crispEdges" />
    <rect x="112" y="16" width="1" height="5" fill="var(--foreground)" shape-rendering="crispEdges" />
    <rect x="112" y="21" width="7" height="1" fill="var(--foreground)" shape-rendering="crispEdges" />
    <rect x="113" y="3" width="5" height="5" fill="var(--foreground)" shape-rendering="crispEdges" />
    <rect x="118" y="16" width="1" height="5" fill="var(--foreground)" shape-rendering="crispEdges" />
    <rect x="119" y="2" width="2" height="7" fill="var(--foreground)" shape-rendering="crispEdges" />
  </g>
</svg>