<svg viewBox="0 0 128 64" xmlns="http://www.w3.org/2000/svg">
  <g id="pixels">
    <rect x="0" y="8" width="44" height="1" fill="var(--foreground)" />
    <rect x="0" y="9" width="1" height="5" fill="var(--foreground)" />
    <rect x="0" y="14" width="44" height="1" fill="var(--foreground)" />
    <rect x="1" y="1" width="1" height="4" fill="var(--foreground)" />
    <rect x="1" y="5" width="2" height="1" fill="var(--foreground)" />
    <rect x="2" y="9" width="1" height="4" fill="var(--foreground)" />
    <rect x="3" y="1" width="1" height="4" fill="var(--foreground)" />
    <rect x="4" y="9" width="1" height="5" fill="var(--foreground)" />
    <rect x="5" y="1" width="3" height="1" fill="var(--foreground)" />
    <rect x="5" y="5" width="3" height="1" fill="var(--foreground)" />
    <rect x="6" y="2" width="1" height="3" fill="var(--foreground)" />
    <rect x="6" y="10" width="1" height="1" fill="var(--foreground)" />
    <rect x="6" y="12" width="3" height="2" fill="var(--foreground)" />
    <rect x="8" y="9" width="1" height="3" fill="var(--foreground)" />
    <rect x="9" y="1" width="3" height="1" fill="var(--foreground)" />
    <rect x="9" y="2" width="1" height="1" fill="var(--foreground)" />
    <rect x="9" y="3" width="3" height="1" fill="var(--foreground)" />
    <rect x="9" y="4" width="1" height="1" fill="var(--foreground)" />
    <rect x="9" y="5" width="3" height="1" fill="var(--foreground)" />
    <rect x="10" y="9" width="3" height="4" fill="var(--foreground)" />
    <rect x="12" y="13" width="1" height="1" fill="var(--foreground)" />
    <rect x="13" y="1" width="1" height="3" fill="var(--foreground)" />
    <rect x="13" y="4" width="3" height="1" fill="var(--foreground)" />
    <rect x="13" y="5" width="1" height="1" fill="var(--foreground)" />
    <rect x="14" y="10" width="1" height="3" fill="var(--foreground)" />
    <rect x="15" y="1" width="1" height="3" fill="var(--foreground)" />
    <rect x="15" y="5" width="1" height="1" fill="var(--foreground)" />
    <rect x="16" y="9" width="1" height="5" fill="var(--foreground)" />
    <rect x="18" y="10" width="1" height="1" fill="var(--foreground)" />
    <rect x="18" y="12" width="1" height="2" fill="var(--foreground)" />
    <rect x="20" y="1" width="3" height="1" fill="var(--foreground)" />
    <rect x="20" y="2" width="1" height="1" fill="var(--foreground)" />
    <rect x="20" y="3" width="2" height="1" fill="var(--foreground)" />
    <rect x="20" y="4" width="1" height="2" fill="var(--foreground)" />
    <rect x="20" y="9" width="1" height="5" fill="var(--foreground)" />
    <rect x="22" y="2" width="1" height="1" fill="var(--foreground)" />
    <rect x="22" y="4" width="1" height="2" fill="var(--foreground)" />
    <rect x="22" y="10" width="1" height="3" fill="var(--foreground)" />
    <rect x="23" y="9" width="5" height="1" fill="var(--foreground)" />
    <rect x="23" y="13" width="5" height="1" fill="var(--foreground)" />
    <rect x="24" y="1" width="3" height="1" fill="var(--foreground)" />
    <rect x="24" y="2" width="1" height="1" fill="var(--foreground)" />
    <rect x="24" y="3" width="3" height="1" fill="var(--foreground)" />
    <rect x="24" y="4" width="1" height="2" fill="var(--foreground)" />
    <rect x="24" y="10" width="4" height="3" fill="var(--foreground)" />
    <rect x="26" y="2" width="1" height="1" fill="var(--foreground)" />
    <rect x="26" y="4" width="1" height="2" fill="var(--foreground)" />
    <rect x="28" y="1" width="1" height="1" fill="var(--foreground)" />
    <rect x="28" y="2" width="3" height="1" fill="var(--foreground)" />
    <rect x="28" y="3" width="1" height="3" fill="var(--foreground)" />
    <rect x="29" y="9" width="1" height="2" fill="var(--foreground)" />
    <rect x="29" y="12" width="1" height="2" fill="var(--foreground)" />
    <rect x="30" y="1" width="1" height="1" fill="var(--foreground)" />
    <rect x="30" y="3" width="1" height="3" fill="var(--foreground)" />
    <rect x="31" y="9" width="1" height="5" fill="var(--foreground)" />
    <rect x="33" y="10" width="3" height="1" fill="var(--foreground)" />
    <rect x="33" y="12" width="3" height="1" fill="var(--foreground)" />
    <rect x="35" y="9" width="1" height="1" fill="var(--foreground)" />
    <rect x="35" y="11" width="1" height="1" fill="var(--foreground)" />
    <rect x="35" y="13" width="1" height="1" fill="var(--foreground)" />
    <rect x="37" y="10" width="1" height="1" fill="var(--foreground)" />
    <rect x="37" y="12" width="1" height="2" fill="var(--foreground)" />
    <rect x="38" y="11" width="2" height="1" fill="var(--foreground)" />
    <rect x="39" y="9" width="1" height="2" fill="var(--foreground)" />
    <rect x="39" y="12" width="1" height="2" fill="var(--foreground)" />
    <rect x="41" y="10" width="3" height="1" fill="var(--foreground)" />
    <rect x="41" y="12" width="3" height="1" fill="var(--foreground)" />
    <rect x="43" y="9" width="1" height="1" fill="var(--foreground)" />
    <rect x="43" y="11" width="1" height="1" fill="var(--foreground)" />
    <rect x="43" y="13" width="1" height="1" fill="var(--foreground)" />
    <rect x="45" y="0" width="1" height="29" fill="var(--foreground)" />
    <rect x="45" y="30" width="1" height="1" fill="var(--foreground)" />
    <rect x="45" y="31" width="2" height="1" fill="var(--foreground)" />
    <rect x="45" y="32" width="1" height="1" fill="var(--foreground)" />
    <rect x="45" y="34" width="1" height="30" fill="var(--foreground)" />
    <rect x="48" y="8" width="78" height="1" fill="var(--foreground)" />
    <rect x="48" y="14" width="78" height="1" fill="var(--foreground)" />
    <rect x="114" y="2" width="1" height="3" fill="var(--foreground)" />
    <rect x="114" y="10" width="1" height="3" fill="var(--foreground)" />
    <rect x="115" y="1" width="1" height="1" fill="var(--foreground)" />
    <rect x="115" y="5" width="1" height="1" fill="var(--foreground)" />
    <rect x="115" y="9" width="1" height="1" fill="var(--foreground)" />
    <rect x="115" y="13" width="1" height="1" fill="var(--foreground)" />
    <rect x="117" y="1" width="2" height="1" fill="var(--foreground)" />
    <rect x="117" y="2" width="1" height="3" fill="var(--foreground)" />
    <rect x="117" y="5" width="2" height="1" fill="var(--foreground)" />
    <rect x="117" y="9" width="2" height="1" fill="var(--foreground)" />
    <rect x="117" y="10" width="1" height="3" fill="var(--foreground)" />
    <rect x="117" y="13" width="2" height="1" fill="var(--foreground)" />
    <rect x="119" y="2" width="1" height="3" fill="var(--foreground)" />
    <rect x="119" y="10" width="1" height="3" fill="var(--foreground)" />
    <rect x="121" y="1" width="1" height="1" fill="var(--foreground)" />
    <rect x="121" y="5" width="1" height="1" fill="var(--foreground)" />
    <rect x="121" y="9" width="1" height="1" fill="var(--foreground)" />
    <rect x="121" y="13" width="1" height="1" fill="var(--foreground)" />
    <rect x="122" y="2" width="1" height="3" fill="var(--foreground)" />
    <rect x="122" y="10" width="1" height="3" fill="var(--foreground)" />
    <rect x="125" y="9" width="1" height="5" fill="var(--foreground)" />
    <rect x="126" y="30" width="1" height="1" fill="var(--foreground)" />
    <rect x="126" y="31" width="2" height="1" fill="var(--foreground)" />
    <rect x="126" y="32" width="1" height="1" fill="var(--foreground)" />
    <rect x="127" y="0" width="1" height="29" fill="var(--foreground)" />
    <rect x="127" y="34" width="1" height="30" fill="var(--foreground)" />
  </g>
</svg>