<svg viewBox="0 0 128 64" xmlns="http://www.w3.org/2000/svg">
  <g id="pixels">
    <rect x="1" y="1" width="48" height="1" fill="var(--foreground)" />
    <rect x="1" y="2" width="2" height="5" fill="var(--foreground)" />
    <rect x="1" y="7" width="48" height="1" fill="var(--foreground)" />
    <rect x="3" y="10" width="1" height="2" fill="var(--foreground)" />
    <rect x="3" y="12" width="2" height="1" fill="var(--foreground)" />
    <rect x="3" y="13" width="1" height="2" fill="var(--foreground)" />
    <rect x="3" y="17" width="3" height="1" fill="var(--foreground)" />
    <rect x="3" y="18" width="1" height="1" fill="var(--foreground)" />
    <rect x="3" y="19" width="3" height="1" fill="var(--foreground)" />
    <rect x="3" y="21" width="3" height="1" fill="var(--foreground)" />
    <rect x="3" y="26" width="3" height="1" fill="var(--foreground)" />
    <rect x="3" y="31" width="3" height="1" fill="var(--foreground)" />
    <rect x="3" y="32" width="1" height="1" fill="var(--foreground)" />
    <rect x="3" y="33" width="3" height="1" fill="var(--foreground)" />
    <rect x="3" y="34" width="1" height="2" fill="var(--foreground)" />
    <rect x="3" y="38" width="3" height="1" fill="var(--foreground)" />
    <rect x="3" y="39" width="1" height="1" fill="var(--foreground)" />
    <rect x="3" y="40" width="3" height="1" fill="var(--foreground)" />
    <rect x="3" y="42" width="3" height="1" fill="var(--foreground)" />
    <rect x="3" y="46" width="1" height="3" fill="var(--foreground)" />
    <rect x="4" y="3" width="1" height="1" fill="var(--foreground)" />
    <rect x="4" y="5" width="1" height="2" fill="var(--foreground)" />
    <rect x="4" y="25" width="1" height="1" fill="var(--foreground)" />
    <rect x="4" y="27" width="1" height="1" fill="var(--foreground)" />
    <rect x="4" y="45" width="2" height="1" fill="var(--foreground)" />
    <rect x="4" y="49" width="2" height="1" fill="var(--foreground)" />
    <rect x="5" y="10" width="1" height="2" fill="var(--foreground)" />
    <rect x="5" y="13" width="1" height="2" fill="var(--foreground)" />
    <rect x="5" y="20" width="1" height="1" fill="var(--foreground)" />
    <rect x="5" y="32" width="1" height="1" fill="var(--foreground)" />
    <rect x="5" y="41" width="1" height="1" fill="var(--foreground)" />
    <rect x="5" y="47" width="1" height="2" fill="var(--foreground)" />
    <rect x="6" y="2" width="1" height="5" fill="var(--foreground)" />
    <rect x="7" y="10" width="3" height="1" fill="var(--foreground)" />
    <rect x="7" y="14" width="3" height="1" fill="var(--foreground)" />
    <rect x="7" y="17" width="3" height="1" fill="var(--foreground)" />
    <rect x="7" y="18" width="1" height="3" fill="var(--foreground)" />
    <rect x="7" y="21" width="3" height="1" fill="var(--foreground)" />
    <rect x="7" y="24" width="2" height="1" fill="var(--foreground)" />
    <rect x="7" y="25" width="1" height="3" fill="var(--foreground)" />
    <rect x="7" y="28" width="2" height="1" fill="var(--foreground)" />
    <rect x="7" y="31" width="3" height="1" fill="var(--foreground)" />
    <rect x="7" y="32" width="1" height="1" fill="var(--foreground)" />
    <rect x="7" y="33" width="3" height="1" fill="var(--foreground)" />
    <rect x="7" y="34" width="1" height="2" fill="var(--foreground)" />
    <rect x="7" y="38" width="3" height="1" fill="var(--foreground)" />
    <rect x="7" y="39" width="1" height="3" fill="var(--foreground)" />
    <rect x="7" y="42" width="3" height="1" fill="var(--foreground)" />
    <rect x="7" y="45" width="1" height="4" fill="var(--foreground)" />
    <rect x="7" y="49" width="3" height="1" fill="var(--foreground)" />
    <rect x="8" y="3" width="1" height="4" fill="var(--foreground)" />
    <rect x="8" y="11" width="1" height="3" fill="var(--foreground)" />
    <rect x="9" y="2" width="2" height="1" fill="var(--foreground)" />
    <rect x="9" y="18" width="1" height="3" fill="var(--foreground)" />
    <rect x="9" y="25" width="1" height="3" fill="var(--foreground)" />
    <rect x="9" y="32" width="1" height="1" fill="var(--foreground)" />
    <rect x="9" y="34" width="1" height="2" fill="var(--foreground)" />
    <rect x="9" y="39" width="1" height="3" fill="var(--foreground)" />
    <rect x="10" y="3" width="1" height="2" fill="var(--foreground)" />
    <rect x="10" y="5" width="3" height="1" fill="var(--foreground)" />
    <rect x="10" y="6" width="1" height="1" fill="var(--foreground)" />
    <rect x="11" y="10" width="3" height="1" fill="var(--foreground)" />
    <rect x="11" y="17" width="1" height="4" fill="var(--foreground)" />
    <rect x="11" y="21" width="3" height="1" fill="var(--foreground)" />
    <rect x="11" y="24" width="3" height="1" fill="var(--foreground)" />
    <rect x="11" y="25" width="1" height="1" fill="var(--foreground)" />
    <rect x="11" y="26" width="2" height="1" fill="var(--foreground)" />
    <rect x="11" y="27" width="1" height="2" fill="var(--foreground)" />
    <rect x="11" y="31" width="3" height="1" fill="var(--foreground)" />
    <rect x="11" y="38" width="2" height="1" fill="var(--foreground)" />
    <rect x="11" y="39" width="1" height="4" fill="var(--foreground)" />
    <rect x="11" y="45" width="3" height="1" fill="var(--foreground)" />
    <rect x="11" y="46" width="1" height="3" fill="var(--foreground)" />
    <rect x="11" y="49" width="3" height="1" fill="var(--foreground)" />
    <rect x="12" y="2" width="1" height="2" fill="var(--foreground)" />
    <rect x="12" y="11" width="1" height="4" fill="var(--foreground)" />
    <rect x="12" y="32" width="1" height="4" fill="var(--foreground)" />
    <rect x="13" y="17" width="1" height="4" fill="var(--foreground)" />
    <rect x="13" y="25" width="1" height="1" fill="var(--foreground)" />
    <rect x="13" y="27" width="1" height="2" fill="var(--foreground)" />
    <rect x="13" y="39" width="1" height="4" fill="var(--foreground)" />
    <rect x="13" y="46" width="1" height="3" fill="var(--foreground)" />
    <rect x="14" y="2" width="1" height="1" fill="var(--foreground)" />
    <rect x="14" y="3" width="2" height="4" fill="var(--foreground)" />
    <rect x="15" y="17" width="2" height="1" fill="var(--foreground)" />
    <rect x="15" y="18" width="1" height="4" fill="var(--foreground)" />
    <rect x="15" y="24" width="3" height="1" fill="var(--foreground)" />
    <rect x="15" y="28" width="3" height="1" fill="var(--foreground)" />
    <rect x="15" y="31" width="3" height="1" fill="var(--foreground)" />
    <rect x="15" y="39" width="1" height="3" fill="var(--foreground)" />
    <rect x="15" y="45" width="2" height="1" fill="var(--foreground)" />
    <rect x="15" y="46" width="1" height="1" fill="var(--foreground)" />
    <rect x="15" y="47" width="2" height="1" fill="var(--foreground)" />
    <rect x="15" y="48" width="1" height="1" fill="var(--foreground)" />
    <rect x="15" y="49" width="2" height="1" fill="var(--foreground)" />
    <rect x="16" y="25" width="1" height="3" fill="var(--foreground)" />
    <rect x="16" y="32" width="1" height="4" fill="var(--foreground)" />
    <rect x="16" y="38" width="2" height="1" fill="var(--foreground)" />
    <rect x="16" y="42" width="2" height="1" fill="var(--foreground)" />
    <rect x="17" y="3" width="2" height="4" fill="var(--foreground)" />
    <rect x="17" y="18" width="1" height="4" fill="var(--foreground)" />
    <rect x="17" y="40" width="1" height="2" fill="var(--foreground)" />
    <rect x="17" y="46" width="1" height="1" fill="var(--foreground)" />
    <rect x="17" y="48" width="1" height="1" fill="var(--foreground)" />
    <rect x="18" y="2" width="1" height="1" fill="var(--foreground)" />
    <rect x="19" y="17" width="2" height="1" fill="var(--foreground)" />
    <rect x="19" y="18" width="1" height="3" fill="var(--foreground)" />
    <rect x="19" y="21" width="2" height="1" fill="var(--foreground)" />
    <rect x="19" y="24" width="1" height="4" fill="var(--foreground)" />
    <rect x="19" y="28" width="2" height="1" fill="var(--foreground)" />
    <rect x="19" y="31" width="3" height="1" fill="var(--foreground)" />
    <rect x="19" y="32" width="1" height="1" fill="var(--foreground)" />
    <rect x="19" y="33" width="3" height="1" fill="var(--foreground)" />
    <rect x="19" y="34" width="1" height="1" fill="var(--foreground)" />
    <rect x="19" y="35" width="3" height="1" fill="var(--foreground)" />
    <rect x="19" y="45" width="3" height="1" fill="var(--foreground)" />
    <rect x="19" y="46" width="1" height="1" fill="var(--foreground)" />
    <rect x="19" y="47" width="3" height="1" fill="var(--foreground)" />
    <rect x="19" y="48" width="1" height="2" fill="var(--foreground)" />
    <rect x="20" y="2" width="1" height="2" fill="var(--foreground)" />
    <rect x="20" y="5" width="1" height="2" fill="var(--foreground)" />
    <rect x="21" y="18" width="1" height="3" fill="var(--foreground)" />
    <rect x="21" y="24" width="1" height="4" fill="var(--foreground)" />
    <rect x="21" y="46" width="1" height="1" fill="var(--foreground)" />
    <rect x="21" y="48" width="1" height="2" fill="var(--foreground)" />
    <rect x="22" y="2" width="1" height="1" fill="var(--foreground)" />
    <rect x="22" y="3" width="2" height="3" fill="var(--foreground)" />
    <rect x="22" y="6" width="1" height="1" fill="var(--foreground)" />
    <rect x="23" y="24" width="3" height="1" fill="var(--foreground)" />
    <rect x="23" y="25" width="1" height="1" fill="var(--foreground)" />
    <rect x="23" y="26" width="3" height="1" fill="var(--foreground)" />
    <rect x="23" y="27" width="1" height="1" fill="var(--foreground)" />
    <rect x="23" y="28" width="3" height="1" fill="var(--foreground)" />
    <rect x="23" y="31" width="3" height="1" fill="var(--foreground)" />
    <rect x="23" y="32" width="1" height="1" fill="var(--foreground)" />
    <rect x="23" y="33" width="2" height="1" fill="var(--foreground)" />
    <rect x="23" y="34" width="1" height="2" fill="var(--foreground)" />
    <rect x="23" y="45" width="1" height="4" fill="var(--foreground)" />
    <rect x="23" y="49" width="3" height="1" fill="var(--foreground)" />
    <rect x="25" y="3" width="2" height="3" fill="var(--foreground)" />
    <rect x="25" y="32" width="1" height="1" fill="var(--foreground)" />
    <rect x="25" y="34" width="1" height="2" fill="var(--foreground)" />
    <rect x="26" y="2" width="1" height="1" fill="var(--foreground)" />
    <rect x="26" y="6" width="1" height="1" fill="var(--foreground)" />
    <rect x="26" y="17" width="3" height="1" fill="var(--foreground)" />
    <rect x="26" y="18" width="1" height="1" fill="var(--foreground)" />
    <rect x="26" y="19" width="3" height="1" fill="var(--foreground)" />
    <rect x="26" y="20" width="1" height="2" fill="var(--foreground)" />
    <rect x="27" y="31" width="2" height="1" fill="var(--foreground)" />
    <rect x="27" y="32" width="1" height="4" fill="var(--foreground)" />
    <rect x="28" y="3" width="1" height="4" fill="var(--foreground)" />
    <rect x="28" y="18" width="1" height="1" fill="var(--foreground)" />
    <rect x="29" y="2" width="3" height="1" fill="var(--foreground)" />
    <rect x="29" y="32" width="1" height="4" fill="var(--foreground)" />
    <rect x="30" y="3" width="1" height="3" fill="var(--foreground)" />
    <rect x="30" y="6" width="2" height="1" fill="var(--foreground)" />
    <rect x="30" y="17" width="3" height="1" fill="var(--foreground)" />
    <rect x="30" y="18" width="1" height="3" fill="var(--foreground)" />
    <rect x="30" y="21" width="3" height="1" fill="var(--foreground)" />
    <rect x="30" y="24" width="3" height="1" fill="var(--foreground)" />
    <rect x="30" y="25" width="1" height="1" fill="var(--foreground)" />
    <rect x="30" y="26" width="3" height="1" fill="var(--foreground)" />
    <rect x="30" y="28" width="3" height="1" fill="var(--foreground)" />
    <rect x="32" y="3" width="17" height="1" fill="var(--foreground)" />
    <rect x="32" y="4" width="1" height="2" fill="var(--foreground)" />
    <rect x="32" y="18" width="1" height="3" fill="var(--foreground)" />
    <rect x="32" y="27" width="1" height="1" fill="var(--foreground)" />
    <rect x="34" y="2" width="15" height="1" fill="var(--foreground)" />
    <rect x="34" y="4" width="15" height="3" fill="var(--foreground)" />
    <rect x="34" y="17" width="3" height="1" fill="var(--foreground)" />
    <rect x="34" y="18" width="1" height="3" fill="var(--foreground)" />
    <rect x="34" y="21" width="3" height="1" fill="var(--foreground)" />
    <rect x="34" y="24" width="3" height="1" fill="var(--foreground)" />
    <rect x="34" y="25" width="1" height="3" fill="var(--foreground)" />
    <rect x="34" y="28" width="3" height="1" fill="var(--foreground)" />
    <rect x="36" y="18" width="1" height="3" fill="var(--foreground)" />
    <rect x="36" y="25" width="1" height="3" fill="var(--foreground)" />
    <rect x="38" y="17" width="1" height="4" fill="var(--foreground)" />
    <rect x="38" y="21" width="3" height="1" fill="var(--foreground)" />
    <rect x="38" y="24" width="1" height="4" fill="var(--foreground)" />
    <rect x="38" y="28" width="3" height="1" fill="var(--foreground)" />
    <rect x="40" y="24" width="1" height="4" fill="var(--foreground)" />
    <rect x="42" y="24" width="2" height="1" fill="var(--foreground)" />
    <rect x="42" y="25" width="1" height="4" fill="var(--foreground)" />
    <rect x="44" y="25" width="1" height="4" fill="var(--foreground)" />
    <rect x="46" y="24" width="2" height="1" fill="var(--foreground)" />
    <rect x="46" y="25" width="1" height="3" fill="var(--foreground)" />
    <rect x="46" y="28" width="2" height="1" fill="var(--foreground)" />
    <rect x="48" y="25" width="1" height="3" fill="var(--foreground)" />
    <rect x="61" y="1" width="62" height="1" fill="var(--foreground)" />
    <rect x="61" y="2" width="1" height="5" fill="var(--foreground)" />
    <rect x="61" y="7" width="62" height="1" fill="var(--foreground)" />
    <rect x="63" y="2" width="3" height="1" fill="var(--foreground)" />
    <rect x="63" y="3" width="1" height="1" fill="var(--foreground)" />
    <rect x="63" y="4" width="2" height="1" fill="var(--foreground)" />
    <rect x="63" y="5" width="1" height="2" fill="var(--foreground)" />
    <rect x="65" y="3" width="1" height="1" fill="var(--foreground)" />
    <rect x="65" y="5" width="1" height="2" fill="var(--foreground)" />
    <rect x="67" y="2" width="3" height="1" fill="var(--foreground)" />
    <rect x="67" y="3" width="1" height="1" fill="var(--foreground)" />
    <rect x="67" y="4" width="3" height="1" fill="var(--foreground)" />
    <rect x="67" y="5" width="1" height="1" fill="var(--foreground)" />
    <rect x="67" y="6" width="3" height="1" fill="var(--foreground)" />
    <rect x="71" y="2" width="3" height="1" fill="var(--foreground)" />
    <rect x="71" y="3" width="1" height="3" fill="var(--foreground)" />
    <rect x="71" y="6" width="3" height="1" fill="var(--foreground)" />
    <rect x="73" y="3" width="1" height="1" fill="var(--foreground)" />
    <rect x="73" y="5" width="1" height="1" fill="var(--foreground)" />
    <rect x="75" y="2" width="3" height="1" fill="var(--foreground)" />
    <rect x="75" y="3" width="1" height="1" fill="var(--foreground)" />
    <rect x="75" y="4" width="3" height="1" fill="var(--foreground)" />
    <rect x="75" y="5" width="1" height="1" fill="var(--foreground)" />
    <rect x="75" y="6" width="3" height="1" fill="var(--foreground)" />
    <rect x="79" y="2" width="3" height="1" fill="var(--foreground)" />
    <rect x="79" y="6" width="3" height="1" fill="var(--foreground)" />
    <rect x="80" y="3" width="1" height="3" fill="var(--foreground)" />
    <rect x="83" y="2" width="1" height="4" fill="var(--foreground)" />
    <rect x="83" y="6" width="2" height="1" fill="var(--foreground)" />
    <rect x="85" y="2" width="1" height="4" fill="var(--foreground)" />
    <rect x="87" y="2" width="3" height="1" fill="var(--foreground)" />
    <rect x="87" y="3" width="1" height="1" fill="var(--foreground)" />
    <rect x="87" y="4" width="3" height="1" fill="var(--foreground)" />
    <rect x="87" y="5" width="1" height="1" fill="var(--foreground)" />
    <rect x="87" y="6" width="3" height="1" fill="var(--foreground)" />
    <rect x="94" y="2" width="3" height="1" fill="var(--foreground)" />
    <rect x="94" y="3" width="1" height="1" fill="var(--foreground)" />
    <rect x="94" y="4" width="3" height="1" fill="var(--foreground)" />
    <rect x="94" y="5" width="1" height="2" fill="var(--foreground)" />
    <rect x="96" y="3" width="1" height="1" fill="var(--foreground)" />
    <rect x="96" y="5" width="1" height="2" fill="var(--foreground)" />
    <rect x="98" y="2" width="2" height="1" fill="var(--foreground)" />
    <rect x="98" y="3" width="1" height="4" fill="var(--foreground)" />
    <rect x="100" y="3" width="1" height="4" fill="var(--foreground)" />
    <rect x="102" y="2" width="1" height="2" fill="var(--foreground)" />
    <rect x="102" y="4" width="3" height="1" fill="var(--foreground)" />
    <rect x="102" y="6" width="3" height="1" fill="var(--foreground)" />
    <rect x="104" y="2" width="1" height="2" fill="var(--foreground)" />
    <rect x="104" y="5" width="1" height="1" fill="var(--foreground)" />
    <rect x="122" y="2" width="1" height="5" fill="var(--foreground)" />
  </g>
</svg>