<svg viewBox="0 0 128 64" xmlns="http://www.w3.org/2000/svg">
  <g id="pixels">
    <rect x="0" y="7" width="3" height="1" fill="var(--foreground)" />
    <rect x="0" y="12" width="3" height="1" fill="var(--foreground)" />
    <rect x="0" y="13" width="1" height="3" fill="var(--foreground)" />
    <rect x="0" y="16" width="3" height="1" fill="var(--foreground)" />
    <rect x="0" y="19" width="3" height="1" fill="var(--foreground)" />
    <rect x="0" y="20" width="1" height="3" fill="var(--foreground)" />
    <rect x="0" y="23" width="3" height="1" fill="var(--foreground)" />
    <rect x="0" y="26" width="3" height="1" fill="var(--foreground)" />
    <rect x="0" y="27" width="1" height="3" fill="var(--foreground)" />
    <rect x="0" y="30" width="3" height="1" fill="var(--foreground)" />
    <rect x="2" y="13" width="1" height="3" fill="var(--foreground)" />
    <rect x="2" y="20" width="1" height="3" fill="var(--foreground)" />
    <rect x="2" y="27" width="1" height="3" fill="var(--foreground)" />
    <rect x="4" y="7" width="3" height="1" fill="var(--foreground)" />
    <rect x="4" y="12" width="3" height="1" fill="var(--foreground)" />
    <rect x="4" y="13" width="1" height="3" fill="var(--foreground)" />
    <rect x="4" y="16" width="3" height="1" fill="var(--foreground)" />
    <rect x="4" y="20" width="2" height="1" fill="var(--foreground)" />
    <rect x="4" y="23" width="3" height="1" fill="var(--foreground)" />
    <rect x="4" y="26" width="3" height="1" fill="var(--foreground)" />
    <rect x="4" y="28" width="3" height="1" fill="var(--foreground)" />
    <rect x="4" y="29" width="1" height="1" fill="var(--foreground)" />
    <rect x="4" y="30" width="3" height="1" fill="var(--foreground)" />
    <rect x="5" y="19" width="1" height="1" fill="var(--foreground)" />
    <rect x="5" y="21" width="1" height="2" fill="var(--foreground)" />
    <rect x="6" y="13" width="1" height="3" fill="var(--foreground)" />
    <rect x="6" y="27" width="1" height="1" fill="var(--foreground)" />
    <rect x="8" y="4" width="1" height="1" fill="var(--foreground)" />
    <rect x="8" y="6" width="1" height="1" fill="var(--foreground)" />
    <rect x="8" y="13" width="1" height="1" fill="var(--foreground)" />
    <rect x="8" y="15" width="1" height="1" fill="var(--foreground)" />
    <rect x="8" y="20" width="1" height="1" fill="var(--foreground)" />
    <rect x="8" y="22" width="1" height="1" fill="var(--foreground)" />
    <rect x="8" y="27" width="1" height="1" fill="var(--foreground)" />
    <rect x="8" y="29" width="1" height="1" fill="var(--foreground)" />
    <rect x="15" y="4" width="2" height="1" fill="var(--foreground)" />
    <rect x="15" y="7" width="3" height="1" fill="var(--foreground)" />
    <rect x="15" y="13" width="2" height="1" fill="var(--foreground)" />
    <rect x="15" y="16" width="3" height="1" fill="var(--foreground)" />
    <rect x="15" y="19" width="1" height="2" fill="var(--foreground)" />
    <rect x="15" y="21" width="3" height="1" fill="var(--foreground)" />
    <rect x="15" y="26" width="3" height="1" fill="var(--foreground)" />
    <rect x="15" y="28" width="3" height="1" fill="var(--foreground)" />
    <rect x="15" y="29" width="1" height="1" fill="var(--foreground)" />
    <rect x="15" y="30" width="3" height="1" fill="var(--foreground)" />
    <rect x="16" y="3" width="1" height="1" fill="var(--foreground)" />
    <rect x="16" y="5" width="1" height="2" fill="var(--foreground)" />
    <rect x="16" y="12" width="1" height="1" fill="var(--foreground)" />
    <rect x="16" y="14" width="1" height="2" fill="var(--foreground)" />
    <rect x="17" y="19" width="1" height="2" fill="var(--foreground)" />
    <rect x="17" y="22" width="1" height="2" fill="var(--foreground)" />
    <rect x="17" y="27" width="1" height="1" fill="var(--foreground)" />
    <rect x="19" y="4" width="1" height="1" fill="var(--foreground)" />
    <rect x="19" y="6" width="1" height="1" fill="var(--foreground)" />
    <rect x="19" y="13" width="1" height="1" fill="var(--foreground)" />
    <rect x="19" y="15" width="1" height="1" fill="var(--foreground)" />
    <rect x="19" y="20" width="1" height="1" fill="var(--foreground)" />
    <rect x="19" y="22" width="1" height="1" fill="var(--foreground)" />
    <rect x="19" y="27" width="1" height="1" fill="var(--foreground)" />
    <rect x="19" y="29" width="1" height="1" fill="var(--foreground)" />
    <rect x="20" y="5" width="1" height="1" fill="var(--foreground)" />
    <rect x="20" y="14" width="1" height="1" fill="var(--foreground)" />
    <rect x="20" y="21" width="1" height="1" fill="var(--foreground)" />
    <rect x="20" y="28" width="1" height="1" fill="var(--foreground)" />
    <rect x="21" y="4" width="1" height="1" fill="var(--foreground)" />
    <rect x="21" y="6" width="1" height="1" fill="var(--foreground)" />
    <rect x="21" y="13" width="1" height="1" fill="var(--foreground)" />
    <rect x="21" y="15" width="1" height="1" fill="var(--foreground)" />
    <rect x="21" y="20" width="1" height="1" fill="var(--foreground)" />
    <rect x="21" y="22" width="1" height="1" fill="var(--foreground)" />
    <rect x="21" y="27" width="1" height="1" fill="var(--foreground)" />
    <rect x="21" y="29" width="1" height="1" fill="var(--foreground)" />
    <rect x="28" y="1" width="15" height="2" fill="var(--foreground)" />
    <rect x="28" y="3" width="2" height="5" fill="var(--foreground)" />
    <rect x="28" y="8" width="15" height="2" fill="var(--foreground)" />
    <rect x="30" y="12" width="3" height="1" fill="var(--foreground)" />
    <rect x="30" y="13" width="1" height="1" fill="var(--foreground)" />
    <rect x="30" y="14" width="3" height="1" fill="var(--foreground)" />
    <rect x="30" y="15" width="1" height="2" fill="var(--foreground)" />
    <rect x="30" y="19" width="3" height="1" fill="var(--foreground)" />
    <rect x="30" y="20" width="1" height="1" fill="var(--foreground)" />
    <rect x="30" y="21" width="3" height="1" fill="var(--foreground)" />
    <rect x="30" y="22" width="1" height="2" fill="var(--foreground)" />
    <rect x="30" y="26" width="3" height="1" fill="var(--foreground)" />
    <rect x="30" y="27" width="1" height="1" fill="var(--foreground)" />
    <rect x="30" y="28" width="3" height="1" fill="var(--foreground)" />
    <rect x="30" y="29" width="1" height="2" fill="var(--foreground)" />
    <rect x="31" y="4" width="1" height="1" fill="var(--foreground)" />
    <rect x="31" y="6" width="1" height="2" fill="var(--foreground)" />
    <rect x="32" y="13" width="1" height="1" fill="var(--foreground)" />
    <rect x="32" y="15" width="1" height="2" fill="var(--foreground)" />
    <rect x="32" y="20" width="1" height="1" fill="var(--foreground)" />
    <rect x="32" y="22" width="1" height="2" fill="var(--foreground)" />
    <rect x="32" y="27" width="1" height="1" fill="var(--foreground)" />
    <rect x="32" y="29" width="1" height="2" fill="var(--foreground)" />
    <rect x="33" y="3" width="1" height="5" fill="var(--foreground)" />
    <rect x="34" y="12" width="3" height="1" fill="var(--foreground)" />
    <rect x="34" y="13" width="1" height="3" fill="var(--foreground)" />
    <rect x="34" y="16" width="3" height="1" fill="var(--foreground)" />
    <rect x="34" y="19" width="3" height="1" fill="var(--foreground)" />
    <rect x="34" y="20" width="1" height="3" fill="var(--foreground)" />
    <rect x="34" y="23" width="3" height="1" fill="var(--foreground)" />
    <rect x="34" y="26" width="3" height="1" fill="var(--foreground)" />
    <rect x="34" y="27" width="1" height="3" fill="var(--foreground)" />
    <rect x="34" y="30" width="3" height="1" fill="var(--foreground)" />
    <rect x="35" y="4" width="1" height="3" fill="var(--foreground)" />
    <rect x="36" y="13" width="1" height="3" fill="var(--foreground)" />
    <rect x="36" y="20" width="1" height="3" fill="var(--foreground)" />
    <rect x="36" y="27" width="1" height="3" fill="var(--foreground)" />
    <rect x="37" y="3" width="1" height="3" fill="var(--foreground)" />
    <rect x="37" y="6" width="3" height="1" fill="var(--foreground)" />
    <rect x="37" y="7" width="1" height="1" fill="var(--foreground)" />
    <rect x="38" y="12" width="3" height="1" fill="var(--foreground)" />
    <rect x="38" y="14" width="3" height="1" fill="var(--foreground)" />
    <rect x="38" y="15" width="1" height="1" fill="var(--foreground)" />
    <rect x="38" y="16" width="3" height="1" fill="var(--foreground)" />
    <rect x="38" y="19" width="3" height="1" fill="var(--foreground)" />
    <rect x="38" y="20" width="1" height="1" fill="var(--foreground)" />
    <rect x="38" y="21" width="3" height="1" fill="var(--foreground)" />
    <rect x="38" y="23" width="3" height="1" fill="var(--foreground)" />
    <rect x="38" y="26" width="3" height="1" fill="var(--foreground)" />
    <rect x="38" y="28" width="3" height="1" fill="var(--foreground)" />
    <rect x="38" y="29" width="1" height="1" fill="var(--foreground)" />
    <rect x="38" y="30" width="3" height="1" fill="var(--foreground)" />
    <rect x="39" y="4" width="1" height="1" fill="var(--foreground)" />
    <rect x="40" y="13" width="1" height="1" fill="var(--foreground)" />
    <rect x="40" y="20" width="1" height="1" fill="var(--foreground)" />
    <rect x="40" y="22" width="1" height="1" fill="var(--foreground)" />
    <rect x="40" y="27" width="1" height="1" fill="var(--foreground)" />
    <rect x="41" y="3" width="2" height="5" fill="var(--foreground)" />
    <rect x="44" y="26" width="3" height="1" fill="var(--foreground)" />
    <rect x="44" y="27" width="1" height="1" fill="var(--foreground)" />
    <rect x="44" y="28" width="3" height="1" fill="var(--foreground)" />
    <rect x="44" y="29" width="1" height="2" fill="var(--foreground)" />
    <rect x="46" y="27" width="1" height="1" fill="var(--foreground)" />
    <rect x="46" y="29" width="1" height="2" fill="var(--foreground)" />
    <rect x="48" y="26" width="3" height="1" fill="var(--foreground)" />
    <rect x="48" y="27" width="1" height="3" fill="var(--foreground)" />
    <rect x="48" y="30" width="3" height="1" fill="var(--foreground)" />
    <rect x="50" y="27" width="1" height="3" fill="var(--foreground)" />
    <rect x="52" y="26" width="3" height="1" fill="var(--foreground)" />
    <rect x="52" y="28" width="3" height="1" fill="var(--foreground)" />
    <rect x="52" y="30" width="3" height="1" fill="var(--foreground)" />
    <rect x="54" y="27" width="1" height="1" fill="var(--foreground)" />
    <rect x="54" y="29" width="1" height="1" fill="var(--foreground)" />
    <rect x="58" y="26" width="3" height="1" fill="var(--foreground)" />
    <rect x="58" y="27" width="1" height="1" fill="var(--foreground)" />
    <rect x="58" y="28" width="3" height="1" fill="var(--foreground)" />
    <rect x="58" y="29" width="1" height="2" fill="var(--foreground)" />
    <rect x="60" y="27" width="1" height="1" fill="var(--foreground)" />
    <rect x="60" y="29" width="1" height="2" fill="var(--foreground)" />
    <rect x="62" y="26" width="3" height="1" fill="var(--foreground)" />
    <rect x="62" y="27" width="1" height="3" fill="var(--foreground)" />
    <rect x="62" y="30" width="3" height="1" fill="var(--foreground)" />
    <rect x="64" y="27" width="1" height="3" fill="var(--foreground)" />
    <rect x="66" y="27" width="2" height="1" fill="var(--foreground)" />
    <rect x="66" y="30" width="3" height="1" fill="var(--foreground)" />
    <rect x="67" y="26" width="1" height="1" fill="var(--foreground)" />
    <rect x="67" y="28" width="1" height="2" fill="var(--foreground)" />
    <rect x="97" y="0" width="1" height="13" fill="var(--foreground)" />
    <rect x="97" y="13" width="25" height="1" fill="var(--foreground)" />
    <rect x="97" y="14" width="1" height="50" fill="var(--foreground)" />
    <rect x="100" y="1" width="3" height="3" fill="var(--foreground)" />
    <rect x="100" y="7" width="3" height="1" fill="var(--foreground)" />
    <rect x="100" y="8" width="1" height="3" fill="var(--foreground)" />
    <rect x="100" y="11" width="3" height="1" fill="var(--foreground)" />
    <rect x="102" y="8" width="1" height="3" fill="var(--foreground)" />
    <rect x="103" y="15" width="3" height="1" fill="var(--foreground)" />
    <rect x="103" y="16" width="1" height="1" fill="var(--foreground)" />
    <rect x="103" y="17" width="3" height="1" fill="var(--foreground)" />
    <rect x="103" y="19" width="3" height="1" fill="var(--foreground)" />
    <rect x="103" y="20" width="1" height="1" fill="var(--foreground)" />
    <rect x="103" y="21" width="3" height="1" fill="var(--foreground)" />
    <rect x="103" y="23" width="3" height="1" fill="var(--foreground)" />
    <rect x="103" y="24" width="1" height="1" fill="var(--foreground)" />
    <rect x="103" y="25" width="3" height="1" fill="var(--foreground)" />
    <rect x="104" y="1" width="2" height="1" fill="var(--foreground)" />
    <rect x="104" y="4" width="3" height="1" fill="var(--foreground)" />
    <rect x="104" y="7" width="3" height="1" fill="var(--foreground)" />
    <rect x="104" y="8" width="1" height="3" fill="var(--foreground)" />
    <rect x="104" y="11" width="3" height="1" fill="var(--foreground)" />
    <rect x="105" y="0" width="1" height="1" fill="var(--foreground)" />
    <rect x="105" y="2" width="1" height="2" fill="var(--foreground)" />
    <rect x="105" y="16" width="1" height="1" fill="var(--foreground)" />
    <rect x="105" y="20" width="1" height="1" fill="var(--foreground)" />
    <rect x="105" y="24" width="1" height="1" fill="var(--foreground)" />
    <rect x="106" y="8" width="1" height="3" fill="var(--foreground)" />
    <rect x="107" y="15" width="3" height="1" fill="var(--foreground)" />
    <rect x="107" y="16" width="1" height="1" fill="var(--foreground)" />
    <rect x="107" y="17" width="3" height="1" fill="var(--foreground)" />
    <rect x="107" y="19" width="3" height="1" fill="var(--foreground)" />
    <rect x="107" y="20" width="1" height="1" fill="var(--foreground)" />
    <rect x="107" y="21" width="3" height="1" fill="var(--foreground)" />
    <rect x="107" y="23" width="3" height="1" fill="var(--foreground)" />
    <rect x="107" y="24" width="1" height="1" fill="var(--foreground)" />
    <rect x="107" y="25" width="3" height="1" fill="var(--foreground)" />
    <rect x="108" y="0" width="3" height="1" fill="var(--foreground)" />
    <rect x="108" y="2" width="3" height="1" fill="var(--foreground)" />
    <rect x="108" y="3" width="1" height="1" fill="var(--foreground)" />
    <rect x="108" y="4" width="3" height="1" fill="var(--foreground)" />
    <rect x="108" y="7" width="3" height="1" fill="var(--foreground)" />
    <rect x="108" y="8" width="1" height="3" fill="var(--foreground)" />
    <rect x="108" y="11" width="3" height="1" fill="var(--foreground)" />
    <rect x="109" y="16" width="1" height="1" fill="var(--foreground)" />
    <rect x="109" y="20" width="1" height="1" fill="var(--foreground)" />
    <rect x="109" y="24" width="1" height="1" fill="var(--foreground)" />
    <rect x="110" y="1" width="1" height="1" fill="var(--foreground)" />
    <rect x="110" y="8" width="1" height="3" fill="var(--foreground)" />
    <rect x="111" y="15" width="3" height="1" fill="var(--foreground)" />
    <rect x="111" y="16" width="1" height="1" fill="var(--foreground)" />
    <rect x="111" y="17" width="3" height="1" fill="var(--foreground)" />
    <rect x="111" y="19" width="3" height="1" fill="var(--foreground)" />
    <rect x="111" y="20" width="1" height="1" fill="var(--foreground)" />
    <rect x="111" y="21" width="3" height="1" fill="var(--foreground)" />
    <rect x="111" y="23" width="3" height="1" fill="var(--foreground)" />
    <rect x="111" y="24" width="1" height="1" fill="var(--foreground)" />
    <rect x="111" y="25" width="3" height="1" fill="var(--foreground)" />
    <rect x="112" y="0" width="3" height="1" fill="var(--foreground)" />
    <rect x="112" y="1" width="1" height="3" fill="var(--foreground)" />
    <rect x="112" y="4" width="3" height="1" fill="var(--foreground)" />
    <rect x="112" y="8" width="2" height="1" fill="var(--foreground)" />
    <rect x="112" y="11" width="3" height="1" fill="var(--foreground)" />
    <rect x="113" y="7" width="1" height="1" fill="var(--foreground)" />
    <rect x="113" y="9" width="1" height="2" fill="var(--foreground)" />
    <rect x="113" y="16" width="1" height="1" fill="var(--foreground)" />
    <rect x="113" y="20" width="1" height="1" fill="var(--foreground)" />
    <rect x="113" y="24" width="1" height="1" fill="var(--foreground)" />
    <rect x="114" y="1" width="1" height="3" fill="var(--foreground)" />
    <rect x="115" y="15" width="3" height="1" fill="var(--foreground)" />
    <rect x="115" y="16" width="1" height="1" fill="var(--foreground)" />
    <rect x="115" y="17" width="3" height="1" fill="var(--foreground)" />
    <rect x="115" y="19" width="3" height="1" fill="var(--foreground)" />
    <rect x="115" y="20" width="1" height="1" fill="var(--foreground)" />
    <rect x="115" y="21" width="3" height="1" fill="var(--foreground)" />
    <rect x="115" y="23" width="3" height="1" fill="var(--foreground)" />
    <rect x="115" y="24" width="1" height="1" fill="var(--foreground)" />
    <rect x="115" y="25" width="3" height="1" fill="var(--foreground)" />
    <rect x="116" y="4" width="1" height="1" fill="var(--foreground)" />
    <rect x="116" y="8" width="1" height="1" fill="var(--foreground)" />
    <rect x="116" y="10" width="1" height="1" fill="var(--foreground)" />
    <rect x="117" y="16" width="1" height="1" fill="var(--foreground)" />
    <rect x="117" y="20" width="1" height="1" fill="var(--foreground)" />
    <rect x="117" y="24" width="1" height="1" fill="var(--foreground)" />
    <rect x="118" y="0" width="3" height="1" fill="var(--foreground)" />
    <rect x="118" y="1" width="1" height="3" fill="var(--foreground)" />
    <rect x="118" y="4" width="3" height="1" fill="var(--foreground)" />
    <rect x="118" y="8" width="2" height="1" fill="var(--foreground)" />
    <rect x="118" y="11" width="3" height="1" fill="var(--foreground)" />
    <rect x="119" y="7" width="1" height="1" fill="var(--foreground)" />
    <rect x="119" y="9" width="1" height="2" fill="var(--foreground)" />
    <rect x="120" y="1" width="1" height="3" fill="var(--foreground)" />
  </g>
</svg>