<svg viewBox="0 0 128 64" xmlns="http://www.w3.org/2000/svg">
  <g id="pixels">
    <rect x="0" y="5" width="3" height="1" fill="var(--foreground)" />
    <rect x="0" y="8" width="3" height="1" fill="var(--foreground)" />
    <rect x="0" y="9" width="1" height="3" fill="var(--foreground)" />
    <rect x="0" y="12" width="3" height="1" fill="var(--foreground)" />
    <rect x="0" y="15" width="3" height="1" fill="var(--foreground)" />
    <rect x="0" y="16" width="1" height="3" fill="var(--foreground)" />
    <rect x="0" y="19" width="3" height="1" fill="var(--foreground)" />
    <rect x="0" y="24" width="3" height="1" fill="var(--foreground)" />
    <rect x="0" y="25" width="1" height="3" fill="var(--foreground)" />
    <rect x="0" y="28" width="3" height="1" fill="var(--foreground)" />
    <rect x="2" y="9" width="1" height="3" fill="var(--foreground)" />
    <rect x="2" y="16" width="1" height="3" fill="var(--foreground)" />
    <rect x="2" y="25" width="1" height="3" fill="var(--foreground)" />
    <rect x="4" y="5" width="3" height="1" fill="var(--foreground)" />
    <rect x="4" y="8" width="3" height="1" fill="var(--foreground)" />
    <rect x="4" y="9" width="1" height="3" fill="var(--foreground)" />
    <rect x="4" y="12" width="3" height="1" fill="var(--foreground)" />
    <rect x="4" y="16" width="2" height="1" fill="var(--foreground)" />
    <rect x="4" y="19" width="3" height="1" fill="var(--foreground)" />
    <rect x="4" y="24" width="3" height="1" fill="var(--foreground)" />
    <rect x="4" y="26" width="3" height="1" fill="var(--foreground)" />
    <rect x="4" y="27" width="1" height="1" fill="var(--foreground)" />
    <rect x="4" y="28" width="3" height="1" fill="var(--foreground)" />
    <rect x="5" y="15" width="1" height="1" fill="var(--foreground)" />
    <rect x="5" y="17" width="1" height="2" fill="var(--foreground)" />
    <rect x="6" y="9" width="1" height="3" fill="var(--foreground)" />
    <rect x="6" y="25" width="1" height="1" fill="var(--foreground)" />
    <rect x="8" y="2" width="1" height="1" fill="var(--foreground)" />
    <rect x="8" y="4" width="1" height="1" fill="var(--foreground)" />
    <rect x="8" y="9" width="1" height="1" fill="var(--foreground)" />
    <rect x="8" y="11" width="1" height="1" fill="var(--foreground)" />
    <rect x="8" y="16" width="1" height="1" fill="var(--foreground)" />
    <rect x="8" y="18" width="1" height="1" fill="var(--foreground)" />
    <rect x="8" y="25" width="1" height="1" fill="var(--foreground)" />
    <rect x="8" y="27" width="1" height="1" fill="var(--foreground)" />
    <rect x="10" y="22" width="15" height="1" fill="var(--foreground)" />
    <rect x="10" y="23" width="1" height="7" fill="var(--foreground)" />
    <rect x="10" y="30" width="15" height="1" fill="var(--foreground)" />
    <rect x="15" y="2" width="2" height="1" fill="var(--foreground)" />
    <rect x="15" y="5" width="3" height="1" fill="var(--foreground)" />
    <rect x="15" y="9" width="2" height="1" fill="var(--foreground)" />
    <rect x="15" y="12" width="3" height="1" fill="var(--foreground)" />
    <rect x="15" y="15" width="1" height="2" fill="var(--foreground)" />
    <rect x="15" y="17" width="3" height="1" fill="var(--foreground)" />
    <rect x="15" y="24" width="3" height="1" fill="var(--foreground)" />
    <rect x="15" y="26" width="3" height="1" fill="var(--foreground)" />
    <rect x="15" y="27" width="1" height="1" fill="var(--foreground)" />
    <rect x="15" y="28" width="3" height="1" fill="var(--foreground)" />
    <rect x="16" y="1" width="1" height="1" fill="var(--foreground)" />
    <rect x="16" y="3" width="1" height="2" fill="var(--foreground)" />
    <rect x="16" y="8" width="1" height="1" fill="var(--foreground)" />
    <rect x="16" y="10" width="1" height="2" fill="var(--foreground)" />
    <rect x="17" y="15" width="1" height="2" fill="var(--foreground)" />
    <rect x="17" y="18" width="1" height="2" fill="var(--foreground)" />
    <rect x="17" y="25" width="1" height="1" fill="var(--foreground)" />
    <rect x="19" y="2" width="1" height="1" fill="var(--foreground)" />
    <rect x="19" y="4" width="1" height="1" fill="var(--foreground)" />
    <rect x="19" y="9" width="1" height="1" fill="var(--foreground)" />
    <rect x="19" y="11" width="1" height="1" fill="var(--foreground)" />
    <rect x="19" y="16" width="1" height="1" fill="var(--foreground)" />
    <rect x="19" y="18" width="1" height="1" fill="var(--foreground)" />
    <rect x="19" y="25" width="1" height="1" fill="var(--foreground)" />
    <rect x="19" y="27" width="1" height="1" fill="var(--foreground)" />
    <rect x="20" y="3" width="1" height="1" fill="var(--foreground)" />
    <rect x="20" y="10" width="1" height="1" fill="var(--foreground)" />
    <rect x="20" y="17" width="1" height="1" fill="var(--foreground)" />
    <rect x="20" y="26" width="1" height="1" fill="var(--foreground)" />
    <rect x="21" y="2" width="1" height="1" fill="var(--foreground)" />
    <rect x="21" y="4" width="1" height="1" fill="var(--foreground)" />
    <rect x="21" y="9" width="1" height="1" fill="var(--foreground)" />
    <rect x="21" y="11" width="1" height="1" fill="var(--foreground)" />
    <rect x="21" y="16" width="1" height="1" fill="var(--foreground)" />
    <rect x="21" y="18" width="1" height="1" fill="var(--foreground)" />
    <rect x="21" y="25" width="1" height="1" fill="var(--foreground)" />
    <rect x="21" y="27" width="1" height="1" fill="var(--foreground)" />
    <rect x="24" y="23" width="1" height="7" fill="var(--foreground)" />
    <rect x="30" y="1" width="3" height="1" fill="var(--foreground)" />
    <rect x="30" y="2" width="1" height="1" fill="var(--foreground)" />
    <rect x="30" y="3" width="3" height="1" fill="var(--foreground)" />
    <rect x="30" y="4" width="1" height="2" fill="var(--foreground)" />
    <rect x="30" y="8" width="3" height="1" fill="var(--foreground)" />
    <rect x="30" y="9" width="1" height="1" fill="var(--foreground)" />
    <rect x="30" y="10" width="3" height="1" fill="var(--foreground)" />
    <rect x="30" y="11" width="1" height="2" fill="var(--foreground)" />
    <rect x="30" y="15" width="3" height="1" fill="var(--foreground)" />
    <rect x="30" y="16" width="1" height="1" fill="var(--foreground)" />
    <rect x="30" y="17" width="3" height="1" fill="var(--foreground)" />
    <rect x="30" y="18" width="1" height="2" fill="var(--foreground)" />
    <rect x="30" y="24" width="3" height="1" fill="var(--foreground)" />
    <rect x="30" y="25" width="1" height="1" fill="var(--foreground)" />
    <rect x="30" y="26" width="3" height="1" fill="var(--foreground)" />
    <rect x="30" y="27" width="1" height="2" fill="var(--foreground)" />
    <rect x="32" y="2" width="1" height="1" fill="var(--foreground)" />
    <rect x="32" y="4" width="1" height="2" fill="var(--foreground)" />
    <rect x="32" y="9" width="1" height="1" fill="var(--foreground)" />
    <rect x="32" y="11" width="1" height="2" fill="var(--foreground)" />
    <rect x="32" y="16" width="1" height="1" fill="var(--foreground)" />
    <rect x="32" y="18" width="1" height="2" fill="var(--foreground)" />
    <rect x="32" y="25" width="1" height="1" fill="var(--foreground)" />
    <rect x="32" y="27" width="1" height="2" fill="var(--foreground)" />
    <rect x="34" y="1" width="3" height="1" fill="var(--foreground)" />
    <rect x="34" y="2" width="1" height="3" fill="var(--foreground)" />
    <rect x="34" y="5" width="3" height="1" fill="var(--foreground)" />
    <rect x="34" y="8" width="3" height="1" fill="var(--foreground)" />
    <rect x="34" y="9" width="1" height="3" fill="var(--foreground)" />
    <rect x="34" y="12" width="3" height="1" fill="var(--foreground)" />
    <rect x="34" y="15" width="3" height="1" fill="var(--foreground)" />
    <rect x="34" y="16" width="1" height="3" fill="var(--foreground)" />
    <rect x="34" y="19" width="3" height="1" fill="var(--foreground)" />
    <rect x="34" y="24" width="3" height="1" fill="var(--foreground)" />
    <rect x="34" y="25" width="1" height="3" fill="var(--foreground)" />
    <rect x="34" y="28" width="3" height="1" fill="var(--foreground)" />
    <rect x="36" y="2" width="1" height="3" fill="var(--foreground)" />
    <rect x="36" y="9" width="1" height="3" fill="var(--foreground)" />
    <rect x="36" y="16" width="1" height="3" fill="var(--foreground)" />
    <rect x="36" y="25" width="1" height="3" fill="var(--foreground)" />
    <rect x="38" y="1" width="3" height="1" fill="var(--foreground)" />
    <rect x="38" y="2" width="1" height="1" fill="var(--foreground)" />
    <rect x="38" y="3" width="3" height="1" fill="var(--foreground)" />
    <rect x="38" y="5" width="3" height="1" fill="var(--foreground)" />
    <rect x="38" y="8" width="3" height="1" fill="var(--foreground)" />
    <rect x="38" y="10" width="3" height="1" fill="var(--foreground)" />
    <rect x="38" y="11" width="1" height="1" fill="var(--foreground)" />
    <rect x="38" y="12" width="3" height="1" fill="var(--foreground)" />
    <rect x="38" y="15" width="3" height="1" fill="var(--foreground)" />
    <rect x="38" y="16" width="1" height="1" fill="var(--foreground)" />
    <rect x="38" y="17" width="3" height="1" fill="var(--foreground)" />
    <rect x="38" y="19" width="3" height="1" fill="var(--foreground)" />
    <rect x="38" y="24" width="3" height="1" fill="var(--foreground)" />
    <rect x="38" y="26" width="3" height="1" fill="var(--foreground)" />
    <rect x="38" y="27" width="1" height="1" fill="var(--foreground)" />
    <rect x="38" y="28" width="3" height="1" fill="var(--foreground)" />
    <rect x="40" y="2" width="1" height="1" fill="var(--foreground)" />
    <rect x="40" y="4" width="1" height="1" fill="var(--foreground)" />
    <rect x="40" y="9" width="1" height="1" fill="var(--foreground)" />
    <rect x="40" y="16" width="1" height="1" fill="var(--foreground)" />
    <rect x="40" y="18" width="1" height="1" fill="var(--foreground)" />
    <rect x="40" y="25" width="1" height="1" fill="var(--foreground)" />
    <rect x="43" y="23" width="13" height="1" fill="var(--foreground)" />
    <rect x="43" y="24" width="1" height="5" fill="var(--foreground)" />
    <rect x="43" y="29" width="13" height="1" fill="var(--foreground)" />
    <rect x="45" y="25" width="1" height="1" fill="var(--foreground)" />
    <rect x="45" y="27" width="1" height="2" fill="var(--foreground)" />
    <rect x="47" y="24" width="1" height="5" fill="var(--foreground)" />
    <rect x="49" y="25" width="1" height="3" fill="var(--foreground)" />
    <rect x="51" y="24" width="1" height="1" fill="var(--foreground)" />
    <rect x="51" y="25" width="3" height="1" fill="var(--foreground)" />
    <rect x="51" y="26" width="1" height="1" fill="var(--foreground)" />
    <rect x="51" y="27" width="3" height="1" fill="var(--foreground)" />
    <rect x="51" y="28" width="1" height="1" fill="var(--foreground)" />
    <rect x="55" y="24" width="1" height="5" fill="var(--foreground)" />
    <rect x="58" y="24" width="3" height="1" fill="var(--foreground)" />
    <rect x="58" y="25" width="1" height="1" fill="var(--foreground)" />
    <rect x="58" y="26" width="3" height="1" fill="var(--foreground)" />
    <rect x="58" y="27" width="1" height="2" fill="var(--foreground)" />
    <rect x="60" y="25" width="1" height="1" fill="var(--foreground)" />
    <rect x="60" y="27" width="1" height="2" fill="var(--foreground)" />
    <rect x="62" y="24" width="3" height="1" fill="var(--foreground)" />
    <rect x="62" y="25" width="1" height="3" fill="var(--foreground)" />
    <rect x="62" y="28" width="3" height="1" fill="var(--foreground)" />
    <rect x="64" y="25" width="1" height="3" fill="var(--foreground)" />
    <rect x="66" y="25" width="2" height="1" fill="var(--foreground)" />
    <rect x="66" y="28" width="3" height="1" fill="var(--foreground)" />
    <rect x="67" y="24" width="1" height="1" fill="var(--foreground)" />
    <rect x="67" y="26" width="1" height="2" fill="var(--foreground)" />
    <rect x="97" y="0" width="1" height="13" fill="var(--foreground)" />
    <rect x="97" y="13" width="25" height="1" fill="var(--foreground)" />
    <rect x="97" y="14" width="1" height="50" fill="var(--foreground)" />
    <rect x="100" y="1" width="3" height="3" fill="var(--foreground)" />
    <rect x="100" y="7" width="3" height="1" fill="var(--foreground)" />
    <rect x="100" y="8" width="1" height="3" fill="var(--foreground)" />
    <rect x="100" y="11" width="3" height="1" fill="var(--foreground)" />
    <rect x="100" y="27" width="3" height="1" fill="var(--foreground)" />
    <rect x="100" y="28" width="1" height="3" fill="var(--foreground)" />
    <rect x="100" y="31" width="3" height="1" fill="var(--foreground)" />
    <rect x="102" y="8" width="1" height="3" fill="var(--foreground)" />
    <rect x="102" y="28" width="1" height="3" fill="var(--foreground)" />
    <rect x="104" y="1" width="2" height="1" fill="var(--foreground)" />
    <rect x="104" y="4" width="3" height="1" fill="var(--foreground)" />
    <rect x="104" y="7" width="3" height="1" fill="var(--foreground)" />
    <rect x="104" y="8" width="1" height="3" fill="var(--foreground)" />
    <rect x="104" y="11" width="3" height="1" fill="var(--foreground)" />
    <rect x="104" y="27" width="3" height="1" fill="var(--foreground)" />
    <rect x="104" y="28" width="1" height="3" fill="var(--foreground)" />
    <rect x="104" y="31" width="3" height="1" fill="var(--foreground)" />
    <rect x="105" y="0" width="1" height="1" fill="var(--foreground)" />
    <rect x="105" y="2" width="1" height="2" fill="var(--foreground)" />
    <rect x="106" y="8" width="1" height="3" fill="var(--foreground)" />
    <rect x="106" y="28" width="1" height="3" fill="var(--foreground)" />
    <rect x="108" y="0" width="3" height="1" fill="var(--foreground)" />
    <rect x="108" y="2" width="3" height="1" fill="var(--foreground)" />
    <rect x="108" y="3" width="1" height="1" fill="var(--foreground)" />
    <rect x="108" y="4" width="3" height="1" fill="var(--foreground)" />
    <rect x="108" y="7" width="3" height="1" fill="var(--foreground)" />
    <rect x="108" y="8" width="1" height="3" fill="var(--foreground)" />
    <rect x="108" y="11" width="3" height="1" fill="var(--foreground)" />
    <rect x="108" y="27" width="3" height="1" fill="var(--foreground)" />
    <rect x="108" y="28" width="1" height="3" fill="var(--foreground)" />
    <rect x="108" y="31" width="3" height="1" fill="var(--foreground)" />
    <rect x="110" y="1" width="1" height="1" fill="var(--foreground)" />
    <rect x="110" y="8" width="1" height="3" fill="var(--foreground)" />
    <rect x="110" y="28" width="1" height="3" fill="var(--foreground)" />
    <rect x="112" y="0" width="3" height="1" fill="var(--foreground)" />
    <rect x="112" y="1" width="1" height="3" fill="var(--foreground)" />
    <rect x="112" y="4" width="3" height="1" fill="var(--foreground)" />
    <rect x="112" y="7" width="3" height="1" fill="var(--foreground)" />
    <rect x="112" y="27" width="3" height="1" fill="var(--foreground)" />
    <rect x="112" y="28" width="1" height="1" fill="var(--foreground)" />
    <rect x="112" y="29" width="3" height="1" fill="var(--foreground)" />
    <rect x="112" y="30" width="1" height="1" fill="var(--foreground)" />
    <rect x="112" y="31" width="3" height="1" fill="var(--foreground)" />
    <rect x="114" y="1" width="1" height="3" fill="var(--foreground)" />
    <rect x="114" y="8" width="1" height="4" fill="var(--foreground)" />
    <rect x="114" y="30" width="1" height="1" fill="var(--foreground)" />
    <rect x="116" y="4" width="1" height="1" fill="var(--foreground)" />
    <rect x="116" y="8" width="1" height="1" fill="var(--foreground)" />
    <rect x="116" y="10" width="1" height="1" fill="var(--foreground)" />
    <rect x="116" y="28" width="1" height="1" fill="var(--foreground)" />
    <rect x="116" y="30" width="1" height="1" fill="var(--foreground)" />
    <rect x="118" y="0" width="3" height="1" fill="var(--foreground)" />
    <rect x="118" y="1" width="1" height="3" fill="var(--foreground)" />
    <rect x="118" y="4" width="3" height="1" fill="var(--foreground)" />
    <rect x="118" y="8" width="2" height="1" fill="var(--foreground)" />
    <rect x="118" y="11" width="3" height="1" fill="var(--foreground)" />
    <rect x="118" y="28" width="2" height="1" fill="var(--foreground)" />
    <rect x="118" y="31" width="3" height="1" fill="var(--foreground)" />
    <rect x="119" y="7" width="1" height="1" fill="var(--foreground)" />
    <rect x="119" y="9" width="1" height="2" fill="var(--foreground)" />
    <rect x="119" y="27" width="1" height="1" fill="var(--foreground)" />
    <rect x="119" y="29" width="1" height="2" fill="var(--foreground)" />
    <rect x="120" y="1" width="1" height="3" fill="var(--foreground)" />
  </g>
</svg>