<svg viewBox="0 0 128 64" xmlns="http://www.w3.org/2000/svg" shape-rendering="crispEdges">
  <g id="pixels">
    <rect x="0" y="0" width="70" height="2" fill="var(--foreground)" shape-rendering="crispEdges" />
    <rect x="71" y="0" width="57" height="2" fill="var(--foreground)" shape-rendering="crispEdges" />
    <rect x="0" y="2" width="2" height="5" fill="var(--foreground)" shape-rendering="crispEdges" />
    <rect x="6" y="2" width="1" height="1" fill="var(--foreground)" shape-rendering="crispEdges" />
    <rect x="8" y="2" width="1" height="5" fill="var(--foreground)" shape-rendering="crispEdges" />
    <rect x="10" y="2" width="3" height="1" fill="var(--foreground)" shape-rendering="crispEdges" />
    <rect x="16" y="2" width="1" height="1" fill="var(--foreground)" shape-rendering="crispEdges" />
    <rect x="21" y="2" width="1" height="1" fill="var(--foreground)" shape-rendering="crispEdges" />
    <rect x="25" y="2" width="45" height="1" fill="var(--foreground)" shape-rendering="crispEdges" />
    <rect x="71" y="2" width="2" height="5" fill="var(--foreground)" shape-rendering="crispEdges" />
    <rect x="76" y="2" width="2" height="1" fill="var(--foreground)" shape-rendering="crispEdges" />
    <rect x="81" y="2" width="2" height="1" fill="var(--foreground)" shape-rendering="crispEdges" />
    <rect x="84" y="2" width="3" height="1" fill="var(--foreground)" shape-rendering="crispEdges" />
    <rect x="88" y="2" width="4" height="1" fill="var(--foreground)" shape-rendering="crispEdges" />
    <rect x="93" y="2" width="2" height="1" fill="var(--foreground)" shape-rendering="crispEdges" />
    <rect x="98" y="2" width="3" height="1" fill="var(--foreground)" shape-rendering="crispEdges" />
    <rect x="103" y="2" width="5" height="1" fill="var(--foreground)" shape-rendering="crispEdges" />
    <rect x="110" y="2" width="11" height="1" fill="var(--foreground)" shape-rendering="crispEdges" />
    <rect x="126" y="2" width="2" height="5" fill="var(--foreground)" shape-rendering="crispEdges" />
    <rect x="3" y="3" width="4" height="1" fill="var(--foreground)" shape-rendering="crispEdges" />
    <rect x="10" y="3" width="4" height="3" fill="var(--foreground)" shape-rendering="crispEdges" />
    <rect x="15" y="3" width="2" height="4" fill="var(--foreground)" shape-rendering="crispEdges" />
    <rect x="18" y="3" width="4" height="1" fill="var(--foreground)" shape-rendering="crispEdges" />
    <rect x="23" y="3" width="2" height="1" fill="var(--foreground)" shape-rendering="crispEdges" />
    <rect x="26" y="3" width="44" height="1" fill="var(--foreground)" shape-rendering="crispEdges" />
    <rect x="74" y="3" width="2" height="1" fill="var(--foreground)" shape-rendering="crispEdges" />
    <rect x="77" y="3" width="1" height="1" fill="var(--foreground)" shape-rendering="crispEdges" />
    <rect x="79" y="3" width="2" height="2" fill="var(--foreground)" shape-rendering="crispEdges" />
    <rect x="82" y="3" width="1" height="2" fill="var(--foreground)" shape-rendering="crispEdges" />
    <rect x="85" y="3" width="1" height="1" fill="var(--foreground)" shape-rendering="crispEdges" />
    <rect x="88" y="3" width="1" height="1" fill="var(--foreground)" shape-rendering="crispEdges" />
    <rect x="90" y="3" width="1" height="1" fill="var(--foreground)" shape-rendering="crispEdges" />
    <rect x="93" y="3" width="5" height="1" fill="var(--foreground)" shape-rendering="crispEdges" />
    <rect x="99" y="3" width="1" height="1" fill="var(--foreground)" shape-rendering="crispEdges" />
    <rect x="101" y="3" width="2" height="3" fill="var(--foreground)" shape-rendering="crispEdges" />
    <rect x="104" y="3" width="3" height="3" fill="var(--foreground)" shape-rendering="crispEdges" />
    <rect x="108" y="3" width="2" height="3" fill="var(--foreground)" shape-rendering="crispEdges" />
    <rect x="111" y="3" width="10" height="3" fill="var(--foreground)" shape-rendering="crispEdges" />
    <rect x="5" y="4" width="2" height="1" fill="var(--foreground)" shape-rendering="crispEdges" />
    <rect x="20" y="4" width="2" height="1" fill="var(--foreground)" shape-rendering="crispEdges" />
    <rect x="25" y="4" width="45" height="1" fill="var(--foreground)" shape-rendering="crispEdges" />
    <rect x="76" y="4" width="2" height="1" fill="var(--foreground)" shape-rendering="crispEdges" />
    <rect x="84" y="4" width="1" height="1" fill="var(--foreground)" shape-rendering="crispEdges" />
    <rect x="86" y="4" width="1" height="1" fill="var(--foreground)" shape-rendering="crispEdges" />
    <rect x="88" y="4" width="4" height="1" fill="var(--foreground)" shape-rendering="crispEdges" />
    <rect x="93" y="4" width="3" height="1" fill="var(--foreground)" shape-rendering="crispEdges" />
    <rect x="98" y="4" width="2" height="1" fill="var(--foreground)" shape-rendering="crispEdges" />
    <rect x="3" y="5" width="4" height="2" fill="var(--foreground)" shape-rendering="crispEdges" />
    <rect x="18" y="5" width="4" height="1" fill="var(--foreground)" shape-rendering="crispEdges" />
    <rect x="23" y="5" width="2" height="2" fill="var(--foreground)" shape-rendering="crispEdges" />
    <rect x="26" y="5" width="44" height="2" fill="var(--foreground)" shape-rendering="crispEdges" />
    <rect x="74" y="5" width="2" height="1" fill="var(--foreground)" shape-rendering="crispEdges" />
    <rect x="77" y="5" width="1" height="1" fill="var(--foreground)" shape-rendering="crispEdges" />
    <rect x="81" y="5" width="2" height="1" fill="var(--foreground)" shape-rendering="crispEdges" />
    <rect x="84" y="5" width="3" height="2" fill="var(--foreground)" shape-rendering="crispEdges" />
    <rect x="88" y="5" width="1" height="1" fill="var(--foreground)" shape-rendering="crispEdges" />
    <rect x="90" y="5" width="2" height="1" fill="var(--foreground)" shape-rendering="crispEdges" />
    <rect x="93" y="5" width="2" height="1" fill="var(--foreground)" shape-rendering="crispEdges" />
    <rect x="96" y="5" width="4" height="1" fill="var(--foreground)" shape-rendering="crispEdges" />
    <rect x="12" y="6" width="2" height="1" fill="var(--foreground)" shape-rendering="crispEdges" />
    <rect x="21" y="6" width="1" height="1" fill="var(--foreground)" shape-rendering="crispEdges" />
    <rect x="76" y="6" width="2" height="1" fill="var(--foreground)" shape-rendering="crispEdges" />
    <rect x="79" y="6" width="4" height="1" fill="var(--foreground)" shape-rendering="crispEdges" />
    <rect x="88" y="6" width="3" height="1" fill="var(--foreground)" shape-rendering="crispEdges" />
    <rect x="94" y="6" width="1" height="1" fill="var(--foreground)" shape-rendering="crispEdges" />
    <rect x="99" y="6" width="2" height="1" fill="var(--foreground)" shape-rendering="crispEdges" />
    <rect x="103" y="6" width="2" height="1" fill="var(--foreground)" shape-rendering="crispEdges" />
    <rect x="106" y="6" width="2" height="1" fill="var(--foreground)" shape-rendering="crispEdges" />
    <rect x="110" y="6" width="11" height="1" fill="var(--foreground)" shape-rendering="crispEdges" />
    <rect x="0" y="7" width="70" height="2" fill="var(--foreground)" shape-rendering="crispEdges" />
    <rect x="71" y="7" width="57" height="2" fill="var(--foreground)" shape-rendering="crispEdges" />
    <rect x="3" y="10" width="3" height="1" fill="var(--foreground)" shape-rendering="crispEdges" />
    <rect x="3" y="11" width="1" height="1" fill="var(--foreground)" shape-rendering="crispEdges" />
    <rect x="5" y="11" width="1" height="1" fill="var(--foreground)" shape-rendering="crispEdges" />
    <rect x="19" y="11" width="1" height="1" fill="var(--foreground)" shape-rendering="crispEdges" />
    <rect x="94" y="11" width="1" height="1" fill="var(--foreground)" shape-rendering="crispEdges" />
    <rect x="3" y="12" width="6" height="1" fill="var(--foreground)" shape-rendering="crispEdges" />
    <rect x="4" y="13" width="1" height="9" fill="var(--foreground)" shape-rendering="crispEdges" />
    <rect x="9" y="13" width="3" height="1" fill="var(--foreground)" shape-rendering="crispEdges" />
    <rect x="19" y="13" width="1" height="1" fill="var(--foreground)" shape-rendering="crispEdges" />
    <rect x="94" y="13" width="1" height="1" fill="var(--foreground)" shape-rendering="crispEdges" />
    <rect x="12" y="14" width="3" height="1" fill="var(--foreground)" shape-rendering="crispEdges" />
    <rect x="15" y="15" width="6" height="1" fill="var(--foreground)" shape-rendering="crispEdges" />
    <rect x="93" y="15" width="3" height="1" fill="var(--foreground)" shape-rendering="crispEdges" />
    <rect x="18" y="16" width="1" height="1" fill="var(--foreground)" shape-rendering="crispEdges" />
    <rect x="20" y="16" width="74" height="1" fill="var(--foreground)" shape-rendering="crispEdges" />
    <rect x="95" y="16" width="1" height="1" fill="var(--foreground)" shape-rendering="crispEdges" />
    <rect x="18" y="17" width="3" height="1" fill="var(--foreground)" shape-rendering="crispEdges" />
    <rect x="93" y="17" width="5" height="1" fill="var(--foreground)" shape-rendering="crispEdges" />
    <rect x="98" y="18" width="2" height="1" fill="var(--foreground)" shape-rendering="crispEdges" />
    <rect x="19" y="19" width="1" height="1" fill="var(--foreground)" shape-rendering="crispEdges" />
    <rect x="94" y="19" width="1" height="1" fill="var(--foreground)" shape-rendering="crispEdges" />
    <rect x="100" y="19" width="2" height="1" fill="var(--foreground)" shape-rendering="crispEdges" />
    <rect x="102" y="20" width="2" height="1" fill="var(--foreground)" shape-rendering="crispEdges" />
    <rect x="19" y="21" width="1" height="1" fill="var(--foreground)" shape-rendering="crispEdges" />
    <rect x="94" y="21" width="1" height="1" fill="var(--foreground)" shape-rendering="crispEdges" />
    <rect x="104" y="21" width="2" height="1" fill="var(--foreground)" shape-rendering="crispEdges" />
    <rect x="3" y="22" width="3" height="1" fill="var(--foreground)" shape-rendering="crispEdges" />
    <rect x="106" y="22" width="2" height="1" fill="var(--foreground)" shape-rendering="crispEdges" />
    <rect x="3" y="23" width="1" height="1" fill="var(--foreground)" shape-rendering="crispEdges" />
    <rect x="5" y="23" width="1" height="1" fill="var(--foreground)" shape-rendering="crispEdges" />
    <rect x="19" y="23" width="1" height="1" fill="var(--foreground)" shape-rendering="crispEdges" />
    <rect x="94" y="23" width="1" height="1" fill="var(--foreground)" shape-rendering="crispEdges" />
    <rect x="108" y="23" width="17" height="1" fill="var(--foreground)" shape-rendering="crispEdges" />
    <rect x="3" y="24" width="3" height="1" fill="var(--foreground)" shape-rendering="crispEdges" />
    <rect x="11" y="26" width="2" height="1" fill="var(--foreground)" shape-rendering="crispEdges" />
    <rect x="15" y="26" width="3" height="1" fill="var(--foreground)" shape-rendering="crispEdges" />
    <rect x="19" y="26" width="1" height="2" fill="var(--foreground)" shape-rendering="crispEdges" />
    <rect x="22" y="26" width="1" height="2" fill="var(--foreground)" shape-rendering="crispEdges" />
    <rect x="41" y="26" width="3" height="1" fill="var(--foreground)" shape-rendering="crispEdges" />
    <rect x="46" y="26" width="4" height="1" fill="var(--foreground)" shape-rendering="crispEdges" />
    <rect x="52" y="26" width="2" height="1" fill="var(--foreground)" shape-rendering="crispEdges" />
    <rect x="74" y="26" width="3" height="1" fill="var(--foreground)" shape-rendering="crispEdges" />
    <rect x="78" y="26" width="1" height="4" fill="var(--foreground)" shape-rendering="crispEdges" />
    <rect x="81" y="26" width="1" height="4" fill="var(--foreground)" shape-rendering="crispEdges" />
    <rect x="84" y="26" width="3" height="1" fill="var(--foreground)" shape-rendering="crispEdges" />
    <rect x="106" y="26" width="3" height="1" fill="var(--foreground)" shape-rendering="crispEdges" />
    <rect x="111" y="26" width="4" height="1" fill="var(--foreground)" shape-rendering="crispEdges" />
    <rect x="116" y="26" width="1" height="4" fill="var(--foreground)" shape-rendering="crispEdges" />
    <rect x="10" y="27" width="1" height="1" fill="var(--foreground)" shape-rendering="crispEdges" />
    <rect x="13" y="27" width="1" height="1" fill="var(--foreground)" shape-rendering="crispEdges" />
    <rect x="16" y="27" width="1" height="4" fill="var(--foreground)" shape-rendering="crispEdges" />
    <rect x="41" y="27" width="1" height="3" fill="var(--foreground)" shape-rendering="crispEdges" />
    <rect x="44" y="27" width="1" height="3" fill="var(--foreground)" shape-rendering="crispEdges" />
    <rect x="46" y="27" width="1" height="1" fill="var(--foreground)" shape-rendering="crispEdges" />
    <rect x="51" y="27" width="1" height="3" fill="var(--foreground)" shape-rendering="crispEdges" />
    <rect x="54" y="27" width="1" height="1" fill="var(--foreground)" shape-rendering="crispEdges" />
    <rect x="73" y="27" width="1" height="1" fill="var(--foreground)" shape-rendering="crispEdges" />
    <rect x="83" y="27" width="1" height="1" fill="var(--foreground)" shape-rendering="crispEdges" />
    <rect x="106" y="27" width="1" height="1" fill="var(--foreground)" shape-rendering="crispEdges" />
    <rect x="109" y="27" width="1" height="1" fill="var(--foreground)" shape-rendering="crispEdges" />
    <rect x="111" y="27" width="1" height="1" fill="var(--foreground)" shape-rendering="crispEdges" />
    <rect x="10" y="28" width="4" height="1" fill="var(--foreground)" shape-rendering="crispEdges" />
    <rect x="19" y="28" width="3" height="1" fill="var(--foreground)" shape-rendering="crispEdges" />
    <rect x="46" y="28" width="3" height="1" fill="var(--foreground)" shape-rendering="crispEdges" />
    <rect x="74" y="28" width="2" height="1" fill="var(--foreground)" shape-rendering="crispEdges" />
    <rect x="84" y="28" width="2" height="1" fill="var(--foreground)" shape-rendering="crispEdges" />
    <rect x="106" y="28" width="3" height="1" fill="var(--foreground)" shape-rendering="crispEdges" />
    <rect x="111" y="28" width="3" height="1" fill="var(--foreground)" shape-rendering="crispEdges" />
    <rect x="10" y="29" width="1" height="2" fill="var(--foreground)" shape-rendering="crispEdges" />
    <rect x="13" y="29" width="1" height="2" fill="var(--foreground)" shape-rendering="crispEdges" />
    <rect x="19" y="29" width="1" height="2" fill="var(--foreground)" shape-rendering="crispEdges" />
    <rect x="22" y="29" width="1" height="2" fill="var(--foreground)" shape-rendering="crispEdges" />
    <rect x="46" y="29" width="1" height="1" fill="var(--foreground)" shape-rendering="crispEdges" />
    <rect x="54" y="29" width="1" height="1" fill="var(--foreground)" shape-rendering="crispEdges" />
    <rect x="76" y="29" width="1" height="1" fill="var(--foreground)" shape-rendering="crispEdges" />
    <rect x="86" y="29" width="1" height="1" fill="var(--foreground)" shape-rendering="crispEdges" />
    <rect x="106" y="29" width="1" height="2" fill="var(--foreground)" shape-rendering="crispEdges" />
    <rect x="109" y="29" width="1" height="2" fill="var(--foreground)" shape-rendering="crispEdges" />
    <rect x="111" y="29" width="1" height="1" fill="var(--foreground)" shape-rendering="crispEdges" />
    <rect x="41" y="30" width="3" height="1" fill="var(--foreground)" shape-rendering="crispEdges" />
    <rect x="46" y="30" width="4" height="1" fill="var(--foreground)" shape-rendering="crispEdges" />
    <rect x="52" y="30" width="2" height="1" fill="var(--foreground)" shape-rendering="crispEdges" />
    <rect x="73" y="30" width="3" height="1" fill="var(--foreground)" shape-rendering="crispEdges" />
    <rect x="79" y="30" width="2" height="1" fill="var(--foreground)" shape-rendering="crispEdges" />
    <rect x="83" y="30" width="3" height="1" fill="var(--foreground)" shape-rendering="crispEdges" />
    <rect x="111" y="30" width="4" height="1" fill="var(--foreground)" shape-rendering="crispEdges" />
    <rect x="116" y="30" width="3" height="1" fill="var(--foreground)" shape-rendering="crispEdges" />
    <rect x="5" y="33" width="54" height="1" fill="var(--foreground)" shape-rendering="crispEdges" />
    <rect x="4" y="34" width="1" height="5" fill="var(--foreground)" shape-rendering="crispEdges" />
    <rect x="59" y="34" width="1" height="11" fill="var(--foreground)" shape-rendering="crispEdges" />
    <rect x="110" y="34" width="5" height="1" fill="var(--foreground)" shape-rendering="crispEdges" />
    <rect x="108" y="35" width="2" height="1" fill="var(--foreground)" shape-rendering="crispEdges" />
    <rect x="112" y="35" width="1" height="7" fill="var(--foreground)" shape-rendering="crispEdges" />
    <rect x="115" y="35" width="2" height="1" fill="var(--foreground)" shape-rendering="crispEdges" />
    <rect x="72" y="36" width="9" height="1" fill="var(--foreground)" shape-rendering="crispEdges" />
    <rect x="107" y="36" width="1" height="1" fill="var(--foreground)" shape-rendering="crispEdges" />
    <rect x="117" y="36" width="1" height="1" fill="var(--foreground)" shape-rendering="crispEdges" />
    <rect x="39" y="37" width="3" height="1" fill="var(--foreground)" shape-rendering="crispEdges" />
    <rect x="81" y="37" width="1" height="2" fill="var(--foreground)" shape-rendering="crispEdges" />
    <rect x="106" y="37" width="1" height="2" fill="var(--foreground)" shape-rendering="crispEdges" />
    <rect x="118" y="37" width="1" height="2" fill="var(--foreground)" shape-rendering="crispEdges" />
    <rect x="37" y="38" width="2" height="1" fill="var(--foreground)" shape-rendering="crispEdges" />
    <rect x="42" y="38" width="2" height="1" fill="var(--foreground)" shape-rendering="crispEdges" />
    <rect x="4" y="39" width="33" height="1" fill="var(--foreground)" shape-rendering="crispEdges" />
    <rect x="44" y="39" width="2" height="1" fill="var(--foreground)" shape-rendering="crispEdges" />
    <rect x="82" y="39" width="1" height="2" fill="var(--foreground)" shape-rendering="crispEdges" />
    <rect x="105" y="39" width="1" height="5" fill="var(--foreground)" shape-rendering="crispEdges" />
    <rect x="119" y="39" width="1" height="5" fill="var(--foreground)" shape-rendering="crispEdges" />
    <rect x="4" y="40" width="1" height="5" fill="var(--foreground)" shape-rendering="crispEdges" />
    <rect x="46" y="40" width="1" height="1" fill="var(--foreground)" shape-rendering="crispEdges" />
    <rect x="47" y="41" width="1" height="1" fill="var(--foreground)" shape-rendering="crispEdges" />
    <rect x="83" y="41" width="1" height="2" fill="var(--foreground)" shape-rendering="crispEdges" />
    <rect x="48" y="42" width="1" height="1" fill="var(--foreground)" shape-rendering="crispEdges" />
    <rect x="49" y="43" width="1" height="1" fill="var(--foreground)" shape-rendering="crispEdges" />
    <rect x="84" y="43" width="1" height="2" fill="var(--foreground)" shape-rendering="crispEdges" />
    <rect x="50" y="44" width="1" height="1" fill="var(--foreground)" shape-rendering="crispEdges" />
    <rect x="106" y="44" width="1" height="2" fill="var(--foreground)" shape-rendering="crispEdges" />
    <rect x="118" y="44" width="1" height="2" fill="var(--foreground)" shape-rendering="crispEdges" />
    <rect x="5" y="45" width="54" height="1" fill="var(--foreground)" shape-rendering="crispEdges" />
    <rect x="9" y="48" width="4" height="1" fill="var(--foreground)" shape-rendering="crispEdges" />
    <rect x="14" y="48" width="3" height="1" fill="var(--foreground)" shape-rendering="crispEdges" />
    <rect x="20" y="48" width="2" height="1" fill="var(--foreground)" shape-rendering="crispEdges" />
    <rect x="41" y="48" width="3" height="1" fill="var(--foreground)" shape-rendering="crispEdges" />
    <rect x="46" y="48" width="4" height="1" fill="var(--foreground)" shape-rendering="crispEdges" />
    <rect x="52" y="48" width="3" height="1" fill="var(--foreground)" shape-rendering="crispEdges" />
    <rect x="74" y="48" width="3" height="1" fill="var(--foreground)" shape-rendering="crispEdges" />
    <rect x="78" y="48" width="1" height="2" fill="var(--foreground)" shape-rendering="crispEdges" />
    <rect x="81" y="48" width="1" height="2" fill="var(--foreground)" shape-rendering="crispEdges" />
    <rect x="83" y="48" width="3" height="1" fill="var(--foreground)" shape-rendering="crispEdges" />
    <rect x="105" y="48" width="4" height="1" fill="var(--foreground)" shape-rendering="crispEdges" />
    <rect x="110" y="48" width="1" height="1" fill="var(--foreground)" shape-rendering="crispEdges" />
    <rect x="113" y="48" width="1" height="2" fill="var(--foreground)" shape-rendering="crispEdges" />
    <rect x="115" y="48" width="1" height="4" fill="var(--foreground)" shape-rendering="crispEdges" />
    <rect x="118" y="48" width="1" height="3" fill="var(--foreground)" shape-rendering="crispEdges" />
    <rect x="9" y="49" width="1" height="1" fill="var(--foreground)" shape-rendering="crispEdges" />
    <rect x="14" y="49" width="1" height="1" fill="var(--foreground)" shape-rendering="crispEdges" />
    <rect x="17" y="49" width="1" height="1" fill="var(--foreground)" shape-rendering="crispEdges" />
    <rect x="19" y="49" width="1" height="3" fill="var(--foreground)" shape-rendering="crispEdges" />
    <rect x="22" y="49" width="1" height="2" fill="var(--foreground)" shape-rendering="crispEdges" />
    <rect x="41" y="49" width="1" height="1" fill="var(--foreground)" shape-rendering="crispEdges" />
    <rect x="44" y="49" width="1" height="1" fill="var(--foreground)" shape-rendering="crispEdges" />
    <rect x="46" y="49" width="1" height="1" fill="var(--foreground)" shape-rendering="crispEdges" />
    <rect x="51" y="49" width="1" height="1" fill="var(--foreground)" shape-rendering="crispEdges" />
    <rect x="75" y="49" width="1" height="4" fill="var(--foreground)" shape-rendering="crispEdges" />
    <rect x="83" y="49" width="1" height="2" fill="var(--foreground)" shape-rendering="crispEdges" />
    <rect x="86" y="49" width="1" height="2" fill="var(--foreground)" shape-rendering="crispEdges" />
    <rect x="105" y="49" width="1" height="1" fill="var(--foreground)" shape-rendering="crispEdges" />
    <rect x="110" y="49" width="2" height="1" fill="var(--foreground)" shape-rendering="crispEdges" />
    <rect x="9" y="50" width="3" height="1" fill="var(--foreground)" shape-rendering="crispEdges" />
    <rect x="14" y="50" width="3" height="1" fill="var(--foreground)" shape-rendering="crispEdges" />
    <rect x="41" y="50" width="3" height="1" fill="var(--foreground)" shape-rendering="crispEdges" />
    <rect x="46" y="50" width="3" height="1" fill="var(--foreground)" shape-rendering="crispEdges" />
    <rect x="52" y="50" width="2" height="1" fill="var(--foreground)" shape-rendering="crispEdges" />
    <rect x="79" y="50" width="3" height="1" fill="var(--foreground)" shape-rendering="crispEdges" />
    <rect x="105" y="50" width="3" height="1" fill="var(--foreground)" shape-rendering="crispEdges" />
    <rect x="110" y="50" width="1" height="3" fill="var(--foreground)" shape-rendering="crispEdges" />
    <rect x="112" y="50" width="2" height="1" fill="var(--foreground)" shape-rendering="crispEdges" />
    <rect x="9" y="51" width="1" height="2" fill="var(--foreground)" shape-rendering="crispEdges" />
    <rect x="14" y="51" width="1" height="2" fill="var(--foreground)" shape-rendering="crispEdges" />
    <rect x="17" y="51" width="1" height="2" fill="var(--foreground)" shape-rendering="crispEdges" />
    <rect x="21" y="51" width="2" height="1" fill="var(--foreground)" shape-rendering="crispEdges" />
    <rect x="41" y="51" width="1" height="2" fill="var(--foreground)" shape-rendering="crispEdges" />
    <rect x="44" y="51" width="1" height="2" fill="var(--foreground)" shape-rendering="crispEdges" />
    <rect x="46" y="51" width="1" height="1" fill="var(--foreground)" shape-rendering="crispEdges" />
    <rect x="54" y="51" width="1" height="1" fill="var(--foreground)" shape-rendering="crispEdges" />
    <rect x="81" y="51" width="1" height="1" fill="var(--foreground)" shape-rendering="crispEdges" />
    <rect x="83" y="51" width="3" height="1" fill="var(--foreground)" shape-rendering="crispEdges" />
    <rect x="105" y="51" width="1" height="1" fill="var(--foreground)" shape-rendering="crispEdges" />
    <rect x="113" y="51" width="1" height="2" fill="var(--foreground)" shape-rendering="crispEdges" />
    <rect x="117" y="51" width="1" height="1" fill="var(--foreground)" shape-rendering="crispEdges" />
    <rect x="20" y="52" width="3" height="1" fill="var(--foreground)" shape-rendering="crispEdges" />
    <rect x="46" y="52" width="4" height="1" fill="var(--foreground)" shape-rendering="crispEdges" />
    <rect x="51" y="52" width="3" height="1" fill="var(--foreground)" shape-rendering="crispEdges" />
    <rect x="79" y="52" width="2" height="1" fill="var(--foreground)" shape-rendering="crispEdges" />
    <rect x="83" y="52" width="1" height="1" fill="var(--foreground)" shape-rendering="crispEdges" />
    <rect x="105" y="52" width="4" height="1" fill="var(--foreground)" shape-rendering="crispEdges" />
    <rect x="116" y="52" width="1" height="1" fill="var(--foreground)" shape-rendering="crispEdges" />
    <rect x="0" y="55" width="48" height="1" fill="var(--foreground)" shape-rendering="crispEdges" />
    <rect x="49" y="55" width="79" height="1" fill="var(--foreground)" shape-rendering="crispEdges" />
    <rect x="0" y="56" width="30" height="1" fill="var(--foreground)" shape-rendering="crispEdges" />
    <rect x="31" y="56" width="1" height="1" fill="var(--foreground)" shape-rendering="crispEdges" />
    <rect x="33" y="56" width="1" height="1" fill="var(--foreground)" shape-rendering="crispEdges" />
    <rect x="35" y="56" width="1" height="1" fill="var(--foreground)" shape-rendering="crispEdges" />
    <rect x="37" y="56" width="1" height="1" fill="var(--foreground)" shape-rendering="crispEdges" />
    <rect x="39" y="56" width="1" height="1" fill="var(--foreground)" shape-rendering="crispEdges" />
    <rect x="41" y="56" width="1" height="1" fill="var(--foreground)" shape-rendering="crispEdges" />
    <rect x="43" y="56" width="1" height="1" fill="var(--foreground)" shape-rendering="crispEdges" />
    <rect x="45" y="56" width="1" height="1" fill="var(--foreground)" shape-rendering="crispEdges" />
    <rect x="47" y="56" width="1" height="1" fill="var(--foreground)" shape-rendering="crispEdges" />
    <rect x="49" y="56" width="14" height="2" fill="var(--foreground)" shape-rendering="crispEdges" />
    <rect x="65" y="56" width="1" height="1" fill="var(--foreground)" shape-rendering="crispEdges" />
    <rect x="82" y="56" width="1" height="1" fill="var(--foreground)" shape-rendering="crispEdges" />
    <rect x="85" y="56" width="43" height="7" fill="var(--foreground)" shape-rendering="crispEdges" />
    <rect x="0" y="57" width="2" height="5" fill="var(--foreground)" shape-rendering="crispEdges" />
    <rect x="5" y="57" width="3" height="1" fill="var(--foreground)" shape-rendering="crispEdges" />
    <rect x="11" y="57" width="3" height="1" fill="var(--foreground)" shape-rendering="crispEdges" />
    <rect x="15" y="57" width="3" height="4" fill="var(--foreground)" shape-rendering="crispEdges" />
    <rect x="22" y="57" width="1" height="1" fill="var(--foreground)" shape-rendering="crispEdges" />
    <rect x="24" y="57" width="2" height="3" fill="var(--foreground)" shape-rendering="crispEdges" />
    <rect x="27" y="57" width="21" height="1" fill="var(--foreground)" shape-rendering="crispEdges" />
    <rect x="64" y="57" width="2" height="5" fill="var(--foreground)" shape-rendering="crispEdges" />
    <rect x="68" y="57" width="2" height="1" fill="var(--foreground)" shape-rendering="crispEdges" />
    <rect x="73" y="57" width="2" height="1" fill="var(--foreground)" shape-rendering="crispEdges" />
    <rect x="78" y="57" width="1" height="1" fill="var(--foreground)" shape-rendering="crispEdges" />
    <rect x="82" y="57" width="2" height="5" fill="var(--foreground)" shape-rendering="crispEdges" />
    <rect x="3" y="58" width="2" height="1" fill="var(--foreground)" shape-rendering="crispEdges" />
    <rect x="6" y="58" width="1" height="1" fill="var(--foreground)" shape-rendering="crispEdges" />
    <rect x="8" y="58" width="6" height="1" fill="var(--foreground)" shape-rendering="crispEdges" />
    <rect x="19" y="58" width="4" height="1" fill="var(--foreground)" shape-rendering="crispEdges" />
    <rect x="27" y="58" width="1" height="1" fill="var(--foreground)" shape-rendering="crispEdges" />
    <rect x="29" y="58" width="1" height="1" fill="var(--foreground)" shape-rendering="crispEdges" />
    <rect x="43" y="58" width="5" height="3" fill="var(--foreground)" shape-rendering="crispEdges" />
    <rect x="49" y="58" width="10" height="1" fill="var(--foreground)" shape-rendering="crispEdges" />
    <rect x="60" y="58" width="3" height="1" fill="var(--foreground)" shape-rendering="crispEdges" />
    <rect x="67" y="58" width="1" height="1" fill="var(--foreground)" shape-rendering="crispEdges" />
    <rect x="70" y="58" width="1" height="1" fill="var(--foreground)" shape-rendering="crispEdges" />
    <rect x="72" y="58" width="1" height="3" fill="var(--foreground)" shape-rendering="crispEdges" />
    <rect x="75" y="58" width="1" height="3" fill="var(--foreground)" shape-rendering="crispEdges" />
    <rect x="77" y="58" width="2" height="1" fill="var(--foreground)" shape-rendering="crispEdges" />
    <rect x="5" y="59" width="3" height="1" fill="var(--foreground)" shape-rendering="crispEdges" />
    <rect x="10" y="59" width="4" height="1" fill="var(--foreground)" shape-rendering="crispEdges" />
    <rect x="21" y="59" width="2" height="1" fill="var(--foreground)" shape-rendering="crispEdges" />
    <rect x="27" y="59" width="3" height="1" fill="var(--foreground)" shape-rendering="crispEdges" />
    <rect x="49" y="59" width="14" height="1" fill="var(--foreground)" shape-rendering="crispEdges" />
    <rect x="67" y="59" width="4" height="1" fill="var(--foreground)" shape-rendering="crispEdges" />
    <rect x="78" y="59" width="1" height="2" fill="var(--foreground)" shape-rendering="crispEdges" />
    <rect x="3" y="60" width="2" height="2" fill="var(--foreground)" shape-rendering="crispEdges" />
    <rect x="6" y="60" width="4" height="1" fill="var(--foreground)" shape-rendering="crispEdges" />
    <rect x="11" y="60" width="3" height="1" fill="var(--foreground)" shape-rendering="crispEdges" />
    <rect x="19" y="60" width="4" height="1" fill="var(--foreground)" shape-rendering="crispEdges" />
    <rect x="24" y="60" width="1" height="1" fill="var(--foreground)" shape-rendering="crispEdges" />
    <rect x="26" y="60" width="2" height="1" fill="var(--foreground)" shape-rendering="crispEdges" />
    <rect x="29" y="60" width="1" height="1" fill="var(--foreground)" shape-rendering="crispEdges" />
    <rect x="49" y="60" width="10" height="1" fill="var(--foreground)" shape-rendering="crispEdges" />
    <rect x="60" y="60" width="3" height="1" fill="var(--foreground)" shape-rendering="crispEdges" />
    <rect x="67" y="60" width="1" height="2" fill="var(--foreground)" shape-rendering="crispEdges" />
    <rect x="70" y="60" width="1" height="2" fill="var(--foreground)" shape-rendering="crispEdges" />
    <rect x="6" y="61" width="1" height="1" fill="var(--foreground)" shape-rendering="crispEdges" />
    <rect x="10" y="61" width="4" height="1" fill="var(--foreground)" shape-rendering="crispEdges" />
    <rect x="17" y="61" width="1" height="1" fill="var(--foreground)" shape-rendering="crispEdges" />
    <rect x="22" y="61" width="2" height="1" fill="var(--foreground)" shape-rendering="crispEdges" />
    <rect x="25" y="61" width="23" height="1" fill="var(--foreground)" shape-rendering="crispEdges" />
    <rect x="49" y="61" width="2" height="1" fill="var(--foreground)" shape-rendering="crispEdges" />
    <rect x="54" y="61" width="1" height="1" fill="var(--foreground)" shape-rendering="crispEdges" />
    <rect x="58" y="61" width="5" height="1" fill="var(--foreground)" shape-rendering="crispEdges" />
    <rect x="73" y="61" width="2" height="1" fill="var(--foreground)" shape-rendering="crispEdges" />
    <rect x="77" y="61" width="3" height="1" fill="var(--foreground)" shape-rendering="crispEdges" />
    <rect x="0" y="62" width="30" height="1" fill="var(--foreground)" shape-rendering="crispEdges" />
    <rect x="31" y="62" width="1" height="1" fill="var(--foreground)" shape-rendering="crispEdges" />
    <rect x="33" y="62" width="1" height="1" fill="var(--foreground)" shape-rendering="crispEdges" />
    <rect x="35" y="62" width="1" height="1" fill="var(--foreground)" shape-rendering="crispEdges" />
    <rect x="37" y="62" width="1" height="1" fill="var(--foreground)" shape-rendering="crispEdges" />
    <rect x="39" y="62" width="1" height="1" fill="var(--foreground)" shape-rendering="crispEdges" />
    <rect x="41" y="62" width="1" height="1" fill="var(--foreground)" shape-rendering="crispEdges" />
    <rect x="43" y="62" width="1" height="1" fill="var(--foreground)" shape-rendering="crispEdges" />
    <rect x="45" y="62" width="1" height="1" fill="var(--foreground)" shape-rendering="crispEdges" />
    <rect x="47" y="62" width="1" height="1" fill="var(--foreground)" shape-rendering="crispEdges" />
    <rect x="49" y="62" width="14" height="1" fill="var(--foreground)" shape-rendering="crispEdges" />
    <rect x="65" y="62" width="1" height="1" fill="var(--foreground)" shape-rendering="crispEdges" />
    <rect x="82" y="62" width="1" height="1" fill="var(--foreground)" shape-rendering="crispEdges" />
    <rect x="0" y="63" width="48" height="1" fill="var(--foreground)" shape-rendering="crispEdges" />
    <rect x="49" y="63" width="79" height="1" fill="var(--foreground)" shape-rendering="crispEdges" />
  </g>
</svg>