<svg viewBox="0 0 128 64" xmlns="http://www.w3.org/2000/svg">
  <g id="pixels">
    <rect x="0" y="0" width="44" height="1" fill="var(--foreground)" />
    <rect x="0" y="1" width="1" height="5" fill="var(--foreground)" />
    <rect x="0" y="6" width="44" height="1" fill="var(--foreground)" />
    <rect x="1" y="9" width="1" height="4" fill="var(--foreground)" />
    <rect x="1" y="13" width="3" height="1" fill="var(--foreground)" />
    <rect x="2" y="1" width="1" height="4" fill="var(--foreground)" />
    <rect x="3" y="5" width="2" height="1" fill="var(--foreground)" />
    <rect x="3" y="9" width="1" height="4" fill="var(--foreground)" />
    <rect x="4" y="1" width="1" height="1" fill="var(--foreground)" />
    <rect x="4" y="2" width="2" height="3" fill="var(--foreground)" />
    <rect x="5" y="9" width="3" height="1" fill="var(--foreground)" />
    <rect x="5" y="10" width="1" height="1" fill="var(--foreground)" />
    <rect x="5" y="11" width="3" height="1" fill="var(--foreground)" />
    <rect x="5" y="12" width="1" height="2" fill="var(--foreground)" />
    <rect x="7" y="2" width="2" height="3" fill="var(--foreground)" />
    <rect x="7" y="10" width="1" height="1" fill="var(--foreground)" />
    <rect x="8" y="1" width="1" height="1" fill="var(--foreground)" />
    <rect x="8" y="5" width="1" height="1" fill="var(--foreground)" />
    <rect x="9" y="9" width="1" height="4" fill="var(--foreground)" />
    <rect x="9" y="13" width="3" height="1" fill="var(--foreground)" />
    <rect x="10" y="2" width="3" height="1" fill="var(--foreground)" />
    <rect x="10" y="4" width="3" height="1" fill="var(--foreground)" />
    <rect x="12" y="1" width="1" height="1" fill="var(--foreground)" />
    <rect x="12" y="3" width="1" height="1" fill="var(--foreground)" />
    <rect x="12" y="5" width="1" height="1" fill="var(--foreground)" />
    <rect x="13" y="9" width="3" height="1" fill="var(--foreground)" />
    <rect x="13" y="10" width="1" height="3" fill="var(--foreground)" />
    <rect x="13" y="13" width="3" height="1" fill="var(--foreground)" />
    <rect x="14" y="1" width="1" height="3" fill="var(--foreground)" />
    <rect x="14" y="5" width="1" height="1" fill="var(--foreground)" />
    <rect x="15" y="10" width="1" height="3" fill="var(--foreground)" />
    <rect x="16" y="1" width="4" height="5" fill="var(--foreground)" />
    <rect x="17" y="9" width="3" height="1" fill="var(--foreground)" />
    <rect x="17" y="10" width="1" height="1" fill="var(--foreground)" />
    <rect x="17" y="11" width="3" height="1" fill="var(--foreground)" />
    <rect x="17" y="12" width="1" height="2" fill="var(--foreground)" />
    <rect x="19" y="10" width="1" height="1" fill="var(--foreground)" />
    <rect x="19" y="12" width="1" height="2" fill="var(--foreground)" />
    <rect x="21" y="2" width="1" height="1" fill="var(--foreground)" />
    <rect x="21" y="4" width="1" height="2" fill="var(--foreground)" />
    <rect x="21" y="9" width="2" height="1" fill="var(--foreground)" />
    <rect x="21" y="10" width="1" height="3" fill="var(--foreground)" />
    <rect x="21" y="13" width="2" height="1" fill="var(--foreground)" />
    <rect x="22" y="3" width="2" height="1" fill="var(--foreground)" />
    <rect x="23" y="1" width="1" height="2" fill="var(--foreground)" />
    <rect x="23" y="4" width="1" height="2" fill="var(--foreground)" />
    <rect x="23" y="10" width="1" height="3" fill="var(--foreground)" />
    <rect x="25" y="2" width="1" height="1" fill="var(--foreground)" />
    <rect x="25" y="4" width="1" height="2" fill="var(--foreground)" />
    <rect x="27" y="1" width="1" height="5" fill="var(--foreground)" />
    <rect x="28" y="9" width="1" height="2" fill="var(--foreground)" />
    <rect x="28" y="11" width="3" height="1" fill="var(--foreground)" />
    <rect x="28" y="12" width="1" height="2" fill="var(--foreground)" />
    <rect x="29" y="1" width="1" height="1" fill="var(--foreground)" />
    <rect x="29" y="3" width="1" height="3" fill="var(--foreground)" />
    <rect x="30" y="9" width="1" height="2" fill="var(--foreground)" />
    <rect x="30" y="12" width="1" height="2" fill="var(--foreground)" />
    <rect x="31" y="1" width="13" height="5" fill="var(--foreground)" />
    <rect x="32" y="9" width="3" height="1" fill="var(--foreground)" />
    <rect x="32" y="10" width="1" height="1" fill="var(--foreground)" />
    <rect x="32" y="11" width="3" height="1" fill="var(--foreground)" />
    <rect x="32" y="12" width="1" height="1" fill="var(--foreground)" />
    <rect x="32" y="13" width="3" height="1" fill="var(--foreground)" />
    <rect x="36" y="9" width="3" height="1" fill="var(--foreground)" />
    <rect x="36" y="10" width="1" height="1" fill="var(--foreground)" />
    <rect x="36" y="11" width="2" height="1" fill="var(--foreground)" />
    <rect x="36" y="12" width="1" height="2" fill="var(--foreground)" />
    <rect x="38" y="10" width="1" height="1" fill="var(--foreground)" />
    <rect x="38" y="12" width="1" height="2" fill="var(--foreground)" />
    <rect x="40" y="9" width="3" height="1" fill="var(--foreground)" />
    <rect x="40" y="10" width="1" height="1" fill="var(--foreground)" />
    <rect x="40" y="11" width="3" height="1" fill="var(--foreground)" />
    <rect x="40" y="12" width="1" height="1" fill="var(--foreground)" />
    <rect x="40" y="13" width="3" height="1" fill="var(--foreground)" />
    <rect x="45" y="0" width="1" height="29" fill="var(--foreground)" />
    <rect x="45" y="30" width="1" height="1" fill="var(--foreground)" />
    <rect x="45" y="31" width="2" height="1" fill="var(--foreground)" />
    <rect x="45" y="32" width="1" height="1" fill="var(--foreground)" />
    <rect x="45" y="34" width="1" height="30" fill="var(--foreground)" />
    <rect x="48" y="0" width="72" height="1" fill="var(--foreground)" />
    <rect x="48" y="6" width="72" height="1" fill="var(--foreground)" />
    <rect x="48" y="50" width="3" height="1" fill="var(--foreground)" />
    <rect x="48" y="51" width="1" height="1" fill="var(--foreground)" />
    <rect x="48" y="52" width="2" height="1" fill="var(--foreground)" />
    <rect x="48" y="53" width="3" height="1" fill="var(--foreground)" />
    <rect x="50" y="51" width="1" height="1" fill="var(--foreground)" />
    <rect x="96" y="9" width="3" height="1" fill="var(--foreground)" />
    <rect x="96" y="10" width="1" height="3" fill="var(--foreground)" />
    <rect x="96" y="13" width="3" height="1" fill="var(--foreground)" />
    <rect x="96" y="17" width="3" height="1" fill="var(--foreground)" />
    <rect x="96" y="18" width="1" height="3" fill="var(--foreground)" />
    <rect x="96" y="21" width="3" height="1" fill="var(--foreground)" />
    <rect x="96" y="25" width="3" height="1" fill="var(--foreground)" />
    <rect x="96" y="26" width="1" height="3" fill="var(--foreground)" />
    <rect x="96" y="29" width="3" height="1" fill="var(--foreground)" />
    <rect x="96" y="33" width="3" height="1" fill="var(--foreground)" />
    <rect x="96" y="34" width="1" height="3" fill="var(--foreground)" />
    <rect x="96" y="37" width="3" height="1" fill="var(--foreground)" />
    <rect x="96" y="41" width="3" height="1" fill="var(--foreground)" />
    <rect x="96" y="42" width="1" height="3" fill="var(--foreground)" />
    <rect x="96" y="45" width="3" height="1" fill="var(--foreground)" />
    <rect x="96" y="49" width="3" height="1" fill="var(--foreground)" />
    <rect x="96" y="50" width="1" height="3" fill="var(--foreground)" />
    <rect x="96" y="53" width="3" height="1" fill="var(--foreground)" />
    <rect x="96" y="57" width="3" height="1" fill="var(--foreground)" />
    <rect x="96" y="58" width="1" height="3" fill="var(--foreground)" />
    <rect x="96" y="61" width="3" height="1" fill="var(--foreground)" />
    <rect x="98" y="10" width="1" height="3" fill="var(--foreground)" />
    <rect x="98" y="18" width="1" height="3" fill="var(--foreground)" />
    <rect x="98" y="26" width="1" height="3" fill="var(--foreground)" />
    <rect x="98" y="34" width="1" height="3" fill="var(--foreground)" />
    <rect x="98" y="42" width="1" height="3" fill="var(--foreground)" />
    <rect x="98" y="50" width="1" height="3" fill="var(--foreground)" />
    <rect x="98" y="58" width="1" height="3" fill="var(--foreground)" />
    <rect x="100" y="13" width="1" height="1" fill="var(--foreground)" />
    <rect x="100" y="21" width="1" height="1" fill="var(--foreground)" />
    <rect x="100" y="29" width="1" height="1" fill="var(--foreground)" />
    <rect x="100" y="37" width="1" height="1" fill="var(--foreground)" />
    <rect x="100" y="45" width="1" height="1" fill="var(--foreground)" />
    <rect x="100" y="53" width="1" height="1" fill="var(--foreground)" />
    <rect x="100" y="61" width="1" height="1" fill="var(--foreground)" />
    <rect x="102" y="10" width="2" height="1" fill="var(--foreground)" />
    <rect x="102" y="13" width="3" height="1" fill="var(--foreground)" />
    <rect x="102" y="18" width="2" height="1" fill="var(--foreground)" />
    <rect x="102" y="21" width="3" height="1" fill="var(--foreground)" />
    <rect x="102" y="25" width="3" height="1" fill="var(--foreground)" />
    <rect x="102" y="27" width="3" height="1" fill="var(--foreground)" />
    <rect x="102" y="28" width="1" height="1" fill="var(--foreground)" />
    <rect x="102" y="29" width="3" height="1" fill="var(--foreground)" />
    <rect x="102" y="33" width="3" height="1" fill="var(--foreground)" />
    <rect x="102" y="34" width="1" height="3" fill="var(--foreground)" />
    <rect x="102" y="37" width="3" height="1" fill="var(--foreground)" />
    <rect x="102" y="41" width="3" height="1" fill="var(--foreground)" />
    <rect x="102" y="42" width="1" height="3" fill="var(--foreground)" />
    <rect x="102" y="45" width="3" height="1" fill="var(--foreground)" />
    <rect x="102" y="50" width="2" height="1" fill="var(--foreground)" />
    <rect x="102" y="53" width="3" height="1" fill="var(--foreground)" />
    <rect x="102" y="57" width="3" height="1" fill="var(--foreground)" />
    <rect x="102" y="58" width="1" height="3" fill="var(--foreground)" />
    <rect x="102" y="61" width="3" height="1" fill="var(--foreground)" />
    <rect x="103" y="9" width="1" height="1" fill="var(--foreground)" />
    <rect x="103" y="11" width="1" height="2" fill="var(--foreground)" />
    <rect x="103" y="17" width="1" height="1" fill="var(--foreground)" />
    <rect x="103" y="19" width="1" height="2" fill="var(--foreground)" />
    <rect x="103" y="49" width="1" height="1" fill="var(--foreground)" />
    <rect x="103" y="51" width="1" height="2" fill="var(--foreground)" />
    <rect x="104" y="26" width="1" height="1" fill="var(--foreground)" />
    <rect x="104" y="34" width="1" height="3" fill="var(--foreground)" />
    <rect x="104" y="42" width="1" height="3" fill="var(--foreground)" />
    <rect x="104" y="58" width="1" height="3" fill="var(--foreground)" />
    <rect x="106" y="9" width="3" height="1" fill="var(--foreground)" />
    <rect x="106" y="10" width="1" height="1" fill="var(--foreground)" />
    <rect x="106" y="11" width="3" height="1" fill="var(--foreground)" />
    <rect x="106" y="12" width="1" height="1" fill="var(--foreground)" />
    <rect x="106" y="13" width="3" height="1" fill="var(--foreground)" />
    <rect x="106" y="17" width="3" height="1" fill="var(--foreground)" />
    <rect x="106" y="18" width="1" height="1" fill="var(--foreground)" />
    <rect x="106" y="19" width="3" height="1" fill="var(--foreground)" />
    <rect x="106" y="20" width="1" height="1" fill="var(--foreground)" />
    <rect x="106" y="21" width="3" height="1" fill="var(--foreground)" />
    <rect x="106" y="25" width="3" height="1" fill="var(--foreground)" />
    <rect x="106" y="26" width="1" height="1" fill="var(--foreground)" />
    <rect x="106" y="27" width="3" height="1" fill="var(--foreground)" />
    <rect x="106" y="29" width="3" height="1" fill="var(--foreground)" />
    <rect x="106" y="33" width="3" height="1" fill="var(--foreground)" />
    <rect x="106" y="41" width="3" height="1" fill="var(--foreground)" />
    <rect x="106" y="42" width="1" height="1" fill="var(--foreground)" />
    <rect x="106" y="43" width="3" height="1" fill="var(--foreground)" />
    <rect x="106" y="45" width="3" height="1" fill="var(--foreground)" />
    <rect x="106" y="49" width="3" height="1" fill="var(--foreground)" />
    <rect x="106" y="50" width="1" height="1" fill="var(--foreground)" />
    <rect x="106" y="51" width="3" height="1" fill="var(--foreground)" />
    <rect x="106" y="52" width="1" height="1" fill="var(--foreground)" />
    <rect x="106" y="53" width="3" height="1" fill="var(--foreground)" />
    <rect x="106" y="57" width="3" height="1" fill="var(--foreground)" />
    <rect x="106" y="58" width="1" height="1" fill="var(--foreground)" />
    <rect x="106" y="59" width="3" height="1" fill="var(--foreground)" />
    <rect x="106" y="60" width="1" height="1" fill="var(--foreground)" />
    <rect x="106" y="61" width="3" height="1" fill="var(--foreground)" />
    <rect x="108" y="2" width="1" height="3" fill="var(--foreground)" />
    <rect x="108" y="10" width="1" height="1" fill="var(--foreground)" />
    <rect x="108" y="12" width="1" height="1" fill="var(--foreground)" />
    <rect x="108" y="20" width="1" height="1" fill="var(--foreground)" />
    <rect x="108" y="28" width="1" height="1" fill="var(--foreground)" />
    <rect x="108" y="34" width="1" height="4" fill="var(--foreground)" />
    <rect x="108" y="44" width="1" height="1" fill="var(--foreground)" />
    <rect x="108" y="50" width="1" height="1" fill="var(--foreground)" />
    <rect x="108" y="52" width="1" height="1" fill="var(--foreground)" />
    <rect x="108" y="60" width="1" height="1" fill="var(--foreground)" />
    <rect x="109" y="1" width="1" height="1" fill="var(--foreground)" />
    <rect x="109" y="5" width="1" height="1" fill="var(--foreground)" />
    <rect x="110" y="9" width="1" height="1" fill="var(--foreground)" />
    <rect x="110" y="10" width="3" height="1" fill="var(--foreground)" />
    <rect x="110" y="11" width="1" height="3" fill="var(--foreground)" />
    <rect x="110" y="17" width="1" height="1" fill="var(--foreground)" />
    <rect x="110" y="18" width="3" height="1" fill="var(--foreground)" />
    <rect x="110" y="19" width="1" height="3" fill="var(--foreground)" />
    <rect x="110" y="25" width="1" height="1" fill="var(--foreground)" />
    <rect x="110" y="26" width="3" height="1" fill="var(--foreground)" />
    <rect x="110" y="27" width="1" height="3" fill="var(--foreground)" />
    <rect x="110" y="33" width="1" height="1" fill="var(--foreground)" />
    <rect x="110" y="34" width="3" height="1" fill="var(--foreground)" />
    <rect x="110" y="35" width="1" height="3" fill="var(--foreground)" />
    <rect x="110" y="41" width="1" height="1" fill="var(--foreground)" />
    <rect x="110" y="42" width="3" height="1" fill="var(--foreground)" />
    <rect x="110" y="43" width="1" height="3" fill="var(--foreground)" />
    <rect x="110" y="49" width="1" height="1" fill="var(--foreground)" />
    <rect x="110" y="50" width="3" height="1" fill="var(--foreground)" />
    <rect x="110" y="51" width="1" height="3" fill="var(--foreground)" />
    <rect x="110" y="57" width="1" height="1" fill="var(--foreground)" />
    <rect x="110" y="58" width="3" height="1" fill="var(--foreground)" />
    <rect x="110" y="59" width="1" height="3" fill="var(--foreground)" />
    <rect x="111" y="1" width="2" height="1" fill="var(--foreground)" />
    <rect x="111" y="2" width="1" height="3" fill="var(--foreground)" />
    <rect x="111" y="5" width="2" height="1" fill="var(--foreground)" />
    <rect x="112" y="9" width="1" height="1" fill="var(--foreground)" />
    <rect x="112" y="11" width="1" height="3" fill="var(--foreground)" />
    <rect x="112" y="17" width="1" height="1" fill="var(--foreground)" />
    <rect x="112" y="19" width="1" height="3" fill="var(--foreground)" />
    <rect x="112" y="25" width="1" height="1" fill="var(--foreground)" />
    <rect x="112" y="27" width="1" height="3" fill="var(--foreground)" />
    <rect x="112" y="33" width="1" height="1" fill="var(--foreground)" />
    <rect x="112" y="35" width="1" height="3" fill="var(--foreground)" />
    <rect x="112" y="41" width="1" height="1" fill="var(--foreground)" />
    <rect x="112" y="43" width="1" height="3" fill="var(--foreground)" />
    <rect x="112" y="49" width="1" height="1" fill="var(--foreground)" />
    <rect x="112" y="51" width="1" height="3" fill="var(--foreground)" />
    <rect x="112" y="57" width="1" height="1" fill="var(--foreground)" />
    <rect x="112" y="59" width="1" height="3" fill="var(--foreground)" />
    <rect x="113" y="2" width="1" height="3" fill="var(--foreground)" />
    <rect x="114" y="9" width="2" height="1" fill="var(--foreground)" />
    <rect x="114" y="10" width="1" height="1" fill="var(--foreground)" />
    <rect x="114" y="11" width="2" height="1" fill="var(--foreground)" />
    <rect x="114" y="12" width="1" height="1" fill="var(--foreground)" />
    <rect x="114" y="13" width="2" height="1" fill="var(--foreground)" />
    <rect x="114" y="17" width="2" height="1" fill="var(--foreground)" />
    <rect x="114" y="18" width="1" height="1" fill="var(--foreground)" />
    <rect x="114" y="19" width="2" height="1" fill="var(--foreground)" />
    <rect x="114" y="20" width="1" height="1" fill="var(--foreground)" />
    <rect x="114" y="21" width="2" height="1" fill="var(--foreground)" />
    <rect x="114" y="25" width="2" height="1" fill="var(--foreground)" />
    <rect x="114" y="26" width="1" height="1" fill="var(--foreground)" />
    <rect x="114" y="27" width="2" height="1" fill="var(--foreground)" />
    <rect x="114" y="28" width="1" height="1" fill="var(--foreground)" />
    <rect x="114" y="29" width="2" height="1" fill="var(--foreground)" />
    <rect x="114" y="33" width="2" height="1" fill="var(--foreground)" />
    <rect x="114" y="34" width="1" height="1" fill="var(--foreground)" />
    <rect x="114" y="35" width="2" height="1" fill="var(--foreground)" />
    <rect x="114" y="36" width="1" height="1" fill="var(--foreground)" />
    <rect x="114" y="37" width="2" height="1" fill="var(--foreground)" />
    <rect x="114" y="41" width="2" height="1" fill="var(--foreground)" />
    <rect x="114" y="42" width="1" height="1" fill="var(--foreground)" />
    <rect x="114" y="43" width="2" height="1" fill="var(--foreground)" />
    <rect x="114" y="44" width="1" height="1" fill="var(--foreground)" />
    <rect x="114" y="45" width="2" height="1" fill="var(--foreground)" />
    <rect x="114" y="49" width="2" height="1" fill="var(--foreground)" />
    <rect x="114" y="50" width="1" height="1" fill="var(--foreground)" />
    <rect x="114" y="51" width="2" height="1" fill="var(--foreground)" />
    <rect x="114" y="52" width="1" height="1" fill="var(--foreground)" />
    <rect x="114" y="53" width="2" height="1" fill="var(--foreground)" />
    <rect x="114" y="57" width="2" height="1" fill="var(--foreground)" />
    <rect x="114" y="58" width="1" height="1" fill="var(--foreground)" />
    <rect x="114" y="59" width="2" height="1" fill="var(--foreground)" />
    <rect x="114" y="60" width="1" height="1" fill="var(--foreground)" />
    <rect x="114" y="61" width="2" height="1" fill="var(--foreground)" />
    <rect x="115" y="1" width="1" height="1" fill="var(--foreground)" />
    <rect x="115" y="5" width="1" height="1" fill="var(--foreground)" />
    <rect x="116" y="2" width="1" height="3" fill="var(--foreground)" />
    <rect x="116" y="10" width="1" height="1" fill="var(--foreground)" />
    <rect x="116" y="12" width="1" height="1" fill="var(--foreground)" />
    <rect x="116" y="18" width="1" height="1" fill="var(--foreground)" />
    <rect x="116" y="20" width="1" height="1" fill="var(--foreground)" />
    <rect x="116" y="26" width="1" height="1" fill="var(--foreground)" />
    <rect x="116" y="28" width="1" height="1" fill="var(--foreground)" />
    <rect x="116" y="34" width="1" height="1" fill="var(--foreground)" />
    <rect x="116" y="36" width="1" height="1" fill="var(--foreground)" />
    <rect x="116" y="42" width="1" height="1" fill="var(--foreground)" />
    <rect x="116" y="44" width="1" height="1" fill="var(--foreground)" />
    <rect x="116" y="50" width="1" height="1" fill="var(--foreground)" />
    <rect x="116" y="52" width="1" height="1" fill="var(--foreground)" />
    <rect x="116" y="58" width="1" height="1" fill="var(--foreground)" />
    <rect x="116" y="60" width="1" height="1" fill="var(--foreground)" />
    <rect x="119" y="1" width="1" height="5" fill="var(--foreground)" />
    <rect x="121" y="0" width="5" height="1" fill="var(--foreground)" />
    <rect x="121" y="1" width="1" height="10" fill="var(--foreground)" />
    <rect x="121" y="11" width="5" height="1" fill="var(--foreground)" />
    <rect x="122" y="12" width="1" height="1" fill="var(--foreground)" />
    <rect x="122" y="14" width="1" height="1" fill="var(--foreground)" />
    <rect x="122" y="16" width="1" height="1" fill="var(--foreground)" />
    <rect x="122" y="18" width="1" height="1" fill="var(--foreground)" />
    <rect x="122" y="20" width="1" height="1" fill="var(--foreground)" />
    <rect x="122" y="22" width="1" height="1" fill="var(--foreground)" />
    <rect x="122" y="24" width="1" height="1" fill="var(--foreground)" />
    <rect x="122" y="26" width="1" height="1" fill="var(--foreground)" />
    <rect x="122" y="28" width="1" height="1" fill="var(--foreground)" />
    <rect x="122" y="30" width="1" height="1" fill="var(--foreground)" />
    <rect x="122" y="32" width="1" height="1" fill="var(--foreground)" />
    <rect x="122" y="34" width="1" height="1" fill="var(--foreground)" />
    <rect x="122" y="36" width="1" height="1" fill="var(--foreground)" />
    <rect x="122" y="38" width="1" height="1" fill="var(--foreground)" />
    <rect x="122" y="40" width="1" height="1" fill="var(--foreground)" />
    <rect x="122" y="42" width="1" height="1" fill="var(--foreground)" />
    <rect x="122" y="44" width="1" height="1" fill="var(--foreground)" />
    <rect x="122" y="46" width="1" height="1" fill="var(--foreground)" />
    <rect x="122" y="48" width="1" height="1" fill="var(--foreground)" />
    <rect x="122" y="50" width="1" height="1" fill="var(--foreground)" />
    <rect x="122" y="52" width="1" height="1" fill="var(--foreground)" />
    <rect x="122" y="54" width="1" height="1" fill="var(--foreground)" />
    <rect x="122" y="56" width="1" height="1" fill="var(--foreground)" />
    <rect x="122" y="58" width="1" height="1" fill="var(--foreground)" />
    <rect x="122" y="60" width="1" height="1" fill="var(--foreground)" />
    <rect x="122" y="62" width="1" height="1" fill="var(--foreground)" />
    <rect x="123" y="13" width="1" height="1" fill="var(--foreground)" />
    <rect x="123" y="15" width="1" height="1" fill="var(--foreground)" />
    <rect x="123" y="17" width="1" height="1" fill="var(--foreground)" />
    <rect x="123" y="19" width="1" height="1" fill="var(--foreground)" />
    <rect x="123" y="21" width="1" height="1" fill="var(--foreground)" />
    <rect x="123" y="23" width="1" height="1" fill="var(--foreground)" />
    <rect x="123" y="25" width="1" height="1" fill="var(--foreground)" />
    <rect x="123" y="27" width="1" height="1" fill="var(--foreground)" />
    <rect x="123" y="29" width="1" height="1" fill="var(--foreground)" />
    <rect x="123" y="31" width="1" height="1" fill="var(--foreground)" />
    <rect x="123" y="33" width="1" height="1" fill="var(--foreground)" />
    <rect x="123" y="35" width="1" height="1" fill="var(--foreground)" />
    <rect x="123" y="37" width="1" height="1" fill="var(--foreground)" />
    <rect x="123" y="39" width="1" height="1" fill="var(--foreground)" />
    <rect x="123" y="41" width="1" height="1" fill="var(--foreground)" />
    <rect x="123" y="43" width="1" height="1" fill="var(--foreground)" />
    <rect x="123" y="45" width="1" height="1" fill="var(--foreground)" />
    <rect x="123" y="47" width="1" height="1" fill="var(--foreground)" />
    <rect x="123" y="49" width="1" height="1" fill="var(--foreground)" />
    <rect x="123" y="51" width="1" height="1" fill="var(--foreground)" />
    <rect x="123" y="53" width="1" height="1" fill="var(--foreground)" />
    <rect x="123" y="55" width="1" height="1" fill="var(--foreground)" />
    <rect x="123" y="57" width="1" height="1" fill="var(--foreground)" />
    <rect x="123" y="59" width="1" height="1" fill="var(--foreground)" />
    <rect x="123" y="61" width="1" height="1" fill="var(--foreground)" />
    <rect x="123" y="63" width="1" height="1" fill="var(--foreground)" />
    <rect x="124" y="12" width="1" height="1" fill="var(--foreground)" />
    <rect x="124" y="14" width="1" height="1" fill="var(--foreground)" />
    <rect x="124" y="16" width="1" height="1" fill="var(--foreground)" />
    <rect x="124" y="18" width="1" height="1" fill="var(--foreground)" />
    <rect x="124" y="20" width="1" height="1" fill="var(--foreground)" />
    <rect x="124" y="22" width="1" height="1" fill="var(--foreground)" />
    <rect x="124" y="24" width="1" height="1" fill="var(--foreground)" />
    <rect x="124" y="26" width="1" height="1" fill="var(--foreground)" />
    <rect x="124" y="28" width="1" height="1" fill="var(--foreground)" />
    <rect x="124" y="30" width="1" height="1" fill="var(--foreground)" />
    <rect x="124" y="32" width="1" height="1" fill="var(--foreground)" />
    <rect x="124" y="34" width="1" height="1" fill="var(--foreground)" />
    <rect x="124" y="36" width="1" height="1" fill="var(--foreground)" />
    <rect x="124" y="38" width="1" height="1" fill="var(--foreground)" />
    <rect x="124" y="40" width="1" height="1" fill="var(--foreground)" />
    <rect x="124" y="42" width="1" height="1" fill="var(--foreground)" />
    <rect x="124" y="44" width="1" height="1" fill="var(--foreground)" />
    <rect x="124" y="46" width="1" height="1" fill="var(--foreground)" />
    <rect x="124" y="48" width="1" height="1" fill="var(--foreground)" />
    <rect x="124" y="50" width="1" height="1" fill="var(--foreground)" />
    <rect x="124" y="52" width="1" height="1" fill="var(--foreground)" />
    <rect x="124" y="54" width="1" height="1" fill="var(--foreground)" />
    <rect x="124" y="56" width="1" height="1" fill="var(--foreground)" />
    <rect x="124" y="58" width="1" height="1" fill="var(--foreground)" />
    <rect x="124" y="60" width="1" height="1" fill="var(--foreground)" />
    <rect x="124" y="62" width="1" height="1" fill="var(--foreground)" />
    <rect x="125" y="1" width="1" height="10" fill="var(--foreground)" />
    <rect x="126" y="30" width="1" height="1" fill="var(--foreground)" />
    <rect x="126" y="31" width="2" height="1" fill="var(--foreground)" />
    <rect x="126" y="32" width="1" height="1" fill="var(--foreground)" />
    <rect x="127" y="0" width="1" height="29" fill="var(--foreground)" />
    <rect x="127" y="34" width="1" height="30" fill="var(--foreground)" />
  </g>
</svg>