<svg viewBox="0 0 128 64" xmlns="http://www.w3.org/2000/svg" shape-rendering="crispEdges">
  <g id="pixels">
    <rect x="3" y="3" width="3" height="1" fill="var(--foreground)" shape-rendering="crispEdges" />
    <rect x="7" y="3" width="3" height="1" fill="var(--foreground)" shape-rendering="crispEdges" />
    <rect x="11" y="3" width="3" height="1" fill="var(--foreground)" shape-rendering="crispEdges" />
    <rect x="15" y="3" width="3" height="1" fill="var(--foreground)" shape-rendering="crispEdges" />
    <rect x="19" y="3" width="3" height="1" fill="var(--foreground)" shape-rendering="crispEdges" />
    <rect x="24" y="3" width="2" height="1" fill="var(--foreground)" shape-rendering="crispEdges" />
    <rect x="27" y="3" width="3" height="1" fill="var(--foreground)" shape-rendering="crispEdges" />
    <rect x="71" y="3" width="3" height="1" fill="var(--foreground)" shape-rendering="crispEdges" />
    <rect x="75" y="3" width="3" height="1" fill="var(--foreground)" shape-rendering="crispEdges" />
    <rect x="79" y="3" width="1" height="1" fill="var(--foreground)" shape-rendering="crispEdges" />
    <rect x="81" y="3" width="1" height="1" fill="var(--foreground)" shape-rendering="crispEdges" />
    <rect x="101" y="3" width="2" height="1" fill="var(--foreground)" shape-rendering="crispEdges" />
    <rect x="105" y="3" width="3" height="1" fill="var(--foreground)" shape-rendering="crispEdges" />
    <rect x="109" y="3" width="3" height="1" fill="var(--foreground)" shape-rendering="crispEdges" />
    <rect x="113" y="3" width="1" height="4" fill="var(--foreground)" shape-rendering="crispEdges" />
    <rect x="115" y="3" width="1" height="4" fill="var(--foreground)" shape-rendering="crispEdges" />
    <rect x="117" y="3" width="3" height="1" fill="var(--foreground)" shape-rendering="crispEdges" />
    <rect x="3" y="4" width="1" height="1" fill="var(--foreground)" shape-rendering="crispEdges" />
    <rect x="8" y="4" width="1" height="4" fill="var(--foreground)" shape-rendering="crispEdges" />
    <rect x="11" y="4" width="1" height="3" fill="var(--foreground)" shape-rendering="crispEdges" />
    <rect x="13" y="4" width="1" height="3" fill="var(--foreground)" shape-rendering="crispEdges" />
    <rect x="15" y="4" width="1" height="1" fill="var(--foreground)" shape-rendering="crispEdges" />
    <rect x="17" y="4" width="1" height="1" fill="var(--foreground)" shape-rendering="crispEdges" />
    <rect x="19" y="4" width="1" height="1" fill="var(--foreground)" shape-rendering="crispEdges" />
    <rect x="21" y="4" width="1" height="1" fill="var(--foreground)" shape-rendering="crispEdges" />
    <rect x="23" y="4" width="1" height="3" fill="var(--foreground)" shape-rendering="crispEdges" />
    <rect x="27" y="4" width="1" height="1" fill="var(--foreground)" shape-rendering="crispEdges" />
    <rect x="71" y="4" width="1" height="1" fill="var(--foreground)" shape-rendering="crispEdges" />
    <rect x="73" y="4" width="1" height="1" fill="var(--foreground)" shape-rendering="crispEdges" />
    <rect x="75" y="4" width="1" height="1" fill="var(--foreground)" shape-rendering="crispEdges" />
    <rect x="77" y="4" width="1" height="1" fill="var(--foreground)" shape-rendering="crispEdges" />
    <rect x="79" y="4" width="3" height="1" fill="var(--foreground)" shape-rendering="crispEdges" />
    <rect x="98" y="4" width="1" height="1" fill="var(--foreground)" shape-rendering="crispEdges" />
    <rect x="101" y="4" width="1" height="3" fill="var(--foreground)" shape-rendering="crispEdges" />
    <rect x="103" y="4" width="1" height="3" fill="var(--foreground)" shape-rendering="crispEdges" />
    <rect x="105" y="4" width="1" height="1" fill="var(--foreground)" shape-rendering="crispEdges" />
    <rect x="107" y="4" width="1" height="1" fill="var(--foreground)" shape-rendering="crispEdges" />
    <rect x="110" y="4" width="1" height="3" fill="var(--foreground)" shape-rendering="crispEdges" />
    <rect x="117" y="4" width="1" height="1" fill="var(--foreground)" shape-rendering="crispEdges" />
    <rect x="3" y="5" width="3" height="1" fill="var(--foreground)" shape-rendering="crispEdges" />
    <rect x="15" y="5" width="2" height="1" fill="var(--foreground)" shape-rendering="crispEdges" />
    <rect x="19" y="5" width="3" height="1" fill="var(--foreground)" shape-rendering="crispEdges" />
    <rect x="25" y="5" width="1" height="2" fill="var(--foreground)" shape-rendering="crispEdges" />
    <rect x="27" y="5" width="3" height="1" fill="var(--foreground)" shape-rendering="crispEdges" />
    <rect x="71" y="5" width="2" height="1" fill="var(--foreground)" shape-rendering="crispEdges" />
    <rect x="75" y="5" width="3" height="1" fill="var(--foreground)" shape-rendering="crispEdges" />
    <rect x="79" y="5" width="1" height="3" fill="var(--foreground)" shape-rendering="crispEdges" />
    <rect x="81" y="5" width="1" height="3" fill="var(--foreground)" shape-rendering="crispEdges" />
    <rect x="97" y="5" width="3" height="1" fill="var(--foreground)" shape-rendering="crispEdges" />
    <rect x="105" y="5" width="2" height="1" fill="var(--foreground)" shape-rendering="crispEdges" />
    <rect x="117" y="5" width="3" height="1" fill="var(--foreground)" shape-rendering="crispEdges" />
    <rect x="5" y="6" width="1" height="1" fill="var(--foreground)" shape-rendering="crispEdges" />
    <rect x="15" y="6" width="1" height="2" fill="var(--foreground)" shape-rendering="crispEdges" />
    <rect x="17" y="6" width="1" height="2" fill="var(--foreground)" shape-rendering="crispEdges" />
    <rect x="19" y="6" width="1" height="2" fill="var(--foreground)" shape-rendering="crispEdges" />
    <rect x="21" y="6" width="1" height="2" fill="var(--foreground)" shape-rendering="crispEdges" />
    <rect x="27" y="6" width="1" height="1" fill="var(--foreground)" shape-rendering="crispEdges" />
    <rect x="71" y="6" width="1" height="2" fill="var(--foreground)" shape-rendering="crispEdges" />
    <rect x="73" y="6" width="1" height="2" fill="var(--foreground)" shape-rendering="crispEdges" />
    <rect x="75" y="6" width="1" height="2" fill="var(--foreground)" shape-rendering="crispEdges" />
    <rect x="77" y="6" width="1" height="2" fill="var(--foreground)" shape-rendering="crispEdges" />
    <rect x="98" y="6" width="1" height="1" fill="var(--foreground)" shape-rendering="crispEdges" />
    <rect x="105" y="6" width="1" height="2" fill="var(--foreground)" shape-rendering="crispEdges" />
    <rect x="107" y="6" width="1" height="2" fill="var(--foreground)" shape-rendering="crispEdges" />
    <rect x="117" y="6" width="1" height="1" fill="var(--foreground)" shape-rendering="crispEdges" />
    <rect x="3" y="7" width="3" height="1" fill="var(--foreground)" shape-rendering="crispEdges" />
    <rect x="11" y="7" width="3" height="1" fill="var(--foreground)" shape-rendering="crispEdges" />
    <rect x="24" y="7" width="2" height="1" fill="var(--foreground)" shape-rendering="crispEdges" />
    <rect x="27" y="7" width="3" height="1" fill="var(--foreground)" shape-rendering="crispEdges" />
    <rect x="101" y="7" width="2" height="1" fill="var(--foreground)" shape-rendering="crispEdges" />
    <rect x="109" y="7" width="3" height="1" fill="var(--foreground)" shape-rendering="crispEdges" />
    <rect x="113" y="7" width="2" height="1" fill="var(--foreground)" shape-rendering="crispEdges" />
    <rect x="117" y="7" width="3" height="1" fill="var(--foreground)" shape-rendering="crispEdges" />
    <rect x="3" y="11" width="34" height="1" fill="var(--foreground)" shape-rendering="crispEdges" />
    <rect x="65" y="11" width="23" height="1" fill="var(--foreground)" shape-rendering="crispEdges" />
    <rect x="97" y="11" width="23" height="1" fill="var(--foreground)" shape-rendering="crispEdges" />
    <rect x="73" y="16" width="7" height="1" fill="var(--foreground)" shape-rendering="crispEdges" />
    <rect x="105" y="16" width="7" height="1" fill="var(--foreground)" shape-rendering="crispEdges" />
    <rect x="71" y="17" width="2" height="1" fill="var(--foreground)" shape-rendering="crispEdges" />
    <rect x="80" y="17" width="2" height="1" fill="var(--foreground)" shape-rendering="crispEdges" />
    <rect x="103" y="17" width="2" height="1" fill="var(--foreground)" shape-rendering="crispEdges" />
    <rect x="112" y="17" width="2" height="1" fill="var(--foreground)" shape-rendering="crispEdges" />
    <rect x="3" y="18" width="3" height="1" fill="var(--foreground)" shape-rendering="crispEdges" />
    <rect x="8" y="18" width="3" height="1" fill="var(--foreground)" shape-rendering="crispEdges" />
    <rect x="14" y="18" width="2" height="1" fill="var(--foreground)" shape-rendering="crispEdges" />
    <rect x="21" y="18" width="1" height="4" fill="var(--foreground)" shape-rendering="crispEdges" />
    <rect x="23" y="18" width="4" height="1" fill="var(--foreground)" shape-rendering="crispEdges" />
    <rect x="29" y="18" width="2" height="1" fill="var(--foreground)" shape-rendering="crispEdges" />
    <rect x="33" y="18" width="3" height="1" fill="var(--foreground)" shape-rendering="crispEdges" />
    <rect x="38" y="18" width="3" height="1" fill="var(--foreground)" shape-rendering="crispEdges" />
    <rect x="47" y="18" width="1" height="2" fill="var(--foreground)" shape-rendering="crispEdges" />
    <rect x="50" y="18" width="1" height="2" fill="var(--foreground)" shape-rendering="crispEdges" />
    <rect x="70" y="18" width="1" height="1" fill="var(--foreground)" shape-rendering="crispEdges" />
    <rect x="82" y="18" width="1" height="1" fill="var(--foreground)" shape-rendering="crispEdges" />
    <rect x="102" y="18" width="1" height="1" fill="var(--foreground)" shape-rendering="crispEdges" />
    <rect x="114" y="18" width="1" height="1" fill="var(--foreground)" shape-rendering="crispEdges" />
    <rect x="3" y="19" width="1" height="2" fill="var(--foreground)" shape-rendering="crispEdges" />
    <rect x="6" y="19" width="1" height="2" fill="var(--foreground)" shape-rendering="crispEdges" />
    <rect x="8" y="19" width="1" height="1" fill="var(--foreground)" shape-rendering="crispEdges" />
    <rect x="11" y="19" width="1" height="1" fill="var(--foreground)" shape-rendering="crispEdges" />
    <rect x="13" y="19" width="1" height="3" fill="var(--foreground)" shape-rendering="crispEdges" />
    <rect x="16" y="19" width="1" height="3" fill="var(--foreground)" shape-rendering="crispEdges" />
    <rect x="23" y="19" width="1" height="1" fill="var(--foreground)" shape-rendering="crispEdges" />
    <rect x="28" y="19" width="1" height="3" fill="var(--foreground)" shape-rendering="crispEdges" />
    <rect x="31" y="19" width="1" height="1" fill="var(--foreground)" shape-rendering="crispEdges" />
    <rect x="34" y="19" width="1" height="4" fill="var(--foreground)" shape-rendering="crispEdges" />
    <rect x="37" y="19" width="1" height="1" fill="var(--foreground)" shape-rendering="crispEdges" />
    <rect x="42" y="19" width="1" height="1" fill="var(--foreground)" shape-rendering="crispEdges" />
    <rect x="70" y="19" width="3" height="1" fill="var(--foreground)" shape-rendering="crispEdges" />
    <rect x="80" y="19" width="3" height="1" fill="var(--foreground)" shape-rendering="crispEdges" />
    <rect x="102" y="19" width="3" height="1" fill="var(--foreground)" shape-rendering="crispEdges" />
    <rect x="112" y="19" width="3" height="1" fill="var(--foreground)" shape-rendering="crispEdges" />
    <rect x="8" y="20" width="3" height="1" fill="var(--foreground)" shape-rendering="crispEdges" />
    <rect x="23" y="20" width="3" height="1" fill="var(--foreground)" shape-rendering="crispEdges" />
    <rect x="38" y="20" width="2" height="1" fill="var(--foreground)" shape-rendering="crispEdges" />
    <rect x="47" y="20" width="4" height="1" fill="var(--foreground)" shape-rendering="crispEdges" />
    <rect x="70" y="20" width="1" height="6" fill="var(--foreground)" shape-rendering="crispEdges" />
    <rect x="73" y="20" width="7" height="1" fill="var(--foreground)" shape-rendering="crispEdges" />
    <rect x="82" y="20" width="1" height="6" fill="var(--foreground)" shape-rendering="crispEdges" />
    <rect x="102" y="20" width="1" height="9" fill="var(--foreground)" shape-rendering="crispEdges" />
    <rect x="105" y="20" width="7" height="1" fill="var(--foreground)" shape-rendering="crispEdges" />
    <rect x="114" y="20" width="1" height="9" fill="var(--foreground)" shape-rendering="crispEdges" />
    <rect x="3" y="21" width="3" height="1" fill="var(--foreground)" shape-rendering="crispEdges" />
    <rect x="8" y="21" width="1" height="2" fill="var(--foreground)" shape-rendering="crispEdges" />
    <rect x="11" y="21" width="1" height="2" fill="var(--foreground)" shape-rendering="crispEdges" />
    <rect x="18" y="21" width="1" height="1" fill="var(--foreground)" shape-rendering="crispEdges" />
    <rect x="23" y="21" width="1" height="1" fill="var(--foreground)" shape-rendering="crispEdges" />
    <rect x="31" y="21" width="1" height="1" fill="var(--foreground)" shape-rendering="crispEdges" />
    <rect x="40" y="21" width="1" height="1" fill="var(--foreground)" shape-rendering="crispEdges" />
    <rect x="42" y="21" width="1" height="1" fill="var(--foreground)" shape-rendering="crispEdges" />
    <rect x="50" y="21" width="1" height="2" fill="var(--foreground)" shape-rendering="crispEdges" />
    <rect x="3" y="22" width="1" height="1" fill="var(--foreground)" shape-rendering="crispEdges" />
    <rect x="14" y="22" width="2" height="1" fill="var(--foreground)" shape-rendering="crispEdges" />
    <rect x="19" y="22" width="2" height="1" fill="var(--foreground)" shape-rendering="crispEdges" />
    <rect x="23" y="22" width="4" height="1" fill="var(--foreground)" shape-rendering="crispEdges" />
    <rect x="29" y="22" width="2" height="1" fill="var(--foreground)" shape-rendering="crispEdges" />
    <rect x="37" y="22" width="3" height="1" fill="var(--foreground)" shape-rendering="crispEdges" />
    <rect x="73" y="25" width="7" height="1" fill="var(--foreground)" shape-rendering="crispEdges" />
    <rect x="70" y="26" width="13" height="2" fill="var(--foreground)" shape-rendering="crispEdges" />
    <rect x="4" y="27" width="3" height="1" fill="var(--foreground)" shape-rendering="crispEdges" />
    <rect x="9" y="27" width="2" height="1" fill="var(--foreground)" shape-rendering="crispEdges" />
    <rect x="13" y="27" width="1" height="4" fill="var(--foreground)" shape-rendering="crispEdges" />
    <rect x="16" y="27" width="1" height="4" fill="var(--foreground)" shape-rendering="crispEdges" />
    <rect x="18" y="27" width="1" height="1" fill="var(--foreground)" shape-rendering="crispEdges" />
    <rect x="21" y="27" width="1" height="2" fill="var(--foreground)" shape-rendering="crispEdges" />
    <rect x="23" y="27" width="3" height="1" fill="var(--foreground)" shape-rendering="crispEdges" />
    <rect x="29" y="27" width="3" height="1" fill="var(--foreground)" shape-rendering="crispEdges" />
    <rect x="39" y="27" width="1" height="1" fill="var(--foreground)" shape-rendering="crispEdges" />
    <rect x="42" y="27" width="3" height="1" fill="var(--foreground)" shape-rendering="crispEdges" />
    <rect x="48" y="27" width="3" height="1" fill="var(--foreground)" shape-rendering="crispEdges" />
    <rect x="3" y="28" width="1" height="1" fill="var(--foreground)" shape-rendering="crispEdges" />
    <rect x="8" y="28" width="1" height="3" fill="var(--foreground)" shape-rendering="crispEdges" />
    <rect x="11" y="28" width="1" height="3" fill="var(--foreground)" shape-rendering="crispEdges" />
    <rect x="18" y="28" width="2" height="1" fill="var(--foreground)" shape-rendering="crispEdges" />
    <rect x="23" y="28" width="1" height="3" fill="var(--foreground)" shape-rendering="crispEdges" />
    <rect x="26" y="28" width="1" height="3" fill="var(--foreground)" shape-rendering="crispEdges" />
    <rect x="28" y="28" width="1" height="1" fill="var(--foreground)" shape-rendering="crispEdges" />
    <rect x="33" y="28" width="1" height="1" fill="var(--foreground)" shape-rendering="crispEdges" />
    <rect x="38" y="28" width="2" height="1" fill="var(--foreground)" shape-rendering="crispEdges" />
    <rect x="45" y="28" width="1" height="1" fill="var(--foreground)" shape-rendering="crispEdges" />
    <rect x="47" y="28" width="1" height="1" fill="var(--foreground)" shape-rendering="crispEdges" />
    <rect x="70" y="28" width="1" height="1" fill="var(--foreground)" shape-rendering="crispEdges" />
    <rect x="72" y="28" width="9" height="1" fill="var(--foreground)" shape-rendering="crispEdges" />
    <rect x="82" y="28" width="1" height="1" fill="var(--foreground)" shape-rendering="crispEdges" />
    <rect x="105" y="28" width="7" height="1" fill="var(--foreground)" shape-rendering="crispEdges" />
    <rect x="4" y="29" width="2" height="1" fill="var(--foreground)" shape-rendering="crispEdges" />
    <rect x="18" y="29" width="1" height="3" fill="var(--foreground)" shape-rendering="crispEdges" />
    <rect x="20" y="29" width="2" height="1" fill="var(--foreground)" shape-rendering="crispEdges" />
    <rect x="29" y="29" width="2" height="1" fill="var(--foreground)" shape-rendering="crispEdges" />
    <rect x="39" y="29" width="1" height="2" fill="var(--foreground)" shape-rendering="crispEdges" />
    <rect x="43" y="29" width="2" height="1" fill="var(--foreground)" shape-rendering="crispEdges" />
    <rect x="47" y="29" width="3" height="1" fill="var(--foreground)" shape-rendering="crispEdges" />
    <rect x="70" y="29" width="3" height="1" fill="var(--foreground)" shape-rendering="crispEdges" />
    <rect x="74" y="29" width="1" height="1" fill="var(--foreground)" shape-rendering="crispEdges" />
    <rect x="76" y="29" width="1" height="1" fill="var(--foreground)" shape-rendering="crispEdges" />
    <rect x="78" y="29" width="1" height="1" fill="var(--foreground)" shape-rendering="crispEdges" />
    <rect x="81" y="29" width="1" height="1" fill="var(--foreground)" shape-rendering="crispEdges" />
    <rect x="102" y="29" width="13" height="2" fill="var(--foreground)" shape-rendering="crispEdges" />
    <rect x="6" y="30" width="1" height="1" fill="var(--foreground)" shape-rendering="crispEdges" />
    <rect x="21" y="30" width="1" height="2" fill="var(--foreground)" shape-rendering="crispEdges" />
    <rect x="31" y="30" width="1" height="1" fill="var(--foreground)" shape-rendering="crispEdges" />
    <rect x="33" y="30" width="1" height="1" fill="var(--foreground)" shape-rendering="crispEdges" />
    <rect x="45" y="30" width="1" height="1" fill="var(--foreground)" shape-rendering="crispEdges" />
    <rect x="47" y="30" width="1" height="1" fill="var(--foreground)" shape-rendering="crispEdges" />
    <rect x="50" y="30" width="1" height="1" fill="var(--foreground)" shape-rendering="crispEdges" />
    <rect x="70" y="30" width="11" height="1" fill="var(--foreground)" shape-rendering="crispEdges" />
    <rect x="82" y="30" width="1" height="1" fill="var(--foreground)" shape-rendering="crispEdges" />
    <rect x="3" y="31" width="3" height="1" fill="var(--foreground)" shape-rendering="crispEdges" />
    <rect x="9" y="31" width="2" height="1" fill="var(--foreground)" shape-rendering="crispEdges" />
    <rect x="14" y="31" width="2" height="1" fill="var(--foreground)" shape-rendering="crispEdges" />
    <rect x="23" y="31" width="3" height="1" fill="var(--foreground)" shape-rendering="crispEdges" />
    <rect x="28" y="31" width="3" height="1" fill="var(--foreground)" shape-rendering="crispEdges" />
    <rect x="38" y="31" width="3" height="1" fill="var(--foreground)" shape-rendering="crispEdges" />
    <rect x="42" y="31" width="3" height="1" fill="var(--foreground)" shape-rendering="crispEdges" />
    <rect x="48" y="31" width="2" height="1" fill="var(--foreground)" shape-rendering="crispEdges" />
    <rect x="71" y="31" width="9" height="1" fill="var(--foreground)" shape-rendering="crispEdges" />
    <rect x="81" y="31" width="1" height="1" fill="var(--foreground)" shape-rendering="crispEdges" />
    <rect x="103" y="31" width="11" height="1" fill="var(--foreground)" shape-rendering="crispEdges" />
    <rect x="73" y="32" width="7" height="1" fill="var(--foreground)" shape-rendering="crispEdges" />
    <rect x="105" y="32" width="7" height="1" fill="var(--foreground)" shape-rendering="crispEdges" />
    <rect x="4" y="36" width="3" height="1" fill="var(--foreground)" shape-rendering="crispEdges" />
    <rect x="9" y="36" width="2" height="1" fill="var(--foreground)" shape-rendering="crispEdges" />
    <rect x="13" y="36" width="1" height="1" fill="var(--foreground)" shape-rendering="crispEdges" />
    <rect x="17" y="36" width="1" height="1" fill="var(--foreground)" shape-rendering="crispEdges" />
    <rect x="19" y="36" width="3" height="1" fill="var(--foreground)" shape-rendering="crispEdges" />
    <rect x="24" y="36" width="1" height="4" fill="var(--foreground)" shape-rendering="crispEdges" />
    <rect x="28" y="36" width="4" height="1" fill="var(--foreground)" shape-rendering="crispEdges" />
    <rect x="34" y="36" width="3" height="1" fill="var(--foreground)" shape-rendering="crispEdges" />
    <rect x="44" y="36" width="1" height="1" fill="var(--foreground)" shape-rendering="crispEdges" />
    <rect x="47" y="36" width="3" height="1" fill="var(--foreground)" shape-rendering="crispEdges" />
    <rect x="53" y="36" width="2" height="1" fill="var(--foreground)" shape-rendering="crispEdges" />
    <rect x="69" y="36" width="3" height="1" fill="var(--foreground)" shape-rendering="crispEdges" />
    <rect x="74" y="36" width="4" height="1" fill="var(--foreground)" shape-rendering="crispEdges" />
    <rect x="103" y="36" width="1" height="1" fill="var(--foreground)" shape-rendering="crispEdges" />
    <rect x="107" y="36" width="1" height="1" fill="var(--foreground)" shape-rendering="crispEdges" />
    <rect x="3" y="37" width="1" height="1" fill="var(--foreground)" shape-rendering="crispEdges" />
    <rect x="8" y="37" width="1" height="1" fill="var(--foreground)" shape-rendering="crispEdges" />
    <rect x="11" y="37" width="1" height="1" fill="var(--foreground)" shape-rendering="crispEdges" />
    <rect x="13" y="37" width="2" height="1" fill="var(--foreground)" shape-rendering="crispEdges" />
    <rect x="16" y="37" width="2" height="1" fill="var(--foreground)" shape-rendering="crispEdges" />
    <rect x="19" y="37" width="1" height="2" fill="var(--foreground)" shape-rendering="crispEdges" />
    <rect x="22" y="37" width="1" height="2" fill="var(--foreground)" shape-rendering="crispEdges" />
    <rect x="28" y="37" width="1" height="1" fill="var(--foreground)" shape-rendering="crispEdges" />
    <rect x="33" y="37" width="1" height="1" fill="var(--foreground)" shape-rendering="crispEdges" />
    <rect x="38" y="37" width="1" height="1" fill="var(--foreground)" shape-rendering="crispEdges" />
    <rect x="43" y="37" width="2" height="1" fill="var(--foreground)" shape-rendering="crispEdges" />
    <rect x="50" y="37" width="1" height="1" fill="var(--foreground)" shape-rendering="crispEdges" />
    <rect x="52" y="37" width="1" height="3" fill="var(--foreground)" shape-rendering="crispEdges" />
    <rect x="55" y="37" width="1" height="3" fill="var(--foreground)" shape-rendering="crispEdges" />
    <rect x="72" y="37" width="1" height="1" fill="var(--foreground)" shape-rendering="crispEdges" />
    <rect x="74" y="37" width="1" height="1" fill="var(--foreground)" shape-rendering="crispEdges" />
    <rect x="79" y="37" width="1" height="1" fill="var(--foreground)" shape-rendering="crispEdges" />
    <rect x="82" y="37" width="1" height="1" fill="var(--foreground)" shape-rendering="crispEdges" />
    <rect x="102" y="37" width="2" height="1" fill="var(--foreground)" shape-rendering="crispEdges" />
    <rect x="106" y="37" width="2" height="1" fill="var(--foreground)" shape-rendering="crispEdges" />
    <rect x="110" y="37" width="1" height="1" fill="var(--foreground)" shape-rendering="crispEdges" />
    <rect x="113" y="37" width="1" height="1" fill="var(--foreground)" shape-rendering="crispEdges" />
    <rect x="4" y="38" width="2" height="1" fill="var(--foreground)" shape-rendering="crispEdges" />
    <rect x="8" y="38" width="4" height="1" fill="var(--foreground)" shape-rendering="crispEdges" />
    <rect x="13" y="38" width="1" height="3" fill="var(--foreground)" shape-rendering="crispEdges" />
    <rect x="15" y="38" width="1" height="1" fill="var(--foreground)" shape-rendering="crispEdges" />
    <rect x="17" y="38" width="1" height="3" fill="var(--foreground)" shape-rendering="crispEdges" />
    <rect x="28" y="38" width="3" height="1" fill="var(--foreground)" shape-rendering="crispEdges" />
    <rect x="34" y="38" width="2" height="1" fill="var(--foreground)" shape-rendering="crispEdges" />
    <rect x="44" y="38" width="1" height="2" fill="var(--foreground)" shape-rendering="crispEdges" />
    <rect x="48" y="38" width="2" height="1" fill="var(--foreground)" shape-rendering="crispEdges" />
    <rect x="70" y="38" width="2" height="1" fill="var(--foreground)" shape-rendering="crispEdges" />
    <rect x="74" y="38" width="3" height="1" fill="var(--foreground)" shape-rendering="crispEdges" />
    <rect x="81" y="38" width="1" height="1" fill="var(--foreground)" shape-rendering="crispEdges" />
    <rect x="103" y="38" width="1" height="2" fill="var(--foreground)" shape-rendering="crispEdges" />
    <rect x="107" y="38" width="1" height="2" fill="var(--foreground)" shape-rendering="crispEdges" />
    <rect x="112" y="38" width="1" height="1" fill="var(--foreground)" shape-rendering="crispEdges" />
    <rect x="6" y="39" width="1" height="1" fill="var(--foreground)" shape-rendering="crispEdges" />
    <rect x="8" y="39" width="1" height="2" fill="var(--foreground)" shape-rendering="crispEdges" />
    <rect x="11" y="39" width="1" height="2" fill="var(--foreground)" shape-rendering="crispEdges" />
    <rect x="19" y="39" width="3" height="1" fill="var(--foreground)" shape-rendering="crispEdges" />
    <rect x="28" y="39" width="1" height="1" fill="var(--foreground)" shape-rendering="crispEdges" />
    <rect x="36" y="39" width="1" height="1" fill="var(--foreground)" shape-rendering="crispEdges" />
    <rect x="38" y="39" width="1" height="1" fill="var(--foreground)" shape-rendering="crispEdges" />
    <rect x="47" y="39" width="1" height="1" fill="var(--foreground)" shape-rendering="crispEdges" />
    <rect x="72" y="39" width="1" height="1" fill="var(--foreground)" shape-rendering="crispEdges" />
    <rect x="77" y="39" width="1" height="1" fill="var(--foreground)" shape-rendering="crispEdges" />
    <rect x="80" y="39" width="1" height="1" fill="var(--foreground)" shape-rendering="crispEdges" />
    <rect x="111" y="39" width="1" height="1" fill="var(--foreground)" shape-rendering="crispEdges" />
    <rect x="3" y="40" width="3" height="1" fill="var(--foreground)" shape-rendering="crispEdges" />
    <rect x="19" y="40" width="1" height="1" fill="var(--foreground)" shape-rendering="crispEdges" />
    <rect x="24" y="40" width="3" height="1" fill="var(--foreground)" shape-rendering="crispEdges" />
    <rect x="28" y="40" width="4" height="1" fill="var(--foreground)" shape-rendering="crispEdges" />
    <rect x="33" y="40" width="3" height="1" fill="var(--foreground)" shape-rendering="crispEdges" />
    <rect x="43" y="40" width="3" height="1" fill="var(--foreground)" shape-rendering="crispEdges" />
    <rect x="47" y="40" width="4" height="1" fill="var(--foreground)" shape-rendering="crispEdges" />
    <rect x="53" y="40" width="2" height="1" fill="var(--foreground)" shape-rendering="crispEdges" />
    <rect x="69" y="40" width="3" height="1" fill="var(--foreground)" shape-rendering="crispEdges" />
    <rect x="74" y="40" width="3" height="1" fill="var(--foreground)" shape-rendering="crispEdges" />
    <rect x="79" y="40" width="1" height="1" fill="var(--foreground)" shape-rendering="crispEdges" />
    <rect x="82" y="40" width="1" height="1" fill="var(--foreground)" shape-rendering="crispEdges" />
    <rect x="102" y="40" width="3" height="1" fill="var(--foreground)" shape-rendering="crispEdges" />
    <rect x="106" y="40" width="3" height="1" fill="var(--foreground)" shape-rendering="crispEdges" />
    <rect x="110" y="40" width="1" height="1" fill="var(--foreground)" shape-rendering="crispEdges" />
    <rect x="113" y="40" width="1" height="1" fill="var(--foreground)" shape-rendering="crispEdges" />
    <rect x="4" y="45" width="3" height="1" fill="var(--foreground)" shape-rendering="crispEdges" />
    <rect x="9" y="45" width="2" height="1" fill="var(--foreground)" shape-rendering="crispEdges" />
    <rect x="13" y="45" width="1" height="1" fill="var(--foreground)" shape-rendering="crispEdges" />
    <rect x="17" y="45" width="1" height="1" fill="var(--foreground)" shape-rendering="crispEdges" />
    <rect x="19" y="45" width="3" height="1" fill="var(--foreground)" shape-rendering="crispEdges" />
    <rect x="24" y="45" width="1" height="4" fill="var(--foreground)" shape-rendering="crispEdges" />
    <rect x="28" y="45" width="4" height="1" fill="var(--foreground)" shape-rendering="crispEdges" />
    <rect x="36" y="45" width="3" height="1" fill="var(--foreground)" shape-rendering="crispEdges" />
    <rect x="40" y="45" width="1" height="5" fill="var(--foreground)" shape-rendering="crispEdges" />
    <rect x="42" y="45" width="1" height="1" fill="var(--foreground)" shape-rendering="crispEdges" />
    <rect x="46" y="45" width="1" height="1" fill="var(--foreground)" shape-rendering="crispEdges" />
    <rect x="48" y="45" width="4" height="1" fill="var(--foreground)" shape-rendering="crispEdges" />
    <rect x="66" y="45" width="4" height="1" fill="var(--foreground)" shape-rendering="crispEdges" />
    <rect x="71" y="45" width="3" height="1" fill="var(--foreground)" shape-rendering="crispEdges" />
    <rect x="76" y="45" width="4" height="1" fill="var(--foreground)" shape-rendering="crispEdges" />
    <rect x="81" y="45" width="4" height="1" fill="var(--foreground)" shape-rendering="crispEdges" />
    <rect x="98" y="45" width="4" height="1" fill="var(--foreground)" shape-rendering="crispEdges" />
    <rect x="103" y="45" width="3" height="1" fill="var(--foreground)" shape-rendering="crispEdges" />
    <rect x="108" y="45" width="4" height="1" fill="var(--foreground)" shape-rendering="crispEdges" />
    <rect x="113" y="45" width="4" height="1" fill="var(--foreground)" shape-rendering="crispEdges" />
    <rect x="3" y="46" width="1" height="1" fill="var(--foreground)" shape-rendering="crispEdges" />
    <rect x="8" y="46" width="1" height="1" fill="var(--foreground)" shape-rendering="crispEdges" />
    <rect x="11" y="46" width="1" height="1" fill="var(--foreground)" shape-rendering="crispEdges" />
    <rect x="13" y="46" width="2" height="1" fill="var(--foreground)" shape-rendering="crispEdges" />
    <rect x="16" y="46" width="2" height="1" fill="var(--foreground)" shape-rendering="crispEdges" />
    <rect x="19" y="46" width="1" height="2" fill="var(--foreground)" shape-rendering="crispEdges" />
    <rect x="22" y="46" width="1" height="2" fill="var(--foreground)" shape-rendering="crispEdges" />
    <rect x="28" y="46" width="1" height="1" fill="var(--foreground)" shape-rendering="crispEdges" />
    <rect x="37" y="46" width="1" height="4" fill="var(--foreground)" shape-rendering="crispEdges" />
    <rect x="42" y="46" width="2" height="1" fill="var(--foreground)" shape-rendering="crispEdges" />
    <rect x="45" y="46" width="2" height="1" fill="var(--foreground)" shape-rendering="crispEdges" />
    <rect x="48" y="46" width="1" height="1" fill="var(--foreground)" shape-rendering="crispEdges" />
    <rect x="53" y="46" width="1" height="1" fill="var(--foreground)" shape-rendering="crispEdges" />
    <rect x="66" y="46" width="1" height="1" fill="var(--foreground)" shape-rendering="crispEdges" />
    <rect x="71" y="46" width="1" height="1" fill="var(--foreground)" shape-rendering="crispEdges" />
    <rect x="74" y="46" width="1" height="1" fill="var(--foreground)" shape-rendering="crispEdges" />
    <rect x="76" y="46" width="1" height="1" fill="var(--foreground)" shape-rendering="crispEdges" />
    <rect x="81" y="46" width="1" height="1" fill="var(--foreground)" shape-rendering="crispEdges" />
    <rect x="86" y="46" width="1" height="1" fill="var(--foreground)" shape-rendering="crispEdges" />
    <rect x="98" y="46" width="1" height="1" fill="var(--foreground)" shape-rendering="crispEdges" />
    <rect x="103" y="46" width="1" height="1" fill="var(--foreground)" shape-rendering="crispEdges" />
    <rect x="106" y="46" width="1" height="1" fill="var(--foreground)" shape-rendering="crispEdges" />
    <rect x="108" y="46" width="1" height="1" fill="var(--foreground)" shape-rendering="crispEdges" />
    <rect x="113" y="46" width="1" height="1" fill="var(--foreground)" shape-rendering="crispEdges" />
    <rect x="118" y="46" width="1" height="1" fill="var(--foreground)" shape-rendering="crispEdges" />
    <rect x="4" y="47" width="2" height="1" fill="var(--foreground)" shape-rendering="crispEdges" />
    <rect x="8" y="47" width="4" height="1" fill="var(--foreground)" shape-rendering="crispEdges" />
    <rect x="13" y="47" width="1" height="3" fill="var(--foreground)" shape-rendering="crispEdges" />
    <rect x="15" y="47" width="1" height="1" fill="var(--foreground)" shape-rendering="crispEdges" />
    <rect x="17" y="47" width="1" height="3" fill="var(--foreground)" shape-rendering="crispEdges" />
    <rect x="28" y="47" width="3" height="1" fill="var(--foreground)" shape-rendering="crispEdges" />
    <rect x="42" y="47" width="1" height="3" fill="var(--foreground)" shape-rendering="crispEdges" />
    <rect x="44" y="47" width="1" height="1" fill="var(--foreground)" shape-rendering="crispEdges" />
    <rect x="46" y="47" width="1" height="3" fill="var(--foreground)" shape-rendering="crispEdges" />
    <rect x="48" y="47" width="3" height="1" fill="var(--foreground)" shape-rendering="crispEdges" />
    <rect x="66" y="47" width="3" height="1" fill="var(--foreground)" shape-rendering="crispEdges" />
    <rect x="71" y="47" width="3" height="1" fill="var(--foreground)" shape-rendering="crispEdges" />
    <rect x="76" y="47" width="3" height="1" fill="var(--foreground)" shape-rendering="crispEdges" />
    <rect x="81" y="47" width="3" height="1" fill="var(--foreground)" shape-rendering="crispEdges" />
    <rect x="98" y="47" width="3" height="1" fill="var(--foreground)" shape-rendering="crispEdges" />
    <rect x="103" y="47" width="3" height="1" fill="var(--foreground)" shape-rendering="crispEdges" />
    <rect x="108" y="47" width="3" height="1" fill="var(--foreground)" shape-rendering="crispEdges" />
    <rect x="113" y="47" width="3" height="1" fill="var(--foreground)" shape-rendering="crispEdges" />
    <rect x="6" y="48" width="1" height="1" fill="var(--foreground)" shape-rendering="crispEdges" />
    <rect x="8" y="48" width="1" height="2" fill="var(--foreground)" shape-rendering="crispEdges" />
    <rect x="11" y="48" width="1" height="2" fill="var(--foreground)" shape-rendering="crispEdges" />
    <rect x="19" y="48" width="3" height="1" fill="var(--foreground)" shape-rendering="crispEdges" />
    <rect x="28" y="48" width="1" height="1" fill="var(--foreground)" shape-rendering="crispEdges" />
    <rect x="48" y="48" width="1" height="1" fill="var(--foreground)" shape-rendering="crispEdges" />
    <rect x="53" y="48" width="1" height="1" fill="var(--foreground)" shape-rendering="crispEdges" />
    <rect x="66" y="48" width="1" height="2" fill="var(--foreground)" shape-rendering="crispEdges" />
    <rect x="71" y="48" width="1" height="2" fill="var(--foreground)" shape-rendering="crispEdges" />
    <rect x="74" y="48" width="1" height="2" fill="var(--foreground)" shape-rendering="crispEdges" />
    <rect x="76" y="48" width="1" height="1" fill="var(--foreground)" shape-rendering="crispEdges" />
    <rect x="81" y="48" width="1" height="1" fill="var(--foreground)" shape-rendering="crispEdges" />
    <rect x="86" y="48" width="1" height="1" fill="var(--foreground)" shape-rendering="crispEdges" />
    <rect x="98" y="48" width="1" height="2" fill="var(--foreground)" shape-rendering="crispEdges" />
    <rect x="103" y="48" width="1" height="2" fill="var(--foreground)" shape-rendering="crispEdges" />
    <rect x="106" y="48" width="1" height="2" fill="var(--foreground)" shape-rendering="crispEdges" />
    <rect x="108" y="48" width="1" height="1" fill="var(--foreground)" shape-rendering="crispEdges" />
    <rect x="113" y="48" width="1" height="1" fill="var(--foreground)" shape-rendering="crispEdges" />
    <rect x="118" y="48" width="1" height="1" fill="var(--foreground)" shape-rendering="crispEdges" />
    <rect x="3" y="49" width="3" height="1" fill="var(--foreground)" shape-rendering="crispEdges" />
    <rect x="19" y="49" width="1" height="1" fill="var(--foreground)" shape-rendering="crispEdges" />
    <rect x="24" y="49" width="3" height="1" fill="var(--foreground)" shape-rendering="crispEdges" />
    <rect x="28" y="49" width="4" height="1" fill="var(--foreground)" shape-rendering="crispEdges" />
    <rect x="48" y="49" width="4" height="1" fill="var(--foreground)" shape-rendering="crispEdges" />
    <rect x="76" y="49" width="4" height="1" fill="var(--foreground)" shape-rendering="crispEdges" />
    <rect x="81" y="49" width="4" height="1" fill="var(--foreground)" shape-rendering="crispEdges" />
    <rect x="108" y="49" width="4" height="1" fill="var(--foreground)" shape-rendering="crispEdges" />
    <rect x="113" y="49" width="4" height="1" fill="var(--foreground)" shape-rendering="crispEdges" />
    <rect x="4" y="54" width="2" height="1" fill="var(--foreground)" shape-rendering="crispEdges" />
    <rect x="8" y="54" width="1" height="2" fill="var(--foreground)" shape-rendering="crispEdges" />
    <rect x="11" y="54" width="1" height="2" fill="var(--foreground)" shape-rendering="crispEdges" />
    <rect x="16" y="54" width="1" height="1" fill="var(--foreground)" shape-rendering="crispEdges" />
    <rect x="20" y="54" width="2" height="1" fill="var(--foreground)" shape-rendering="crispEdges" />
    <rect x="26" y="54" width="1" height="2" fill="var(--foreground)" shape-rendering="crispEdges" />
    <rect x="29" y="54" width="1" height="1" fill="var(--foreground)" shape-rendering="crispEdges" />
    <rect x="33" y="54" width="1" height="1" fill="var(--foreground)" shape-rendering="crispEdges" />
    <rect x="38" y="54" width="3" height="1" fill="var(--foreground)" shape-rendering="crispEdges" />
    <rect x="44" y="54" width="2" height="1" fill="var(--foreground)" shape-rendering="crispEdges" />
    <rect x="67" y="54" width="1" height="2" fill="var(--foreground)" shape-rendering="crispEdges" />
    <rect x="70" y="54" width="1" height="2" fill="var(--foreground)" shape-rendering="crispEdges" />
    <rect x="73" y="54" width="1" height="1" fill="var(--foreground)" shape-rendering="crispEdges" />
    <rect x="76" y="54" width="1" height="1" fill="var(--foreground)" shape-rendering="crispEdges" />
    <rect x="80" y="54" width="1" height="1" fill="var(--foreground)" shape-rendering="crispEdges" />
    <rect x="82" y="54" width="3" height="1" fill="var(--foreground)" shape-rendering="crispEdges" />
    <rect x="97" y="54" width="2" height="1" fill="var(--foreground)" shape-rendering="crispEdges" />
    <rect x="101" y="54" width="1" height="2" fill="var(--foreground)" shape-rendering="crispEdges" />
    <rect x="104" y="54" width="1" height="2" fill="var(--foreground)" shape-rendering="crispEdges" />
    <rect x="107" y="54" width="3" height="1" fill="var(--foreground)" shape-rendering="crispEdges" />
    <rect x="111" y="54" width="1" height="1" fill="var(--foreground)" shape-rendering="crispEdges" />
    <rect x="115" y="54" width="1" height="1" fill="var(--foreground)" shape-rendering="crispEdges" />
    <rect x="117" y="54" width="3" height="1" fill="var(--foreground)" shape-rendering="crispEdges" />
    <rect x="3" y="55" width="1" height="3" fill="var(--foreground)" shape-rendering="crispEdges" />
    <rect x="6" y="55" width="1" height="3" fill="var(--foreground)" shape-rendering="crispEdges" />
    <rect x="13" y="55" width="1" height="1" fill="var(--foreground)" shape-rendering="crispEdges" />
    <rect x="15" y="55" width="2" height="1" fill="var(--foreground)" shape-rendering="crispEdges" />
    <rect x="19" y="55" width="1" height="1" fill="var(--foreground)" shape-rendering="crispEdges" />
    <rect x="22" y="55" width="1" height="1" fill="var(--foreground)" shape-rendering="crispEdges" />
    <rect x="28" y="55" width="2" height="1" fill="var(--foreground)" shape-rendering="crispEdges" />
    <rect x="32" y="55" width="2" height="1" fill="var(--foreground)" shape-rendering="crispEdges" />
    <rect x="36" y="55" width="1" height="1" fill="var(--foreground)" shape-rendering="crispEdges" />
    <rect x="41" y="55" width="1" height="1" fill="var(--foreground)" shape-rendering="crispEdges" />
    <rect x="43" y="55" width="1" height="1" fill="var(--foreground)" shape-rendering="crispEdges" />
    <rect x="46" y="55" width="1" height="1" fill="var(--foreground)" shape-rendering="crispEdges" />
    <rect x="72" y="55" width="2" height="1" fill="var(--foreground)" shape-rendering="crispEdges" />
    <rect x="76" y="55" width="2" height="1" fill="var(--foreground)" shape-rendering="crispEdges" />
    <rect x="79" y="55" width="2" height="1" fill="var(--foreground)" shape-rendering="crispEdges" />
    <rect x="82" y="55" width="1" height="1" fill="var(--foreground)" shape-rendering="crispEdges" />
    <rect x="85" y="55" width="1" height="1" fill="var(--foreground)" shape-rendering="crispEdges" />
    <rect x="96" y="55" width="1" height="1" fill="var(--foreground)" shape-rendering="crispEdges" />
    <rect x="99" y="55" width="1" height="1" fill="var(--foreground)" shape-rendering="crispEdges" />
    <rect x="106" y="55" width="1" height="1" fill="var(--foreground)" shape-rendering="crispEdges" />
    <rect x="111" y="55" width="2" height="1" fill="var(--foreground)" shape-rendering="crispEdges" />
    <rect x="114" y="55" width="2" height="1" fill="var(--foreground)" shape-rendering="crispEdges" />
    <rect x="117" y="55" width="1" height="1" fill="var(--foreground)" shape-rendering="crispEdges" />
    <rect x="120" y="55" width="1" height="1" fill="var(--foreground)" shape-rendering="crispEdges" />
    <rect x="8" y="56" width="4" height="1" fill="var(--foreground)" shape-rendering="crispEdges" />
    <rect x="16" y="56" width="1" height="2" fill="var(--foreground)" shape-rendering="crispEdges" />
    <rect x="20" y="56" width="3" height="1" fill="var(--foreground)" shape-rendering="crispEdges" />
    <rect x="25" y="56" width="1" height="1" fill="var(--foreground)" shape-rendering="crispEdges" />
    <rect x="29" y="56" width="1" height="2" fill="var(--foreground)" shape-rendering="crispEdges" />
    <rect x="33" y="56" width="1" height="2" fill="var(--foreground)" shape-rendering="crispEdges" />
    <rect x="39" y="56" width="2" height="1" fill="var(--foreground)" shape-rendering="crispEdges" />
    <rect x="44" y="56" width="3" height="1" fill="var(--foreground)" shape-rendering="crispEdges" />
    <rect x="67" y="56" width="4" height="1" fill="var(--foreground)" shape-rendering="crispEdges" />
    <rect x="73" y="56" width="1" height="2" fill="var(--foreground)" shape-rendering="crispEdges" />
    <rect x="76" y="56" width="1" height="3" fill="var(--foreground)" shape-rendering="crispEdges" />
    <rect x="78" y="56" width="1" height="1" fill="var(--foreground)" shape-rendering="crispEdges" />
    <rect x="80" y="56" width="1" height="3" fill="var(--foreground)" shape-rendering="crispEdges" />
    <rect x="82" y="56" width="3" height="1" fill="var(--foreground)" shape-rendering="crispEdges" />
    <rect x="97" y="56" width="2" height="1" fill="var(--foreground)" shape-rendering="crispEdges" />
    <rect x="101" y="56" width="4" height="1" fill="var(--foreground)" shape-rendering="crispEdges" />
    <rect x="106" y="56" width="3" height="1" fill="var(--foreground)" shape-rendering="crispEdges" />
    <rect x="111" y="56" width="1" height="3" fill="var(--foreground)" shape-rendering="crispEdges" />
    <rect x="113" y="56" width="1" height="1" fill="var(--foreground)" shape-rendering="crispEdges" />
    <rect x="115" y="56" width="1" height="3" fill="var(--foreground)" shape-rendering="crispEdges" />
    <rect x="117" y="56" width="3" height="1" fill="var(--foreground)" shape-rendering="crispEdges" />
    <rect x="11" y="57" width="1" height="2" fill="var(--foreground)" shape-rendering="crispEdges" />
    <rect x="13" y="57" width="1" height="1" fill="var(--foreground)" shape-rendering="crispEdges" />
    <rect x="22" y="57" width="1" height="1" fill="var(--foreground)" shape-rendering="crispEdges" />
    <rect x="24" y="57" width="1" height="2" fill="var(--foreground)" shape-rendering="crispEdges" />
    <rect x="36" y="57" width="1" height="1" fill="var(--foreground)" shape-rendering="crispEdges" />
    <rect x="41" y="57" width="1" height="1" fill="var(--foreground)" shape-rendering="crispEdges" />
    <rect x="46" y="57" width="1" height="1" fill="var(--foreground)" shape-rendering="crispEdges" />
    <rect x="70" y="57" width="1" height="2" fill="var(--foreground)" shape-rendering="crispEdges" />
    <rect x="82" y="57" width="1" height="1" fill="var(--foreground)" shape-rendering="crispEdges" />
    <rect x="85" y="57" width="1" height="1" fill="var(--foreground)" shape-rendering="crispEdges" />
    <rect x="96" y="57" width="1" height="1" fill="var(--foreground)" shape-rendering="crispEdges" />
    <rect x="99" y="57" width="1" height="1" fill="var(--foreground)" shape-rendering="crispEdges" />
    <rect x="104" y="57" width="1" height="2" fill="var(--foreground)" shape-rendering="crispEdges" />
    <rect x="106" y="57" width="1" height="1" fill="var(--foreground)" shape-rendering="crispEdges" />
    <rect x="109" y="57" width="1" height="1" fill="var(--foreground)" shape-rendering="crispEdges" />
    <rect x="117" y="57" width="1" height="1" fill="var(--foreground)" shape-rendering="crispEdges" />
    <rect x="120" y="57" width="1" height="1" fill="var(--foreground)" shape-rendering="crispEdges" />
    <rect x="4" y="58" width="2" height="1" fill="var(--foreground)" shape-rendering="crispEdges" />
    <rect x="15" y="58" width="3" height="1" fill="var(--foreground)" shape-rendering="crispEdges" />
    <rect x="20" y="58" width="2" height="1" fill="var(--foreground)" shape-rendering="crispEdges" />
    <rect x="28" y="58" width="3" height="1" fill="var(--foreground)" shape-rendering="crispEdges" />
    <rect x="32" y="58" width="3" height="1" fill="var(--foreground)" shape-rendering="crispEdges" />
    <rect x="38" y="58" width="3" height="1" fill="var(--foreground)" shape-rendering="crispEdges" />
    <rect x="44" y="58" width="2" height="1" fill="var(--foreground)" shape-rendering="crispEdges" />
    <rect x="72" y="58" width="3" height="1" fill="var(--foreground)" shape-rendering="crispEdges" />
    <rect x="82" y="58" width="3" height="1" fill="var(--foreground)" shape-rendering="crispEdges" />
    <rect x="97" y="58" width="2" height="1" fill="var(--foreground)" shape-rendering="crispEdges" />
    <rect x="107" y="58" width="2" height="1" fill="var(--foreground)" shape-rendering="crispEdges" />
    <rect x="117" y="58" width="3" height="1" fill="var(--foreground)" shape-rendering="crispEdges" />
  </g>
</svg>