<svg viewBox="0 0 128 64" xmlns="http://www.w3.org/2000/svg">
  <g id="pixels">
    <rect x="1" y="56" width="1" height="6" fill="var(--foreground)" />
    <rect x="2" y="55" width="13" height="1" fill="var(--foreground)" />
    <rect x="2" y="62" width="13" height="1" fill="var(--foreground)" />
    <rect x="3" y="3" width="3" height="1" fill="var(--foreground)" />
    <rect x="3" y="4" width="1" height="1" fill="var(--foreground)" />
    <rect x="3" y="5" width="3" height="1" fill="var(--foreground)" />
    <rect x="3" y="6" width="1" height="2" fill="var(--foreground)" />
    <rect x="3" y="11" width="34" height="1" fill="var(--foreground)" />
    <rect x="5" y="4" width="1" height="1" fill="var(--foreground)" />
    <rect x="7" y="3" width="3" height="1" fill="var(--foreground)" />
    <rect x="7" y="4" width="1" height="1" fill="var(--foreground)" />
    <rect x="7" y="5" width="2" height="1" fill="var(--foreground)" />
    <rect x="7" y="6" width="1" height="2" fill="var(--foreground)" />
    <rect x="7" y="29" width="1" height="7" fill="var(--foreground)" />
    <rect x="8" y="28" width="21" height="1" fill="var(--foreground)" />
    <rect x="8" y="36" width="21" height="1" fill="var(--foreground)" />
    <rect x="8" y="52" width="1" height="3" fill="var(--foreground)" />
    <rect x="9" y="4" width="1" height="1" fill="var(--foreground)" />
    <rect x="9" y="6" width="1" height="2" fill="var(--foreground)" />
    <rect x="9" y="51" width="19" height="1" fill="var(--foreground)" />
    <rect x="11" y="3" width="3" height="1" fill="var(--foreground)" />
    <rect x="11" y="4" width="1" height="3" fill="var(--foreground)" />
    <rect x="11" y="7" width="3" height="1" fill="var(--foreground)" />
    <rect x="11" y="41" width="1" height="6" fill="var(--foreground)" />
    <rect x="12" y="40" width="13" height="1" fill="var(--foreground)" />
    <rect x="12" y="47" width="13" height="1" fill="var(--foreground)" />
    <rect x="13" y="4" width="1" height="3" fill="var(--foreground)" />
    <rect x="15" y="6" width="1" height="1" fill="var(--foreground)" />
    <rect x="15" y="7" width="2" height="1" fill="var(--foreground)" />
    <rect x="15" y="56" width="1" height="6" fill="var(--foreground)" />
    <rect x="17" y="3" width="1" height="4" fill="var(--foreground)" />
    <rect x="18" y="37" width="1" height="3" fill="var(--foreground)" />
    <rect x="18" y="48" width="1" height="3" fill="var(--foreground)" />
    <rect x="19" y="3" width="3" height="1" fill="var(--foreground)" />
    <rect x="19" y="4" width="1" height="1" fill="var(--foreground)" />
    <rect x="19" y="5" width="3" height="1" fill="var(--foreground)" />
    <rect x="19" y="6" width="1" height="1" fill="var(--foreground)" />
    <rect x="19" y="7" width="3" height="1" fill="var(--foreground)" />
    <rect x="21" y="56" width="1" height="6" fill="var(--foreground)" />
    <rect x="22" y="55" width="13" height="1" fill="var(--foreground)" />
    <rect x="22" y="62" width="13" height="1" fill="var(--foreground)" />
    <rect x="23" y="3" width="3" height="1" fill="var(--foreground)" />
    <rect x="23" y="4" width="1" height="3" fill="var(--foreground)" />
    <rect x="23" y="7" width="3" height="1" fill="var(--foreground)" />
    <rect x="25" y="4" width="1" height="1" fill="var(--foreground)" />
    <rect x="25" y="6" width="1" height="1" fill="var(--foreground)" />
    <rect x="25" y="41" width="1" height="6" fill="var(--foreground)" />
    <rect x="27" y="3" width="3" height="1" fill="var(--foreground)" />
    <rect x="28" y="4" width="1" height="4" fill="var(--foreground)" />
    <rect x="28" y="52" width="1" height="3" fill="var(--foreground)" />
    <rect x="29" y="29" width="1" height="7" fill="var(--foreground)" />
    <rect x="35" y="56" width="1" height="6" fill="var(--foreground)" />
    <rect x="39" y="0" width="82" height="1" fill="var(--foreground)" />
    <rect x="39" y="1" width="4" height="1" fill="var(--foreground)" />
    <rect x="39" y="2" width="3" height="7" fill="var(--foreground)" />
    <rect x="39" y="9" width="4" height="1" fill="var(--foreground)" />
    <rect x="39" y="10" width="82" height="1" fill="var(--foreground)" />
    <rect x="42" y="14" width="1" height="4" fill="var(--foreground)" />
    <rect x="42" y="18" width="9" height="1" fill="var(--foreground)" />
    <rect x="42" y="19" width="2" height="3" fill="var(--foreground)" />
    <rect x="42" y="27" width="9" height="1" fill="var(--foreground)" />
    <rect x="42" y="28" width="1" height="3" fill="var(--foreground)" />
    <rect x="42" y="31" width="9" height="1" fill="var(--foreground)" />
    <rect x="42" y="32" width="1" height="3" fill="var(--foreground)" />
    <rect x="42" y="35" width="9" height="1" fill="var(--foreground)" />
    <rect x="43" y="2" width="5" height="1" fill="var(--foreground)" />
    <rect x="43" y="3" width="1" height="1" fill="var(--foreground)" />
    <rect x="43" y="7" width="6" height="2" fill="var(--foreground)" />
    <rect x="43" y="22" width="1" height="1" fill="var(--foreground)" />
    <rect x="44" y="4" width="6" height="3" fill="var(--foreground)" />
    <rect x="45" y="20" width="1" height="2" fill="var(--foreground)" />
    <rect x="46" y="29" width="1" height="1" fill="var(--foreground)" />
    <rect x="46" y="33" width="1" height="1" fill="var(--foreground)" />
    <rect x="48" y="1" width="73" height="1" fill="var(--foreground)" />
    <rect x="49" y="2" width="72" height="1" fill="var(--foreground)" />
    <rect x="49" y="9" width="72" height="1" fill="var(--foreground)" />
    <rect x="49" y="19" width="2" height="4" fill="var(--foreground)" />
    <rect x="50" y="3" width="4" height="1" fill="var(--foreground)" />
    <rect x="50" y="7" width="4" height="1" fill="var(--foreground)" />
    <rect x="50" y="8" width="71" height="1" fill="var(--foreground)" />
    <rect x="50" y="14" width="1" height="4" fill="var(--foreground)" />
    <rect x="50" y="28" width="1" height="3" fill="var(--foreground)" />
    <rect x="50" y="32" width="1" height="3" fill="var(--foreground)" />
    <rect x="51" y="4" width="3" height="3" fill="var(--foreground)" />
    <rect x="54" y="16" width="3" height="1" fill="var(--foreground)" />
    <rect x="54" y="17" width="1" height="1" fill="var(--foreground)" />
    <rect x="54" y="18" width="3" height="1" fill="var(--foreground)" />
    <rect x="54" y="20" width="3" height="1" fill="var(--foreground)" />
    <rect x="54" y="29" width="1" height="1" fill="var(--foreground)" />
    <rect x="54" y="30" width="3" height="1" fill="var(--foreground)" />
    <rect x="54" y="31" width="1" height="3" fill="var(--foreground)" />
    <rect x="55" y="3" width="3" height="4" fill="var(--foreground)" />
    <rect x="56" y="19" width="1" height="1" fill="var(--foreground)" />
    <rect x="56" y="29" width="1" height="1" fill="var(--foreground)" />
    <rect x="56" y="31" width="1" height="3" fill="var(--foreground)" />
    <rect x="57" y="7" width="1" height="1" fill="var(--foreground)" />
    <rect x="58" y="16" width="3" height="1" fill="var(--foreground)" />
    <rect x="58" y="17" width="1" height="1" fill="var(--foreground)" />
    <rect x="58" y="18" width="3" height="1" fill="var(--foreground)" />
    <rect x="58" y="19" width="1" height="2" fill="var(--foreground)" />
    <rect x="58" y="29" width="3" height="1" fill="var(--foreground)" />
    <rect x="58" y="30" width="1" height="1" fill="var(--foreground)" />
    <rect x="58" y="31" width="3" height="1" fill="var(--foreground)" />
    <rect x="58" y="32" width="1" height="2" fill="var(--foreground)" />
    <rect x="59" y="4" width="1" height="3" fill="var(--foreground)" />
    <rect x="60" y="17" width="1" height="1" fill="var(--foreground)" />
    <rect x="60" y="19" width="1" height="2" fill="var(--foreground)" />
    <rect x="60" y="30" width="1" height="1" fill="var(--foreground)" />
    <rect x="60" y="32" width="1" height="2" fill="var(--foreground)" />
    <rect x="61" y="3" width="1" height="5" fill="var(--foreground)" />
    <rect x="62" y="16" width="1" height="4" fill="var(--foreground)" />
    <rect x="62" y="20" width="2" height="1" fill="var(--foreground)" />
    <rect x="62" y="29" width="2" height="1" fill="var(--foreground)" />
    <rect x="62" y="30" width="1" height="4" fill="var(--foreground)" />
    <rect x="63" y="4" width="1" height="1" fill="var(--foreground)" />
    <rect x="63" y="6" width="1" height="2" fill="var(--foreground)" />
    <rect x="64" y="16" width="1" height="4" fill="var(--foreground)" />
    <rect x="64" y="30" width="1" height="4" fill="var(--foreground)" />
    <rect x="65" y="3" width="1" height="5" fill="var(--foreground)" />
    <rect x="66" y="16" width="3" height="1" fill="var(--foreground)" />
    <rect x="66" y="17" width="1" height="1" fill="var(--foreground)" />
    <rect x="66" y="18" width="3" height="1" fill="var(--foreground)" />
    <rect x="66" y="19" width="1" height="1" fill="var(--foreground)" />
    <rect x="66" y="20" width="3" height="1" fill="var(--foreground)" />
    <rect x="66" y="29" width="3" height="1" fill="var(--foreground)" />
    <rect x="66" y="30" width="1" height="1" fill="var(--foreground)" />
    <rect x="66" y="31" width="3" height="1" fill="var(--foreground)" />
    <rect x="66" y="32" width="1" height="2" fill="var(--foreground)" />
    <rect x="67" y="4" width="1" height="3" fill="var(--foreground)" />
    <rect x="68" y="3" width="5" height="1" fill="var(--foreground)" />
    <rect x="68" y="7" width="5" height="1" fill="var(--foreground)" />
    <rect x="68" y="30" width="1" height="1" fill="var(--foreground)" />
    <rect x="68" y="32" width="1" height="2" fill="var(--foreground)" />
    <rect x="69" y="4" width="4" height="3" fill="var(--foreground)" />
    <rect x="70" y="30" width="1" height="3" fill="var(--foreground)" />
    <rect x="71" y="29" width="2" height="1" fill="var(--foreground)" />
    <rect x="71" y="33" width="2" height="1" fill="var(--foreground)" />
    <rect x="72" y="31" width="1" height="2" fill="var(--foreground)" />
    <rect x="73" y="16" width="3" height="1" fill="var(--foreground)" />
    <rect x="73" y="17" width="1" height="1" fill="var(--foreground)" />
    <rect x="73" y="18" width="3" height="1" fill="var(--foreground)" />
    <rect x="73" y="19" width="1" height="2" fill="var(--foreground)" />
    <rect x="74" y="4" width="1" height="1" fill="var(--foreground)" />
    <rect x="74" y="6" width="3" height="2" fill="var(--foreground)" />
    <rect x="74" y="29" width="3" height="1" fill="var(--foreground)" />
    <rect x="74" y="30" width="1" height="1" fill="var(--foreground)" />
    <rect x="74" y="31" width="3" height="1" fill="var(--foreground)" />
    <rect x="74" y="32" width="1" height="1" fill="var(--foreground)" />
    <rect x="74" y="33" width="3" height="1" fill="var(--foreground)" />
    <rect x="75" y="17" width="1" height="1" fill="var(--foreground)" />
    <rect x="76" y="3" width="1" height="3" fill="var(--foreground)" />
    <rect x="77" y="16" width="3" height="1" fill="var(--foreground)" />
    <rect x="77" y="17" width="1" height="1" fill="var(--foreground)" />
    <rect x="77" y="18" width="2" height="1" fill="var(--foreground)" />
    <rect x="77" y="19" width="1" height="2" fill="var(--foreground)" />
    <rect x="78" y="4" width="1" height="1" fill="var(--foreground)" />
    <rect x="78" y="6" width="1" height="2" fill="var(--foreground)" />
    <rect x="79" y="5" width="2" height="1" fill="var(--foreground)" />
    <rect x="79" y="17" width="1" height="1" fill="var(--foreground)" />
    <rect x="79" y="19" width="1" height="2" fill="var(--foreground)" />
    <rect x="80" y="3" width="1" height="2" fill="var(--foreground)" />
    <rect x="80" y="6" width="1" height="2" fill="var(--foreground)" />
    <rect x="81" y="16" width="3" height="1" fill="var(--foreground)" />
    <rect x="81" y="17" width="1" height="3" fill="var(--foreground)" />
    <rect x="81" y="20" width="3" height="1" fill="var(--foreground)" />
    <rect x="81" y="29" width="3" height="1" fill="var(--foreground)" />
    <rect x="81" y="30" width="1" height="1" fill="var(--foreground)" />
    <rect x="81" y="31" width="3" height="1" fill="var(--foreground)" />
    <rect x="81" y="32" width="1" height="2" fill="var(--foreground)" />
    <rect x="82" y="4" width="1" height="3" fill="var(--foreground)" />
    <rect x="83" y="17" width="1" height="3" fill="var(--foreground)" />
    <rect x="83" y="30" width="1" height="1" fill="var(--foreground)" />
    <rect x="84" y="3" width="3" height="3" fill="var(--foreground)" />
    <rect x="84" y="6" width="1" height="2" fill="var(--foreground)" />
    <rect x="85" y="19" width="1" height="1" fill="var(--foreground)" />
    <rect x="85" y="20" width="2" height="1" fill="var(--foreground)" />
    <rect x="85" y="29" width="3" height="1" fill="var(--foreground)" />
    <rect x="85" y="30" width="1" height="1" fill="var(--foreground)" />
    <rect x="85" y="31" width="2" height="1" fill="var(--foreground)" />
    <rect x="85" y="32" width="1" height="2" fill="var(--foreground)" />
    <rect x="86" y="6" width="1" height="1" fill="var(--foreground)" />
    <rect x="87" y="7" width="2" height="1" fill="var(--foreground)" />
    <rect x="87" y="16" width="1" height="4" fill="var(--foreground)" />
    <rect x="87" y="30" width="1" height="1" fill="var(--foreground)" />
    <rect x="87" y="32" width="1" height="2" fill="var(--foreground)" />
    <rect x="88" y="3" width="1" height="4" fill="var(--foreground)" />
    <rect x="89" y="16" width="3" height="1" fill="var(--foreground)" />
    <rect x="89" y="17" width="1" height="1" fill="var(--foreground)" />
    <rect x="89" y="18" width="3" height="1" fill="var(--foreground)" />
    <rect x="89" y="19" width="1" height="1" fill="var(--foreground)" />
    <rect x="89" y="20" width="3" height="1" fill="var(--foreground)" />
    <rect x="89" y="29" width="3" height="1" fill="var(--foreground)" />
    <rect x="89" y="30" width="1" height="3" fill="var(--foreground)" />
    <rect x="89" y="33" width="3" height="1" fill="var(--foreground)" />
    <rect x="90" y="4" width="3" height="1" fill="var(--foreground)" />
    <rect x="90" y="6" width="3" height="1" fill="var(--foreground)" />
    <rect x="91" y="30" width="1" height="3" fill="var(--foreground)" />
    <rect x="92" y="3" width="1" height="1" fill="var(--foreground)" />
    <rect x="92" y="5" width="1" height="1" fill="var(--foreground)" />
    <rect x="92" y="7" width="1" height="1" fill="var(--foreground)" />
    <rect x="93" y="16" width="3" height="1" fill="var(--foreground)" />
    <rect x="93" y="17" width="1" height="3" fill="var(--foreground)" />
    <rect x="93" y="20" width="3" height="1" fill="var(--foreground)" />
    <rect x="93" y="32" width="1" height="1" fill="var(--foreground)" />
    <rect x="93" y="33" width="2" height="1" fill="var(--foreground)" />
    <rect x="94" y="4" width="1" height="1" fill="var(--foreground)" />
    <rect x="94" y="5" width="4" height="1" fill="var(--foreground)" />
    <rect x="94" y="6" width="1" height="1" fill="var(--foreground)" />
    <rect x="95" y="17" width="1" height="1" fill="var(--foreground)" />
    <rect x="95" y="19" width="1" height="1" fill="var(--foreground)" />
    <rect x="95" y="29" width="1" height="4" fill="var(--foreground)" />
    <rect x="96" y="3" width="1" height="1" fill="var(--foreground)" />
    <rect x="96" y="4" width="2" height="1" fill="var(--foreground)" />
    <rect x="96" y="6" width="2" height="2" fill="var(--foreground)" />
    <rect x="97" y="16" width="3" height="1" fill="var(--foreground)" />
    <rect x="97" y="29" width="3" height="1" fill="var(--foreground)" />
    <rect x="97" y="30" width="1" height="1" fill="var(--foreground)" />
    <rect x="97" y="31" width="3" height="1" fill="var(--foreground)" />
    <rect x="97" y="32" width="1" height="1" fill="var(--foreground)" />
    <rect x="97" y="33" width="3" height="1" fill="var(--foreground)" />
    <rect x="98" y="17" width="1" height="4" fill="var(--foreground)" />
    <rect x="99" y="4" width="22" height="4" fill="var(--foreground)" />
    <rect x="100" y="3" width="21" height="1" fill="var(--foreground)" />
    <rect x="101" y="29" width="3" height="1" fill="var(--foreground)" />
    <rect x="101" y="30" width="1" height="3" fill="var(--foreground)" />
    <rect x="101" y="33" width="3" height="1" fill="var(--foreground)" />
    <rect x="103" y="30" width="1" height="1" fill="var(--foreground)" />
    <rect x="103" y="32" width="1" height="1" fill="var(--foreground)" />
    <rect x="104" y="16" width="3" height="1" fill="var(--foreground)" />
    <rect x="104" y="17" width="1" height="1" fill="var(--foreground)" />
    <rect x="104" y="18" width="3" height="1" fill="var(--foreground)" />
    <rect x="104" y="19" width="1" height="2" fill="var(--foreground)" />
    <rect x="105" y="29" width="3" height="1" fill="var(--foreground)" />
    <rect x="106" y="17" width="1" height="1" fill="var(--foreground)" />
    <rect x="106" y="19" width="1" height="2" fill="var(--foreground)" />
    <rect x="106" y="30" width="1" height="4" fill="var(--foreground)" />
    <rect x="108" y="16" width="3" height="1" fill="var(--foreground)" />
    <rect x="108" y="17" width="1" height="1" fill="var(--foreground)" />
    <rect x="108" y="18" width="3" height="1" fill="var(--foreground)" />
    <rect x="108" y="20" width="3" height="1" fill="var(--foreground)" />
    <rect x="109" y="29" width="3" height="1" fill="var(--foreground)" />
    <rect x="109" y="30" width="1" height="1" fill="var(--foreground)" />
    <rect x="109" y="31" width="3" height="1" fill="var(--foreground)" />
    <rect x="109" y="33" width="3" height="1" fill="var(--foreground)" />
    <rect x="110" y="19" width="1" height="1" fill="var(--foreground)" />
    <rect x="111" y="32" width="1" height="1" fill="var(--foreground)" />
  </g>
</svg>