<svg viewBox="0 0 128 64" xmlns="http://www.w3.org/2000/svg" shape-rendering="crispEdges">
  <g id="pixels">
    <rect x="39" y="0" width="82" height="1" fill="var(--foreground)" shape-rendering="crispEdges" />
    <rect x="39" y="1" width="10" height="1" fill="var(--foreground)" shape-rendering="crispEdges" />
    <rect x="50" y="1" width="71" height="1" fill="var(--foreground)" shape-rendering="crispEdges" />
    <rect x="39" y="2" width="11" height="1" fill="var(--foreground)" shape-rendering="crispEdges" />
    <rect x="51" y="2" width="70" height="1" fill="var(--foreground)" shape-rendering="crispEdges" />
    <rect x="3" y="3" width="3" height="1" fill="var(--foreground)" shape-rendering="crispEdges" />
    <rect x="7" y="3" width="3" height="1" fill="var(--foreground)" shape-rendering="crispEdges" />
    <rect x="11" y="3" width="3" height="1" fill="var(--foreground)" shape-rendering="crispEdges" />
    <rect x="15" y="3" width="3" height="1" fill="var(--foreground)" shape-rendering="crispEdges" />
    <rect x="19" y="3" width="3" height="1" fill="var(--foreground)" shape-rendering="crispEdges" />
    <rect x="23" y="3" width="3" height="1" fill="var(--foreground)" shape-rendering="crispEdges" />
    <rect x="27" y="3" width="2" height="1" fill="var(--foreground)" shape-rendering="crispEdges" />
    <rect x="39" y="3" width="6" height="1" fill="var(--foreground)" shape-rendering="crispEdges" />
    <rect x="46" y="3" width="4" height="1" fill="var(--foreground)" shape-rendering="crispEdges" />
    <rect x="51" y="3" width="3" height="3" fill="var(--foreground)" shape-rendering="crispEdges" />
    <rect x="57" y="3" width="1" height="2" fill="var(--foreground)" shape-rendering="crispEdges" />
    <rect x="61" y="3" width="1" height="1" fill="var(--foreground)" shape-rendering="crispEdges" />
    <rect x="63" y="3" width="3" height="4" fill="var(--foreground)" shape-rendering="crispEdges" />
    <rect x="69" y="3" width="1" height="5" fill="var(--foreground)" shape-rendering="crispEdges" />
    <rect x="73" y="3" width="1" height="5" fill="var(--foreground)" shape-rendering="crispEdges" />
    <rect x="76" y="3" width="5" height="1" fill="var(--foreground)" shape-rendering="crispEdges" />
    <rect x="84" y="3" width="1" height="3" fill="var(--foreground)" shape-rendering="crispEdges" />
    <rect x="88" y="3" width="1" height="1" fill="var(--foreground)" shape-rendering="crispEdges" />
    <rect x="92" y="3" width="1" height="1" fill="var(--foreground)" shape-rendering="crispEdges" />
    <rect x="96" y="3" width="1" height="1" fill="var(--foreground)" shape-rendering="crispEdges" />
    <rect x="100" y="3" width="1" height="1" fill="var(--foreground)" shape-rendering="crispEdges" />
    <rect x="104" y="3" width="1" height="2" fill="var(--foreground)" shape-rendering="crispEdges" />
    <rect x="107" y="3" width="14" height="1" fill="var(--foreground)" shape-rendering="crispEdges" />
    <rect x="3" y="4" width="1" height="1" fill="var(--foreground)" shape-rendering="crispEdges" />
    <rect x="5" y="4" width="1" height="1" fill="var(--foreground)" shape-rendering="crispEdges" />
    <rect x="7" y="4" width="1" height="1" fill="var(--foreground)" shape-rendering="crispEdges" />
    <rect x="9" y="4" width="1" height="1" fill="var(--foreground)" shape-rendering="crispEdges" />
    <rect x="12" y="4" width="1" height="4" fill="var(--foreground)" shape-rendering="crispEdges" />
    <rect x="16" y="4" width="1" height="4" fill="var(--foreground)" shape-rendering="crispEdges" />
    <rect x="19" y="4" width="1" height="1" fill="var(--foreground)" shape-rendering="crispEdges" />
    <rect x="23" y="4" width="1" height="1" fill="var(--foreground)" shape-rendering="crispEdges" />
    <rect x="25" y="4" width="1" height="1" fill="var(--foreground)" shape-rendering="crispEdges" />
    <rect x="27" y="4" width="1" height="4" fill="var(--foreground)" shape-rendering="crispEdges" />
    <rect x="29" y="4" width="1" height="4" fill="var(--foreground)" shape-rendering="crispEdges" />
    <rect x="39" y="4" width="5" height="1" fill="var(--foreground)" shape-rendering="crispEdges" />
    <rect x="46" y="4" width="3" height="1" fill="var(--foreground)" shape-rendering="crispEdges" />
    <rect x="55" y="4" width="1" height="1" fill="var(--foreground)" shape-rendering="crispEdges" />
    <rect x="59" y="4" width="3" height="1" fill="var(--foreground)" shape-rendering="crispEdges" />
    <rect x="67" y="4" width="1" height="3" fill="var(--foreground)" shape-rendering="crispEdges" />
    <rect x="71" y="4" width="1" height="1" fill="var(--foreground)" shape-rendering="crispEdges" />
    <rect x="75" y="4" width="1" height="3" fill="var(--foreground)" shape-rendering="crispEdges" />
    <rect x="77" y="4" width="4" height="3" fill="var(--foreground)" shape-rendering="crispEdges" />
    <rect x="82" y="4" width="1" height="1" fill="var(--foreground)" shape-rendering="crispEdges" />
    <rect x="86" y="4" width="1" height="1" fill="var(--foreground)" shape-rendering="crispEdges" />
    <rect x="88" y="4" width="2" height="4" fill="var(--foreground)" shape-rendering="crispEdges" />
    <rect x="91" y="4" width="3" height="4" fill="var(--foreground)" shape-rendering="crispEdges" />
    <rect x="95" y="4" width="2" height="4" fill="var(--foreground)" shape-rendering="crispEdges" />
    <rect x="98" y="4" width="3" height="1" fill="var(--foreground)" shape-rendering="crispEdges" />
    <rect x="102" y="4" width="1" height="1" fill="var(--foreground)" shape-rendering="crispEdges" />
    <rect x="106" y="4" width="1" height="4" fill="var(--foreground)" shape-rendering="crispEdges" />
    <rect x="108" y="4" width="13" height="4" fill="var(--foreground)" shape-rendering="crispEdges" />
    <rect x="3" y="5" width="3" height="1" fill="var(--foreground)" shape-rendering="crispEdges" />
    <rect x="7" y="5" width="3" height="1" fill="var(--foreground)" shape-rendering="crispEdges" />
    <rect x="19" y="5" width="3" height="1" fill="var(--foreground)" shape-rendering="crispEdges" />
    <rect x="23" y="5" width="2" height="1" fill="var(--foreground)" shape-rendering="crispEdges" />
    <rect x="39" y="5" width="4" height="1" fill="var(--foreground)" shape-rendering="crispEdges" />
    <rect x="56" y="5" width="2" height="1" fill="var(--foreground)" shape-rendering="crispEdges" />
    <rect x="61" y="5" width="1" height="1" fill="var(--foreground)" shape-rendering="crispEdges" />
    <rect x="100" y="5" width="1" height="1" fill="var(--foreground)" shape-rendering="crispEdges" />
    <rect x="103" y="5" width="2" height="1" fill="var(--foreground)" shape-rendering="crispEdges" />
    <rect x="3" y="6" width="1" height="2" fill="var(--foreground)" shape-rendering="crispEdges" />
    <rect x="7" y="6" width="1" height="2" fill="var(--foreground)" shape-rendering="crispEdges" />
    <rect x="9" y="6" width="1" height="2" fill="var(--foreground)" shape-rendering="crispEdges" />
    <rect x="19" y="6" width="1" height="1" fill="var(--foreground)" shape-rendering="crispEdges" />
    <rect x="23" y="6" width="1" height="2" fill="var(--foreground)" shape-rendering="crispEdges" />
    <rect x="25" y="6" width="1" height="2" fill="var(--foreground)" shape-rendering="crispEdges" />
    <rect x="39" y="6" width="3" height="1" fill="var(--foreground)" shape-rendering="crispEdges" />
    <rect x="50" y="6" width="4" height="1" fill="var(--foreground)" shape-rendering="crispEdges" />
    <rect x="55" y="6" width="1" height="2" fill="var(--foreground)" shape-rendering="crispEdges" />
    <rect x="57" y="6" width="1" height="2" fill="var(--foreground)" shape-rendering="crispEdges" />
    <rect x="59" y="6" width="3" height="1" fill="var(--foreground)" shape-rendering="crispEdges" />
    <rect x="71" y="6" width="1" height="2" fill="var(--foreground)" shape-rendering="crispEdges" />
    <rect x="82" y="6" width="3" height="2" fill="var(--foreground)" shape-rendering="crispEdges" />
    <rect x="86" y="6" width="1" height="2" fill="var(--foreground)" shape-rendering="crispEdges" />
    <rect x="98" y="6" width="3" height="1" fill="var(--foreground)" shape-rendering="crispEdges" />
    <rect x="102" y="6" width="1" height="2" fill="var(--foreground)" shape-rendering="crispEdges" />
    <rect x="104" y="6" width="1" height="2" fill="var(--foreground)" shape-rendering="crispEdges" />
    <rect x="19" y="7" width="3" height="1" fill="var(--foreground)" shape-rendering="crispEdges" />
    <rect x="39" y="7" width="4" height="1" fill="var(--foreground)" shape-rendering="crispEdges" />
    <rect x="49" y="7" width="5" height="1" fill="var(--foreground)" shape-rendering="crispEdges" />
    <rect x="61" y="7" width="1" height="1" fill="var(--foreground)" shape-rendering="crispEdges" />
    <rect x="65" y="7" width="1" height="1" fill="var(--foreground)" shape-rendering="crispEdges" />
    <rect x="76" y="7" width="5" height="1" fill="var(--foreground)" shape-rendering="crispEdges" />
    <rect x="100" y="7" width="1" height="1" fill="var(--foreground)" shape-rendering="crispEdges" />
    <rect x="39" y="8" width="5" height="1" fill="var(--foreground)" shape-rendering="crispEdges" />
    <rect x="46" y="8" width="75" height="2" fill="var(--foreground)" shape-rendering="crispEdges" />
    <rect x="39" y="9" width="6" height="1" fill="var(--foreground)" shape-rendering="crispEdges" />
    <rect x="39" y="10" width="82" height="1" fill="var(--foreground)" shape-rendering="crispEdges" />
    <rect x="3" y="11" width="34" height="1" fill="var(--foreground)" shape-rendering="crispEdges" />
    <rect x="42" y="14" width="1" height="4" fill="var(--foreground)" shape-rendering="crispEdges" />
    <rect x="50" y="14" width="1" height="4" fill="var(--foreground)" shape-rendering="crispEdges" />
    <rect x="54" y="16" width="3" height="1" fill="var(--foreground)" shape-rendering="crispEdges" />
    <rect x="58" y="16" width="3" height="1" fill="var(--foreground)" shape-rendering="crispEdges" />
    <rect x="62" y="16" width="1" height="4" fill="var(--foreground)" shape-rendering="crispEdges" />
    <rect x="64" y="16" width="1" height="4" fill="var(--foreground)" shape-rendering="crispEdges" />
    <rect x="66" y="16" width="3" height="1" fill="var(--foreground)" shape-rendering="crispEdges" />
    <rect x="73" y="16" width="3" height="1" fill="var(--foreground)" shape-rendering="crispEdges" />
    <rect x="77" y="16" width="3" height="1" fill="var(--foreground)" shape-rendering="crispEdges" />
    <rect x="81" y="16" width="3" height="1" fill="var(--foreground)" shape-rendering="crispEdges" />
    <rect x="85" y="16" width="3" height="1" fill="var(--foreground)" shape-rendering="crispEdges" />
    <rect x="89" y="16" width="3" height="1" fill="var(--foreground)" shape-rendering="crispEdges" />
    <rect x="93" y="16" width="3" height="1" fill="var(--foreground)" shape-rendering="crispEdges" />
    <rect x="97" y="16" width="2" height="1" fill="var(--foreground)" shape-rendering="crispEdges" />
    <rect x="54" y="17" width="1" height="1" fill="var(--foreground)" shape-rendering="crispEdges" />
    <rect x="58" y="17" width="1" height="1" fill="var(--foreground)" shape-rendering="crispEdges" />
    <rect x="60" y="17" width="1" height="1" fill="var(--foreground)" shape-rendering="crispEdges" />
    <rect x="66" y="17" width="1" height="1" fill="var(--foreground)" shape-rendering="crispEdges" />
    <rect x="73" y="17" width="1" height="1" fill="var(--foreground)" shape-rendering="crispEdges" />
    <rect x="75" y="17" width="1" height="1" fill="var(--foreground)" shape-rendering="crispEdges" />
    <rect x="77" y="17" width="1" height="1" fill="var(--foreground)" shape-rendering="crispEdges" />
    <rect x="79" y="17" width="1" height="1" fill="var(--foreground)" shape-rendering="crispEdges" />
    <rect x="82" y="17" width="1" height="4" fill="var(--foreground)" shape-rendering="crispEdges" />
    <rect x="86" y="17" width="1" height="4" fill="var(--foreground)" shape-rendering="crispEdges" />
    <rect x="89" y="17" width="1" height="1" fill="var(--foreground)" shape-rendering="crispEdges" />
    <rect x="93" y="17" width="1" height="1" fill="var(--foreground)" shape-rendering="crispEdges" />
    <rect x="95" y="17" width="1" height="1" fill="var(--foreground)" shape-rendering="crispEdges" />
    <rect x="97" y="17" width="1" height="4" fill="var(--foreground)" shape-rendering="crispEdges" />
    <rect x="99" y="17" width="1" height="4" fill="var(--foreground)" shape-rendering="crispEdges" />
    <rect x="42" y="18" width="9" height="1" fill="var(--foreground)" shape-rendering="crispEdges" />
    <rect x="54" y="18" width="3" height="1" fill="var(--foreground)" shape-rendering="crispEdges" />
    <rect x="58" y="18" width="3" height="1" fill="var(--foreground)" shape-rendering="crispEdges" />
    <rect x="66" y="18" width="3" height="1" fill="var(--foreground)" shape-rendering="crispEdges" />
    <rect x="73" y="18" width="3" height="1" fill="var(--foreground)" shape-rendering="crispEdges" />
    <rect x="77" y="18" width="3" height="1" fill="var(--foreground)" shape-rendering="crispEdges" />
    <rect x="89" y="18" width="3" height="1" fill="var(--foreground)" shape-rendering="crispEdges" />
    <rect x="93" y="18" width="2" height="1" fill="var(--foreground)" shape-rendering="crispEdges" />
    <rect x="42" y="19" width="2" height="3" fill="var(--foreground)" shape-rendering="crispEdges" />
    <rect x="49" y="19" width="2" height="4" fill="var(--foreground)" shape-rendering="crispEdges" />
    <rect x="56" y="19" width="1" height="1" fill="var(--foreground)" shape-rendering="crispEdges" />
    <rect x="58" y="19" width="1" height="2" fill="var(--foreground)" shape-rendering="crispEdges" />
    <rect x="60" y="19" width="1" height="2" fill="var(--foreground)" shape-rendering="crispEdges" />
    <rect x="66" y="19" width="1" height="1" fill="var(--foreground)" shape-rendering="crispEdges" />
    <rect x="73" y="19" width="1" height="2" fill="var(--foreground)" shape-rendering="crispEdges" />
    <rect x="77" y="19" width="1" height="2" fill="var(--foreground)" shape-rendering="crispEdges" />
    <rect x="79" y="19" width="1" height="2" fill="var(--foreground)" shape-rendering="crispEdges" />
    <rect x="89" y="19" width="1" height="1" fill="var(--foreground)" shape-rendering="crispEdges" />
    <rect x="93" y="19" width="1" height="2" fill="var(--foreground)" shape-rendering="crispEdges" />
    <rect x="95" y="19" width="1" height="2" fill="var(--foreground)" shape-rendering="crispEdges" />
    <rect x="45" y="20" width="1" height="2" fill="var(--foreground)" shape-rendering="crispEdges" />
    <rect x="54" y="20" width="3" height="1" fill="var(--foreground)" shape-rendering="crispEdges" />
    <rect x="62" y="20" width="2" height="1" fill="var(--foreground)" shape-rendering="crispEdges" />
    <rect x="66" y="20" width="3" height="1" fill="var(--foreground)" shape-rendering="crispEdges" />
    <rect x="89" y="20" width="3" height="1" fill="var(--foreground)" shape-rendering="crispEdges" />
    <rect x="43" y="22" width="1" height="1" fill="var(--foreground)" shape-rendering="crispEdges" />
    <rect x="15" y="39" width="2" height="1" fill="var(--foreground)" shape-rendering="crispEdges" />
    <rect x="15" y="40" width="1" height="1" fill="var(--foreground)" shape-rendering="crispEdges" />
    <rect x="2" y="41" width="25" height="1" fill="var(--foreground)" shape-rendering="crispEdges" />
    <rect x="15" y="42" width="1" height="3" fill="var(--foreground)" shape-rendering="crispEdges" />
    <rect x="25" y="42" width="2" height="3" fill="var(--foreground)" shape-rendering="crispEdges" />
    <rect x="8" y="43" width="2" height="1" fill="var(--foreground)" shape-rendering="crispEdges" />
    <rect x="8" y="44" width="1" height="1" fill="var(--foreground)" shape-rendering="crispEdges" />
    <rect x="2" y="45" width="25" height="1" fill="var(--foreground)" shape-rendering="crispEdges" />
    <rect x="8" y="46" width="1" height="3" fill="var(--foreground)" shape-rendering="crispEdges" />
    <rect x="15" y="46" width="1" height="2" fill="var(--foreground)" shape-rendering="crispEdges" />
    <rect x="25" y="46" width="2" height="3" fill="var(--foreground)" shape-rendering="crispEdges" />
    <rect x="20" y="47" width="2" height="1" fill="var(--foreground)" shape-rendering="crispEdges" />
    <rect x="13" y="48" width="3" height="1" fill="var(--foreground)" shape-rendering="crispEdges" />
    <rect x="20" y="48" width="1" height="1" fill="var(--foreground)" shape-rendering="crispEdges" />
    <rect x="2" y="49" width="25" height="1" fill="var(--foreground)" shape-rendering="crispEdges" />
    <rect x="8" y="50" width="1" height="2" fill="var(--foreground)" shape-rendering="crispEdges" />
    <rect x="12" y="50" width="4" height="1" fill="var(--foreground)" shape-rendering="crispEdges" />
    <rect x="20" y="50" width="1" height="3" fill="var(--foreground)" shape-rendering="crispEdges" />
    <rect x="25" y="50" width="2" height="3" fill="var(--foreground)" shape-rendering="crispEdges" />
    <rect x="13" y="51" width="2" height="1" fill="var(--foreground)" shape-rendering="crispEdges" />
    <rect x="6" y="52" width="3" height="1" fill="var(--foreground)" shape-rendering="crispEdges" />
    <rect x="2" y="53" width="25" height="1" fill="var(--foreground)" shape-rendering="crispEdges" />
    <rect x="5" y="54" width="4" height="1" fill="var(--foreground)" shape-rendering="crispEdges" />
    <rect x="20" y="54" width="1" height="2" fill="var(--foreground)" shape-rendering="crispEdges" />
    <rect x="25" y="54" width="2" height="3" fill="var(--foreground)" shape-rendering="crispEdges" />
    <rect x="6" y="55" width="2" height="1" fill="var(--foreground)" shape-rendering="crispEdges" />
    <rect x="18" y="56" width="3" height="1" fill="var(--foreground)" shape-rendering="crispEdges" />
    <rect x="2" y="57" width="25" height="1" fill="var(--foreground)" shape-rendering="crispEdges" />
    <rect x="17" y="58" width="4" height="1" fill="var(--foreground)" shape-rendering="crispEdges" />
    <rect x="18" y="59" width="2" height="1" fill="var(--foreground)" shape-rendering="crispEdges" />
  </g>
</svg>