<svg viewBox="0 0 128 64" xmlns="http://www.w3.org/2000/svg" shape-rendering="crispEdges">
  <g id="pixels">
    <rect x="0" y="0" width="44" height="1" fill="var(--foreground)" shape-rendering="crispEdges" />
    <rect x="45" y="0" width="1" height="29" fill="var(--foreground)" shape-rendering="crispEdges" />
    <rect x="48" y="0" width="72" height="1" fill="var(--foreground)" shape-rendering="crispEdges" />
    <rect x="121" y="0" width="5" height="1" fill="var(--foreground)" shape-rendering="crispEdges" />
    <rect x="127" y="0" width="1" height="29" fill="var(--foreground)" shape-rendering="crispEdges" />
    <rect x="0" y="1" width="1" height="5" fill="var(--foreground)" shape-rendering="crispEdges" />
    <rect x="2" y="1" width="1" height="4" fill="var(--foreground)" shape-rendering="crispEdges" />
    <rect x="4" y="1" width="1" height="1" fill="var(--foreground)" shape-rendering="crispEdges" />
    <rect x="8" y="1" width="1" height="1" fill="var(--foreground)" shape-rendering="crispEdges" />
    <rect x="12" y="1" width="1" height="1" fill="var(--foreground)" shape-rendering="crispEdges" />
    <rect x="14" y="1" width="1" height="3" fill="var(--foreground)" shape-rendering="crispEdges" />
    <rect x="16" y="1" width="4" height="5" fill="var(--foreground)" shape-rendering="crispEdges" />
    <rect x="23" y="1" width="1" height="3" fill="var(--foreground)" shape-rendering="crispEdges" />
    <rect x="27" y="1" width="1" height="5" fill="var(--foreground)" shape-rendering="crispEdges" />
    <rect x="31" y="1" width="1" height="5" fill="var(--foreground)" shape-rendering="crispEdges" />
    <rect x="33" y="1" width="11" height="4" fill="var(--foreground)" shape-rendering="crispEdges" />
    <rect x="100" y="1" width="2" height="1" fill="var(--foreground)" shape-rendering="crispEdges" />
    <rect x="103" y="1" width="1" height="2" fill="var(--foreground)" shape-rendering="crispEdges" />
    <rect x="105" y="1" width="1" height="1" fill="var(--foreground)" shape-rendering="crispEdges" />
    <rect x="109" y="1" width="1" height="1" fill="var(--foreground)" shape-rendering="crispEdges" />
    <rect x="113" y="1" width="1" height="2" fill="var(--foreground)" shape-rendering="crispEdges" />
    <rect x="115" y="1" width="1" height="2" fill="var(--foreground)" shape-rendering="crispEdges" />
    <rect x="117" y="1" width="1" height="2" fill="var(--foreground)" shape-rendering="crispEdges" />
    <rect x="119" y="1" width="1" height="5" fill="var(--foreground)" shape-rendering="crispEdges" />
    <rect x="123" y="1" width="1" height="1" fill="var(--foreground)" shape-rendering="crispEdges" />
    <rect x="4" y="2" width="2" height="3" fill="var(--foreground)" shape-rendering="crispEdges" />
    <rect x="7" y="2" width="2" height="3" fill="var(--foreground)" shape-rendering="crispEdges" />
    <rect x="10" y="2" width="3" height="1" fill="var(--foreground)" shape-rendering="crispEdges" />
    <rect x="21" y="2" width="1" height="1" fill="var(--foreground)" shape-rendering="crispEdges" />
    <rect x="25" y="2" width="1" height="3" fill="var(--foreground)" shape-rendering="crispEdges" />
    <rect x="29" y="2" width="1" height="3" fill="var(--foreground)" shape-rendering="crispEdges" />
    <rect x="99" y="2" width="3" height="1" fill="var(--foreground)" shape-rendering="crispEdges" />
    <rect x="105" y="2" width="2" height="1" fill="var(--foreground)" shape-rendering="crispEdges" />
    <rect x="108" y="2" width="2" height="3" fill="var(--foreground)" shape-rendering="crispEdges" />
    <rect x="111" y="2" width="1" height="1" fill="var(--foreground)" shape-rendering="crispEdges" />
    <rect x="122" y="2" width="1" height="1" fill="var(--foreground)" shape-rendering="crispEdges" />
    <rect x="124" y="2" width="1" height="1" fill="var(--foreground)" shape-rendering="crispEdges" />
    <rect x="12" y="3" width="1" height="1" fill="var(--foreground)" shape-rendering="crispEdges" />
    <rect x="98" y="3" width="2" height="1" fill="var(--foreground)" shape-rendering="crispEdges" />
    <rect x="101" y="3" width="1" height="1" fill="var(--foreground)" shape-rendering="crispEdges" />
    <rect x="104" y="3" width="3" height="1" fill="var(--foreground)" shape-rendering="crispEdges" />
    <rect x="111" y="3" width="3" height="1" fill="var(--foreground)" shape-rendering="crispEdges" />
    <rect x="116" y="3" width="2" height="1" fill="var(--foreground)" shape-rendering="crispEdges" />
    <rect x="123" y="3" width="1" height="1" fill="var(--foreground)" shape-rendering="crispEdges" />
    <rect x="10" y="4" width="3" height="1" fill="var(--foreground)" shape-rendering="crispEdges" />
    <rect x="21" y="4" width="3" height="2" fill="var(--foreground)" shape-rendering="crispEdges" />
    <rect x="99" y="4" width="3" height="1" fill="var(--foreground)" shape-rendering="crispEdges" />
    <rect x="103" y="4" width="1" height="2" fill="var(--foreground)" shape-rendering="crispEdges" />
    <rect x="105" y="4" width="2" height="1" fill="var(--foreground)" shape-rendering="crispEdges" />
    <rect x="111" y="4" width="1" height="1" fill="var(--foreground)" shape-rendering="crispEdges" />
    <rect x="113" y="4" width="1" height="2" fill="var(--foreground)" shape-rendering="crispEdges" />
    <rect x="115" y="4" width="1" height="2" fill="var(--foreground)" shape-rendering="crispEdges" />
    <rect x="117" y="4" width="1" height="2" fill="var(--foreground)" shape-rendering="crispEdges" />
    <rect x="122" y="4" width="1" height="1" fill="var(--foreground)" shape-rendering="crispEdges" />
    <rect x="124" y="4" width="1" height="1" fill="var(--foreground)" shape-rendering="crispEdges" />
    <rect x="3" y="5" width="2" height="1" fill="var(--foreground)" shape-rendering="crispEdges" />
    <rect x="8" y="5" width="1" height="1" fill="var(--foreground)" shape-rendering="crispEdges" />
    <rect x="12" y="5" width="1" height="1" fill="var(--foreground)" shape-rendering="crispEdges" />
    <rect x="14" y="5" width="1" height="1" fill="var(--foreground)" shape-rendering="crispEdges" />
    <rect x="35" y="5" width="9" height="1" fill="var(--foreground)" shape-rendering="crispEdges" />
    <rect x="100" y="5" width="2" height="1" fill="var(--foreground)" shape-rendering="crispEdges" />
    <rect x="105" y="5" width="1" height="1" fill="var(--foreground)" shape-rendering="crispEdges" />
    <rect x="109" y="5" width="1" height="1" fill="var(--foreground)" shape-rendering="crispEdges" />
    <rect x="123" y="5" width="1" height="1" fill="var(--foreground)" shape-rendering="crispEdges" />
    <rect x="0" y="6" width="44" height="1" fill="var(--foreground)" shape-rendering="crispEdges" />
    <rect x="48" y="6" width="72" height="1" fill="var(--foreground)" shape-rendering="crispEdges" />
    <rect x="122" y="6" width="1" height="1" fill="var(--foreground)" shape-rendering="crispEdges" />
    <rect x="124" y="6" width="1" height="1" fill="var(--foreground)" shape-rendering="crispEdges" />
    <rect x="123" y="7" width="1" height="1" fill="var(--foreground)" shape-rendering="crispEdges" />
    <rect x="101" y="8" width="17" height="1" fill="var(--foreground)" shape-rendering="crispEdges" />
    <rect x="122" y="8" width="1" height="1" fill="var(--foreground)" shape-rendering="crispEdges" />
    <rect x="124" y="8" width="1" height="1" fill="var(--foreground)" shape-rendering="crispEdges" />
    <rect x="1" y="9" width="3" height="1" fill="var(--foreground)" shape-rendering="crispEdges" />
    <rect x="5" y="9" width="3" height="1" fill="var(--foreground)" shape-rendering="crispEdges" />
    <rect x="9" y="9" width="3" height="1" fill="var(--foreground)" shape-rendering="crispEdges" />
    <rect x="13" y="9" width="3" height="1" fill="var(--foreground)" shape-rendering="crispEdges" />
    <rect x="20" y="9" width="3" height="1" fill="var(--foreground)" shape-rendering="crispEdges" />
    <rect x="24" y="9" width="2" height="1" fill="var(--foreground)" shape-rendering="crispEdges" />
    <rect x="28" y="9" width="3" height="1" fill="var(--foreground)" shape-rendering="crispEdges" />
    <rect x="100" y="9" width="2" height="1" fill="var(--foreground)" shape-rendering="crispEdges" />
    <rect x="103" y="9" width="1" height="2" fill="var(--foreground)" shape-rendering="crispEdges" />
    <rect x="105" y="9" width="1" height="1" fill="var(--foreground)" shape-rendering="crispEdges" />
    <rect x="109" y="9" width="1" height="1" fill="var(--foreground)" shape-rendering="crispEdges" />
    <rect x="113" y="9" width="1" height="2" fill="var(--foreground)" shape-rendering="crispEdges" />
    <rect x="115" y="9" width="1" height="2" fill="var(--foreground)" shape-rendering="crispEdges" />
    <rect x="117" y="9" width="1" height="2" fill="var(--foreground)" shape-rendering="crispEdges" />
    <rect x="123" y="9" width="1" height="1" fill="var(--foreground)" shape-rendering="crispEdges" />
    <rect x="1" y="10" width="1" height="1" fill="var(--foreground)" shape-rendering="crispEdges" />
    <rect x="5" y="10" width="1" height="3" fill="var(--foreground)" shape-rendering="crispEdges" />
    <rect x="7" y="10" width="1" height="3" fill="var(--foreground)" shape-rendering="crispEdges" />
    <rect x="9" y="10" width="1" height="1" fill="var(--foreground)" shape-rendering="crispEdges" />
    <rect x="11" y="10" width="1" height="1" fill="var(--foreground)" shape-rendering="crispEdges" />
    <rect x="14" y="10" width="1" height="4" fill="var(--foreground)" shape-rendering="crispEdges" />
    <rect x="20" y="10" width="1" height="1" fill="var(--foreground)" shape-rendering="crispEdges" />
    <rect x="22" y="10" width="1" height="1" fill="var(--foreground)" shape-rendering="crispEdges" />
    <rect x="24" y="10" width="1" height="1" fill="var(--foreground)" shape-rendering="crispEdges" />
    <rect x="26" y="10" width="1" height="1" fill="var(--foreground)" shape-rendering="crispEdges" />
    <rect x="28" y="10" width="1" height="3" fill="var(--foreground)" shape-rendering="crispEdges" />
    <rect x="30" y="10" width="1" height="1" fill="var(--foreground)" shape-rendering="crispEdges" />
    <rect x="99" y="10" width="3" height="1" fill="var(--foreground)" shape-rendering="crispEdges" />
    <rect x="105" y="10" width="2" height="1" fill="var(--foreground)" shape-rendering="crispEdges" />
    <rect x="108" y="10" width="2" height="3" fill="var(--foreground)" shape-rendering="crispEdges" />
    <rect x="111" y="10" width="1" height="1" fill="var(--foreground)" shape-rendering="crispEdges" />
    <rect x="122" y="10" width="1" height="1" fill="var(--foreground)" shape-rendering="crispEdges" />
    <rect x="124" y="10" width="1" height="1" fill="var(--foreground)" shape-rendering="crispEdges" />
    <rect x="1" y="11" width="3" height="1" fill="var(--foreground)" shape-rendering="crispEdges" />
    <rect x="9" y="11" width="2" height="1" fill="var(--foreground)" shape-rendering="crispEdges" />
    <rect x="20" y="11" width="3" height="1" fill="var(--foreground)" shape-rendering="crispEdges" />
    <rect x="24" y="11" width="2" height="1" fill="var(--foreground)" shape-rendering="crispEdges" />
    <rect x="98" y="11" width="2" height="1" fill="var(--foreground)" shape-rendering="crispEdges" />
    <rect x="101" y="11" width="1" height="1" fill="var(--foreground)" shape-rendering="crispEdges" />
    <rect x="104" y="11" width="3" height="1" fill="var(--foreground)" shape-rendering="crispEdges" />
    <rect x="111" y="11" width="3" height="1" fill="var(--foreground)" shape-rendering="crispEdges" />
    <rect x="116" y="11" width="2" height="1" fill="var(--foreground)" shape-rendering="crispEdges" />
    <rect x="123" y="11" width="1" height="1" fill="var(--foreground)" shape-rendering="crispEdges" />
    <rect x="3" y="12" width="1" height="1" fill="var(--foreground)" shape-rendering="crispEdges" />
    <rect x="9" y="12" width="1" height="2" fill="var(--foreground)" shape-rendering="crispEdges" />
    <rect x="11" y="12" width="1" height="2" fill="var(--foreground)" shape-rendering="crispEdges" />
    <rect x="20" y="12" width="1" height="2" fill="var(--foreground)" shape-rendering="crispEdges" />
    <rect x="22" y="12" width="1" height="2" fill="var(--foreground)" shape-rendering="crispEdges" />
    <rect x="24" y="12" width="1" height="1" fill="var(--foreground)" shape-rendering="crispEdges" />
    <rect x="26" y="12" width="1" height="1" fill="var(--foreground)" shape-rendering="crispEdges" />
    <rect x="30" y="12" width="1" height="1" fill="var(--foreground)" shape-rendering="crispEdges" />
    <rect x="99" y="12" width="3" height="1" fill="var(--foreground)" shape-rendering="crispEdges" />
    <rect x="103" y="12" width="1" height="2" fill="var(--foreground)" shape-rendering="crispEdges" />
    <rect x="105" y="12" width="2" height="1" fill="var(--foreground)" shape-rendering="crispEdges" />
    <rect x="111" y="12" width="1" height="1" fill="var(--foreground)" shape-rendering="crispEdges" />
    <rect x="113" y="12" width="1" height="2" fill="var(--foreground)" shape-rendering="crispEdges" />
    <rect x="115" y="12" width="1" height="2" fill="var(--foreground)" shape-rendering="crispEdges" />
    <rect x="117" y="12" width="1" height="2" fill="var(--foreground)" shape-rendering="crispEdges" />
    <rect x="122" y="12" width="1" height="1" fill="var(--foreground)" shape-rendering="crispEdges" />
    <rect x="124" y="12" width="1" height="1" fill="var(--foreground)" shape-rendering="crispEdges" />
    <rect x="1" y="13" width="3" height="1" fill="var(--foreground)" shape-rendering="crispEdges" />
    <rect x="5" y="13" width="3" height="1" fill="var(--foreground)" shape-rendering="crispEdges" />
    <rect x="24" y="13" width="2" height="1" fill="var(--foreground)" shape-rendering="crispEdges" />
    <rect x="28" y="13" width="3" height="1" fill="var(--foreground)" shape-rendering="crispEdges" />
    <rect x="100" y="13" width="2" height="1" fill="var(--foreground)" shape-rendering="crispEdges" />
    <rect x="105" y="13" width="1" height="1" fill="var(--foreground)" shape-rendering="crispEdges" />
    <rect x="109" y="13" width="1" height="1" fill="var(--foreground)" shape-rendering="crispEdges" />
    <rect x="123" y="13" width="1" height="1" fill="var(--foreground)" shape-rendering="crispEdges" />
    <rect x="101" y="14" width="17" height="1" fill="var(--foreground)" shape-rendering="crispEdges" />
    <rect x="122" y="14" width="1" height="1" fill="var(--foreground)" shape-rendering="crispEdges" />
    <rect x="124" y="14" width="1" height="1" fill="var(--foreground)" shape-rendering="crispEdges" />
    <rect x="123" y="15" width="1" height="1" fill="var(--foreground)" shape-rendering="crispEdges" />
    <rect x="101" y="16" width="17" height="1" fill="var(--foreground)" shape-rendering="crispEdges" />
    <rect x="122" y="16" width="1" height="1" fill="var(--foreground)" shape-rendering="crispEdges" />
    <rect x="124" y="16" width="1" height="1" fill="var(--foreground)" shape-rendering="crispEdges" />
    <rect x="1" y="17" width="3" height="1" fill="var(--foreground)" shape-rendering="crispEdges" />
    <rect x="5" y="17" width="3" height="1" fill="var(--foreground)" shape-rendering="crispEdges" />
    <rect x="9" y="17" width="1" height="4" fill="var(--foreground)" shape-rendering="crispEdges" />
    <rect x="13" y="17" width="3" height="1" fill="var(--foreground)" shape-rendering="crispEdges" />
    <rect x="17" y="17" width="3" height="1" fill="var(--foreground)" shape-rendering="crispEdges" />
    <rect x="21" y="17" width="3" height="1" fill="var(--foreground)" shape-rendering="crispEdges" />
    <rect x="100" y="17" width="2" height="1" fill="var(--foreground)" shape-rendering="crispEdges" />
    <rect x="103" y="17" width="1" height="2" fill="var(--foreground)" shape-rendering="crispEdges" />
    <rect x="105" y="17" width="1" height="1" fill="var(--foreground)" shape-rendering="crispEdges" />
    <rect x="109" y="17" width="1" height="1" fill="var(--foreground)" shape-rendering="crispEdges" />
    <rect x="113" y="17" width="1" height="2" fill="var(--foreground)" shape-rendering="crispEdges" />
    <rect x="115" y="17" width="1" height="2" fill="var(--foreground)" shape-rendering="crispEdges" />
    <rect x="117" y="17" width="1" height="2" fill="var(--foreground)" shape-rendering="crispEdges" />
    <rect x="123" y="17" width="1" height="1" fill="var(--foreground)" shape-rendering="crispEdges" />
    <rect x="1" y="18" width="1" height="1" fill="var(--foreground)" shape-rendering="crispEdges" />
    <rect x="6" y="18" width="1" height="3" fill="var(--foreground)" shape-rendering="crispEdges" />
    <rect x="14" y="18" width="1" height="4" fill="var(--foreground)" shape-rendering="crispEdges" />
    <rect x="17" y="18" width="1" height="1" fill="var(--foreground)" shape-rendering="crispEdges" />
    <rect x="21" y="18" width="1" height="1" fill="var(--foreground)" shape-rendering="crispEdges" />
    <rect x="23" y="18" width="1" height="1" fill="var(--foreground)" shape-rendering="crispEdges" />
    <rect x="99" y="18" width="3" height="1" fill="var(--foreground)" shape-rendering="crispEdges" />
    <rect x="105" y="18" width="2" height="1" fill="var(--foreground)" shape-rendering="crispEdges" />
    <rect x="108" y="18" width="2" height="3" fill="var(--foreground)" shape-rendering="crispEdges" />
    <rect x="111" y="18" width="1" height="1" fill="var(--foreground)" shape-rendering="crispEdges" />
    <rect x="122" y="18" width="1" height="1" fill="var(--foreground)" shape-rendering="crispEdges" />
    <rect x="124" y="18" width="1" height="1" fill="var(--foreground)" shape-rendering="crispEdges" />
    <rect x="1" y="19" width="3" height="1" fill="var(--foreground)" shape-rendering="crispEdges" />
    <rect x="17" y="19" width="3" height="1" fill="var(--foreground)" shape-rendering="crispEdges" />
    <rect x="21" y="19" width="2" height="1" fill="var(--foreground)" shape-rendering="crispEdges" />
    <rect x="98" y="19" width="2" height="1" fill="var(--foreground)" shape-rendering="crispEdges" />
    <rect x="101" y="19" width="1" height="1" fill="var(--foreground)" shape-rendering="crispEdges" />
    <rect x="104" y="19" width="3" height="1" fill="var(--foreground)" shape-rendering="crispEdges" />
    <rect x="111" y="19" width="3" height="1" fill="var(--foreground)" shape-rendering="crispEdges" />
    <rect x="116" y="19" width="2" height="1" fill="var(--foreground)" shape-rendering="crispEdges" />
    <rect x="123" y="19" width="1" height="1" fill="var(--foreground)" shape-rendering="crispEdges" />
    <rect x="1" y="20" width="1" height="2" fill="var(--foreground)" shape-rendering="crispEdges" />
    <rect x="17" y="20" width="1" height="1" fill="var(--foreground)" shape-rendering="crispEdges" />
    <rect x="21" y="20" width="1" height="2" fill="var(--foreground)" shape-rendering="crispEdges" />
    <rect x="23" y="20" width="1" height="2" fill="var(--foreground)" shape-rendering="crispEdges" />
    <rect x="99" y="20" width="3" height="1" fill="var(--foreground)" shape-rendering="crispEdges" />
    <rect x="103" y="20" width="1" height="2" fill="var(--foreground)" shape-rendering="crispEdges" />
    <rect x="105" y="20" width="2" height="1" fill="var(--foreground)" shape-rendering="crispEdges" />
    <rect x="111" y="20" width="1" height="1" fill="var(--foreground)" shape-rendering="crispEdges" />
    <rect x="113" y="20" width="1" height="2" fill="var(--foreground)" shape-rendering="crispEdges" />
    <rect x="115" y="20" width="1" height="2" fill="var(--foreground)" shape-rendering="crispEdges" />
    <rect x="117" y="20" width="1" height="2" fill="var(--foreground)" shape-rendering="crispEdges" />
    <rect x="122" y="20" width="1" height="1" fill="var(--foreground)" shape-rendering="crispEdges" />
    <rect x="124" y="20" width="1" height="1" fill="var(--foreground)" shape-rendering="crispEdges" />
    <rect x="5" y="21" width="3" height="1" fill="var(--foreground)" shape-rendering="crispEdges" />
    <rect x="9" y="21" width="3" height="1" fill="var(--foreground)" shape-rendering="crispEdges" />
    <rect x="17" y="21" width="3" height="1" fill="var(--foreground)" shape-rendering="crispEdges" />
    <rect x="100" y="21" width="2" height="1" fill="var(--foreground)" shape-rendering="crispEdges" />
    <rect x="105" y="21" width="1" height="1" fill="var(--foreground)" shape-rendering="crispEdges" />
    <rect x="109" y="21" width="1" height="1" fill="var(--foreground)" shape-rendering="crispEdges" />
    <rect x="123" y="21" width="1" height="1" fill="var(--foreground)" shape-rendering="crispEdges" />
    <rect x="101" y="22" width="17" height="1" fill="var(--foreground)" shape-rendering="crispEdges" />
    <rect x="122" y="22" width="1" height="1" fill="var(--foreground)" shape-rendering="crispEdges" />
    <rect x="124" y="22" width="1" height="1" fill="var(--foreground)" shape-rendering="crispEdges" />
    <rect x="123" y="23" width="1" height="1" fill="var(--foreground)" shape-rendering="crispEdges" />
    <rect x="101" y="24" width="17" height="1" fill="var(--foreground)" shape-rendering="crispEdges" />
    <rect x="122" y="24" width="1" height="1" fill="var(--foreground)" shape-rendering="crispEdges" />
    <rect x="124" y="24" width="1" height="1" fill="var(--foreground)" shape-rendering="crispEdges" />
    <rect x="1" y="25" width="3" height="1" fill="var(--foreground)" shape-rendering="crispEdges" />
    <rect x="5" y="25" width="3" height="1" fill="var(--foreground)" shape-rendering="crispEdges" />
    <rect x="9" y="25" width="3" height="1" fill="var(--foreground)" shape-rendering="crispEdges" />
    <rect x="13" y="25" width="3" height="1" fill="var(--foreground)" shape-rendering="crispEdges" />
    <rect x="17" y="25" width="3" height="1" fill="var(--foreground)" shape-rendering="crispEdges" />
    <rect x="21" y="25" width="1" height="2" fill="var(--foreground)" shape-rendering="crispEdges" />
    <rect x="23" y="25" width="1" height="2" fill="var(--foreground)" shape-rendering="crispEdges" />
    <rect x="100" y="25" width="2" height="1" fill="var(--foreground)" shape-rendering="crispEdges" />
    <rect x="103" y="25" width="1" height="2" fill="var(--foreground)" shape-rendering="crispEdges" />
    <rect x="105" y="25" width="1" height="1" fill="var(--foreground)" shape-rendering="crispEdges" />
    <rect x="109" y="25" width="1" height="1" fill="var(--foreground)" shape-rendering="crispEdges" />
    <rect x="113" y="25" width="1" height="2" fill="var(--foreground)" shape-rendering="crispEdges" />
    <rect x="115" y="25" width="1" height="2" fill="var(--foreground)" shape-rendering="crispEdges" />
    <rect x="117" y="25" width="1" height="2" fill="var(--foreground)" shape-rendering="crispEdges" />
    <rect x="123" y="25" width="1" height="1" fill="var(--foreground)" shape-rendering="crispEdges" />
    <rect x="1" y="26" width="1" height="1" fill="var(--foreground)" shape-rendering="crispEdges" />
    <rect x="5" y="26" width="1" height="1" fill="var(--foreground)" shape-rendering="crispEdges" />
    <rect x="9" y="26" width="1" height="1" fill="var(--foreground)" shape-rendering="crispEdges" />
    <rect x="11" y="26" width="1" height="1" fill="var(--foreground)" shape-rendering="crispEdges" />
    <rect x="13" y="26" width="1" height="1" fill="var(--foreground)" shape-rendering="crispEdges" />
    <rect x="15" y="26" width="1" height="1" fill="var(--foreground)" shape-rendering="crispEdges" />
    <rect x="17" y="26" width="1" height="3" fill="var(--foreground)" shape-rendering="crispEdges" />
    <rect x="19" y="26" width="1" height="1" fill="var(--foreground)" shape-rendering="crispEdges" />
    <rect x="99" y="26" width="3" height="1" fill="var(--foreground)" shape-rendering="crispEdges" />
    <rect x="105" y="26" width="2" height="1" fill="var(--foreground)" shape-rendering="crispEdges" />
    <rect x="108" y="26" width="2" height="3" fill="var(--foreground)" shape-rendering="crispEdges" />
    <rect x="111" y="26" width="1" height="1" fill="var(--foreground)" shape-rendering="crispEdges" />
    <rect x="122" y="26" width="1" height="1" fill="var(--foreground)" shape-rendering="crispEdges" />
    <rect x="124" y="26" width="1" height="1" fill="var(--foreground)" shape-rendering="crispEdges" />
    <rect x="1" y="27" width="3" height="1" fill="var(--foreground)" shape-rendering="crispEdges" />
    <rect x="5" y="27" width="3" height="1" fill="var(--foreground)" shape-rendering="crispEdges" />
    <rect x="9" y="27" width="3" height="1" fill="var(--foreground)" shape-rendering="crispEdges" />
    <rect x="13" y="27" width="2" height="1" fill="var(--foreground)" shape-rendering="crispEdges" />
    <rect x="21" y="27" width="3" height="1" fill="var(--foreground)" shape-rendering="crispEdges" />
    <rect x="98" y="27" width="2" height="1" fill="var(--foreground)" shape-rendering="crispEdges" />
    <rect x="101" y="27" width="1" height="1" fill="var(--foreground)" shape-rendering="crispEdges" />
    <rect x="104" y="27" width="3" height="1" fill="var(--foreground)" shape-rendering="crispEdges" />
    <rect x="111" y="27" width="3" height="1" fill="var(--foreground)" shape-rendering="crispEdges" />
    <rect x="116" y="27" width="2" height="1" fill="var(--foreground)" shape-rendering="crispEdges" />
    <rect x="123" y="27" width="1" height="1" fill="var(--foreground)" shape-rendering="crispEdges" />
    <rect x="3" y="28" width="1" height="1" fill="var(--foreground)" shape-rendering="crispEdges" />
    <rect x="5" y="28" width="1" height="1" fill="var(--foreground)" shape-rendering="crispEdges" />
    <rect x="9" y="28" width="1" height="2" fill="var(--foreground)" shape-rendering="crispEdges" />
    <rect x="11" y="28" width="1" height="2" fill="var(--foreground)" shape-rendering="crispEdges" />
    <rect x="13" y="28" width="1" height="2" fill="var(--foreground)" shape-rendering="crispEdges" />
    <rect x="15" y="28" width="1" height="2" fill="var(--foreground)" shape-rendering="crispEdges" />
    <rect x="19" y="28" width="1" height="1" fill="var(--foreground)" shape-rendering="crispEdges" />
    <rect x="21" y="28" width="1" height="2" fill="var(--foreground)" shape-rendering="crispEdges" />
    <rect x="23" y="28" width="1" height="2" fill="var(--foreground)" shape-rendering="crispEdges" />
    <rect x="99" y="28" width="3" height="1" fill="var(--foreground)" shape-rendering="crispEdges" />
    <rect x="103" y="28" width="1" height="2" fill="var(--foreground)" shape-rendering="crispEdges" />
    <rect x="105" y="28" width="2" height="1" fill="var(--foreground)" shape-rendering="crispEdges" />
    <rect x="111" y="28" width="1" height="1" fill="var(--foreground)" shape-rendering="crispEdges" />
    <rect x="113" y="28" width="1" height="2" fill="var(--foreground)" shape-rendering="crispEdges" />
    <rect x="115" y="28" width="1" height="2" fill="var(--foreground)" shape-rendering="crispEdges" />
    <rect x="117" y="28" width="1" height="2" fill="var(--foreground)" shape-rendering="crispEdges" />
    <rect x="122" y="28" width="1" height="1" fill="var(--foreground)" shape-rendering="crispEdges" />
    <rect x="124" y="28" width="1" height="1" fill="var(--foreground)" shape-rendering="crispEdges" />
    <rect x="1" y="29" width="3" height="1" fill="var(--foreground)" shape-rendering="crispEdges" />
    <rect x="5" y="29" width="3" height="1" fill="var(--foreground)" shape-rendering="crispEdges" />
    <rect x="17" y="29" width="3" height="1" fill="var(--foreground)" shape-rendering="crispEdges" />
    <rect x="100" y="29" width="2" height="1" fill="var(--foreground)" shape-rendering="crispEdges" />
    <rect x="105" y="29" width="1" height="1" fill="var(--foreground)" shape-rendering="crispEdges" />
    <rect x="109" y="29" width="1" height="1" fill="var(--foreground)" shape-rendering="crispEdges" />
    <rect x="123" y="29" width="1" height="1" fill="var(--foreground)" shape-rendering="crispEdges" />
    <rect x="45" y="30" width="1" height="1" fill="var(--foreground)" shape-rendering="crispEdges" />
    <rect x="101" y="30" width="17" height="1" fill="var(--foreground)" shape-rendering="crispEdges" />
    <rect x="122" y="30" width="1" height="1" fill="var(--foreground)" shape-rendering="crispEdges" />
    <rect x="124" y="30" width="1" height="1" fill="var(--foreground)" shape-rendering="crispEdges" />
    <rect x="126" y="30" width="1" height="1" fill="var(--foreground)" shape-rendering="crispEdges" />
    <rect x="45" y="31" width="2" height="1" fill="var(--foreground)" shape-rendering="crispEdges" />
    <rect x="123" y="31" width="1" height="1" fill="var(--foreground)" shape-rendering="crispEdges" />
    <rect x="126" y="31" width="2" height="1" fill="var(--foreground)" shape-rendering="crispEdges" />
    <rect x="45" y="32" width="1" height="1" fill="var(--foreground)" shape-rendering="crispEdges" />
    <rect x="101" y="32" width="17" height="1" fill="var(--foreground)" shape-rendering="crispEdges" />
    <rect x="122" y="32" width="1" height="1" fill="var(--foreground)" shape-rendering="crispEdges" />
    <rect x="124" y="32" width="1" height="1" fill="var(--foreground)" shape-rendering="crispEdges" />
    <rect x="126" y="32" width="1" height="1" fill="var(--foreground)" shape-rendering="crispEdges" />
    <rect x="100" y="33" width="2" height="1" fill="var(--foreground)" shape-rendering="crispEdges" />
    <rect x="103" y="33" width="1" height="2" fill="var(--foreground)" shape-rendering="crispEdges" />
    <rect x="105" y="33" width="1" height="1" fill="var(--foreground)" shape-rendering="crispEdges" />
    <rect x="109" y="33" width="1" height="1" fill="var(--foreground)" shape-rendering="crispEdges" />
    <rect x="113" y="33" width="1" height="2" fill="var(--foreground)" shape-rendering="crispEdges" />
    <rect x="115" y="33" width="1" height="2" fill="var(--foreground)" shape-rendering="crispEdges" />
    <rect x="117" y="33" width="1" height="2" fill="var(--foreground)" shape-rendering="crispEdges" />
    <rect x="123" y="33" width="1" height="1" fill="var(--foreground)" shape-rendering="crispEdges" />
    <rect x="45" y="34" width="1" height="30" fill="var(--foreground)" shape-rendering="crispEdges" />
    <rect x="99" y="34" width="3" height="1" fill="var(--foreground)" shape-rendering="crispEdges" />
    <rect x="105" y="34" width="2" height="1" fill="var(--foreground)" shape-rendering="crispEdges" />
    <rect x="108" y="34" width="2" height="3" fill="var(--foreground)" shape-rendering="crispEdges" />
    <rect x="111" y="34" width="1" height="1" fill="var(--foreground)" shape-rendering="crispEdges" />
    <rect x="122" y="34" width="1" height="1" fill="var(--foreground)" shape-rendering="crispEdges" />
    <rect x="124" y="34" width="1" height="1" fill="var(--foreground)" shape-rendering="crispEdges" />
    <rect x="127" y="34" width="1" height="30" fill="var(--foreground)" shape-rendering="crispEdges" />
    <rect x="98" y="35" width="2" height="1" fill="var(--foreground)" shape-rendering="crispEdges" />
    <rect x="101" y="35" width="1" height="1" fill="var(--foreground)" shape-rendering="crispEdges" />
    <rect x="104" y="35" width="3" height="1" fill="var(--foreground)" shape-rendering="crispEdges" />
    <rect x="111" y="35" width="3" height="1" fill="var(--foreground)" shape-rendering="crispEdges" />
    <rect x="116" y="35" width="2" height="1" fill="var(--foreground)" shape-rendering="crispEdges" />
    <rect x="123" y="35" width="1" height="1" fill="var(--foreground)" shape-rendering="crispEdges" />
    <rect x="99" y="36" width="3" height="1" fill="var(--foreground)" shape-rendering="crispEdges" />
    <rect x="103" y="36" width="1" height="2" fill="var(--foreground)" shape-rendering="crispEdges" />
    <rect x="105" y="36" width="2" height="1" fill="var(--foreground)" shape-rendering="crispEdges" />
    <rect x="111" y="36" width="1" height="1" fill="var(--foreground)" shape-rendering="crispEdges" />
    <rect x="113" y="36" width="1" height="2" fill="var(--foreground)" shape-rendering="crispEdges" />
    <rect x="115" y="36" width="1" height="2" fill="var(--foreground)" shape-rendering="crispEdges" />
    <rect x="117" y="36" width="1" height="2" fill="var(--foreground)" shape-rendering="crispEdges" />
    <rect x="122" y="36" width="1" height="1" fill="var(--foreground)" shape-rendering="crispEdges" />
    <rect x="124" y="36" width="1" height="1" fill="var(--foreground)" shape-rendering="crispEdges" />
    <rect x="100" y="37" width="2" height="1" fill="var(--foreground)" shape-rendering="crispEdges" />
    <rect x="105" y="37" width="1" height="1" fill="var(--foreground)" shape-rendering="crispEdges" />
    <rect x="109" y="37" width="1" height="1" fill="var(--foreground)" shape-rendering="crispEdges" />
    <rect x="123" y="37" width="1" height="1" fill="var(--foreground)" shape-rendering="crispEdges" />
    <rect x="101" y="38" width="17" height="1" fill="var(--foreground)" shape-rendering="crispEdges" />
    <rect x="122" y="38" width="1" height="1" fill="var(--foreground)" shape-rendering="crispEdges" />
    <rect x="124" y="38" width="1" height="1" fill="var(--foreground)" shape-rendering="crispEdges" />
    <rect x="123" y="39" width="1" height="1" fill="var(--foreground)" shape-rendering="crispEdges" />
    <rect x="101" y="40" width="17" height="1" fill="var(--foreground)" shape-rendering="crispEdges" />
    <rect x="122" y="40" width="1" height="1" fill="var(--foreground)" shape-rendering="crispEdges" />
    <rect x="124" y="40" width="1" height="1" fill="var(--foreground)" shape-rendering="crispEdges" />
    <rect x="100" y="41" width="2" height="1" fill="var(--foreground)" shape-rendering="crispEdges" />
    <rect x="103" y="41" width="1" height="2" fill="var(--foreground)" shape-rendering="crispEdges" />
    <rect x="105" y="41" width="1" height="1" fill="var(--foreground)" shape-rendering="crispEdges" />
    <rect x="109" y="41" width="1" height="1" fill="var(--foreground)" shape-rendering="crispEdges" />
    <rect x="113" y="41" width="1" height="2" fill="var(--foreground)" shape-rendering="crispEdges" />
    <rect x="115" y="41" width="1" height="2" fill="var(--foreground)" shape-rendering="crispEdges" />
    <rect x="117" y="41" width="1" height="2" fill="var(--foreground)" shape-rendering="crispEdges" />
    <rect x="123" y="41" width="1" height="1" fill="var(--foreground)" shape-rendering="crispEdges" />
    <rect x="99" y="42" width="3" height="1" fill="var(--foreground)" shape-rendering="crispEdges" />
    <rect x="105" y="42" width="2" height="1" fill="var(--foreground)" shape-rendering="crispEdges" />
    <rect x="108" y="42" width="2" height="3" fill="var(--foreground)" shape-rendering="crispEdges" />
    <rect x="111" y="42" width="1" height="1" fill="var(--foreground)" shape-rendering="crispEdges" />
    <rect x="122" y="42" width="1" height="1" fill="var(--foreground)" shape-rendering="crispEdges" />
    <rect x="124" y="42" width="1" height="1" fill="var(--foreground)" shape-rendering="crispEdges" />
    <rect x="98" y="43" width="2" height="1" fill="var(--foreground)" shape-rendering="crispEdges" />
    <rect x="101" y="43" width="1" height="1" fill="var(--foreground)" shape-rendering="crispEdges" />
    <rect x="104" y="43" width="3" height="1" fill="var(--foreground)" shape-rendering="crispEdges" />
    <rect x="111" y="43" width="3" height="1" fill="var(--foreground)" shape-rendering="crispEdges" />
    <rect x="116" y="43" width="2" height="1" fill="var(--foreground)" shape-rendering="crispEdges" />
    <rect x="123" y="43" width="1" height="1" fill="var(--foreground)" shape-rendering="crispEdges" />
    <rect x="99" y="44" width="3" height="1" fill="var(--foreground)" shape-rendering="crispEdges" />
    <rect x="103" y="44" width="1" height="2" fill="var(--foreground)" shape-rendering="crispEdges" />
    <rect x="105" y="44" width="2" height="1" fill="var(--foreground)" shape-rendering="crispEdges" />
    <rect x="111" y="44" width="1" height="1" fill="var(--foreground)" shape-rendering="crispEdges" />
    <rect x="113" y="44" width="1" height="2" fill="var(--foreground)" shape-rendering="crispEdges" />
    <rect x="115" y="44" width="1" height="2" fill="var(--foreground)" shape-rendering="crispEdges" />
    <rect x="117" y="44" width="1" height="2" fill="var(--foreground)" shape-rendering="crispEdges" />
    <rect x="122" y="44" width="1" height="1" fill="var(--foreground)" shape-rendering="crispEdges" />
    <rect x="124" y="44" width="1" height="1" fill="var(--foreground)" shape-rendering="crispEdges" />
    <rect x="100" y="45" width="2" height="1" fill="var(--foreground)" shape-rendering="crispEdges" />
    <rect x="105" y="45" width="1" height="1" fill="var(--foreground)" shape-rendering="crispEdges" />
    <rect x="109" y="45" width="1" height="1" fill="var(--foreground)" shape-rendering="crispEdges" />
    <rect x="123" y="45" width="1" height="1" fill="var(--foreground)" shape-rendering="crispEdges" />
    <rect x="101" y="46" width="17" height="1" fill="var(--foreground)" shape-rendering="crispEdges" />
    <rect x="122" y="46" width="1" height="1" fill="var(--foreground)" shape-rendering="crispEdges" />
    <rect x="124" y="46" width="1" height="1" fill="var(--foreground)" shape-rendering="crispEdges" />
    <rect x="123" y="47" width="1" height="1" fill="var(--foreground)" shape-rendering="crispEdges" />
    <rect x="101" y="48" width="17" height="1" fill="var(--foreground)" shape-rendering="crispEdges" />
    <rect x="122" y="48" width="1" height="1" fill="var(--foreground)" shape-rendering="crispEdges" />
    <rect x="124" y="48" width="1" height="1" fill="var(--foreground)" shape-rendering="crispEdges" />
    <rect x="48" y="49" width="2" height="1" fill="var(--foreground)" shape-rendering="crispEdges" />
    <rect x="100" y="49" width="2" height="1" fill="var(--foreground)" shape-rendering="crispEdges" />
    <rect x="103" y="49" width="1" height="2" fill="var(--foreground)" shape-rendering="crispEdges" />
    <rect x="105" y="49" width="1" height="1" fill="var(--foreground)" shape-rendering="crispEdges" />
    <rect x="109" y="49" width="1" height="1" fill="var(--foreground)" shape-rendering="crispEdges" />
    <rect x="113" y="49" width="1" height="2" fill="var(--foreground)" shape-rendering="crispEdges" />
    <rect x="115" y="49" width="1" height="2" fill="var(--foreground)" shape-rendering="crispEdges" />
    <rect x="117" y="49" width="1" height="2" fill="var(--foreground)" shape-rendering="crispEdges" />
    <rect x="123" y="49" width="1" height="1" fill="var(--foreground)" shape-rendering="crispEdges" />
    <rect x="99" y="50" width="3" height="1" fill="var(--foreground)" shape-rendering="crispEdges" />
    <rect x="105" y="50" width="2" height="1" fill="var(--foreground)" shape-rendering="crispEdges" />
    <rect x="108" y="50" width="2" height="3" fill="var(--foreground)" shape-rendering="crispEdges" />
    <rect x="111" y="50" width="1" height="1" fill="var(--foreground)" shape-rendering="crispEdges" />
    <rect x="122" y="50" width="1" height="1" fill="var(--foreground)" shape-rendering="crispEdges" />
    <rect x="124" y="50" width="1" height="1" fill="var(--foreground)" shape-rendering="crispEdges" />
    <rect x="48" y="51" width="2" height="1" fill="var(--foreground)" shape-rendering="crispEdges" />
    <rect x="98" y="51" width="2" height="1" fill="var(--foreground)" shape-rendering="crispEdges" />
    <rect x="101" y="51" width="1" height="1" fill="var(--foreground)" shape-rendering="crispEdges" />
    <rect x="104" y="51" width="3" height="1" fill="var(--foreground)" shape-rendering="crispEdges" />
    <rect x="111" y="51" width="3" height="1" fill="var(--foreground)" shape-rendering="crispEdges" />
    <rect x="116" y="51" width="2" height="1" fill="var(--foreground)" shape-rendering="crispEdges" />
    <rect x="123" y="51" width="1" height="1" fill="var(--foreground)" shape-rendering="crispEdges" />
    <rect x="99" y="52" width="3" height="1" fill="var(--foreground)" shape-rendering="crispEdges" />
    <rect x="103" y="52" width="1" height="2" fill="var(--foreground)" shape-rendering="crispEdges" />
    <rect x="105" y="52" width="2" height="1" fill="var(--foreground)" shape-rendering="crispEdges" />
    <rect x="111" y="52" width="1" height="1" fill="var(--foreground)" shape-rendering="crispEdges" />
    <rect x="113" y="52" width="1" height="2" fill="var(--foreground)" shape-rendering="crispEdges" />
    <rect x="115" y="52" width="1" height="2" fill="var(--foreground)" shape-rendering="crispEdges" />
    <rect x="117" y="52" width="1" height="2" fill="var(--foreground)" shape-rendering="crispEdges" />
    <rect x="122" y="52" width="1" height="1" fill="var(--foreground)" shape-rendering="crispEdges" />
    <rect x="124" y="52" width="1" height="1" fill="var(--foreground)" shape-rendering="crispEdges" />
    <rect x="48" y="53" width="2" height="1" fill="var(--foreground)" shape-rendering="crispEdges" />
    <rect x="100" y="53" width="2" height="1" fill="var(--foreground)" shape-rendering="crispEdges" />
    <rect x="105" y="53" width="1" height="1" fill="var(--foreground)" shape-rendering="crispEdges" />
    <rect x="109" y="53" width="1" height="1" fill="var(--foreground)" shape-rendering="crispEdges" />
    <rect x="123" y="53" width="1" height="1" fill="var(--foreground)" shape-rendering="crispEdges" />
    <rect x="101" y="54" width="17" height="1" fill="var(--foreground)" shape-rendering="crispEdges" />
    <rect x="122" y="54" width="1" height="1" fill="var(--foreground)" shape-rendering="crispEdges" />
    <rect x="124" y="54" width="1" height="1" fill="var(--foreground)" shape-rendering="crispEdges" />
    <rect x="123" y="55" width="1" height="1" fill="var(--foreground)" shape-rendering="crispEdges" />
    <rect x="101" y="56" width="17" height="1" fill="var(--foreground)" shape-rendering="crispEdges" />
    <rect x="122" y="56" width="1" height="1" fill="var(--foreground)" shape-rendering="crispEdges" />
    <rect x="124" y="56" width="1" height="1" fill="var(--foreground)" shape-rendering="crispEdges" />
    <rect x="48" y="57" width="2" height="1" fill="var(--foreground)" shape-rendering="crispEdges" />
    <rect x="100" y="57" width="2" height="1" fill="var(--foreground)" shape-rendering="crispEdges" />
    <rect x="103" y="57" width="1" height="2" fill="var(--foreground)" shape-rendering="crispEdges" />
    <rect x="105" y="57" width="1" height="1" fill="var(--foreground)" shape-rendering="crispEdges" />
    <rect x="109" y="57" width="1" height="1" fill="var(--foreground)" shape-rendering="crispEdges" />
    <rect x="113" y="57" width="1" height="2" fill="var(--foreground)" shape-rendering="crispEdges" />
    <rect x="115" y="57" width="1" height="2" fill="var(--foreground)" shape-rendering="crispEdges" />
    <rect x="117" y="57" width="1" height="2" fill="var(--foreground)" shape-rendering="crispEdges" />
    <rect x="123" y="57" width="1" height="1" fill="var(--foreground)" shape-rendering="crispEdges" />
    <rect x="49" y="58" width="1" height="3" fill="var(--foreground)" shape-rendering="crispEdges" />
    <rect x="99" y="58" width="3" height="1" fill="var(--foreground)" shape-rendering="crispEdges" />
    <rect x="105" y="58" width="2" height="1" fill="var(--foreground)" shape-rendering="crispEdges" />
    <rect x="108" y="58" width="2" height="3" fill="var(--foreground)" shape-rendering="crispEdges" />
    <rect x="111" y="58" width="1" height="1" fill="var(--foreground)" shape-rendering="crispEdges" />
    <rect x="122" y="58" width="1" height="1" fill="var(--foreground)" shape-rendering="crispEdges" />
    <rect x="124" y="58" width="1" height="1" fill="var(--foreground)" shape-rendering="crispEdges" />
    <rect x="98" y="59" width="2" height="1" fill="var(--foreground)" shape-rendering="crispEdges" />
    <rect x="101" y="59" width="1" height="1" fill="var(--foreground)" shape-rendering="crispEdges" />
    <rect x="104" y="59" width="3" height="1" fill="var(--foreground)" shape-rendering="crispEdges" />
    <rect x="111" y="59" width="3" height="1" fill="var(--foreground)" shape-rendering="crispEdges" />
    <rect x="116" y="59" width="2" height="1" fill="var(--foreground)" shape-rendering="crispEdges" />
    <rect x="123" y="59" width="1" height="1" fill="var(--foreground)" shape-rendering="crispEdges" />
    <rect x="99" y="60" width="3" height="1" fill="var(--foreground)" shape-rendering="crispEdges" />
    <rect x="103" y="60" width="1" height="2" fill="var(--foreground)" shape-rendering="crispEdges" />
    <rect x="105" y="60" width="2" height="1" fill="var(--foreground)" shape-rendering="crispEdges" />
    <rect x="111" y="60" width="1" height="1" fill="var(--foreground)" shape-rendering="crispEdges" />
    <rect x="113" y="60" width="1" height="2" fill="var(--foreground)" shape-rendering="crispEdges" />
    <rect x="115" y="60" width="1" height="2" fill="var(--foreground)" shape-rendering="crispEdges" />
    <rect x="117" y="60" width="1" height="2" fill="var(--foreground)" shape-rendering="crispEdges" />
    <rect x="122" y="60" width="1" height="1" fill="var(--foreground)" shape-rendering="crispEdges" />
    <rect x="124" y="60" width="1" height="1" fill="var(--foreground)" shape-rendering="crispEdges" />
    <rect x="48" y="61" width="2" height="1" fill="var(--foreground)" shape-rendering="crispEdges" />
    <rect x="100" y="61" width="2" height="1" fill="var(--foreground)" shape-rendering="crispEdges" />
    <rect x="105" y="61" width="1" height="1" fill="var(--foreground)" shape-rendering="crispEdges" />
    <rect x="109" y="61" width="1" height="1" fill="var(--foreground)" shape-rendering="crispEdges" />
    <rect x="123" y="61" width="1" height="1" fill="var(--foreground)" shape-rendering="crispEdges" />
    <rect x="101" y="62" width="17" height="1" fill="var(--foreground)" shape-rendering="crispEdges" />
    <rect x="122" y="62" width="1" height="1" fill="var(--foreground)" shape-rendering="crispEdges" />
    <rect x="124" y="62" width="1" height="1" fill="var(--foreground)" shape-rendering="crispEdges" />
    <rect x="123" y="63" width="1" height="1" fill="var(--foreground)" shape-rendering="crispEdges" />
  </g>
</svg>