<svg viewBox="0 0 128 64" xmlns="http://www.w3.org/2000/svg">
  <g id="pixels">
    <rect x="0" y="0" width="1" height="29" fill="var(--foreground)" />
    <rect x="0" y="31" width="2" height="1" fill="var(--foreground)" />
    <rect x="0" y="34" width="1" height="30" fill="var(--foreground)" />
    <rect x="1" y="30" width="1" height="1" fill="var(--foreground)" />
    <rect x="1" y="32" width="1" height="1" fill="var(--foreground)" />
    <rect x="2" y="0" width="124" height="1" fill="var(--foreground)" />
    <rect x="2" y="1" width="6" height="5" fill="var(--foreground)" />
    <rect x="2" y="6" width="28" height="1" fill="var(--foreground)" />
    <rect x="8" y="9" width="1" height="1" fill="var(--foreground)" />
    <rect x="8" y="11" width="1" height="3" fill="var(--foreground)" />
    <rect x="8" y="18" width="3" height="1" fill="var(--foreground)" />
    <rect x="8" y="19" width="1" height="3" fill="var(--foreground)" />
    <rect x="9" y="2" width="3" height="1" fill="var(--foreground)" />
    <rect x="9" y="4" width="2" height="1" fill="var(--foreground)" />
    <rect x="9" y="5" width="3" height="1" fill="var(--foreground)" />
    <rect x="10" y="1" width="9" height="1" fill="var(--foreground)" />
    <rect x="10" y="3" width="1" height="1" fill="var(--foreground)" />
    <rect x="10" y="10" width="2" height="1" fill="var(--foreground)" />
    <rect x="10" y="11" width="1" height="3" fill="var(--foreground)" />
    <rect x="10" y="19" width="1" height="1" fill="var(--foreground)" />
    <rect x="12" y="3" width="1" height="2" fill="var(--foreground)" />
    <rect x="12" y="11" width="1" height="3" fill="var(--foreground)" />
    <rect x="12" y="18" width="3" height="1" fill="var(--foreground)" />
    <rect x="12" y="19" width="1" height="1" fill="var(--foreground)" />
    <rect x="12" y="20" width="2" height="1" fill="var(--foreground)" />
    <rect x="12" y="21" width="3" height="1" fill="var(--foreground)" />
    <rect x="14" y="2" width="1" height="4" fill="var(--foreground)" />
    <rect x="14" y="10" width="3" height="1" fill="var(--foreground)" />
    <rect x="14" y="11" width="1" height="2" fill="var(--foreground)" />
    <rect x="14" y="13" width="3" height="1" fill="var(--foreground)" />
    <rect x="14" y="19" width="1" height="1" fill="var(--foreground)" />
    <rect x="16" y="3" width="3" height="2" fill="var(--foreground)" />
    <rect x="16" y="18" width="3" height="1" fill="var(--foreground)" />
    <rect x="16" y="19" width="1" height="2" fill="var(--foreground)" />
    <rect x="16" y="21" width="3" height="1" fill="var(--foreground)" />
    <rect x="18" y="2" width="1" height="1" fill="var(--foreground)" />
    <rect x="18" y="5" width="1" height="1" fill="var(--foreground)" />
    <rect x="18" y="10" width="3" height="1" fill="var(--foreground)" />
    <rect x="18" y="11" width="1" height="2" fill="var(--foreground)" />
    <rect x="18" y="13" width="3" height="1" fill="var(--foreground)" />
    <rect x="20" y="1" width="95" height="1" fill="var(--foreground)" />
    <rect x="20" y="3" width="2" height="2" fill="var(--foreground)" />
    <rect x="20" y="11" width="1" height="2" fill="var(--foreground)" />
    <rect x="20" y="18" width="3" height="1" fill="var(--foreground)" />
    <rect x="20" y="19" width="1" height="2" fill="var(--foreground)" />
    <rect x="20" y="21" width="3" height="1" fill="var(--foreground)" />
    <rect x="21" y="2" width="1" height="1" fill="var(--foreground)" />
    <rect x="21" y="5" width="1" height="1" fill="var(--foreground)" />
    <rect x="22" y="10" width="1" height="1" fill="var(--foreground)" />
    <rect x="22" y="11" width="3" height="1" fill="var(--foreground)" />
    <rect x="22" y="12" width="1" height="2" fill="var(--foreground)" />
    <rect x="22" y="19" width="1" height="2" fill="var(--foreground)" />
    <rect x="23" y="3" width="1" height="2" fill="var(--foreground)" />
    <rect x="24" y="10" width="1" height="1" fill="var(--foreground)" />
    <rect x="24" y="12" width="1" height="2" fill="var(--foreground)" />
    <rect x="24" y="18" width="3" height="1" fill="var(--foreground)" />
    <rect x="24" y="19" width="1" height="3" fill="var(--foreground)" />
    <rect x="25" y="2" width="1" height="4" fill="var(--foreground)" />
    <rect x="26" y="9" width="1" height="1" fill="var(--foreground)" />
    <rect x="26" y="11" width="1" height="3" fill="var(--foreground)" />
    <rect x="26" y="19" width="1" height="1" fill="var(--foreground)" />
    <rect x="27" y="3" width="1" height="1" fill="var(--foreground)" />
    <rect x="27" y="4" width="3" height="1" fill="var(--foreground)" />
    <rect x="27" y="5" width="5" height="1" fill="var(--foreground)" />
    <rect x="28" y="10" width="2" height="1" fill="var(--foreground)" />
    <rect x="28" y="11" width="1" height="3" fill="var(--foreground)" />
    <rect x="28" y="18" width="3" height="1" fill="var(--foreground)" />
    <rect x="28" y="19" width="1" height="2" fill="var(--foreground)" />
    <rect x="28" y="21" width="3" height="1" fill="var(--foreground)" />
    <rect x="29" y="2" width="1" height="2" fill="var(--foreground)" />
    <rect x="30" y="11" width="1" height="3" fill="var(--foreground)" />
    <rect x="30" y="17" width="1" height="1" fill="var(--foreground)" />
    <rect x="30" y="19" width="1" height="2" fill="var(--foreground)" />
    <rect x="31" y="2" width="1" height="2" fill="var(--foreground)" />
    <rect x="32" y="10" width="3" height="1" fill="var(--foreground)" />
    <rect x="32" y="11" width="1" height="1" fill="var(--foreground)" />
    <rect x="32" y="12" width="3" height="1" fill="var(--foreground)" />
    <rect x="32" y="14" width="3" height="1" fill="var(--foreground)" />
    <rect x="32" y="18" width="3" height="1" fill="var(--foreground)" />
    <rect x="32" y="19" width="1" height="1" fill="var(--foreground)" />
    <rect x="32" y="20" width="2" height="1" fill="var(--foreground)" />
    <rect x="32" y="21" width="3" height="1" fill="var(--foreground)" />
    <rect x="33" y="2" width="81" height="3" fill="var(--foreground)" />
    <rect x="33" y="5" width="82" height="1" fill="var(--foreground)" />
    <rect x="33" y="6" width="93" height="1" fill="var(--foreground)" />
    <rect x="34" y="11" width="1" height="1" fill="var(--foreground)" />
    <rect x="34" y="13" width="1" height="1" fill="var(--foreground)" />
    <rect x="34" y="19" width="1" height="1" fill="var(--foreground)" />
    <rect x="36" y="18" width="3" height="1" fill="var(--foreground)" />
    <rect x="36" y="19" width="1" height="2" fill="var(--foreground)" />
    <rect x="36" y="21" width="3" height="1" fill="var(--foreground)" />
    <rect x="38" y="17" width="1" height="1" fill="var(--foreground)" />
    <rect x="38" y="19" width="1" height="2" fill="var(--foreground)" />
    <rect x="114" y="10" width="1" height="3" fill="var(--foreground)" />
    <rect x="114" y="18" width="1" height="3" fill="var(--foreground)" />
    <rect x="115" y="2" width="2" height="3" fill="var(--foreground)" />
    <rect x="115" y="9" width="1" height="1" fill="var(--foreground)" />
    <rect x="115" y="13" width="1" height="1" fill="var(--foreground)" />
    <rect x="115" y="17" width="1" height="1" fill="var(--foreground)" />
    <rect x="115" y="21" width="1" height="1" fill="var(--foreground)" />
    <rect x="116" y="1" width="1" height="1" fill="var(--foreground)" />
    <rect x="116" y="5" width="1" height="1" fill="var(--foreground)" />
    <rect x="117" y="9" width="2" height="1" fill="var(--foreground)" />
    <rect x="117" y="10" width="1" height="3" fill="var(--foreground)" />
    <rect x="117" y="13" width="2" height="1" fill="var(--foreground)" />
    <rect x="117" y="17" width="2" height="1" fill="var(--foreground)" />
    <rect x="117" y="18" width="1" height="3" fill="var(--foreground)" />
    <rect x="117" y="21" width="2" height="1" fill="var(--foreground)" />
    <rect x="118" y="2" width="1" height="3" fill="var(--foreground)" />
    <rect x="119" y="1" width="2" height="1" fill="var(--foreground)" />
    <rect x="119" y="5" width="2" height="1" fill="var(--foreground)" />
    <rect x="119" y="10" width="1" height="3" fill="var(--foreground)" />
    <rect x="119" y="18" width="1" height="3" fill="var(--foreground)" />
    <rect x="120" y="2" width="2" height="3" fill="var(--foreground)" />
    <rect x="121" y="9" width="1" height="1" fill="var(--foreground)" />
    <rect x="121" y="13" width="1" height="1" fill="var(--foreground)" />
    <rect x="121" y="17" width="1" height="1" fill="var(--foreground)" />
    <rect x="121" y="21" width="1" height="1" fill="var(--foreground)" />
    <rect x="122" y="1" width="4" height="1" fill="var(--foreground)" />
    <rect x="122" y="5" width="4" height="1" fill="var(--foreground)" />
    <rect x="122" y="10" width="1" height="3" fill="var(--foreground)" />
    <rect x="122" y="18" width="1" height="3" fill="var(--foreground)" />
    <rect x="123" y="2" width="3" height="3" fill="var(--foreground)" />
    <rect x="126" y="30" width="1" height="1" fill="var(--foreground)" />
    <rect x="126" y="31" width="2" height="1" fill="var(--foreground)" />
    <rect x="126" y="32" width="1" height="1" fill="var(--foreground)" />
    <rect x="127" y="0" width="1" height="29" fill="var(--foreground)" />
    <rect x="127" y="34" width="1" height="30" fill="var(--foreground)" />
  </g>
</svg>