<svg viewBox="0 0 128 64" xmlns="http://www.w3.org/2000/svg" shape-rendering="crispEdges">
  <g id="pixels">
    <rect x="0" y="0" width="70" height="2" fill="var(--foreground)" shape-rendering="crispEdges" />
    <rect x="71" y="0" width="57" height="2" fill="var(--foreground)" shape-rendering="crispEdges" />
    <rect x="0" y="2" width="2" height="5" fill="var(--foreground)" shape-rendering="crispEdges" />
    <rect x="5" y="2" width="2" height="1" fill="var(--foreground)" shape-rendering="crispEdges" />
    <rect x="11" y="2" width="1" height="1" fill="var(--foreground)" shape-rendering="crispEdges" />
    <rect x="13" y="2" width="2" height="3" fill="var(--foreground)" shape-rendering="crispEdges" />
    <rect x="16" y="2" width="1" height="3" fill="var(--foreground)" shape-rendering="crispEdges" />
    <rect x="21" y="2" width="1" height="1" fill="var(--foreground)" shape-rendering="crispEdges" />
    <rect x="25" y="2" width="2" height="1" fill="var(--foreground)" shape-rendering="crispEdges" />
    <rect x="30" y="2" width="40" height="1" fill="var(--foreground)" shape-rendering="crispEdges" />
    <rect x="71" y="2" width="2" height="5" fill="var(--foreground)" shape-rendering="crispEdges" />
    <rect x="76" y="2" width="2" height="1" fill="var(--foreground)" shape-rendering="crispEdges" />
    <rect x="81" y="2" width="2" height="1" fill="var(--foreground)" shape-rendering="crispEdges" />
    <rect x="84" y="2" width="3" height="1" fill="var(--foreground)" shape-rendering="crispEdges" />
    <rect x="88" y="2" width="4" height="1" fill="var(--foreground)" shape-rendering="crispEdges" />
    <rect x="93" y="2" width="2" height="1" fill="var(--foreground)" shape-rendering="crispEdges" />
    <rect x="98" y="2" width="3" height="1" fill="var(--foreground)" shape-rendering="crispEdges" />
    <rect x="103" y="2" width="5" height="1" fill="var(--foreground)" shape-rendering="crispEdges" />
    <rect x="110" y="2" width="11" height="1" fill="var(--foreground)" shape-rendering="crispEdges" />
    <rect x="126" y="2" width="2" height="5" fill="var(--foreground)" shape-rendering="crispEdges" />
    <rect x="3" y="3" width="2" height="1" fill="var(--foreground)" shape-rendering="crispEdges" />
    <rect x="6" y="3" width="1" height="1" fill="var(--foreground)" shape-rendering="crispEdges" />
    <rect x="8" y="3" width="4" height="1" fill="var(--foreground)" shape-rendering="crispEdges" />
    <rect x="18" y="3" width="4" height="1" fill="var(--foreground)" shape-rendering="crispEdges" />
    <rect x="23" y="3" width="2" height="1" fill="var(--foreground)" shape-rendering="crispEdges" />
    <rect x="26" y="3" width="1" height="1" fill="var(--foreground)" shape-rendering="crispEdges" />
    <rect x="28" y="3" width="2" height="1" fill="var(--foreground)" shape-rendering="crispEdges" />
    <rect x="31" y="3" width="39" height="1" fill="var(--foreground)" shape-rendering="crispEdges" />
    <rect x="74" y="3" width="2" height="1" fill="var(--foreground)" shape-rendering="crispEdges" />
    <rect x="77" y="3" width="1" height="1" fill="var(--foreground)" shape-rendering="crispEdges" />
    <rect x="79" y="3" width="2" height="2" fill="var(--foreground)" shape-rendering="crispEdges" />
    <rect x="82" y="3" width="1" height="2" fill="var(--foreground)" shape-rendering="crispEdges" />
    <rect x="85" y="3" width="1" height="1" fill="var(--foreground)" shape-rendering="crispEdges" />
    <rect x="88" y="3" width="1" height="1" fill="var(--foreground)" shape-rendering="crispEdges" />
    <rect x="90" y="3" width="1" height="1" fill="var(--foreground)" shape-rendering="crispEdges" />
    <rect x="93" y="3" width="5" height="1" fill="var(--foreground)" shape-rendering="crispEdges" />
    <rect x="99" y="3" width="1" height="1" fill="var(--foreground)" shape-rendering="crispEdges" />
    <rect x="101" y="3" width="2" height="3" fill="var(--foreground)" shape-rendering="crispEdges" />
    <rect x="104" y="3" width="3" height="3" fill="var(--foreground)" shape-rendering="crispEdges" />
    <rect x="108" y="3" width="2" height="3" fill="var(--foreground)" shape-rendering="crispEdges" />
    <rect x="111" y="3" width="10" height="3" fill="var(--foreground)" shape-rendering="crispEdges" />
    <rect x="5" y="4" width="2" height="1" fill="var(--foreground)" shape-rendering="crispEdges" />
    <rect x="10" y="4" width="2" height="1" fill="var(--foreground)" shape-rendering="crispEdges" />
    <rect x="20" y="4" width="2" height="1" fill="var(--foreground)" shape-rendering="crispEdges" />
    <rect x="25" y="4" width="2" height="1" fill="var(--foreground)" shape-rendering="crispEdges" />
    <rect x="30" y="4" width="40" height="1" fill="var(--foreground)" shape-rendering="crispEdges" />
    <rect x="76" y="4" width="2" height="1" fill="var(--foreground)" shape-rendering="crispEdges" />
    <rect x="84" y="4" width="1" height="1" fill="var(--foreground)" shape-rendering="crispEdges" />
    <rect x="86" y="4" width="1" height="1" fill="var(--foreground)" shape-rendering="crispEdges" />
    <rect x="88" y="4" width="4" height="1" fill="var(--foreground)" shape-rendering="crispEdges" />
    <rect x="93" y="4" width="3" height="1" fill="var(--foreground)" shape-rendering="crispEdges" />
    <rect x="98" y="4" width="2" height="1" fill="var(--foreground)" shape-rendering="crispEdges" />
    <rect x="3" y="5" width="2" height="2" fill="var(--foreground)" shape-rendering="crispEdges" />
    <rect x="6" y="5" width="1" height="2" fill="var(--foreground)" shape-rendering="crispEdges" />
    <rect x="8" y="5" width="4" height="1" fill="var(--foreground)" shape-rendering="crispEdges" />
    <rect x="13" y="5" width="1" height="1" fill="var(--foreground)" shape-rendering="crispEdges" />
    <rect x="15" y="5" width="2" height="1" fill="var(--foreground)" shape-rendering="crispEdges" />
    <rect x="18" y="5" width="4" height="1" fill="var(--foreground)" shape-rendering="crispEdges" />
    <rect x="23" y="5" width="2" height="2" fill="var(--foreground)" shape-rendering="crispEdges" />
    <rect x="26" y="5" width="1" height="2" fill="var(--foreground)" shape-rendering="crispEdges" />
    <rect x="28" y="5" width="2" height="1" fill="var(--foreground)" shape-rendering="crispEdges" />
    <rect x="31" y="5" width="39" height="1" fill="var(--foreground)" shape-rendering="crispEdges" />
    <rect x="74" y="5" width="2" height="1" fill="var(--foreground)" shape-rendering="crispEdges" />
    <rect x="77" y="5" width="1" height="1" fill="var(--foreground)" shape-rendering="crispEdges" />
    <rect x="81" y="5" width="2" height="1" fill="var(--foreground)" shape-rendering="crispEdges" />
    <rect x="84" y="5" width="3" height="2" fill="var(--foreground)" shape-rendering="crispEdges" />
    <rect x="88" y="5" width="1" height="1" fill="var(--foreground)" shape-rendering="crispEdges" />
    <rect x="90" y="5" width="2" height="1" fill="var(--foreground)" shape-rendering="crispEdges" />
    <rect x="93" y="5" width="2" height="1" fill="var(--foreground)" shape-rendering="crispEdges" />
    <rect x="96" y="5" width="4" height="1" fill="var(--foreground)" shape-rendering="crispEdges" />
    <rect x="11" y="6" width="2" height="1" fill="var(--foreground)" shape-rendering="crispEdges" />
    <rect x="14" y="6" width="3" height="1" fill="var(--foreground)" shape-rendering="crispEdges" />
    <rect x="21" y="6" width="1" height="1" fill="var(--foreground)" shape-rendering="crispEdges" />
    <rect x="30" y="6" width="40" height="1" fill="var(--foreground)" shape-rendering="crispEdges" />
    <rect x="76" y="6" width="2" height="1" fill="var(--foreground)" shape-rendering="crispEdges" />
    <rect x="79" y="6" width="4" height="1" fill="var(--foreground)" shape-rendering="crispEdges" />
    <rect x="88" y="6" width="3" height="1" fill="var(--foreground)" shape-rendering="crispEdges" />
    <rect x="94" y="6" width="1" height="1" fill="var(--foreground)" shape-rendering="crispEdges" />
    <rect x="99" y="6" width="2" height="1" fill="var(--foreground)" shape-rendering="crispEdges" />
    <rect x="103" y="6" width="2" height="1" fill="var(--foreground)" shape-rendering="crispEdges" />
    <rect x="106" y="6" width="2" height="1" fill="var(--foreground)" shape-rendering="crispEdges" />
    <rect x="110" y="6" width="11" height="1" fill="var(--foreground)" shape-rendering="crispEdges" />
    <rect x="0" y="7" width="70" height="2" fill="var(--foreground)" shape-rendering="crispEdges" />
    <rect x="71" y="7" width="57" height="2" fill="var(--foreground)" shape-rendering="crispEdges" />
    <rect x="71" y="11" width="51" height="1" fill="var(--foreground)" shape-rendering="crispEdges" />
    <rect x="14" y="12" width="5" height="1" fill="var(--foreground)" shape-rendering="crispEdges" />
    <rect x="46" y="12" width="5" height="1" fill="var(--foreground)" shape-rendering="crispEdges" />
    <rect x="70" y="12" width="1" height="1" fill="var(--foreground)" shape-rendering="crispEdges" />
    <rect x="122" y="12" width="1" height="6" fill="var(--foreground)" shape-rendering="crispEdges" />
    <rect x="12" y="13" width="2" height="1" fill="var(--foreground)" shape-rendering="crispEdges" />
    <rect x="19" y="13" width="2" height="1" fill="var(--foreground)" shape-rendering="crispEdges" />
    <rect x="44" y="13" width="2" height="1" fill="var(--foreground)" shape-rendering="crispEdges" />
    <rect x="51" y="13" width="2" height="1" fill="var(--foreground)" shape-rendering="crispEdges" />
    <rect x="70" y="13" width="24" height="1" fill="var(--foreground)" shape-rendering="crispEdges" />
    <rect x="96" y="13" width="1" height="1" fill="var(--foreground)" shape-rendering="crispEdges" />
    <rect x="11" y="14" width="1" height="1" fill="var(--foreground)" shape-rendering="crispEdges" />
    <rect x="21" y="14" width="1" height="1" fill="var(--foreground)" shape-rendering="crispEdges" />
    <rect x="43" y="14" width="1" height="1" fill="var(--foreground)" shape-rendering="crispEdges" />
    <rect x="53" y="14" width="1" height="1" fill="var(--foreground)" shape-rendering="crispEdges" />
    <rect x="70" y="14" width="1" height="9" fill="var(--foreground)" shape-rendering="crispEdges" />
    <rect x="94" y="14" width="1" height="1" fill="var(--foreground)" shape-rendering="crispEdges" />
    <rect x="10" y="15" width="1" height="2" fill="var(--foreground)" shape-rendering="crispEdges" />
    <rect x="22" y="15" width="1" height="2" fill="var(--foreground)" shape-rendering="crispEdges" />
    <rect x="42" y="15" width="1" height="2" fill="var(--foreground)" shape-rendering="crispEdges" />
    <rect x="54" y="15" width="1" height="2" fill="var(--foreground)" shape-rendering="crispEdges" />
    <rect x="95" y="15" width="2" height="1" fill="var(--foreground)" shape-rendering="crispEdges" />
    <rect x="97" y="16" width="1" height="1" fill="var(--foreground)" shape-rendering="crispEdges" />
    <rect x="9" y="17" width="1" height="4" fill="var(--foreground)" shape-rendering="crispEdges" />
    <rect x="23" y="17" width="1" height="5" fill="var(--foreground)" shape-rendering="crispEdges" />
    <rect x="41" y="17" width="1" height="5" fill="var(--foreground)" shape-rendering="crispEdges" />
    <rect x="53" y="17" width="3" height="1" fill="var(--foreground)" shape-rendering="crispEdges" />
    <rect x="96" y="17" width="1" height="1" fill="var(--foreground)" shape-rendering="crispEdges" />
    <rect x="98" y="17" width="1" height="1" fill="var(--foreground)" shape-rendering="crispEdges" />
    <rect x="50" y="18" width="3" height="1" fill="var(--foreground)" shape-rendering="crispEdges" />
    <rect x="55" y="18" width="1" height="4" fill="var(--foreground)" shape-rendering="crispEdges" />
    <rect x="99" y="18" width="24" height="1" fill="var(--foreground)" shape-rendering="crispEdges" />
    <rect x="15" y="19" width="2" height="1" fill="var(--foreground)" shape-rendering="crispEdges" />
    <rect x="48" y="19" width="2" height="1" fill="var(--foreground)" shape-rendering="crispEdges" />
    <rect x="96" y="19" width="1" height="1" fill="var(--foreground)" shape-rendering="crispEdges" />
    <rect x="122" y="19" width="1" height="4" fill="var(--foreground)" shape-rendering="crispEdges" />
    <rect x="13" y="20" width="2" height="1" fill="var(--foreground)" shape-rendering="crispEdges" />
    <rect x="9" y="21" width="4" height="1" fill="var(--foreground)" shape-rendering="crispEdges" />
    <rect x="96" y="21" width="1" height="1" fill="var(--foreground)" shape-rendering="crispEdges" />
    <rect x="10" y="22" width="1" height="2" fill="var(--foreground)" shape-rendering="crispEdges" />
    <rect x="22" y="22" width="1" height="2" fill="var(--foreground)" shape-rendering="crispEdges" />
    <rect x="42" y="22" width="1" height="2" fill="var(--foreground)" shape-rendering="crispEdges" />
    <rect x="54" y="22" width="1" height="2" fill="var(--foreground)" shape-rendering="crispEdges" />
    <rect x="71" y="23" width="51" height="1" fill="var(--foreground)" shape-rendering="crispEdges" />
    <rect x="9" y="26" width="3" height="1" fill="var(--foreground)" shape-rendering="crispEdges" />
    <rect x="14" y="26" width="3" height="1" fill="var(--foreground)" shape-rendering="crispEdges" />
    <rect x="19" y="26" width="4" height="1" fill="var(--foreground)" shape-rendering="crispEdges" />
    <rect x="41" y="26" width="3" height="1" fill="var(--foreground)" shape-rendering="crispEdges" />
    <rect x="46" y="26" width="4" height="1" fill="var(--foreground)" shape-rendering="crispEdges" />
    <rect x="52" y="26" width="2" height="1" fill="var(--foreground)" shape-rendering="crispEdges" />
    <rect x="73" y="26" width="4" height="1" fill="var(--foreground)" shape-rendering="crispEdges" />
    <rect x="78" y="26" width="3" height="1" fill="var(--foreground)" shape-rendering="crispEdges" />
    <rect x="84" y="26" width="2" height="1" fill="var(--foreground)" shape-rendering="crispEdges" />
    <rect x="108" y="26" width="3" height="1" fill="var(--foreground)" shape-rendering="crispEdges" />
    <rect x="113" y="26" width="2" height="1" fill="var(--foreground)" shape-rendering="crispEdges" />
    <rect x="117" y="26" width="1" height="5" fill="var(--foreground)" shape-rendering="crispEdges" />
    <rect x="9" y="27" width="1" height="2" fill="var(--foreground)" shape-rendering="crispEdges" />
    <rect x="12" y="27" width="1" height="2" fill="var(--foreground)" shape-rendering="crispEdges" />
    <rect x="14" y="27" width="1" height="1" fill="var(--foreground)" shape-rendering="crispEdges" />
    <rect x="17" y="27" width="1" height="1" fill="var(--foreground)" shape-rendering="crispEdges" />
    <rect x="19" y="27" width="1" height="1" fill="var(--foreground)" shape-rendering="crispEdges" />
    <rect x="41" y="27" width="1" height="3" fill="var(--foreground)" shape-rendering="crispEdges" />
    <rect x="44" y="27" width="1" height="3" fill="var(--foreground)" shape-rendering="crispEdges" />
    <rect x="46" y="27" width="1" height="1" fill="var(--foreground)" shape-rendering="crispEdges" />
    <rect x="51" y="27" width="1" height="3" fill="var(--foreground)" shape-rendering="crispEdges" />
    <rect x="54" y="27" width="1" height="1" fill="var(--foreground)" shape-rendering="crispEdges" />
    <rect x="73" y="27" width="1" height="1" fill="var(--foreground)" shape-rendering="crispEdges" />
    <rect x="78" y="27" width="1" height="1" fill="var(--foreground)" shape-rendering="crispEdges" />
    <rect x="81" y="27" width="1" height="1" fill="var(--foreground)" shape-rendering="crispEdges" />
    <rect x="83" y="27" width="1" height="3" fill="var(--foreground)" shape-rendering="crispEdges" />
    <rect x="86" y="27" width="1" height="2" fill="var(--foreground)" shape-rendering="crispEdges" />
    <rect x="107" y="27" width="1" height="3" fill="var(--foreground)" shape-rendering="crispEdges" />
    <rect x="112" y="27" width="1" height="1" fill="var(--foreground)" shape-rendering="crispEdges" />
    <rect x="115" y="27" width="1" height="1" fill="var(--foreground)" shape-rendering="crispEdges" />
    <rect x="14" y="28" width="3" height="1" fill="var(--foreground)" shape-rendering="crispEdges" />
    <rect x="19" y="28" width="3" height="1" fill="var(--foreground)" shape-rendering="crispEdges" />
    <rect x="46" y="28" width="3" height="1" fill="var(--foreground)" shape-rendering="crispEdges" />
    <rect x="73" y="28" width="3" height="1" fill="var(--foreground)" shape-rendering="crispEdges" />
    <rect x="78" y="28" width="3" height="1" fill="var(--foreground)" shape-rendering="crispEdges" />
    <rect x="109" y="28" width="2" height="1" fill="var(--foreground)" shape-rendering="crispEdges" />
    <rect x="112" y="28" width="4" height="1" fill="var(--foreground)" shape-rendering="crispEdges" />
    <rect x="9" y="29" width="3" height="1" fill="var(--foreground)" shape-rendering="crispEdges" />
    <rect x="14" y="29" width="1" height="2" fill="var(--foreground)" shape-rendering="crispEdges" />
    <rect x="17" y="29" width="1" height="2" fill="var(--foreground)" shape-rendering="crispEdges" />
    <rect x="19" y="29" width="1" height="1" fill="var(--foreground)" shape-rendering="crispEdges" />
    <rect x="46" y="29" width="1" height="1" fill="var(--foreground)" shape-rendering="crispEdges" />
    <rect x="54" y="29" width="1" height="1" fill="var(--foreground)" shape-rendering="crispEdges" />
    <rect x="73" y="29" width="1" height="2" fill="var(--foreground)" shape-rendering="crispEdges" />
    <rect x="78" y="29" width="1" height="2" fill="var(--foreground)" shape-rendering="crispEdges" />
    <rect x="81" y="29" width="1" height="2" fill="var(--foreground)" shape-rendering="crispEdges" />
    <rect x="85" y="29" width="2" height="1" fill="var(--foreground)" shape-rendering="crispEdges" />
    <rect x="110" y="29" width="1" height="1" fill="var(--foreground)" shape-rendering="crispEdges" />
    <rect x="112" y="29" width="1" height="2" fill="var(--foreground)" shape-rendering="crispEdges" />
    <rect x="115" y="29" width="1" height="2" fill="var(--foreground)" shape-rendering="crispEdges" />
    <rect x="9" y="30" width="1" height="1" fill="var(--foreground)" shape-rendering="crispEdges" />
    <rect x="19" y="30" width="4" height="1" fill="var(--foreground)" shape-rendering="crispEdges" />
    <rect x="41" y="30" width="3" height="1" fill="var(--foreground)" shape-rendering="crispEdges" />
    <rect x="46" y="30" width="4" height="1" fill="var(--foreground)" shape-rendering="crispEdges" />
    <rect x="52" y="30" width="2" height="1" fill="var(--foreground)" shape-rendering="crispEdges" />
    <rect x="84" y="30" width="3" height="1" fill="var(--foreground)" shape-rendering="crispEdges" />
    <rect x="108" y="30" width="2" height="1" fill="var(--foreground)" shape-rendering="crispEdges" />
    <rect x="7" y="33" width="51" height="1" fill="var(--foreground)" shape-rendering="crispEdges" />
    <rect x="108" y="33" width="9" height="1" fill="var(--foreground)" shape-rendering="crispEdges" />
    <rect x="6" y="34" width="1" height="11" fill="var(--foreground)" shape-rendering="crispEdges" />
    <rect x="58" y="34" width="1" height="3" fill="var(--foreground)" shape-rendering="crispEdges" />
    <rect x="108" y="34" width="1" height="11" fill="var(--foreground)" shape-rendering="crispEdges" />
    <rect x="116" y="34" width="1" height="11" fill="var(--foreground)" shape-rendering="crispEdges" />
    <rect x="25" y="35" width="1" height="1" fill="var(--foreground)" shape-rendering="crispEdges" />
    <rect x="110" y="35" width="1" height="1" fill="var(--foreground)" shape-rendering="crispEdges" />
    <rect x="114" y="35" width="1" height="1" fill="var(--foreground)" shape-rendering="crispEdges" />
    <rect x="76" y="36" width="1" height="1" fill="var(--foreground)" shape-rendering="crispEdges" />
    <rect x="78" y="36" width="1" height="1" fill="var(--foreground)" shape-rendering="crispEdges" />
    <rect x="80" y="36" width="1" height="1" fill="var(--foreground)" shape-rendering="crispEdges" />
    <rect x="82" y="36" width="1" height="1" fill="var(--foreground)" shape-rendering="crispEdges" />
    <rect x="84" y="36" width="1" height="1" fill="var(--foreground)" shape-rendering="crispEdges" />
    <rect x="25" y="37" width="34" height="1" fill="var(--foreground)" shape-rendering="crispEdges" />
    <rect x="75" y="37" width="1" height="1" fill="var(--foreground)" shape-rendering="crispEdges" />
    <rect x="77" y="37" width="1" height="1" fill="var(--foreground)" shape-rendering="crispEdges" />
    <rect x="79" y="37" width="1" height="1" fill="var(--foreground)" shape-rendering="crispEdges" />
    <rect x="81" y="37" width="1" height="1" fill="var(--foreground)" shape-rendering="crispEdges" />
    <rect x="83" y="37" width="1" height="1" fill="var(--foreground)" shape-rendering="crispEdges" />
    <rect x="85" y="37" width="1" height="1" fill="var(--foreground)" shape-rendering="crispEdges" />
    <rect x="110" y="37" width="1" height="1" fill="var(--foreground)" shape-rendering="crispEdges" />
    <rect x="114" y="37" width="1" height="1" fill="var(--foreground)" shape-rendering="crispEdges" />
    <rect x="24" y="38" width="1" height="1" fill="var(--foreground)" shape-rendering="crispEdges" />
    <rect x="58" y="38" width="1" height="7" fill="var(--foreground)" shape-rendering="crispEdges" />
    <rect x="76" y="38" width="1" height="1" fill="var(--foreground)" shape-rendering="crispEdges" />
    <rect x="78" y="38" width="1" height="1" fill="var(--foreground)" shape-rendering="crispEdges" />
    <rect x="80" y="38" width="1" height="1" fill="var(--foreground)" shape-rendering="crispEdges" />
    <rect x="82" y="38" width="1" height="1" fill="var(--foreground)" shape-rendering="crispEdges" />
    <rect x="84" y="38" width="1" height="1" fill="var(--foreground)" shape-rendering="crispEdges" />
    <rect x="110" y="38" width="5" height="6" fill="var(--foreground)" shape-rendering="crispEdges" />
    <rect x="23" y="39" width="1" height="1" fill="var(--foreground)" shape-rendering="crispEdges" />
    <rect x="25" y="39" width="1" height="1" fill="var(--foreground)" shape-rendering="crispEdges" />
    <rect x="75" y="39" width="1" height="1" fill="var(--foreground)" shape-rendering="crispEdges" />
    <rect x="77" y="39" width="1" height="1" fill="var(--foreground)" shape-rendering="crispEdges" />
    <rect x="79" y="39" width="1" height="1" fill="var(--foreground)" shape-rendering="crispEdges" />
    <rect x="81" y="39" width="1" height="1" fill="var(--foreground)" shape-rendering="crispEdges" />
    <rect x="83" y="39" width="1" height="1" fill="var(--foreground)" shape-rendering="crispEdges" />
    <rect x="85" y="39" width="1" height="1" fill="var(--foreground)" shape-rendering="crispEdges" />
    <rect x="22" y="40" width="1" height="1" fill="var(--foreground)" shape-rendering="crispEdges" />
    <rect x="76" y="40" width="1" height="1" fill="var(--foreground)" shape-rendering="crispEdges" />
    <rect x="78" y="40" width="1" height="1" fill="var(--foreground)" shape-rendering="crispEdges" />
    <rect x="80" y="40" width="1" height="1" fill="var(--foreground)" shape-rendering="crispEdges" />
    <rect x="82" y="40" width="1" height="1" fill="var(--foreground)" shape-rendering="crispEdges" />
    <rect x="84" y="40" width="1" height="1" fill="var(--foreground)" shape-rendering="crispEdges" />
    <rect x="21" y="41" width="1" height="1" fill="var(--foreground)" shape-rendering="crispEdges" />
    <rect x="25" y="41" width="1" height="1" fill="var(--foreground)" shape-rendering="crispEdges" />
    <rect x="75" y="41" width="1" height="1" fill="var(--foreground)" shape-rendering="crispEdges" />
    <rect x="77" y="41" width="1" height="1" fill="var(--foreground)" shape-rendering="crispEdges" />
    <rect x="79" y="41" width="1" height="1" fill="var(--foreground)" shape-rendering="crispEdges" />
    <rect x="81" y="41" width="1" height="1" fill="var(--foreground)" shape-rendering="crispEdges" />
    <rect x="83" y="41" width="1" height="1" fill="var(--foreground)" shape-rendering="crispEdges" />
    <rect x="85" y="41" width="1" height="1" fill="var(--foreground)" shape-rendering="crispEdges" />
    <rect x="20" y="42" width="1" height="1" fill="var(--foreground)" shape-rendering="crispEdges" />
    <rect x="76" y="42" width="1" height="1" fill="var(--foreground)" shape-rendering="crispEdges" />
    <rect x="78" y="42" width="1" height="1" fill="var(--foreground)" shape-rendering="crispEdges" />
    <rect x="80" y="42" width="1" height="1" fill="var(--foreground)" shape-rendering="crispEdges" />
    <rect x="82" y="42" width="1" height="1" fill="var(--foreground)" shape-rendering="crispEdges" />
    <rect x="84" y="42" width="1" height="1" fill="var(--foreground)" shape-rendering="crispEdges" />
    <rect x="19" y="43" width="1" height="1" fill="var(--foreground)" shape-rendering="crispEdges" />
    <rect x="25" y="43" width="1" height="1" fill="var(--foreground)" shape-rendering="crispEdges" />
    <rect x="75" y="43" width="1" height="1" fill="var(--foreground)" shape-rendering="crispEdges" />
    <rect x="77" y="43" width="1" height="1" fill="var(--foreground)" shape-rendering="crispEdges" />
    <rect x="79" y="43" width="1" height="1" fill="var(--foreground)" shape-rendering="crispEdges" />
    <rect x="81" y="43" width="1" height="1" fill="var(--foreground)" shape-rendering="crispEdges" />
    <rect x="83" y="43" width="1" height="1" fill="var(--foreground)" shape-rendering="crispEdges" />
    <rect x="85" y="43" width="1" height="1" fill="var(--foreground)" shape-rendering="crispEdges" />
    <rect x="18" y="44" width="1" height="1" fill="var(--foreground)" shape-rendering="crispEdges" />
    <rect x="76" y="44" width="1" height="1" fill="var(--foreground)" shape-rendering="crispEdges" />
    <rect x="78" y="44" width="1" height="1" fill="var(--foreground)" shape-rendering="crispEdges" />
    <rect x="80" y="44" width="1" height="1" fill="var(--foreground)" shape-rendering="crispEdges" />
    <rect x="82" y="44" width="1" height="1" fill="var(--foreground)" shape-rendering="crispEdges" />
    <rect x="84" y="44" width="1" height="1" fill="var(--foreground)" shape-rendering="crispEdges" />
    <rect x="7" y="45" width="51" height="1" fill="var(--foreground)" shape-rendering="crispEdges" />
    <rect x="75" y="45" width="1" height="1" fill="var(--foreground)" shape-rendering="crispEdges" />
    <rect x="77" y="45" width="1" height="1" fill="var(--foreground)" shape-rendering="crispEdges" />
    <rect x="79" y="45" width="1" height="1" fill="var(--foreground)" shape-rendering="crispEdges" />
    <rect x="81" y="45" width="1" height="1" fill="var(--foreground)" shape-rendering="crispEdges" />
    <rect x="83" y="45" width="1" height="1" fill="var(--foreground)" shape-rendering="crispEdges" />
    <rect x="85" y="45" width="1" height="1" fill="var(--foreground)" shape-rendering="crispEdges" />
    <rect x="108" y="45" width="9" height="1" fill="var(--foreground)" shape-rendering="crispEdges" />
    <rect x="76" y="46" width="1" height="1" fill="var(--foreground)" shape-rendering="crispEdges" />
    <rect x="78" y="46" width="1" height="1" fill="var(--foreground)" shape-rendering="crispEdges" />
    <rect x="80" y="46" width="1" height="1" fill="var(--foreground)" shape-rendering="crispEdges" />
    <rect x="82" y="46" width="1" height="1" fill="var(--foreground)" shape-rendering="crispEdges" />
    <rect x="84" y="46" width="1" height="1" fill="var(--foreground)" shape-rendering="crispEdges" />
    <rect x="75" y="47" width="1" height="1" fill="var(--foreground)" shape-rendering="crispEdges" />
    <rect x="77" y="47" width="1" height="1" fill="var(--foreground)" shape-rendering="crispEdges" />
    <rect x="79" y="47" width="1" height="1" fill="var(--foreground)" shape-rendering="crispEdges" />
    <rect x="81" y="47" width="1" height="1" fill="var(--foreground)" shape-rendering="crispEdges" />
    <rect x="83" y="47" width="1" height="1" fill="var(--foreground)" shape-rendering="crispEdges" />
    <rect x="85" y="47" width="1" height="1" fill="var(--foreground)" shape-rendering="crispEdges" />
    <rect x="9" y="48" width="1" height="2" fill="var(--foreground)" shape-rendering="crispEdges" />
    <rect x="12" y="48" width="1" height="2" fill="var(--foreground)" shape-rendering="crispEdges" />
    <rect x="14" y="48" width="3" height="1" fill="var(--foreground)" shape-rendering="crispEdges" />
    <rect x="19" y="48" width="4" height="1" fill="var(--foreground)" shape-rendering="crispEdges" />
    <rect x="42" y="48" width="1" height="4" fill="var(--foreground)" shape-rendering="crispEdges" />
    <rect x="46" y="48" width="3" height="1" fill="var(--foreground)" shape-rendering="crispEdges" />
    <rect x="51" y="48" width="4" height="1" fill="var(--foreground)" shape-rendering="crispEdges" />
    <rect x="76" y="48" width="1" height="1" fill="var(--foreground)" shape-rendering="crispEdges" />
    <rect x="78" y="48" width="1" height="1" fill="var(--foreground)" shape-rendering="crispEdges" />
    <rect x="80" y="48" width="1" height="1" fill="var(--foreground)" shape-rendering="crispEdges" />
    <rect x="82" y="48" width="1" height="1" fill="var(--foreground)" shape-rendering="crispEdges" />
    <rect x="84" y="48" width="1" height="1" fill="var(--foreground)" shape-rendering="crispEdges" />
    <rect x="106" y="48" width="1" height="4" fill="var(--foreground)" shape-rendering="crispEdges" />
    <rect x="109" y="48" width="1" height="3" fill="var(--foreground)" shape-rendering="crispEdges" />
    <rect x="112" y="48" width="2" height="1" fill="var(--foreground)" shape-rendering="crispEdges" />
    <rect x="116" y="48" width="1" height="4" fill="var(--foreground)" shape-rendering="crispEdges" />
    <rect x="14" y="49" width="1" height="2" fill="var(--foreground)" shape-rendering="crispEdges" />
    <rect x="17" y="49" width="1" height="2" fill="var(--foreground)" shape-rendering="crispEdges" />
    <rect x="19" y="49" width="1" height="1" fill="var(--foreground)" shape-rendering="crispEdges" />
    <rect x="46" y="49" width="1" height="2" fill="var(--foreground)" shape-rendering="crispEdges" />
    <rect x="49" y="49" width="1" height="2" fill="var(--foreground)" shape-rendering="crispEdges" />
    <rect x="51" y="49" width="1" height="1" fill="var(--foreground)" shape-rendering="crispEdges" />
    <rect x="111" y="49" width="1" height="3" fill="var(--foreground)" shape-rendering="crispEdges" />
    <rect x="114" y="49" width="1" height="3" fill="var(--foreground)" shape-rendering="crispEdges" />
    <rect x="9" y="50" width="4" height="1" fill="var(--foreground)" shape-rendering="crispEdges" />
    <rect x="19" y="50" width="3" height="1" fill="var(--foreground)" shape-rendering="crispEdges" />
    <rect x="51" y="50" width="3" height="1" fill="var(--foreground)" shape-rendering="crispEdges" />
    <rect x="9" y="51" width="1" height="2" fill="var(--foreground)" shape-rendering="crispEdges" />
    <rect x="12" y="51" width="1" height="2" fill="var(--foreground)" shape-rendering="crispEdges" />
    <rect x="14" y="51" width="3" height="1" fill="var(--foreground)" shape-rendering="crispEdges" />
    <rect x="19" y="51" width="1" height="2" fill="var(--foreground)" shape-rendering="crispEdges" />
    <rect x="46" y="51" width="3" height="1" fill="var(--foreground)" shape-rendering="crispEdges" />
    <rect x="51" y="51" width="1" height="2" fill="var(--foreground)" shape-rendering="crispEdges" />
    <rect x="108" y="51" width="1" height="1" fill="var(--foreground)" shape-rendering="crispEdges" />
    <rect x="14" y="52" width="1" height="1" fill="var(--foreground)" shape-rendering="crispEdges" />
    <rect x="42" y="52" width="3" height="1" fill="var(--foreground)" shape-rendering="crispEdges" />
    <rect x="46" y="52" width="1" height="1" fill="var(--foreground)" shape-rendering="crispEdges" />
    <rect x="107" y="52" width="1" height="1" fill="var(--foreground)" shape-rendering="crispEdges" />
    <rect x="112" y="52" width="2" height="1" fill="var(--foreground)" shape-rendering="crispEdges" />
    <rect x="116" y="52" width="3" height="1" fill="var(--foreground)" shape-rendering="crispEdges" />
    <rect x="0" y="55" width="48" height="1" fill="var(--foreground)" shape-rendering="crispEdges" />
    <rect x="49" y="55" width="79" height="1" fill="var(--foreground)" shape-rendering="crispEdges" />
    <rect x="0" y="56" width="30" height="1" fill="var(--foreground)" shape-rendering="crispEdges" />
    <rect x="31" y="56" width="1" height="1" fill="var(--foreground)" shape-rendering="crispEdges" />
    <rect x="33" y="56" width="1" height="1" fill="var(--foreground)" shape-rendering="crispEdges" />
    <rect x="35" y="56" width="1" height="1" fill="var(--foreground)" shape-rendering="crispEdges" />
    <rect x="37" y="56" width="1" height="1" fill="var(--foreground)" shape-rendering="crispEdges" />
    <rect x="39" y="56" width="1" height="1" fill="var(--foreground)" shape-rendering="crispEdges" />
    <rect x="41" y="56" width="1" height="1" fill="var(--foreground)" shape-rendering="crispEdges" />
    <rect x="43" y="56" width="1" height="1" fill="var(--foreground)" shape-rendering="crispEdges" />
    <rect x="45" y="56" width="1" height="1" fill="var(--foreground)" shape-rendering="crispEdges" />
    <rect x="47" y="56" width="1" height="1" fill="var(--foreground)" shape-rendering="crispEdges" />
    <rect x="49" y="56" width="14" height="2" fill="var(--foreground)" shape-rendering="crispEdges" />
    <rect x="65" y="56" width="1" height="1" fill="var(--foreground)" shape-rendering="crispEdges" />
    <rect x="82" y="56" width="1" height="1" fill="var(--foreground)" shape-rendering="crispEdges" />
    <rect x="85" y="56" width="43" height="7" fill="var(--foreground)" shape-rendering="crispEdges" />
    <rect x="0" y="57" width="2" height="5" fill="var(--foreground)" shape-rendering="crispEdges" />
    <rect x="6" y="57" width="1" height="1" fill="var(--foreground)" shape-rendering="crispEdges" />
    <rect x="8" y="57" width="3" height="1" fill="var(--foreground)" shape-rendering="crispEdges" />
    <rect x="12" y="57" width="2" height="1" fill="var(--foreground)" shape-rendering="crispEdges" />
    <rect x="15" y="57" width="3" height="4" fill="var(--foreground)" shape-rendering="crispEdges" />
    <rect x="22" y="57" width="1" height="1" fill="var(--foreground)" shape-rendering="crispEdges" />
    <rect x="24" y="57" width="2" height="3" fill="var(--foreground)" shape-rendering="crispEdges" />
    <rect x="27" y="57" width="21" height="1" fill="var(--foreground)" shape-rendering="crispEdges" />
    <rect x="64" y="57" width="2" height="5" fill="var(--foreground)" shape-rendering="crispEdges" />
    <rect x="67" y="57" width="1" height="2" fill="var(--foreground)" shape-rendering="crispEdges" />
    <rect x="70" y="57" width="1" height="2" fill="var(--foreground)" shape-rendering="crispEdges" />
    <rect x="73" y="57" width="2" height="1" fill="var(--foreground)" shape-rendering="crispEdges" />
    <rect x="78" y="57" width="1" height="1" fill="var(--foreground)" shape-rendering="crispEdges" />
    <rect x="82" y="57" width="2" height="5" fill="var(--foreground)" shape-rendering="crispEdges" />
    <rect x="3" y="58" width="5" height="1" fill="var(--foreground)" shape-rendering="crispEdges" />
    <rect x="9" y="58" width="1" height="1" fill="var(--foreground)" shape-rendering="crispEdges" />
    <rect x="11" y="58" width="3" height="1" fill="var(--foreground)" shape-rendering="crispEdges" />
    <rect x="19" y="58" width="4" height="1" fill="var(--foreground)" shape-rendering="crispEdges" />
    <rect x="27" y="58" width="1" height="1" fill="var(--foreground)" shape-rendering="crispEdges" />
    <rect x="29" y="58" width="1" height="1" fill="var(--foreground)" shape-rendering="crispEdges" />
    <rect x="47" y="58" width="1" height="3" fill="var(--foreground)" shape-rendering="crispEdges" />
    <rect x="49" y="58" width="10" height="1" fill="var(--foreground)" shape-rendering="crispEdges" />
    <rect x="60" y="58" width="3" height="1" fill="var(--foreground)" shape-rendering="crispEdges" />
    <rect x="72" y="58" width="1" height="3" fill="var(--foreground)" shape-rendering="crispEdges" />
    <rect x="75" y="58" width="1" height="3" fill="var(--foreground)" shape-rendering="crispEdges" />
    <rect x="77" y="58" width="2" height="1" fill="var(--foreground)" shape-rendering="crispEdges" />
    <rect x="5" y="59" width="4" height="1" fill="var(--foreground)" shape-rendering="crispEdges" />
    <rect x="10" y="59" width="4" height="1" fill="var(--foreground)" shape-rendering="crispEdges" />
    <rect x="21" y="59" width="2" height="1" fill="var(--foreground)" shape-rendering="crispEdges" />
    <rect x="27" y="59" width="3" height="1" fill="var(--foreground)" shape-rendering="crispEdges" />
    <rect x="49" y="59" width="14" height="1" fill="var(--foreground)" shape-rendering="crispEdges" />
    <rect x="67" y="59" width="4" height="1" fill="var(--foreground)" shape-rendering="crispEdges" />
    <rect x="78" y="59" width="1" height="2" fill="var(--foreground)" shape-rendering="crispEdges" />
    <rect x="3" y="60" width="5" height="1" fill="var(--foreground)" shape-rendering="crispEdges" />
    <rect x="9" y="60" width="1" height="1" fill="var(--foreground)" shape-rendering="crispEdges" />
    <rect x="11" y="60" width="3" height="1" fill="var(--foreground)" shape-rendering="crispEdges" />
    <rect x="19" y="60" width="4" height="1" fill="var(--foreground)" shape-rendering="crispEdges" />
    <rect x="24" y="60" width="1" height="1" fill="var(--foreground)" shape-rendering="crispEdges" />
    <rect x="26" y="60" width="2" height="1" fill="var(--foreground)" shape-rendering="crispEdges" />
    <rect x="29" y="60" width="1" height="1" fill="var(--foreground)" shape-rendering="crispEdges" />
    <rect x="49" y="60" width="10" height="1" fill="var(--foreground)" shape-rendering="crispEdges" />
    <rect x="60" y="60" width="3" height="1" fill="var(--foreground)" shape-rendering="crispEdges" />
    <rect x="67" y="60" width="1" height="2" fill="var(--foreground)" shape-rendering="crispEdges" />
    <rect x="70" y="60" width="1" height="2" fill="var(--foreground)" shape-rendering="crispEdges" />
    <rect x="3" y="61" width="4" height="1" fill="var(--foreground)" shape-rendering="crispEdges" />
    <rect x="8" y="61" width="3" height="1" fill="var(--foreground)" shape-rendering="crispEdges" />
    <rect x="12" y="61" width="2" height="1" fill="var(--foreground)" shape-rendering="crispEdges" />
    <rect x="17" y="61" width="1" height="1" fill="var(--foreground)" shape-rendering="crispEdges" />
    <rect x="22" y="61" width="2" height="1" fill="var(--foreground)" shape-rendering="crispEdges" />
    <rect x="25" y="61" width="23" height="1" fill="var(--foreground)" shape-rendering="crispEdges" />
    <rect x="49" y="61" width="2" height="1" fill="var(--foreground)" shape-rendering="crispEdges" />
    <rect x="54" y="61" width="1" height="1" fill="var(--foreground)" shape-rendering="crispEdges" />
    <rect x="58" y="61" width="5" height="1" fill="var(--foreground)" shape-rendering="crispEdges" />
    <rect x="73" y="61" width="2" height="1" fill="var(--foreground)" shape-rendering="crispEdges" />
    <rect x="77" y="61" width="3" height="1" fill="var(--foreground)" shape-rendering="crispEdges" />
    <rect x="0" y="62" width="30" height="1" fill="var(--foreground)" shape-rendering="crispEdges" />
    <rect x="31" y="62" width="1" height="1" fill="var(--foreground)" shape-rendering="crispEdges" />
    <rect x="33" y="62" width="1" height="1" fill="var(--foreground)" shape-rendering="crispEdges" />
    <rect x="35" y="62" width="1" height="1" fill="var(--foreground)" shape-rendering="crispEdges" />
    <rect x="37" y="62" width="1" height="1" fill="var(--foreground)" shape-rendering="crispEdges" />
    <rect x="39" y="62" width="1" height="1" fill="var(--foreground)" shape-rendering="crispEdges" />
    <rect x="41" y="62" width="1" height="1" fill="var(--foreground)" shape-rendering="crispEdges" />
    <rect x="43" y="62" width="1" height="1" fill="var(--foreground)" shape-rendering="crispEdges" />
    <rect x="45" y="62" width="1" height="1" fill="var(--foreground)" shape-rendering="crispEdges" />
    <rect x="47" y="62" width="1" height="1" fill="var(--foreground)" shape-rendering="crispEdges" />
    <rect x="49" y="62" width="14" height="1" fill="var(--foreground)" shape-rendering="crispEdges" />
    <rect x="65" y="62" width="1" height="1" fill="var(--foreground)" shape-rendering="crispEdges" />
    <rect x="82" y="62" width="1" height="1" fill="var(--foreground)" shape-rendering="crispEdges" />
    <rect x="0" y="63" width="48" height="1" fill="var(--foreground)" shape-rendering="crispEdges" />
    <rect x="49" y="63" width="79" height="1" fill="var(--foreground)" shape-rendering="crispEdges" />
  </g>
</svg>